<?xml version="1.0" encoding="iso-8859-1"?>
<!-- Generator: Adobe Illustrator 22.1.0, SVG Export Plug-In . SVG Version: 6.00 Build 0)  -->
<svg xmlns="http://www.w3.org/2000/svg" xmlns:xlink="http://www.w3.org/1999/xlink" version="1.1" id="Layer_3" x="0px" y="0px" viewBox="0 0 64 64" style="enable-background:new 0 0 64 64;" xml:space="preserve" width="512" height="512">
<g>
	<g>
		<path style="fill:#919191;" d="M23,28l-10,3l1.516,1.705C14.516,32.705,7,37,7,37c-2.761,0-5,2.238-5,5C2,44.703,4.297,47,7,47    c2.761,0,5-2.239,5-5l9-2l-2.881,16.495C18.04,56.831,18,57.174,18,57.519v0.012C18,59.999,20.001,62,22.469,62h0    c1.57,0,3.025-0.824,3.833-2.17L30,54h4l3.698,5.83c0.808,1.346,2.263,2.17,3.833,2.17h0C43.999,62,46,59.999,46,57.531v-0.012    c0-0.345-0.04-0.688-0.119-1.024L43,40l9,2c0,2.761,2.238,5,5,5c2.703,0,5.001-2.297,5-5c0-2.761-2.239-5-5-5l-7.516-4.295L51,31    l-10-3"/>
	</g>
	<g>
		<path style="fill:#B9B9B9;" d="M41,28l10,3l-8,9l2.881,16.495C45.96,56.831,46,57.174,46,57.519v0.012    C46,59.999,43.999,62,41.531,62h0c-1.57,0-3.025-0.824-3.833-2.17L34,54h-4l-3.698,5.83C25.494,61.176,24.039,62,22.469,62h0    C20.001,62,18,59.999,18,57.531v-0.012c0-0.345,0.04-0.688,0.119-1.024L21,40l-8-9l10-3"/>
	</g>
	<g>
		<path style="fill:#919191;" d="M18.359,55.12l-0.24,1.375C18.04,56.831,18,57.174,18,57.519v0.012C18,59.999,20.001,62,22.469,62    c1.57,0,3.025-0.824,3.833-2.17l1.08-1.703L18.359,55.12z"/>
	</g>
	<g>
		<path style="fill:#919191;" d="M37.698,59.83c0.808,1.346,2.263,2.17,3.833,2.17C43.999,62,46,59.999,46,57.531v-0.012    c0-0.345-0.04-0.688-0.119-1.024l-0.24-1.375l-9.023,3.008L37.698,59.83z"/>
	</g>
	<g>
		<polygon style="fill:#B9B9B9;" points="47.944,41.099 51.156,41.812 55.758,36.29 51.938,34.108   "/>
	</g>
	<g>
		<polygon style="fill:#B9B9B9;" points="8.242,36.29 12.844,41.812 16.056,41.099 12.062,34.108   "/>
	</g>
	<g>
		<path d="M20.253,40.664l-8-9c-0.228-0.255-0.309-0.608-0.215-0.937c0.093-0.329,0.348-0.587,0.675-0.686l10-3l0.574,1.916    l-8.498,2.55l6.958,7.828L20.253,40.664z"/>
	</g>
	<g>
		<path d="M43.747,40.664l-1.494-1.328l6.958-7.828l-8.498-2.55l0.574-1.916l10,3c0.327,0.099,0.582,0.356,0.675,0.686    c0.094,0.328,0.013,0.682-0.215,0.937L43.747,40.664z"/>
	</g>
	<g>
		<circle style="fill:#919191;" cx="23" cy="50" r="2"/>
	</g>
	<g>
		<circle style="fill:#919191;" cx="41" cy="50" r="2"/>
	</g>
	<g>
		<circle style="fill:#919191;" cx="23" cy="37" r="3"/>
	</g>
	<g>
		<circle style="fill:#919191;" cx="41" cy="37" r="3"/>
	</g>
	<g>
		<path style="fill:#B9B9B9;" d="M49,13l-2.704-0.541C44.372,6.395,38.701,2,32,2c-6.701,0-12.372,4.395-14.296,10.459L15,13l1,9    h1.872c2.061,5.822,7.6,10,14.128,10c6.528,0,12.067-4.178,14.128-10H48L49,13z"/>
	</g>
	<g>
		<path style="fill:#919191;" d="M40,9l-4-2l-2,4h-4l-2-4l-4,2l-4,6l2,6v7.153c1.647,1.482,3.62,2.602,5.804,3.239L30,27h4    l2.196,4.392c2.184-0.638,4.157-1.757,5.804-3.239V21l2-6L40,9z"/>
	</g>
	<g>
		<path d="M32,33c-6.518,0-12.384-3.99-14.818-10H16c-0.51,0-0.938-0.383-0.994-0.89l-1-9c-0.057-0.516,0.289-0.989,0.798-1.091    l2.138-0.428C19.218,5.232,25.196,1,32,1s12.782,4.232,15.059,10.592l2.138,0.428c0.509,0.102,0.854,0.575,0.798,1.091l-1,9    C48.938,22.617,48.51,23,48,23h-1.182C44.384,29.01,38.518,33,32,33z M16.896,21h0.977c0.424,0,0.801,0.267,0.942,0.666    C20.791,27.249,26.09,31,32,31s11.209-3.751,13.186-9.334C45.327,21.267,45.704,21,46.128,21h0.977l0.801-7.199L46.1,13.439    c-0.356-0.071-0.646-0.331-0.757-0.678C43.49,6.923,38.128,3,32,3s-11.49,3.923-13.343,9.762c-0.11,0.347-0.4,0.606-0.757,0.678    l-1.806,0.361L16.896,21z"/>
	</g>
	<g>
		<path d="M22.47,63C19.454,63,17,60.546,17,57.53c0-0.434,0.049-0.855,0.146-1.265l2.612-14.965l-6.812,1.514    C12.546,45.739,10.032,48,7,48c-3.252,0-6-2.748-6-6c0-3.216,2.543-5.849,5.724-5.994l6.78-3.874l0.992,1.736l-7,4    C7.345,37.954,7.174,38,7,38c-2.206,0-4,1.794-4,4c0,2.168,1.832,4,4,4c2.206,0,4-1.794,4-4c0-0.469,0.325-0.874,0.783-0.977l9-2    c0.327-0.07,0.667,0.023,0.907,0.254c0.241,0.23,0.353,0.565,0.295,0.895l-2.881,16.495C19.031,56.984,19,57.252,19,57.519    C19,59.443,20.557,61,22.47,61c1.212,0,2.352-0.646,2.975-1.685l3.711-5.852l1.689,1.072l-3.698,5.83    C26.177,61.982,24.38,63,22.47,63z"/>
	</g>
	<g>
		<path d="M43,28h-2v-7c0-0.107,0.018-0.214,0.052-0.316l1.845-5.536l-3.581-5.372l-2.868-1.434l-1.553,3.105    C34.725,11.786,34.379,12,34,12h-4c-0.379,0-0.725-0.214-0.895-0.553l-1.553-3.105l-2.868,1.434l-3.581,5.372l1.845,5.536    C22.982,20.786,23,20.893,23,21v7h-2v-6.838l-1.948-5.846c-0.098-0.293-0.055-0.614,0.116-0.871l4-6    c0.097-0.145,0.229-0.262,0.385-0.34l4-2c0.493-0.245,1.094-0.047,1.342,0.447L30.618,10h2.764l1.724-3.447    c0.248-0.494,0.848-0.692,1.342-0.447l4,2c0.155,0.078,0.288,0.195,0.385,0.34l4,6c0.171,0.257,0.214,0.578,0.116,0.871L43,21.162    V28z"/>
	</g>
	<g>
		<path d="M35.105,31.447L33.382,28h-2.764l-1.724,3.447l-1.789-0.895l2-4C29.275,26.214,29.621,26,30,26h4    c0.379,0,0.725,0.214,0.895,0.553l2,4L35.105,31.447z"/>
	</g>
	<g>
		<rect x="13" y="33.469" transform="matrix(0.8682 -0.4961 0.4961 0.8682 -16.7606 11.8868)" width="2" height="8.062"/>
	</g>
	<g>
		<rect x="9.499" y="35.095" transform="matrix(0.7682 -0.6402 0.6402 0.7682 -22.5335 15.7613)" width="2.001" height="7.81"/>
	</g>
	<g>
		<path d="M41.53,63c-1.91,0-3.707-1.018-4.689-2.655l-3.686-5.809l1.689-1.072l3.698,5.83C39.179,60.354,40.318,61,41.53,61    c1.913,0,3.47-1.557,3.47-3.47c0-0.278-0.031-0.546-0.093-0.806l-2.893-16.553c-0.058-0.329,0.054-0.664,0.295-0.895    s0.581-0.323,0.907-0.254l9,2C52.675,41.126,53,41.531,53,42c0,2.206,1.794,4,4,4c2.168,0,4-1.832,4-4c0-2.206-1.794-4-4-4    c-0.174,0-0.345-0.046-0.496-0.132l-7-4l0.992-1.736l6.78,3.874C60.457,36.151,63,38.784,63,42c0,3.252-2.748,6-6,6    c-3.032,0-5.546-2.261-5.945-5.186l-6.812-1.514l2.624,15.022C46.951,56.675,47,57.097,47,57.519C47,60.546,44.546,63,41.53,63z"/>
	</g>
	<g>
		<rect x="45.969" y="36.5" transform="matrix(0.4961 -0.8682 0.8682 0.4961 -7.3661 62.3069)" width="8.062" height="2"/>
	</g>
	<g>
		<rect x="49.595" y="37.999" transform="matrix(0.6403 -0.7681 0.7681 0.6403 -10.7125 55.1246)" width="7.81" height="2.001"/>
	</g>
	<g>
		<path d="M23,41c-2.206,0-4-1.794-4-4s1.794-4,4-4s4,1.794,4,4S25.206,41,23,41z M23,35c-1.103,0-2,0.897-2,2s0.897,2,2,2    s2-0.897,2-2S24.103,35,23,35z"/>
	</g>
	<g>
		<path d="M41,41c-2.206,0-4-1.794-4-4s1.794-4,4-4s4,1.794,4,4S43.206,41,41,41z M41,35c-1.103,0-2,0.897-2,2s0.897,2,2,2    s2-0.897,2-2S42.103,35,41,35z"/>
	</g>
	<g>
		<path d="M27,45h-6v-2h5.586l2.707-2.707l1.414,1.414l-3,3C27.52,44.895,27.266,45,27,45z"/>
	</g>
	<g>
		<path d="M43,45h-6c-0.266,0-0.52-0.105-0.707-0.293l-3-3l1.414-1.414L37.414,43H43V45z"/>
	</g>
	<g>
		<path d="M23,53c-1.654,0-3-1.346-3-3s1.346-3,3-3s3,1.346,3,3S24.654,53,23,53z M23,49c-0.552,0-1,0.448-1,1s0.448,1,1,1    s1-0.448,1-1S23.552,49,23,49z"/>
	</g>
	<g>
		<path d="M41,53c-1.654,0-3-1.346-3-3s1.346-3,3-3s3,1.346,3,3S42.654,53,41,53z M41,49c-0.552,0-1,0.448-1,1s0.448,1,1,1    s1-0.448,1-1S41.552,49,41,49z"/>
	</g>
	<g>
		<path d="M34,55h-4c-0.379,0-0.725-0.214-0.895-0.553L27.382,51H25v-2h3c0.379,0,0.725,0.214,0.895,0.553L30.618,53h2.764    l1.724-3.447C35.275,49.214,35.621,49,36,49h3v2h-2.382l-1.724,3.447C34.725,54.786,34.379,55,34,55z"/>
	</g>
	<g>
		<rect x="21.5" y="51.757" transform="matrix(0.3162 -0.9487 0.9487 0.3162 -38.2157 59.9785)" width="1.999" height="9.487"/>
	</g>
	<g>
		<rect x="36.757" y="55.5" transform="matrix(0.9486 -0.3165 0.3165 0.9486 -15.7497 16.0405)" width="9.487" height="1.999"/>
	</g>
</g>
</svg>
