<?xml version="1.0" encoding="iso-8859-1"?>
<!-- Generator: Adobe Illustrator 22.1.0, SVG Export Plug-In . SVG Version: 6.00 Build 0)  -->
<svg xmlns="http://www.w3.org/2000/svg" xmlns:xlink="http://www.w3.org/1999/xlink" version="1.1" id="Layer_3" x="0px" y="0px" viewBox="0 0 64 64" style="enable-background:new 0 0 64 64;" xml:space="preserve" width="512" height="512">
<g>
	<g>
		<path style="fill:#566164;" d="M42,28l15,9c2.761,0,5,2.238,5,5c0,2.703-2.297,5.001-5,5c-2.761,0-5-2.239-5-5l-10-2l3.881,16.495    C45.96,56.831,46,57.174,46,57.519v0.012C46,59.999,43.999,62,41.531,62h0c-1.57,0-3.025-0.824-3.833-2.17L36,57h-8l-1.698,2.83    C25.494,61.176,24.039,62,22.469,62h0C20.001,62,18,59.999,18,57.531v-0.012c0-0.345,0.04-0.688,0.119-1.024L22,40l-10,2    c0,2.761-2.238,5-5,5C4.297,47,2,44.703,2,42c0-2.761,2.239-5,5-5l15-9"/>
	</g>
	<g>
		<rect x="27" y="46" style="fill:#B9B9B9;" width="10" height="4"/>
	</g>
	<g>
		<path style="fill:#CA5057;" d="M46,57.519c0-0.345-0.04-0.688-0.119-1.024L43.412,46H35l2,5l4,2l3.075,8.199    C45.236,60.392,46,59.052,46,57.531V57.519z"/>
	</g>
	<g>
		<path style="fill:#CA5057;" d="M27,51l2-5h-8.412l-2.469,10.495C18.04,56.831,18,57.174,18,57.519v0.012    c0,1.522,0.764,2.862,1.925,3.669L23,53L27,51z"/>
	</g>
	<g>
		<polygon style="fill:#B9B9B9;" points="42.941,44 39,44 40,48 43.882,48   "/>
	</g>
	<g>
		<polygon style="fill:#B9B9B9;" points="20.118,48 24,48 25,44 21.059,44   "/>
	</g>
	<g>
		<path style="fill:#DC6068;" d="M29,39v4c0,1.657,1.343,3,3,3h0c1.657,0,3-1.343,3-3v-4"/>
	</g>
	<g>
		<polygon style="fill:#CA5057;" points="32,40 38,39 38,35 32,36 26,35 26,39   "/>
	</g>
	<g>
		<path style="fill:#CA5057;" d="M45.092,35.077l-5.895-4.913c1.061-0.581,2.044-1.287,2.929-2.097l-0.006,0.005    c0,0,3.998,2.399,3.998,2.399l-1.023,4.603"/>
	</g>
	<g>
		<path style="fill:#CA5057;" d="M24.802,30.165c0,0-5.896,4.913-5.896,4.913c0,0-1.024-4.608-1.024-4.608    c0,0,3.998-2.399,3.998-2.399c0.883,0.808,1.863,1.511,2.921,2.091"/>
	</g>
	<g>
		<polygon style="fill:#B9B9B9;" points="43.915,40.383 50.205,41.641 53.915,35.149 46.118,30.471   "/>
	</g>
	<g>
		<polygon style="fill:#B9B9B9;" points="13.795,41.641 20.085,40.383 17.882,30.471 10.085,35.149   "/>
	</g>
	<g>
		<path style="fill:#B9B9B9;" d="M15,13h-2v11l7.73,2.899C23.479,30.026,27.509,32,32,32s8.521-1.974,11.27-5.101l0,0L51,24V13h-2V4    c0-1.105-0.895-2-2-2h0c-1.105,0-2,0.895-2,2v5.513l0,0C42.409,5.022,37.557,2,32,2c-5.557,0-10.409,3.022-13,7.512l0,0V4    c0-1.105-0.895-2-2-2h0c-1.105,0-2,0.895-2,2V13z"/>
	</g>
	<g>
		<path style="fill:#919191;" d="M36,27l11-7v-7h4v11l-7.73,2.899l0,0C40.521,30.026,36.491,32,32,32s-8.521-1.974-11.27-5.101    L13,24V13h4v7l11,7"/>
	</g>
	<g>
		<circle style="fill:#939FA5;" cx="32" cy="28" r="4"/>
	</g>
	<g>
		<path style="fill:#919191;" d="M24,4.309l0,9.091l2-0.4l2,2c0,0,0-12.461,0-12.461C26.57,2.934,25.225,3.535,24,4.309z"/>
	</g>
	<g>
		<path style="fill:#919191;" d="M40,4.309V13.4L38,13l-2,2c0,0,0-12.461,0-12.461C37.43,2.934,38.775,3.535,40,4.309z"/>
	</g>
	<g>
		<polygon style="fill:#CA5057;" points="28,20 30,17 26,13 21,14 21,18 24,20   "/>
	</g>
	<g>
		<polygon style="fill:#CA5057;" points="36,20 34,17 38,13 43,14 43,18 40,20   "/>
	</g>
	<g>
		<path d="M41.531,63c-1.91,0-3.708-1.018-4.69-2.655L35.434,58h-6.868l-1.407,2.345C26.177,61.982,24.379,63,22.469,63    C19.454,63,17,60.546,17,57.531c0-0.432,0.049-0.853,0.145-1.264l3.525-14.981l-7.728,1.545C12.537,45.748,10.026,48,7,48    c-3.252,0-6-2.748-6-6c0-3.211,2.537-5.842,5.711-5.993l14.774-8.864l1.029,1.715l-15,9C7.359,37.951,7.181,38,7,38    c-2.206,0-4,1.794-4,4c0,2.168,1.832,4,4,4c2.206,0,4-1.794,4-4c0-0.477,0.336-0.887,0.804-0.98l10-2    c0.336-0.067,0.679,0.041,0.915,0.285c0.237,0.245,0.333,0.593,0.255,0.924l-3.881,16.495C19.031,56.984,19,57.252,19,57.519    C19,59.444,20.556,61,22.469,61c1.212,0,2.352-0.646,2.975-1.685l1.698-2.83C27.323,56.184,27.649,56,28,56h8    c0.351,0,0.677,0.184,0.857,0.485l1.698,2.83C39.179,60.354,40.319,61,41.531,61C43.444,61,45,59.444,45,57.531    c0-0.279-0.031-0.546-0.092-0.808l-3.881-16.494c-0.078-0.331,0.018-0.679,0.255-0.924c0.237-0.245,0.584-0.35,0.915-0.285l10,2    C52.664,41.113,53,41.523,53,42c0,2.206,1.794,4,4,4c2.168,0,4-1.832,4-4c0-2.206-1.794-4-4-4c-0.181,0-0.359-0.049-0.515-0.143    l-15-9l1.029-1.715l14.774,8.864C60.463,36.158,63,38.788,63,42c0,3.252-2.748,6-6,6c-3.026,0-5.536-2.252-5.942-5.169    l-7.728-1.545l3.525,14.98C46.951,56.678,47,57.099,47,57.519C47,60.546,44.546,63,41.531,63z"/>
	</g>
	<g>
		<path d="M32,33c-2.757,0-5-2.243-5-5s2.243-5,5-5s5,2.243,5,5S34.757,33,32,33z M32,25c-1.654,0-3,1.346-3,3s1.346,3,3,3    s3-1.346,3-3S33.654,25,32,25z"/>
	</g>
	<g>
		<path d="M28,21h-4c-0.197,0-0.391-0.059-0.555-0.168l-3-2C20.167,18.646,20,18.334,20,18v-4c0-0.477,0.336-0.887,0.804-0.98l5-1    c0.329-0.066,0.667,0.037,0.903,0.273l4,4c0.337,0.337,0.39,0.865,0.125,1.262l-2,3C28.646,20.833,28.334,21,28,21z M24.303,19    h3.162l1.249-1.873l-3.042-3.042L22,14.82v2.645L24.303,19z"/>
	</g>
	<g>
		<path d="M40,21h-4c-0.334,0-0.646-0.167-0.832-0.445l-2-3c-0.265-0.396-0.212-0.925,0.125-1.262l4-4    c0.236-0.237,0.576-0.34,0.903-0.273l5,1C43.664,13.113,44,13.523,44,14v4c0,0.334-0.167,0.646-0.445,0.832l-3,2    C40.391,20.941,40.197,21,40,21z M36.535,19h3.162L42,17.465V14.82l-3.671-0.734l-3.042,3.042L36.535,19z"/>
	</g>
	<g>
		<circle cx="32" cy="28" r="2"/>
	</g>
	<g>
		<rect x="28" y="19.764" transform="matrix(0.8944 -0.4472 0.4472 0.8944 -6.7771 15.2918)" width="2" height="4.472"/>
	</g>
	<g>
		<rect x="32.764" y="21" transform="matrix(0.4472 -0.8944 0.8944 0.4472 -0.3299 43.4663)" width="4.472" height="2"/>
	</g>
	<g>
		<rect x="30" y="16" width="4" height="2"/>
	</g>
	<g>
		<rect x="31" y="17" width="2" height="7"/>
	</g>
	<g>
		<rect x="14" y="17.438" transform="matrix(0.2425 -0.9701 0.9701 0.2425 -7.5558 29.3227)" width="2" height="4.123"/>
	</g>
	<g>
		<path d="M50,13h-2V4c0-0.551-0.449-1-1-1s-1,0.449-1,1v5.513c0,0.453-0.304,0.849-0.741,0.966    c-0.436,0.117-0.899-0.073-1.125-0.466C41.638,5.687,36.988,3,32,3s-9.638,2.687-12.134,7.012    c-0.227,0.393-0.688,0.584-1.125,0.466C18.304,10.361,18,9.965,18,9.512L18,4c0-0.551-0.449-1-1-1s-1,0.449-1,1v9h-2V4    c0-1.654,1.346-3,3-3s3,1.346,3,3v2.42C23.007,3.02,27.376,1,32,1s8.992,2.02,12,5.42V4c0-1.654,1.346-3,3-3s3,1.346,3,3V13z"/>
	</g>
	<g>
		<path d="M32,33c-4.516,0-8.821-1.911-11.852-5.251l-7.499-2.812C12.259,24.79,12,24.417,12,24V13c0-0.552,0.448-1,1-1h4    c0.552,0,1,0.448,1,1v6.451l10.537,6.705l-1.074,1.688l-11-7C16.175,20.66,16,20.342,16,20v-6h-2v9.307l7.081,2.655    c0.154,0.058,0.292,0.153,0.4,0.276C24.14,29.265,27.974,31,32,31s7.86-1.735,10.52-4.762c0.108-0.124,0.246-0.218,0.4-0.276    L50,23.307V14h-2v6c0,0.342-0.175,0.66-0.463,0.844l-11,7l-1.074-1.688L46,19.451V13c0-0.552,0.448-1,1-1h4c0.552,0,1,0.448,1,1    v11c0,0.417-0.259,0.79-0.649,0.937l-7.499,2.812C40.821,31.089,36.516,33,32,33z"/>
	</g>
	<g>
		<rect x="46.938" y="18.5" transform="matrix(0.9701 -0.2427 0.2427 0.9701 -3.2673 12.4727)" width="4.123" height="2"/>
	</g>
	<g>
		<rect x="42" y="22.764" transform="matrix(0.8944 -0.4472 0.4472 0.8944 -6.6407 21.8695)" width="2" height="4.472"/>
	</g>
	<g>
		<rect x="18.764" y="24" transform="matrix(0.4472 -0.8944 0.8944 0.4472 -10.7522 32.6026)" width="4.472" height="2"/>
	</g>
	<g>
		<rect x="11" y="34.469" transform="matrix(0.8682 -0.4961 0.4961 0.8682 -17.5203 11.0263)" width="2" height="8.062"/>
	</g>
	<g>
		<rect x="18" y="30.89" transform="matrix(0.9762 -0.2169 0.2169 0.9762 -7.2486 4.967)" width="2" height="9.22"/>
	</g>
	<g>
		<rect x="18.095" y="31.5" transform="matrix(0.7682 -0.6402 0.6402 0.7682 -15.7075 21.6192)" width="7.81" height="2"/>
	</g>
	<g>
		<path d="M24,49h-4v-2h3.219l0.5-2H21v-2h4c0.308,0,0.599,0.142,0.788,0.385s0.257,0.559,0.182,0.858l-1,4    C24.859,48.688,24.459,49,24,49z"/>
	</g>
	<g>
		<path d="M20.937,61.351l-1.873-0.702l3-8c0.089-0.236,0.264-0.431,0.489-0.543l3.66-1.83L27.523,47H24v-2h5    c0.332,0,0.642,0.165,0.828,0.439s0.224,0.624,0.101,0.932l-2,5c-0.091,0.227-0.262,0.413-0.481,0.523l-3.649,1.824L20.937,61.351    z"/>
	</g>
	<g>
		<rect x="22" y="56" width="3" height="2"/>
	</g>
	<g>
		<rect x="47.969" y="37.5" transform="matrix(0.4961 -0.8682 0.8682 0.4961 -7.2266 64.5473)" width="8.062" height="2"/>
	</g>
	<g>
		<rect x="40.39" y="34.5" transform="matrix(0.2168 -0.9762 0.9762 0.2168 0.5873 71.7321)" width="9.22" height="2"/>
	</g>
	<g>
		<rect x="41" y="28.595" transform="matrix(0.6402 -0.7682 0.7682 0.6402 -9.8549 43.9593)" width="2" height="7.81"/>
	</g>
	<g>
		<path d="M44,49h-4c-0.459,0-0.859-0.312-0.97-0.757l-1-4c-0.075-0.299-0.007-0.615,0.182-0.858S38.692,43,39,43h4v2h-2.719l0.5,2    H44V49z"/>
	</g>
	<g>
		<path d="M43.063,61.351l-2.862-7.632l-3.649-1.824c-0.219-0.11-0.39-0.296-0.481-0.523l-2-5c-0.123-0.308-0.085-0.657,0.101-0.932    S34.668,45,35,45h5v2h-3.523l1.31,3.275l3.66,1.83c0.226,0.113,0.4,0.307,0.489,0.543l3,8L43.063,61.351z"/>
	</g>
	<g>
		<rect x="39" y="56" width="3" height="2"/>
	</g>
	<g>
		<rect x="27" y="49" width="10" height="2"/>
	</g>
	<g>
		<path d="M32,41c-0.055,0-0.11-0.004-0.165-0.014l-6-1C25.354,39.906,25,39.489,25,39v-4c0-0.294,0.129-0.573,0.354-0.763    c0.224-0.189,0.52-0.273,0.811-0.223L32,34.986l5.835-0.973c0.29-0.049,0.586,0.034,0.811,0.223C38.871,34.427,39,34.706,39,35v4    c0,0.489-0.354,0.906-0.835,0.986l-6,1C32.11,40.996,32.055,41,32,41z M27,38.153l5,0.833l5-0.833v-1.972l-4.835,0.806    c-0.109,0.019-0.22,0.019-0.329,0L27,36.181V38.153z"/>
	</g>
	<g>
		<path d="M32,47c-2.206,0-4-1.794-4-4v-4h2v4c0,1.103,0.897,2,2,2s2-0.897,2-2v-4h2v4C36,45.206,34.206,47,32,47z"/>
	</g>
	<g>
		<rect x="23" y="4" width="2" height="9"/>
	</g>
	<g>
		<rect x="27" y="3" width="2" height="12"/>
	</g>
	<g>
		<rect x="39" y="4" width="2" height="9"/>
	</g>
	<g>
		<rect x="35" y="3" width="2" height="12"/>
	</g>
</g>
</svg>
