<?xml version="1.0" encoding="iso-8859-1"?>
<!-- Generator: Adobe Illustrator 22.1.0, SVG Export Plug-In . SVG Version: 6.00 Build 0)  -->
<svg xmlns="http://www.w3.org/2000/svg" xmlns:xlink="http://www.w3.org/1999/xlink" version="1.1" id="Layer_3" x="0px" y="0px" viewBox="0 0 64 64" style="enable-background:new 0 0 64 64;" xml:space="preserve" width="512" height="512">
<g>
	<g>
		<path style="fill:#B9B9B9;" d="M47,17l1-15c0,0-8.649,1.922-8.649,1.922C43.917,6.494,47,11.387,47,17z"/>
	</g>
	<g>
		<path style="fill:#B9B9B9;" d="M17,17L16,2c0,0,8.649,1.922,8.649,1.922C20.083,6.494,17,11.387,17,17z"/>
	</g>
	<g>
		<path style="fill:#B9B9B9;" d="M58.065,37.114L54,30c0,0-3.852,2.889-3.852,2.889L57,37C57.366,37,57.722,37.039,58.065,37.114z"/>
	</g>
	<g>
		<path style="fill:#B9B9B9;" d="M5.935,37.114L10,30c0,0,3.852,2.889,3.852,2.889L7,37C6.634,37,6.278,37.039,5.935,37.114z"/>
	</g>
	<g>
		<path style="fill:#4A4A4A;" d="M42,28l15,9c2.761,0,5,2.238,5,5c0,2.703-2.297,5.001-5,5c-2.761,0-5-2.239-5-5l-10-2l3.881,16.495    C45.96,56.831,46,57.174,46,57.519v0.012C46,59.999,43.999,62,41.531,62h0c-1.57,0-3.025-0.824-3.833-2.17L35,54h-6l-2.698,5.83    C25.494,61.176,24.039,62,22.469,62h0C20.001,62,18,59.999,18,57.531v-0.012c0-0.345,0.04-0.688,0.119-1.024L22,40l-10,2    c0,2.761-2.238,5-5,5C4.297,47,2,44.703,2,42c0-2.761,2.239-5,5-5l15-9"/>
	</g>
	<g>
		<circle style="fill:#707070;" cx="32" cy="17" r="15"/>
	</g>
	<g>
		<path style="fill:#B9B9B9;" d="M29,16c0,2.761-1.791,5-4,5s-4-2.239-4-5c0-1.156,0.314-2.221,0.841-3.068l0.001,0L29,16z"/>
	</g>
	<g>
		<path style="fill:#B9B9B9;" d="M35,16c0,2.761,1.791,5,4,5s4-2.239,4-5c0-1.156-0.314-2.221-0.841-3.068l-0.001,0L35,16z"/>
	</g>
	<g>
		<polygon style="fill:#ABABAB;" points="32,43 34,38 32,35 30,38   "/>
	</g>
	<g>
		<path d="M30.804,37.98l-5-1C25.657,36.951,25.52,36.89,25.4,36.8l-4-3c-0.038-0.028-0.074-0.06-0.107-0.093l-3-3l1.414-1.414    l2.95,2.949l3.762,2.821l4.777,0.956L30.804,37.98z"/>
	</g>
	<g>
		<path d="M34.196,37.98l-0.393-1.961l4.777-0.956l3.762-2.821l2.95-2.949l1.414,1.414l-3,3c-0.033,0.033-0.069,0.064-0.107,0.093    l-4,3c-0.119,0.09-0.257,0.151-0.403,0.181L34.196,37.98z"/>
	</g>
	<g>
		<path d="M32,33c-8.822,0-16-7.178-16-16S23.178,1,32,1s16,7.178,16,16S40.822,33,32,33z M32,3c-7.72,0-14,6.28-14,14    s6.28,14,14,14s14-6.28,14-14S39.72,3,32,3z"/>
	</g>
	<g>
		<path d="M41.53,63c-1.91,0-3.707-1.018-4.689-2.655c-0.019-0.031-0.035-0.062-0.05-0.095L34.361,55h-4.723l-2.43,5.25    c-0.015,0.032-0.031,0.063-0.05,0.095C26.177,61.982,24.38,63,22.47,63C19.454,63,17,60.546,17,57.53    c0-0.434,0.049-0.855,0.146-1.265l3.524-14.979l-7.728,1.545C12.536,45.748,10.026,48,7,48c-3.252,0-6-2.748-6-6    c0-3.212,2.537-5.842,5.712-5.993l14.773-8.864l1.029,1.715l-15,9C7.359,37.951,7.182,38,7,38c-2.206,0-4,1.794-4,4    c0,2.168,1.832,4,4,4c2.206,0,4-1.794,4-4c0-0.477,0.337-0.887,0.804-0.98l10-2c0.335-0.063,0.679,0.041,0.915,0.285    c0.236,0.245,0.333,0.593,0.255,0.925l-3.881,16.495C19.031,56.984,19,57.252,19,57.519C19,59.443,20.557,61,22.47,61    c1.195,0,2.32-0.628,2.948-1.642l2.675-5.778C28.256,53.227,28.61,53,29,53h6c0.39,0,0.744,0.227,0.907,0.58l2.675,5.778    C39.21,60.372,40.335,61,41.53,61c1.913,0,3.47-1.557,3.47-3.47c0-0.278-0.031-0.546-0.093-0.806l-3.881-16.495    c-0.078-0.332,0.019-0.68,0.255-0.925c0.236-0.244,0.581-0.349,0.915-0.285l10,2C52.663,41.113,53,41.523,53,42    c0,2.206,1.794,4,4,4c2.168,0,4-1.832,4-4c0-2.206-1.794-4-4-4c-0.182,0-0.359-0.049-0.515-0.143l-15-9l1.029-1.715l14.773,8.864    C60.463,36.158,63,38.788,63,42c0,3.252-2.748,6-6,6c-3.026,0-5.536-2.252-5.942-5.169l-7.728-1.545l3.524,14.979    C46.951,56.675,47,57.097,47,57.519C47,60.546,44.546,63,41.53,63z"/>
	</g>
	<g>
		<path d="M16.002,17.066l-1-15c-0.021-0.314,0.107-0.62,0.347-0.825c0.24-0.205,0.56-0.284,0.868-0.218l9,2l-0.434,1.953    l-7.696-1.711l0.911,13.668L16.002,17.066z"/>
	</g>
	<g>
		<path d="M47.998,17.066l-1.996-0.133l0.911-13.668l-7.696,1.711l-0.434-1.953l9-2c0.311-0.066,0.629,0.013,0.868,0.218    s0.367,0.511,0.347,0.825L47.998,17.066z"/>
	</g>
	<g>
		<path d="M25,22c-2.757,0-5-2.691-5-6c0-1.309,0.344-2.553,0.993-3.597c0.26-0.42,0.793-0.584,1.242-0.391l7.158,3.068    C29.762,15.238,30,15.6,30,16C30,19.309,27.757,22,25,22z M22.316,14.224C22.11,14.773,22,15.382,22,16c0,2.206,1.346,4,3,4    c1.49,0,2.73-1.456,2.961-3.357L22.316,14.224z"/>
	</g>
	<g>
		<path d="M39,22c-2.757,0-5-2.691-5-6c0-0.4,0.238-0.762,0.606-0.919l7.158-3.067c0.453-0.192,0.98-0.03,1.242,0.391    C43.656,13.447,44,14.69,44,16C44,19.309,41.757,22,39,22z M36.039,16.643C36.27,18.544,37.51,20,39,20c1.654,0,3-1.794,3-4    c0-0.628-0.107-1.229-0.315-1.777L36.039,16.643z"/>
	</g>
	<g>
		<path d="M30,32h-2v-3.764l-1.274-2.548l-1.019,1.019c-0.268,0.267-0.665,0.364-1.023,0.241l-6-2l0.633-1.896l5.413,1.804    l1.563-1.562c0.226-0.228,0.544-0.334,0.867-0.28c0.317,0.052,0.591,0.253,0.734,0.54l2,4C29.964,27.691,30,27.845,30,28V32z"/>
	</g>
	<g>
		<path d="M36,32h-2v-4c0-0.155,0.036-0.309,0.105-0.447l2-4c0.144-0.287,0.417-0.488,0.734-0.54c0.32-0.052,0.641,0.053,0.867,0.28    l1.563,1.562l5.413-1.804l0.633,1.896l-6,2c-0.359,0.123-0.756,0.025-1.023-0.241l-1.019-1.019L36,28.236V32z"/>
	</g>
	<g>
		<path d="M32,9c-0.431,0-0.812-0.275-0.948-0.684l-2-6l1.896-0.633L32,4.838l1.052-3.154l1.896,0.633l-2,6    C32.812,8.725,32.431,9,32,9z"/>
	</g>
	<g>
		<path d="M30,16h-2v-4.697l-1.832-2.748C26.059,8.391,26,8.197,26,8V3h2v4.697l1.832,2.748C29.941,10.609,30,10.803,30,11V16z"/>
	</g>
	<g>
		<path d="M26,14h-2v-2.586l-1.707-1.707C22.105,9.52,22,9.266,22,9V5h2v3.586l1.707,1.707C25.895,10.48,26,10.734,26,11V14z"/>
	</g>
	<g>
		<path d="M36,16h-2v-5c0-0.197,0.059-0.391,0.168-0.555L36,7.697V3h2v5c0,0.197-0.059,0.391-0.168,0.555L36,11.303V16z"/>
	</g>
	<g>
		<path d="M40,14h-2v-3c0-0.266,0.105-0.52,0.293-0.707L40,8.586V5h2v4c0,0.266-0.105,0.52-0.293,0.707L40,11.414V14z"/>
	</g>
	<g>
		<path d="M34,23c-0.152,0-0.306-0.035-0.447-0.105L32,22.118l-1.553,0.776c-0.322,0.16-0.704,0.136-1.002-0.062l-3-2l1.109-1.664    l2.518,1.678l1.48-0.74c0.281-0.141,0.613-0.141,0.895,0l1.48,0.74l2.518-1.678l1.109,1.664l-3,2C34.388,22.943,34.194,23,34,23z"/>
	</g>
	<g>
		<path d="M34.684,16.948L32,16.054l-2.684,0.895l-0.633-1.896l3-1c0.205-0.068,0.428-0.068,0.633,0l3,1L34.684,16.948z"/>
	</g>
	<g>
		<path d="M32,44c-0.409,0-0.776-0.249-0.929-0.629l-2-5c-0.122-0.306-0.086-0.651,0.097-0.926l2-3c0.371-0.557,1.293-0.557,1.664,0    l2,3c0.183,0.274,0.219,0.62,0.097,0.926l-2,5C32.776,43.751,32.409,44,32,44z M31.124,38.117L32,40.308l0.876-2.19L32,36.803    L31.124,38.117z"/>
	</g>
	<g>
		<rect x="22.595" y="33.999" transform="matrix(0.6403 -0.7681 0.7681 0.6403 -17.3524 32.9459)" width="7.81" height="2.001"/>
	</g>
	<g>
		<rect x="18.964" y="31.5" transform="matrix(0.7071 -0.7071 0.7071 0.7071 -16.3909 25.4289)" width="7.071" height="2"/>
	</g>
	<g>
		<rect x="36.499" y="31.095" transform="matrix(0.7682 -0.6402 0.6402 0.7682 -13.7148 32.1192)" width="2.001" height="7.81"/>
	</g>
	<g>
		<rect x="40.5" y="28.964" transform="matrix(0.7071 -0.7071 0.7071 0.7071 -10.8259 38.864)" width="2" height="7.071"/>
	</g>
	<g>
		<rect x="3.307" y="43.5" transform="matrix(0.3711 -0.9286 0.9286 0.3711 -37.5495 33.5598)" width="5.385" height="2"/>
	</g>
	<g>
		<path d="M16.063,41.352l-2.897-7.727l-2.859-2.146l-3.438,6.017l-1.736-0.992l4-7c0.143-0.249,0.385-0.425,0.665-0.483    c0.282-0.058,0.574,0.008,0.803,0.18l4,3c0.153,0.114,0.27,0.271,0.337,0.448l3,8L16.063,41.352z"/>
	</g>
	<g>
		<path d="M23,57c-0.215,0-0.426-0.069-0.6-0.2l-4-3l1.199-1.6l3.658,2.743l5.578-0.93l0.328,1.973l-6,1    C23.109,56.995,23.055,57,23,57z"/>
	</g>
	<g>
		<rect x="21" y="58" width="2" height="4"/>
	</g>
	<g>
		<rect x="10.5" y="34.692" transform="matrix(0.9191 -0.3939 0.3939 0.9191 -14.2361 7.643)" width="1.999" height="7.616"/>
	</g>
	<g>
		<rect x="57" y="41.807" transform="matrix(0.9285 -0.3714 0.3714 0.9285 -12.3785 24.7234)" width="2" height="5.385"/>
	</g>
	<g>
		<path d="M47.937,41.352l-1.873-0.703l3-8c0.067-0.178,0.184-0.334,0.337-0.448l4-3c0.229-0.172,0.52-0.238,0.803-0.18    c0.28,0.059,0.522,0.234,0.665,0.483l4,7l-1.736,0.992l-3.438-6.017l-2.859,2.146L47.937,41.352z"/>
	</g>
	<g>
		<path d="M41,57c-0.055,0-0.109-0.005-0.164-0.014l-6-1l0.328-1.973l5.578,0.93L44.4,52.2l1.199,1.6l-4,3    C41.426,56.931,41.215,57,41,57z"/>
	</g>
	<g>
		<rect x="41" y="58" width="2" height="4"/>
	</g>
	<g>
		<rect x="48.692" y="37.5" transform="matrix(0.3937 -0.9192 0.9192 0.3937 -3.5594 71.6036)" width="7.616" height="1.999"/>
	</g>
	<g>
		<path d="M32,48c-0.153,0-0.307-0.035-0.447-0.105l-4-2c-0.261-0.131-0.452-0.369-0.522-0.652l-1-4l1.939-0.484l0.889,3.554    L32,45.882l3.142-1.57l0.889-3.554l1.939,0.484l-1,4c-0.07,0.283-0.262,0.521-0.522,0.652l-4,2C32.307,47.965,32.153,48,32,48z"/>
	</g>
	<g>
		<path d="M32,52c-0.134,0-0.269-0.027-0.394-0.081l-7-3c-0.151-0.064-0.284-0.166-0.388-0.294l-4-5l1.562-1.25l3.843,4.805    L32,49.912l6.376-2.732l3.843-4.805l1.562,1.25l-4,5c-0.104,0.128-0.236,0.229-0.388,0.294l-7,3C32.269,51.973,32.134,52,32,52z"/>
	</g>
</g>
</svg>
