<?xml version="1.0" encoding="iso-8859-1"?>
<!-- Generator: Adobe Illustrator 22.1.0, SVG Export Plug-In . SVG Version: 6.00 Build 0)  -->
<svg xmlns="http://www.w3.org/2000/svg" xmlns:xlink="http://www.w3.org/1999/xlink" version="1.1" id="Layer_3" x="0px" y="0px" viewBox="0 0 64 64" style="enable-background:new 0 0 64 64;" xml:space="preserve" width="512" height="512">
<g>
	<g>
		<path style="fill:#566164;" d="M42.12,28.072C39.452,30.512,35.9,32,32,32c-3.9,0-7.452-1.488-10.12-3.928L7,37    c-2.761,0-5,2.238-5,5C2,44.703,4.297,47,7,47c2.761,0,5-2.239,5-5l10-4l-3.881,18.495C18.04,56.831,18,57.174,18,57.519v0.012    C18,59.999,20.001,62,22.469,62h0c1.57,0,3.025-0.824,3.833-2.17L30,53h4l3.698,6.83c0.808,1.346,2.263,2.17,3.833,2.17h0    C43.999,62,46,59.999,46,57.531v-0.012c0-0.345-0.04-0.688-0.119-1.024L42,38l10,4c0,2.761,2.238,5,5,5c2.703,0,5.001-2.297,5-5    c0-2.761-2.239-5-5-5L42.12,28.072z"/>
	</g>
	<g>
		<path style="fill:#919191;" d="M12.854,41.659l-2.785-6.499L7,37c-2.761,0-5,2.238-5,5C2,44.703,4.297,47,7,47    c2.761,0,5-2.239,5-5L12.854,41.659z"/>
	</g>
	<g>
		<path style="fill:#919191;" d="M57,37l-3.068-1.841l-2.785,6.499L52,42c0,2.761,2.238,5,5,5c2.703,0,5.001-2.297,5-5    C62,39.238,59.761,37,57,37z"/>
	</g>
	<g>
		<path style="fill:#919191;" d="M18.666,53.889l-0.547,2.606C18.04,56.831,18,57.174,18,57.519v0.012    C18,59.999,20.001,62,22.469,62c1.57,0,3.025-0.824,3.833-2.17l1.558-2.877L18.666,53.889z"/>
	</g>
	<g>
		<path style="fill:#919191;" d="M37.698,59.83c0.808,1.346,2.263,2.17,3.832,2.17h0C43.999,62,46,59.999,46,57.531v-0.012    c0-0.345-0.04-0.688-0.119-1.024l-0.547-2.606l-9.194,3.065L37.698,59.83z"/>
	</g>
	<g>
		<polygon style="fill:#D2A95C;" points="47,40 51.146,41.659 53.932,35.159 50.068,32.841   "/>
	</g>
	<g>
		<polygon style="fill:#D2A95C;" points="12.854,41.659 17,40 13.932,32.841 10.068,35.159   "/>
	</g>
	<g>
		<circle style="fill:#D2A95C;" cx="37" cy="46" r="2"/>
	</g>
	<g>
		<circle style="fill:#D2A95C;" cx="27" cy="46" r="2"/>
	</g>
	<g>
		<circle style="fill:#EDD07A;" cx="32" cy="46" r="3"/>
	</g>
	<g>
		<circle style="fill:#EDD07A;" cx="41" cy="45" r="2"/>
	</g>
	<g>
		<circle style="fill:#EDD07A;" cx="23" cy="45" r="2"/>
	</g>
	<g>
		<path style="fill:#CA5057;" d="M20.333,29l1.547-0.928C24.548,30.512,28.1,32,32,32c3.9,0,7.452-1.488,10.12-3.928    c0,0,1.547,0.928,1.547,0.928h0c4.013,0,7.819-1.783,10.388-4.865L55,23l-3.459-0.432C48.947,22.243,47,20.038,47,17.424V17h0    c0-8.837-7.641-15.889-16.677-14.909C22.652,2.923,17,9.707,17,17.424v0c0,2.614-1.947,4.82-4.541,5.144L9,23l0.945,1.135    C12.515,27.217,16.32,29,20.333,29L20.333,29z"/>
	</g>
	<g>
		<path style="fill:#D8C4A9;" d="M42,28.181V15h-3c-3.866,0-7-3.134-7-7v0v0c0,3.866-3.134,7-7,7h-3c0,0,0,13.181,0,13.181    C24.654,30.556,28.158,32,32,32C35.842,32,39.346,30.556,42,28.181z"/>
	</g>
	<g>
		<circle style="fill:#ABABAB;" cx="28" cy="22" r="2"/>
	</g>
	<g>
		<circle style="fill:#ABABAB;" cx="36" cy="22" r="2"/>
	</g>
	<g>
		<path d="M43.667,30v-2c3.607,0,7.009-1.539,9.388-4.235l-1.638-0.205C48.329,23.173,46,20.536,46,17.424V17    c0-3.97-1.696-7.769-4.653-10.423c-2.997-2.69-6.87-3.93-10.916-3.492C23.344,3.854,18,10.018,18,17.424    c0,3.112-2.329,5.75-5.417,6.136l-1.638,0.205C13.324,26.461,16.725,28,20.333,28v2c-4.322,0-8.388-1.904-11.156-5.225    L8.231,23.64c-0.233-0.281-0.296-0.667-0.161-1.007c0.134-0.34,0.443-0.58,0.806-0.625l3.459-0.432    C14.424,21.314,16,19.529,16,17.424c0-8.429,6.111-15.448,14.216-16.327c4.601-0.502,9.04,0.917,12.467,3.992    C46.062,8.121,48,12.462,48,17v0.424c0,2.105,1.576,3.89,3.665,4.152l3.459,0.432c0.362,0.045,0.672,0.285,0.806,0.625    c0.135,0.34,0.072,0.727-0.161,1.007l-0.945,1.135C52.055,28.096,47.989,30,43.667,30z"/>
	</g>
	<g>
		<path d="M41.53,63c-1.91,0-3.707-1.018-4.689-2.655L33.404,54h-2.809l-3.415,6.307C26.177,61.982,24.38,63,22.47,63    C19.454,63,17,60.546,17,57.53c0-0.434,0.049-0.855,0.146-1.265l3.492-16.644l-7.678,3.071C12.616,45.677,10.074,48,7,48    c-3.252,0-6-2.748-6-6c0-3.212,2.537-5.842,5.712-5.993l14.653-8.792c0.379-0.228,0.862-0.179,1.189,0.12    C25.14,29.698,28.494,31,32,31s6.86-1.302,9.445-3.666c0.326-0.299,0.81-0.348,1.189-0.12l14.653,8.792    C60.463,36.158,63,38.788,63,42c0,3.252-2.748,6-6,6c-3.074,0-5.616-2.323-5.96-5.307l-7.678-3.071l3.497,16.668    C46.951,56.675,47,57.097,47,57.519C47,60.546,44.546,63,41.53,63z M30,52h4c0.367,0,0.705,0.201,0.879,0.523l3.698,6.83    C39.179,60.354,40.318,61,41.53,61c1.913,0,3.47-1.557,3.47-3.47c0-0.278-0.031-0.546-0.093-0.806l-3.886-18.52    c-0.076-0.36,0.053-0.733,0.335-0.971s0.672-0.3,1.015-0.163l10,4C52.751,41.224,53,41.591,53,42c0,2.206,1.794,4,4,4    c2.168,0,4-1.832,4-4c0-2.206-1.794-4-4-4c-0.182,0-0.359-0.049-0.515-0.143l-14.256-8.554C39.359,31.692,35.756,33,32,33    s-7.359-1.308-10.229-3.697L7.515,37.857C7.359,37.951,7.182,38,7,38c-2.206,0-4,1.794-4,4c0,2.168,1.832,4,4,4    c2.206,0,4-1.794,4-4c0-0.409,0.249-0.776,0.629-0.929l10-4c0.343-0.137,0.731-0.074,1.015,0.163    c0.282,0.237,0.411,0.61,0.335,0.971L19.098,56.7C19.031,56.984,19,57.252,19,57.519C19,59.443,20.557,61,22.47,61    c1.212,0,2.352-0.646,2.975-1.685l3.677-6.792C29.295,52.201,29.633,52,30,52z"/>
	</g>
	<g>
		<path d="M23,28h-2V15c0-0.552,0.447-1,1-1h3c3.309,0,6-2.691,6-6h2c0,4.411-3.589,8-8,8h-2V28z"/>
	</g>
	<g>
		<path d="M43,28h-2V16h-2c-4.411,0-8-3.589-8-8h2c0,3.309,2.691,6,6,6h3c0.553,0,1,0.448,1,1V28z"/>
	</g>
	<g>
		<path d="M26.02,44.196l-0.876-4.38l-3.386-0.847c-0.536-0.134-0.862-0.677-0.728-1.212l1-4c0.044-0.176,0.135-0.337,0.263-0.465    l3-3l1.414,1.414l-2.804,2.805l-0.69,2.761l3.029,0.758c0.375,0.094,0.663,0.395,0.738,0.773l1,5L26.02,44.196z"/>
	</g>
	<g>
		<path d="M37.98,44.196l-1.961-0.393l1-5c0.075-0.379,0.363-0.68,0.738-0.773l3.029-0.758l-0.69-2.761l-2.804-2.805l1.414-1.414    l3,3c0.128,0.128,0.219,0.289,0.263,0.465l1,4c0.135,0.535-0.191,1.078-0.728,1.212l-3.386,0.847L37.98,44.196z"/>
	</g>
	<g>
		<path d="M32,50c-2.206,0-4-1.794-4-4s1.794-4,4-4s4,1.794,4,4S34.206,50,32,50z M32,44c-1.103,0-2,0.897-2,2s0.897,2,2,2    s2-0.897,2-2S33.103,44,32,44z"/>
	</g>
	<g>
		<path d="M37,49c-1.654,0-3-1.346-3-3s1.346-3,3-3s3,1.346,3,3S38.654,49,37,49z M37,45c-0.552,0-1,0.448-1,1s0.448,1,1,1    s1-0.448,1-1S37.552,45,37,45z"/>
	</g>
	<g>
		<path d="M41,48c-1.654,0-3-1.346-3-3s1.346-3,3-3s3,1.346,3,3S42.654,48,41,48z M41,44c-0.552,0-1,0.448-1,1s0.448,1,1,1    s1-0.448,1-1S41.552,44,41,44z"/>
	</g>
	<g>
		<path d="M27,49c-1.654,0-3-1.346-3-3s1.346-3,3-3s3,1.346,3,3S28.654,49,27,49z M27,45c-0.552,0-1,0.448-1,1s0.448,1,1,1    s1-0.448,1-1S27.552,45,27,45z"/>
	</g>
	<g>
		<path d="M23,48c-1.654,0-3-1.346-3-3s1.346-3,3-3s3,1.346,3,3S24.654,48,23,48z M23,44c-0.552,0-1,0.448-1,1s0.448,1,1,1    s1-0.448,1-1S23.552,44,23,44z"/>
	</g>
	<g>
		<rect x="31" y="32" width="2" height="11"/>
	</g>
	<g>
		<rect x="10.5" y="34.692" transform="matrix(0.9191 -0.3939 0.3939 0.9191 -14.2361 7.643)" width="1.999" height="7.616"/>
	</g>
	<g>
		<rect x="14.5" y="32.692" transform="matrix(0.9191 -0.3939 0.3939 0.9191 -13.1248 9.0569)" width="1.999" height="7.616"/>
	</g>
	<g>
		<rect x="10.585" y="36.5" transform="matrix(0.8574 -0.5146 0.5146 0.8574 -17.374 12.2949)" width="5.831" height="2"/>
	</g>
	<g>
		<rect x="48.692" y="37.5" transform="matrix(0.3937 -0.9192 0.9192 0.3937 -3.5594 71.6036)" width="7.616" height="1.999"/>
	</g>
	<g>
		<rect x="44.692" y="35.5" transform="matrix(0.3937 -0.9192 0.9192 0.3937 -4.146 66.7139)" width="7.616" height="1.999"/>
	</g>
	<g>
		<rect x="49.5" y="34.585" transform="matrix(0.5145 -0.8575 0.8575 0.5145 -7.638 61.5098)" width="2" height="5.831"/>
	</g>
	<g>
		<rect x="22.5" y="50.757" transform="matrix(0.3162 -0.9487 0.9487 0.3162 -36.5833 60.2434)" width="1.999" height="9.487"/>
	</g>
	<g>
		<rect x="35.757" y="54.5" transform="matrix(0.9486 -0.3165 0.3165 0.9486 -15.4846 15.6726)" width="9.487" height="1.999"/>
	</g>
	<g>
		<path d="M28,25c-1.654,0-3-1.346-3-3s1.346-3,3-3s3,1.346,3,3S29.654,25,28,25z M28,21c-0.552,0-1,0.449-1,1s0.448,1,1,1    s1-0.449,1-1S28.552,21,28,21z"/>
	</g>
	<g>
		<path d="M36,25c-1.654,0-3-1.346-3-3s1.346-3,3-3s3,1.346,3,3S37.654,25,36,25z M36,21c-0.552,0-1,0.449-1,1s0.448,1,1,1    s1-0.449,1-1S36.552,21,36,21z"/>
	</g>
	<g>
		<rect x="35.938" y="18.5" transform="matrix(0.9702 -0.2422 0.2422 0.9702 -3.5914 9.7838)" width="4.123" height="2"/>
	</g>
	<g>
		<rect x="25" y="17.438" transform="matrix(0.2425 -0.9701 0.9701 0.2425 0.7763 39.9943)" width="2" height="4.123"/>
	</g>
	<g>
		<rect x="28" y="27" width="8" height="2"/>
	</g>
	<g>
		<circle style="fill:#CA5057;" cx="32" cy="46" r="1"/>
	</g>
</g>
</svg>
