<?xml version="1.0" encoding="iso-8859-1"?>
<!-- Generator: Adobe Illustrator 22.1.0, SVG Export Plug-In . SVG Version: 6.00 Build 0)  -->
<svg xmlns="http://www.w3.org/2000/svg" xmlns:xlink="http://www.w3.org/1999/xlink" version="1.1" id="Layer_3" x="0px" y="0px" viewBox="0 0 64 64" style="enable-background:new 0 0 64 64;" xml:space="preserve" width="512" height="512">
<g>
	<g>
		<path style="fill:#2B62A1;" d="M42,28l15,9c2.761,0,5,2.238,5,5c0,2.703-2.297,5.001-5,5c-2.761,0-5-2.239-5-5l-10-2l3.881,16.495    C45.96,56.831,46,57.174,46,57.519v0.012C46,59.999,43.999,62,41.531,62h0c-1.57,0-3.025-0.824-3.833-2.17L35,55h-6l-2.698,4.83    C25.494,61.176,24.039,62,22.469,62h0C20.001,62,18,59.999,18,57.531v-0.012c0-0.345,0.04-0.688,0.119-1.024L22,40l-10,2    c0,2.761-2.238,5-5,5C4.297,47,2,44.703,2,42c0-2.761,2.239-5,5-5l15-9"/>
	</g>
	<g>
		<polygon style="fill:#B9B9B9;" points="19.882,49 18.526,54.763 26.817,58.908 29,55 27,49   "/>
	</g>
	<g>
		<polygon style="fill:#B9B9B9;" points="44.118,49 45.474,54.763 37.183,58.908 35,55 37,49   "/>
	</g>
	<g>
		<path style="fill:#B9B9B9;" d="M10.068,35.159L7,37c-2.761,0-5,2.238-5,5C2,44.703,4.297,47,7,47c2.761,0,5-2.239,5-5l0.921-0.184    L10.068,35.159z"/>
	</g>
	<g>
		<polygon style="fill:#B9B9B9;" points="20.966,28.621 17,31 18.923,40.615 22,40   "/>
	</g>
	<g>
		<polygon style="fill:#CA5057;" points="19.882,49 29,49 29,45 20.824,45   "/>
	</g>
	<g>
		<rect x="29" y="45" style="fill:#B9B9B9;" width="9" height="4"/>
	</g>
	<g>
		<circle style="fill:#CA5057;" cx="49" cy="44" r="13"/>
	</g>
	<g>
		<circle style="fill:#EFEFEF;" cx="49" cy="44" r="9"/>
	</g>
	<g>
		<circle style="fill:#2B62A1;" cx="49" cy="44" r="6"/>
	</g>
	<g>
		<polygon style="fill:#EFEFEF;" points="49,46 45,48 46,45 44,42 47,42 49,38 51,42 54,42 52,45 53,48   "/>
	</g>
	<g>
		<polygon style="fill:#EFEFEF;" points="32,40 28,42 29,39 27,36 30,36 32,32 34,36 37,36 35,39 36,42   "/>
	</g>
	<g>
		<circle style="fill:#2B62A1;" cx="32" cy="17" r="15"/>
	</g>
	<g>
		<ellipse style="fill:#4B88BA;" cx="30.5" cy="17" rx="13.5" ry="14.924"/>
	</g>
	<g>
		<path style="fill:#D8C4A9;" d="M32,24c-3.727,0-6.925,2.266-8.292,5.496C26.084,31.076,28.933,32,32,32    c3.067,0,5.916-0.925,8.292-2.504C38.926,26.266,35.727,24,32,24z"/>
	</g>
	<g>
		<path style="fill:#D8C4A9;" d="M29,17c0,2.761-1.791,5-4,5s-4-2.239-4-5c0-1.156,0.314-2.221,0.841-3.068l0.001,0L29,17z"/>
	</g>
	<g>
		<path style="fill:#D8C4A9;" d="M35,17c0,2.761,1.791,5,4,5s4-2.239,4-5c0-1.156-0.314-2.221-0.841-3.068l-0.001,0L35,17z"/>
	</g>
	<g>
		<path d="M32,33c-8.822,0-16-7.178-16-16S23.178,1,32,1s16,7.178,16,16S40.822,33,32,33z M32,3c-7.72,0-14,6.28-14,14    s6.28,14,14,14s14-6.28,14-14S39.72,3,32,3z"/>
	</g>
	<g>
		<path d="M41.531,63c-1.91,0-3.708-1.018-4.69-2.655L34.413,56h-4.826l-2.412,4.318C26.177,61.982,24.379,63,22.469,63    C19.454,63,17,60.546,17,57.531c0-0.432,0.049-0.853,0.145-1.264l3.525-14.981l-7.728,1.545C12.537,45.748,10.026,48,7,48    c-3.252,0-6-2.748-6-6c0-3.211,2.537-5.842,5.711-5.993l14.774-8.864l1.029,1.715l-15,9C7.359,37.951,7.181,38,7,38    c-2.206,0-4,1.794-4,4c0,2.168,1.832,4,4,4c2.206,0,4-1.794,4-4c0-0.477,0.336-0.887,0.804-0.98l10-2    c0.335-0.068,0.679,0.041,0.915,0.285c0.237,0.245,0.333,0.593,0.255,0.924l-3.881,16.495C19.031,56.984,19,57.252,19,57.519    C19,59.444,20.556,61,22.469,61c1.212,0,2.352-0.646,2.975-1.685l2.683-4.803C28.304,54.196,28.638,54,29,54h6    c0.362,0,0.696,0.196,0.873,0.512l2.698,4.83C39.179,60.354,40.319,61,41.531,61C43.444,61,45,59.444,45,57.531    c0-0.243-0.023-0.475-0.069-0.702l1.96-0.396C46.963,56.789,47,57.154,47,57.519C47,60.546,44.546,63,41.531,63z"/>
	</g>
	<g>
		<rect x="43.659" y="26.495" transform="matrix(0.5145 -0.8575 0.8575 0.5145 -3.6957 52.6631)" width="2" height="6.201"/>
	</g>
	<g>
		<rect x="21" y="44" width="15" height="2"/>
	</g>
	<g>
		<rect x="20" y="48" width="17" height="2"/>
	</g>
	<g>
		<rect x="22" y="52.528" transform="matrix(0.4472 -0.8944 0.8944 0.4472 -38.2683 52.0807)" width="2" height="8.944"/>
	</g>
	<g>
		<rect x="36.618" y="56.383" transform="matrix(0.8944 -0.4472 0.4472 0.8944 -21.4151 24.0509)" width="7.23" height="2"/>
	</g>
	<g>
		<path d="M49,58c-7.72,0-14-6.28-14-14s6.28-14,14-14s14,6.28,14,14S56.72,58,49,58z M49,32c-6.617,0-12,5.383-12,12    s5.383,12,12,12s12-5.383,12-12S55.617,32,49,32z"/>
	</g>
	<g>
		<path d="M49,54c-5.514,0-10-4.486-10-10s4.486-10,10-10s10,4.486,10,10S54.514,54,49,54z M49,36c-4.411,0-8,3.589-8,8s3.589,8,8,8    s8-3.589,8-8S53.411,36,49,36z"/>
	</g>
	<g>
		<path d="M25,23c-2.757,0-5-2.691-5-6c0-1.311,0.343-2.554,0.993-3.597c0.261-0.418,0.79-0.586,1.243-0.39l7.159,3.068    C29.762,16.238,30,16.6,30,17C30,20.309,27.757,23,25,23z M22.316,15.224C22.11,15.773,22,16.382,22,17c0,2.206,1.346,4,3,4    c1.49,0,2.73-1.456,2.961-3.357L22.316,15.224z"/>
	</g>
	<g>
		<path d="M39,23c-2.757,0-5-2.691-5-6c0-0.4,0.238-0.762,0.606-0.919l7.158-3.068c0.454-0.197,0.981-0.029,1.243,0.39    C43.657,14.445,44,15.689,44,17C44,20.309,41.757,23,39,23z M36.039,17.643C36.27,19.544,37.51,21,39,21c1.654,0,3-1.794,3-4    c0-0.618-0.11-1.227-0.316-1.776L36.039,17.643z"/>
	</g>
	<g>
		<path d="M24.627,29.889l-1.843-0.778C24.353,25.398,27.97,23,32,23c4.027,0,7.644,2.397,9.214,6.107l-1.842,0.779    C38.116,26.918,35.222,25,32,25C28.776,25,25.882,26.919,24.627,29.889z"/>
	</g>
	<g>
		<rect x="29" y="27" width="6" height="2"/>
	</g>
	<g>
		<path style="fill:#FFFFFF;" d="M36.063,14.351l1.873-0.702l-3-8C34.79,5.259,34.417,5,34,5h-4c-0.417,0-0.79,0.259-0.937,0.649    l-3,8l1.873,0.702L28.818,12h6.364L36.063,14.351z M29.568,10l1.125-3h2.614l1.125,3H29.568z"/>
	</g>
	<g>
		<path d="M36,43c-0.152,0-0.305-0.035-0.447-0.105L32,41.118l-3.553,1.776c-0.362,0.181-0.796,0.126-1.103-0.139    c-0.306-0.265-0.421-0.688-0.293-1.072l0.845-2.536l-1.729-2.593c-0.205-0.307-0.224-0.701-0.05-1.026    C26.292,35.203,26.631,35,27,35h2.382l1.724-3.447c0.339-0.678,1.45-0.678,1.789,0L34.618,35H37c0.369,0,0.708,0.203,0.882,0.528    c0.174,0.325,0.155,0.72-0.05,1.026l-1.729,2.593l0.845,2.536c0.128,0.384,0.012,0.807-0.293,1.072C36.469,42.917,36.236,43,36,43    z M32,39c0.153,0,0.307,0.035,0.447,0.105l1.841,0.92l-0.237-0.709c-0.098-0.293-0.055-0.614,0.117-0.871L35.131,37H34    c-0.379,0-0.725-0.214-0.895-0.553L32,34.236l-1.105,2.211C30.725,36.786,30.379,37,30,37h-1.131l0.963,1.445    c0.171,0.257,0.214,0.578,0.117,0.871l-0.237,0.709l1.841-0.92C31.693,39.035,31.847,39,32,39z"/>
	</g>
	<g>
		<rect x="20.5" y="28.977" transform="matrix(0.9959 -0.0905 0.0905 0.9959 -3.0352 2.0882)" width="2" height="11.045"/>
	</g>
	<g>
		<rect x="17" y="30.901" transform="matrix(0.9806 -0.1961 0.1961 0.9806 -6.7106 4.2292)" width="2" height="10.198"/>
	</g>
	<g>
		<rect x="10.5" y="34.692" transform="matrix(0.9191 -0.3939 0.3939 0.9191 -14.2361 7.643)" width="2" height="7.616"/>
	</g>
	<g>
		<rect x="28" y="45" width="2" height="4"/>
	</g>
	<g>
		<rect x="27" y="48.838" transform="matrix(0.9487 -0.3162 0.3162 0.9487 -15.007 11.5228)" width="2" height="6.325"/>
	</g>
	<g>
		<rect x="32.838" y="51" transform="matrix(0.3164 -0.9486 0.9486 0.3164 -24.7185 69.6994)" width="6.325" height="2"/>
	</g>
	<g>
		<circle cx="25.5" cy="18.5" r="1.5"/>
	</g>
	<g>
		<circle cx="38.5" cy="18.5" r="1.5"/>
	</g>
</g>
</svg>
