<?xml version="1.0" encoding="iso-8859-1"?>
<!-- Generator: Adobe Illustrator 22.1.0, SVG Export Plug-In . SVG Version: 6.00 Build 0)  -->
<svg xmlns="http://www.w3.org/2000/svg" xmlns:xlink="http://www.w3.org/1999/xlink" version="1.1" id="Layer_3" x="0px" y="0px" viewBox="0 0 64 64" style="enable-background:new 0 0 64 64;" xml:space="preserve" width="512" height="512">
<g>
	<g>
		<path style="fill:#CA5057;" d="M42,28l15,9c2.761,0,5,2.238,5,5c0,2.703-2.297,5.001-5,5c-2.761,0-5-2.239-5-5l-10-2l3.881,16.495    C45.96,56.831,46,57.174,46,57.519v0.012C46,59.999,43.999,62,41.531,62h0c-1.57,0-3.025-0.824-3.833-2.17L35,52h-6l-2.698,7.83    C25.494,61.176,24.039,62,22.469,62h0C20.001,62,18,59.999,18,57.531v-0.012c0-0.345,0.04-0.688,0.119-1.024L22,40l-10,2    c0,2.761-2.238,5-5,5C4.297,47,2,44.703,2,42c0-2.761,2.239-5,5-5l15-9"/>
	</g>
	<g>
		<path style="fill:#876440;" d="M28.508,43.683L36,39c0,0,9.733-8.76,9.733-8.76l-3.613-2.168c-1.525,1.395-3.34,2.479-5.343,3.151    C36.777,31.223,31,37,31,37l-10,6L28.508,43.683z"/>
	</g>
	<g>
		<path style="fill:#876440;" d="M42.657,42.794L33,37c0,0-5.777-5.777-5.777-5.777c-2.003-0.673-3.818-1.757-5.343-3.151    l-3.613,2.168L28,39c0,0,7.492,4.683,7.492,4.683l7.22-0.656L42.657,42.794z"/>
	</g>
	<g>
		<polygon style="fill:#664C37;" points="37.06,57.978 45.486,54.818 44.614,51.111 36.011,54.934   "/>
	</g>
	<g>
		<polygon style="fill:#664C37;" points="27.971,54.986 19.474,50.737 18.513,54.818 26.94,57.978   "/>
	</g>
	<g>
		<polygon style="fill:#664C37;" points="43.633,46.942 42.712,43.026 32,44 21.288,43.026 20.366,46.942 32,48   "/>
	</g>
	<g>
		<polygon style="fill:#3B4546;" points="47,41 50.286,41.657 55.111,35.867 51.255,33.553   "/>
	</g>
	<g>
		<polygon style="fill:#3B4546;" points="13.714,41.657 17,41 12.745,33.553 8.889,35.867   "/>
	</g>
	<g>
		<polyline style="fill:#566164;" points="43.345,29.612 59,15 62,19 48,32   "/>
	</g>
	<g>
		<polyline style="fill:#566164;" points="20.411,29.383 5,15 2,19 16,32   "/>
	</g>
	<g>
		<circle style="fill:#CA5057;" cx="32" cy="17" r="15"/>
	</g>
	<g>
		<path style="fill:#3B4546;" d="M18.877,9.726C20.034,8.64,21.459,8,23,8c3.866,0,7,4.029,7,9s-3.134,9-7,9    c-1.542,0-2.968-0.641-4.125-1.728l0.002-0.001C17.681,22.117,17,19.638,17,17c0-2.589,0.656-5.024,1.81-7.15L18.877,9.726z"/>
	</g>
	<g>
		<path style="fill:#3B4546;" d="M45.121,9.724C43.965,8.64,42.54,8,41,8c-3.866,0-7,4.029-7,9s3.134,9,7,9    c1.54,0,2.965-0.64,4.12-1.724C46.318,22.121,47,19.64,47,17C47,14.36,46.318,11.879,45.121,9.724z"/>
	</g>
	<g>
		<path style="fill:#B9B9B9;" d="M29,17c0,2.761-1.791,5-4,5s-4-2.239-4-5c0-1.156,0.314-2.221,0.841-3.068l0.001,0L29,17z"/>
	</g>
	<g>
		<path style="fill:#B9B9B9;" d="M35,17c0,2.761,1.791,5,4,5s4-2.239,4-5c0-1.156-0.314-2.221-0.841-3.068l-0.001,0L35,17z"/>
	</g>
	<g>
		<path d="M32,33c-8.822,0-16-7.178-16-16S23.178,1,32,1s16,7.178,16,16S40.822,33,32,33z M32,3c-7.72,0-14,6.28-14,14    s6.28,14,14,14s14-6.28,14-14S39.72,3,32,3z"/>
	</g>
	<g>
		<path d="M41.531,63c-1.911,0-3.708-1.018-4.69-2.655c-0.036-0.06-0.065-0.123-0.088-0.188L34.287,53h-4.574l-2.466,7.156    c-0.022,0.065-0.052,0.129-0.088,0.188C26.177,61.982,24.38,63,22.469,63C19.454,63,17,60.546,17,57.53    c0-0.433,0.049-0.854,0.145-1.264l3.525-14.98l-7.728,1.545C12.537,45.748,10.026,48,7,48c-3.252,0-6-2.748-6-6    c0-3.212,2.537-5.842,5.711-5.993l14.774-8.864l1.029,1.715l-15,9C7.359,37.951,7.181,38,7,38c-2.206,0-4,1.794-4,4    c0,2.168,1.832,4,4,4c2.206,0,4-1.794,4-4c0-0.477,0.336-0.887,0.804-0.98l10-2c0.336-0.064,0.679,0.042,0.915,0.285    c0.237,0.245,0.333,0.593,0.255,0.925l-3.881,16.495C19.031,56.984,19,57.252,19,57.519C19,59.443,20.556,61,22.469,61    c1.179,0,2.291-0.611,2.923-1.601l2.662-7.726C28.193,51.271,28.573,51,29,51h6c0.427,0,0.807,0.271,0.945,0.674l2.662,7.726    C39.24,60.389,40.352,61,41.531,61C43.444,61,45,59.443,45,57.53c0-0.278-0.031-0.546-0.092-0.807l-3.881-16.494    c-0.078-0.332,0.018-0.68,0.255-0.925c0.237-0.244,0.583-0.349,0.915-0.285l10,2C52.664,41.113,53,41.523,53,42    c0,2.206,1.794,4,4,4c2.168,0,4-1.832,4-4c0-2.206-1.794-4-4-4c-0.181,0-0.359-0.049-0.515-0.143l-15-9l1.029-1.715l14.774,8.864    C60.463,36.158,63,38.788,63,42c0,3.252-2.748,6-6,6c-3.026,0-5.536-2.252-5.942-5.169l-7.728-1.545l3.525,14.979    C46.951,56.677,47,57.098,47,57.519C47,60.546,44.546,63,41.531,63z"/>
	</g>
	<g>
		<rect x="23" y="48.528" transform="matrix(0.4472 -0.8944 0.8944 0.4472 -34.1378 50.7639)" width="2" height="8.944"/>
	</g>
	<g>
		<rect x="22" y="52.228" transform="matrix(0.3511 -0.9363 0.9363 0.3511 -37.9784 58.1971)" width="2" height="8.544"/>
	</g>
	<g>
		<rect x="35.403" y="52.015" transform="matrix(0.9138 -0.4061 0.4061 0.9138 -18.056 20.9477)" width="9.849" height="2.001"/>
	</g>
	<g>
		<rect x="36.728" y="55.5" transform="matrix(0.9364 -0.351 0.351 0.9364 -17.2236 17.9868)" width="8.544" height="2"/>
	</g>
	<g>
		<path d="M32,49c-0.03,0-0.061-0.001-0.09-0.004l-11-1l0.181-1.992L32,46.996l10.91-0.992l0.181,1.992l-11,1    C32.061,48.999,32.03,49,32,49z"/>
	</g>
	<g>
		<path d="M32,45c-0.03,0-0.061-0.001-0.09-0.004l-11-1l0.181-1.992L32,42.996l10.91-0.992l0.181,1.992l-11,1    C32.061,44.999,32.03,45,32,45z"/>
	</g>
	<g>
		<rect x="28" y="44" width="2" height="4"/>
	</g>
	<g>
		<rect x="34" y="44" width="2" height="4"/>
	</g>
	<g>
		<rect x="10.5" y="35.095" transform="matrix(0.7682 -0.6402 0.6402 0.7682 -22.3017 16.4015)" width="2" height="7.81"/>
	</g>
	<g>
		<rect x="14" y="33.469" transform="matrix(0.8682 -0.4961 0.4961 0.8682 -16.6289 12.383)" width="2" height="8.062"/>
	</g>
	<g>
		<rect x="48.595" y="38" transform="matrix(0.6405 -0.7679 0.7679 0.6405 -11.077 54.3366)" width="7.81" height="2"/>
	</g>
	<g>
		<rect x="44.969" y="36.5" transform="matrix(0.4961 -0.8682 0.8682 0.4961 -7.8699 61.4387)" width="8.062" height="2"/>
	</g>
	<g>
		<rect x="22.307" y="49.5" transform="matrix(0.3711 -0.9286 0.9286 0.3711 -31.1712 54.9771)" width="5.385" height="2"/>
	</g>
	<g>
		<rect x="38" y="47.807" transform="matrix(0.9285 -0.3714 0.3714 0.9285 -15.9658 18.0962)" width="2" height="5.385"/>
	</g>
	<g>
		<path d="M25,23c-2.757,0-5-2.691-5-6c0-1.31,0.343-2.553,0.992-3.597c0.261-0.418,0.789-0.586,1.243-0.391l7.159,3.068    C29.762,16.238,30,16.6,30,17C30,20.309,27.757,23,25,23z M22.316,15.224C22.11,15.773,22,16.382,22,17c0,2.206,1.346,4,3,4    c1.49,0,2.73-1.456,2.961-3.357L22.316,15.224z"/>
	</g>
	<g>
		<path d="M39,23c-2.757,0-5-2.691-5-6c0-0.4,0.238-0.762,0.606-0.919l7.158-3.067c0.453-0.194,0.981-0.029,1.243,0.39    C43.657,14.446,44,15.689,44,17C44,20.309,41.757,23,39,23z M36.039,17.643C36.27,19.544,37.51,21,39,21c1.654,0,3-1.794,3-4    c0-0.628-0.107-1.229-0.314-1.777L36.039,17.643z"/>
	</g>
	<g>
		<path d="M15.319,32.732l-14-13C0.944,19.385,0.893,18.81,1.2,18.4l3-4c0.17-0.228,0.429-0.371,0.712-0.396    c0.282-0.027,0.563,0.072,0.77,0.265l15,14l-1.364,1.463L5.132,16.491L3.34,18.88l13.34,12.388L15.319,32.732z"/>
	</g>
	<g>
		<rect x="3.807" y="19" transform="matrix(0.9284 -0.3715 0.3715 0.9284 -6.9644 3.8457)" width="5.385" height="2.001"/>
	</g>
	<g>
		<rect x="7.307" y="22.5" transform="matrix(0.3711 -0.9286 0.9286 0.3711 -15.5329 24.0663)" width="5.385" height="2"/>
	</g>
	<g>
		<rect x="10.585" y="25.5" transform="matrix(0.8574 -0.5146 0.5146 0.8574 -11.7129 10.7264)" width="5.831" height="2"/>
	</g>
	<g>
		<path d="M48.681,32.732l-1.361-1.465L60.66,18.88l-1.792-2.389l-14.186,13.24l-1.364-1.463l15-14    c0.207-0.192,0.491-0.293,0.77-0.265c0.283,0.025,0.542,0.169,0.712,0.396l3,4c0.307,0.409,0.256,0.984-0.119,1.332L48.681,32.732    z"/>
	</g>
	<g>
		<rect x="56.5" y="17.307" transform="matrix(0.3714 -0.9285 0.9285 0.3714 17.5755 65.9596)" width="2.001" height="5.385"/>
	</g>
	<g>
		<rect x="53" y="20.807" transform="matrix(0.9285 -0.3714 0.3714 0.9285 -4.8654 21.7359)" width="2" height="5.385"/>
	</g>
	<g>
		<rect x="49.5" y="23.585" transform="matrix(0.5145 -0.8575 0.8575 0.5145 1.7944 56.1693)" width="2" height="5.831"/>
	</g>
	<g>
		<path d="M35.47,44.848l-8-5c-0.049-0.03-0.096-0.065-0.139-0.104l-10-9l1.338-1.486l9.935,8.941l7.926,4.954L35.47,44.848z"/>
	</g>
	<g>
		<path d="M42.485,43.857l-10-6c-0.07-0.042-0.135-0.093-0.192-0.15l-5.776-5.776l1.414-1.414l5.689,5.689l9.895,5.937    L42.485,43.857z"/>
	</g>
	<g>
		<rect x="34.319" y="33.62" transform="matrix(0.7432 -0.669 0.669 0.7432 -12.6688 36.2295)" width="13.095" height="2"/>
	</g>
	<g>
		<rect x="20.469" y="40" transform="matrix(0.8682 -0.4961 0.4961 0.8682 -17.1137 17.5574)" width="8.062" height="2"/>
	</g>
	<g>
		<rect x="31.011" y="32.612" transform="matrix(0.7071 -0.7071 0.7071 0.7071 -13.6951 34.1608)" width="6.755" height="2"/>
	</g>
	<g>
		<path d="M23,27c-1.754,0-3.417-0.691-4.81-1.998l1.369-1.459C20.575,24.496,21.764,25,23,25c3.309,0,6-3.589,6-8s-2.691-8-6-8    c-1.235,0-2.424,0.503-3.438,1.455l-1.368-1.459C19.585,7.69,21.247,7,23,7c4.411,0,8,4.486,8,10S27.411,27,23,27z"/>
	</g>
	<g>
		<path d="M41,27c-4.411,0-8-4.486-8-10s3.589-10,8-10c1.752,0,3.414,0.689,4.805,1.994l-1.368,1.459C43.423,9.503,42.235,9,41,9    c-3.309,0-6,3.589-6,8s2.691,8,6,8c1.235,0,2.423-0.503,3.437-1.453l1.368,1.459C44.414,26.311,42.752,27,41,27z"/>
	</g>
	<g>
		<circle cx="25.5" cy="18.5" r="1.5"/>
	</g>
	<g>
		<circle cx="38.5" cy="18.5" r="1.5"/>
	</g>
</g>
</svg>
