<?xml version="1.0" encoding="iso-8859-1"?>
<!-- Generator: Adobe Illustrator 22.1.0, SVG Export Plug-In . SVG Version: 6.00 Build 0)  -->
<svg xmlns="http://www.w3.org/2000/svg" xmlns:xlink="http://www.w3.org/1999/xlink" version="1.1" id="Layer_3" x="0px" y="0px" viewBox="0 0 64 64" style="enable-background:new 0 0 64 64;" xml:space="preserve" width="512" height="512">
<g>
	<g>
		<path style="fill:#1F5078;" d="M42,28l15,9c2.761,0,5,2.238,5,5c0,2.703-2.297,5.001-5,5c-2.761,0-5-2.239-5-5l-10-2l3.881,16.495    C45.96,56.831,46,57.174,46,57.519v0.012C46,59.999,43.999,62,41.531,62h0c-1.57,0-3.025-0.824-3.833-2.17L36,57h-8l-1.698,2.83    C25.494,61.176,24.039,62,22.469,62h0C20.001,62,18,59.999,18,57.531v-0.012c0-0.345,0.04-0.688,0.119-1.024L22,40l-10,2    c0,2.761-2.238,5-5,5C4.297,47,2,44.703,2,42c0-2.761,2.239-5,5-5l15-9"/>
	</g>
	<g>
		<path style="fill:#D2A95C;" d="M45.97,57H56l-9-16l-5-1l3.881,16.495C45.92,56.662,45.95,56.83,45.97,57z"/>
	</g>
	<g>
		<path style="fill:#991D13;" d="M43.761,40.352L42,40l3.529,15H52C52,55,45.035,42.619,43.761,40.352z"/>
	</g>
	<g>
		<path style="fill:#D2A95C;" d="M18.03,57H8l9-16l5-1l-3.881,16.495C18.08,56.662,18.05,56.83,18.03,57z"/>
	</g>
	<g>
		<path style="fill:#991D13;" d="M20.239,40.352L22,40l-3.529,15H12C12,55,18.965,42.619,20.239,40.352z"/>
	</g>
	<g>
		<path style="fill:#3777AC;" d="M30,52.429V48l-2-2v-7.5l2-1.5c0,1.105,0.895,2,2,2c1.105,0,2-0.895,2-2l2,1.5V46l-2,2l0,4.429    L32,52L30,52.429z"/>
	</g>
	<g>
		<polygon style="fill:#3777AC;" points="18.496,54.894 20.462,46.538 23,44 24,47 24,53.714   "/>
	</g>
	<g>
		<polygon style="fill:#3777AC;" points="45.504,54.894 43.538,46.538 41,44 40,47 40,53.714   "/>
	</g>
	<g>
		<polygon style="fill:#3777AC;" points="48.944,32.167 46.062,40.812 52,42 52,42 55.81,36.286   "/>
	</g>
	<g>
		<polygon style="fill:#3777AC;" points="15.056,32.167 8.19,36.286 12,42 12,42 17.937,40.812   "/>
	</g>
	<g>
		<path style="fill:#D8C4A9;" d="M57,37l-1.19-0.714L52,42l0,0c0,2.761,2.238,5,5,5c2.703,0,5.001-2.297,5-5    C62,39.238,59.761,37,57,37z"/>
	</g>
	<g>
		<path style="fill:#D8C4A9;" d="M8.19,36.286L7,37c-2.761,0-5,2.238-5,5C2,44.703,4.297,47,7,47c2.761,0,5-2.239,5-5l0,0    L8.19,36.286z"/>
	</g>
	<g>
		<polyline style="fill:#D2A95C;" points="22,28 18.901,29.859 26,40 32,35.5 38,40 45.099,29.859 42,28   "/>
	</g>
	<g>
		<polyline style="fill:#991D13;" points="22,28 21.167,28.5 27,36 32,32.5 37,36 42.833,28.5 42,28   "/>
	</g>
	<g>
		<circle style="fill:#B89148;" cx="32" cy="37" r="2"/>
	</g>
	<g>
		<path style="fill:#B89148;" d="M42.12,28.072l3.017,1.81C45.137,29.882,59,18,59,18s-12.033,0-12.033,0    C46.705,21.982,44.889,25.54,42.12,28.072z"/>
	</g>
	<g>
		<path style="fill:#991D13;" d="M46.683,20c-0.644,3.165-2.268,5.973-4.563,8.072l0.86,0.516C46.996,25.146,53,20,53,20    S49.788,20,46.683,20z"/>
	</g>
	<g>
		<path style="fill:#B89148;" d="M21.88,28.072l-3.017,1.81C18.863,29.882,5,18,5,18s12.033,0,12.033,0    C17.295,21.982,19.111,25.54,21.88,28.072z"/>
	</g>
	<g>
		<path style="fill:#991D13;" d="M21.02,28.588l0.86-0.516c-2.295-2.099-3.919-4.907-4.563-8.072C14.212,20,11,20,11,20    S17.004,25.146,21.02,28.588z"/>
	</g>
	<g>
		<circle style="fill:#D8C4A9;" cx="32" cy="17" r="15"/>
	</g>
	<g>
		<ellipse style="fill:#E4CFB6;" cx="30.5" cy="17" rx="13.5" ry="14.924"/>
	</g>
	<g>
		<circle style="fill:#919191;" cx="27" cy="18" r="2"/>
	</g>
	<g>
		<circle style="fill:#919191;" cx="37" cy="18" r="2"/>
	</g>
	<g>
		<path style="fill:#3B4546;" d="M32,2c-7.929,0-14.404,6.156-14.947,13.947l5.179-5.179C23.364,9.636,24.899,9,26.5,9    s3.136,0.636,4.268,1.768L32,12l1.232-1.232C34.364,9.636,35.899,9,37.5,9s3.136,0.636,4.268,1.768l5.179,5.179    C46.404,8.156,39.929,2,32,2z"/>
	</g>
	<g>
		<path style="fill:#566164;" d="M43.198,12.198C41.347,6.727,36.441,2.666,30.5,2.076c-0.883,0.088-1.741,0.259-2.573,0.493    c-0.061,0.017-0.125,0.028-0.185,0.046c-0.202,0.06-0.396,0.138-0.595,0.206c-0.244,0.084-0.492,0.159-0.73,0.255    c-0.135,0.054-0.264,0.122-0.397,0.18c-0.293,0.128-0.588,0.254-0.871,0.4c-0.089,0.046-0.173,0.101-0.261,0.148    c-0.32,0.173-0.639,0.35-0.944,0.546c-0.049,0.032-0.095,0.068-0.144,0.1c-0.339,0.222-0.672,0.453-0.991,0.702    c-0.016,0.012-0.03,0.026-0.045,0.038c-3.239,2.544-5.406,6.393-5.71,10.756l5.179-5.179C23.364,9.636,24.899,9,26.5,9    s3.136,0.636,4.268,1.768L32,12l1.232-1.232C34.364,9.636,35.899,9,37.5,9s3.136,0.636,4.268,1.768L43.198,12.198z"/>
	</g>
	<g>
		<path d="M32,33c-8.822,0-16-7.178-16-16S23.178,1,32,1s16,7.178,16,16S40.822,33,32,33z M32,3c-7.72,0-14,6.28-14,14    s6.28,14,14,14s14-6.28,14-14S39.72,3,32,3z"/>
	</g>
	<g>
		<path d="M41.53,63c-1.91,0-3.707-1.018-4.689-2.655L35.434,58h-6.867l-1.407,2.345C26.177,61.982,24.38,63,22.47,63    C19.454,63,17,60.546,17,57.531c0-0.433,0.049-0.855,0.146-1.265l3.524-14.98l-7.728,1.545C12.536,45.748,10.026,48,7,48    c-3.252,0-6-2.748-6-6c0-3.211,2.537-5.842,5.712-5.993l14.773-8.864l1.029,1.715l-15,9C7.359,37.951,7.182,38,7,38    c-2.206,0-4,1.794-4,4c0,2.168,1.832,4,4,4c2.206,0,4-1.794,4-4c0-0.477,0.337-0.887,0.804-0.98l10-2    c0.335-0.067,0.679,0.041,0.915,0.285c0.236,0.245,0.333,0.593,0.255,0.924l-3.881,16.495C19.031,56.985,19,57.252,19,57.519    C19,59.444,20.557,61,22.47,61c1.212,0,2.352-0.646,2.975-1.685l1.698-2.83C27.323,56.184,27.648,56,28,56h8    c0.352,0,0.677,0.184,0.857,0.485l1.698,2.83C39.179,60.354,40.318,61,41.53,61c1.913,0,3.47-1.556,3.47-3.469    c0-0.279-0.031-0.546-0.093-0.806l-3.881-16.496c-0.078-0.331,0.019-0.68,0.255-0.924c0.236-0.244,0.581-0.353,0.915-0.285l10,2    C52.663,41.113,53,41.523,53,42c0,2.206,1.794,4,4,4c2.168,0,4-1.832,4-4c0-2.206-1.794-4-4-4c-0.182,0-0.359-0.049-0.515-0.143    l-15-9l1.029-1.715l14.773,8.864C60.463,36.158,63,38.788,63,42c0,3.252-2.748,6-6,6c-3.026,0-5.536-2.252-5.942-5.169    l-7.728-1.545l3.524,14.98C46.951,56.676,47,57.098,47,57.519C47,60.546,44.546,63,41.53,63z"/>
	</g>
	<g>
		<path d="M27,21c-1.654,0-3-1.346-3-3s1.346-3,3-3s3,1.346,3,3S28.654,21,27,21z M27,17c-0.552,0-1,0.449-1,1s0.448,1,1,1    s1-0.449,1-1S27.552,17,27,17z"/>
	</g>
	<g>
		<path d="M37,21c-1.654,0-3-1.346-3-3s1.346-3,3-3s3,1.346,3,3S38.654,21,37,21z M37,17c-0.552,0-1,0.449-1,1s0.448,1,1,1    s1-0.449,1-1S37.552,17,37,17z"/>
	</g>
	<g>
		<path d="M37.99,31.142l-1.98-0.283L36.847,25h-9.693l0.837,5.858l-1.98,0.283l-1-7c-0.041-0.287,0.045-0.578,0.234-0.797    C25.435,23.126,25.71,23,26,23h12c0.29,0,0.565,0.126,0.756,0.345c0.189,0.219,0.275,0.51,0.234,0.797L37.99,31.142z"/>
	</g>
	<g>
		<rect x="29" y="27" width="6" height="2"/>
	</g>
	<g>
		<path d="M32,40c-1.654,0-3-1.346-3-3s1.346-3,3-3s3,1.346,3,3S33.654,40,32,40z M32,36c-0.552,0-1,0.449-1,1s0.448,1,1,1    s1-0.449,1-1S32.552,36,32,36z"/>
	</g>
	<g>
		<path d="M26,41c-0.053,0-0.105-0.004-0.157-0.013c-0.268-0.042-0.507-0.192-0.662-0.414l-7-10l1.639-1.146l6.407,9.153L29.4,36.2    l1.199,1.6l-4,3C26.426,40.931,26.215,41,26,41z"/>
	</g>
	<g>
		<path d="M38,41c-0.215,0-0.426-0.069-0.6-0.2l-4-3l1.199-1.6l3.174,2.38l6.407-9.153l1.639,1.146l-7,10    c-0.155,0.222-0.395,0.372-0.662,0.414C38.105,40.996,38.053,41,38,41z"/>
	</g>
	<g>
		<rect x="15.5" y="31.757" transform="matrix(0.9487 -0.3162 0.3162 0.9487 -10.6956 7.0908)" width="1.999" height="9.487"/>
	</g>
	<g>
		<rect x="9" y="35.394" transform="matrix(0.8321 -0.5547 0.5547 0.8321 -19.9538 12.097)" width="2" height="7.211"/>
	</g>
	<g>
		<path d="M45.79,55.978L32,53.022l-13.79,2.956l-0.42-1.956l14-3c0.139-0.029,0.281-0.029,0.42,0l14,3L45.79,55.978z"/>
	</g>
	<g>
		<path d="M25,54h-2v-6.838l-0.437-1.311l-1.395,1.394l-1.414-1.414l2.538-2.539c0.245-0.245,0.599-0.346,0.937-0.266    c0.338,0.08,0.609,0.328,0.719,0.657l1,3C24.982,46.786,25,46.893,25,47V54z"/>
	</g>
	<g>
		<path d="M31,53h-2v-4.586l-1.707-1.707C27.105,46.52,27,46.265,27,46v-7.5h2v7.086l1.707,1.707C30.895,47.48,31,47.735,31,48V53z"/>
	</g>
	<g>
		<rect x="42.757" y="35.5" transform="matrix(0.3165 -0.9486 0.9486 0.3165 -2.1581 70.0048)" width="9.487" height="1.999"/>
	</g>
	<g>
		<rect x="50.394" y="38" transform="matrix(0.5547 -0.8321 0.8321 0.5547 -8.4038 62.2974)" width="7.211" height="2"/>
	</g>
	<g>
		<path d="M41,54h-2v-7c0-0.107,0.018-0.214,0.052-0.316l1-3c0.109-0.329,0.381-0.577,0.719-0.657    c0.339-0.081,0.692,0.021,0.937,0.266l2.538,2.539l-1.414,1.414l-1.395-1.394L41,47.162V54z"/>
	</g>
	<g>
		<path d="M35,53h-2v-5c0-0.265,0.105-0.52,0.293-0.707L35,45.586V38.5h2V46c0,0.265-0.105,0.52-0.293,0.707L35,48.414V53z"/>
	</g>
	<g>
		<path d="M18.35,30.759l-14-12c-0.318-0.272-0.433-0.714-0.287-1.106C4.207,17.261,4.581,17,5,17h12v2H7.703L19.65,29.241    L18.35,30.759z"/>
	</g>
	<g>
		<path d="M45.65,30.759l-1.301-1.519L56.297,19H47v-2h12c0.419,0,0.793,0.261,0.938,0.653c0.146,0.393,0.031,0.834-0.287,1.106    L45.65,30.759z"/>
	</g>
	<g>
		<path d="M18,58H8c-0.355,0-0.684-0.188-0.863-0.495s-0.183-0.686-0.008-0.995l9-16l1.742,0.98L9.71,56H18V58z"/>
	</g>
	<g>
		<path d="M56,58H46v-2h8.29l-8.161-14.51l1.742-0.98l9,16c0.175,0.31,0.172,0.688-0.008,0.995S56.355,58,56,58z"/>
	</g>
	<g>
		<path d="M46.293,16.707l-5.232-5.232C40.109,10.524,38.845,10,37.5,10s-2.609,0.524-3.561,1.475l-1.232,1.232    c-0.391,0.391-1.023,0.391-1.414,0l-1.232-1.232C29.109,10.524,27.845,10,26.5,10s-2.609,0.524-3.561,1.475l-5.232,5.232    l-1.414-1.414l5.232-5.232C22.854,8.732,24.621,8,26.5,8s3.646,0.732,4.975,2.061L32,10.586l0.525-0.525    C33.854,8.732,35.621,8,37.5,8s3.646,0.732,4.975,2.061l5.232,5.232L46.293,16.707z"/>
	</g>
</g>
</svg>
