<?xml version="1.0" encoding="iso-8859-1"?>
<!-- Generator: Adobe Illustrator 22.1.0, SVG Export Plug-In . SVG Version: 6.00 Build 0)  -->
<svg xmlns="http://www.w3.org/2000/svg" xmlns:xlink="http://www.w3.org/1999/xlink" version="1.1" id="Layer_3" x="0px" y="0px" viewBox="0 0 64 64" style="enable-background:new 0 0 64 64;" xml:space="preserve" width="512" height="512">
<g>
	<g>
		<path style="fill:#D2C3AF;" d="M42,28l15,9c2.761,0,5,2.238,5,5c0,2.703-2.297,5.001-5,5c-2.761,0-5-2.239-5-5l-10-2l3.881,16.495    C45.96,56.831,46,57.174,46,57.519v0.012C46,59.999,43.999,62,41.531,62h0c-1.57,0-3.025-0.824-3.833-2.17L36,55h-8l-1.698,4.83    C25.494,61.176,24.039,62,22.469,62h0C20.001,62,18,59.999,18,57.531v-0.012c0-0.345,0.04-0.688,0.119-1.024L22,40l-10,2    c0,2.761-2.238,5-5,5C4.297,47,2,44.703,2,42c0-2.761,2.239-5,5-5l15-9"/>
	</g>
	<g>
		<rect x="25" y="34" style="fill:#792F21;" width="2" height="2"/>
	</g>
	<g>
		<rect x="27" y="38" style="fill:#792F21;" width="2" height="2"/>
	</g>
	<g>
		<rect x="37" y="34" style="fill:#792F21;" width="2" height="2"/>
	</g>
	<g>
		<rect x="35" y="38" style="fill:#792F21;" width="2" height="2"/>
	</g>
	<g>
		<rect x="31" y="40" style="fill:#792F21;" width="2" height="2"/>
	</g>
	<g>
		<path style="fill:#792F21;" d="M55.142,36.99l-0.283-1.98l-6.218,0.889l0.34-1.702l-1.961-0.393l-0.289,1.444l-1.986-0.993    l-0.296-0.592L45.6,32.8l-1.2-1.6l-0.86,0.645l-1.646-3.292l-1.789,0.895l1.809,3.617L40.4,34.2l1.2,1.6l1.223-0.917l0.282,0.565    c0.097,0.193,0.254,0.351,0.447,0.447l2.771,1.386l-0.305,1.523l1.961,0.393l0.244-1.218L55.142,36.99z"/>
	</g>
	<g>
		<path style="fill:#792F21;" d="M22.105,28.553l-1.646,3.292L19.6,31.2l-1.2,1.6l1.151,0.863l-0.296,0.592l-1.986,0.993    l-0.289-1.444l-1.961,0.393l0.34,1.702L9.142,35.01l-0.283,1.98l6.918,0.988l0.244,1.218l1.961-0.393l-0.305-1.523l2.771-1.386    c0.193-0.097,0.351-0.254,0.447-0.447l0.282-0.565L22.4,35.8l1.2-1.6l-1.514-1.136l1.809-3.617L22.105,28.553z"/>
	</g>
	<g>
		<polygon style="fill:#566164;" points="43.176,45 20.824,45 19.882,49 44.118,49   "/>
	</g>
	<g>
		<polygon style="fill:#919191;" points="45.782,56.073 44.118,49 19.882,49 18.218,56.073 26.636,58.879 28,55 36,55     37.364,58.879   "/>
	</g>
	<g>
		<rect x="24" y="45" style="fill:#ABABAB;" width="6" height="4"/>
	</g>
	<g>
		<rect x="34" y="45" style="fill:#ABABAB;" width="6" height="4"/>
	</g>
	<g>
		<path style="fill:#566164;" d="M18.218,56.073l-0.099,0.422C18.04,56.831,18,57.174,18,57.519v0.012    C18,59.999,20.001,62,22.469,62c1.57,0,3.025-0.824,3.833-2.17l0.334-0.951L18.218,56.073z"/>
	</g>
	<g>
		<path style="fill:#566164;" d="M41.531,62C43.999,62,46,59.999,46,57.531v-0.012c0-0.345-0.04-0.688-0.119-1.024l-0.099-0.422    l-8.418,2.806l0.334,0.951C38.506,61.176,39.961,62,41.531,62L41.531,62z"/>
	</g>
	<g>
		<path style="fill:#3B4546;" d="M58.716,50c-0.11-0.849-0.195-1.701-0.256-2.557L58,41l-6,1l3,8"/>
	</g>
	<g>
		<path style="fill:#939FA5;" d="M52,50l6.716,0c0.531,4.115,1.63,8.142,3.268,11.963L62,62l-0.104-0.06    c-4.456-2.546-7.882-6.571-9.684-11.377L52,50z"/>
	</g>
	<g>
		<path style="fill:#3B4546;" d="M5.284,50c0.11-0.849,0.195-1.701,0.256-2.557L6,41l6,1l-3,8"/>
	</g>
	<g>
		<path style="fill:#939FA5;" d="M12,50l-6.716,0c-0.531,4.115-1.63,8.142-3.268,11.963L2,62l0.104-0.06    c4.456-2.546,7.882-6.571,9.684-11.377L12,50z"/>
	</g>
	<g>
		<circle style="fill:#B8A490;" cx="32" cy="17" r="15"/>
	</g>
	<g>
		<ellipse style="fill:#D2C3AF;" cx="30.5" cy="17" rx="13.5" ry="14.924"/>
	</g>
	<g>
		<circle style="fill:#ABABAB;" cx="28" cy="17" r="2"/>
	</g>
	<g>
		<circle style="fill:#ABABAB;" cx="36" cy="17" r="2"/>
	</g>
	<g>
		<path d="M32,33c-8.822,0-16-7.178-16-16S23.178,1,32,1s16,7.178,16,16S40.822,33,32,33z M32,3c-7.72,0-14,6.28-14,14    s6.28,14,14,14s14-6.28,14-14S39.72,3,32,3z"/>
	</g>
	<g>
		<path d="M5.292,47.742C2.765,46.965,1,44.604,1,42c0-3.212,2.537-5.842,5.711-5.993l14.774-8.864l1.029,1.715l-15,9    C7.359,37.951,7.181,38,7,38c-2.206,0-4,1.794-4,4c0,1.706,1.211,3.317,2.88,3.83L5.292,47.742z"/>
	</g>
	<g>
		<path d="M41.531,63c-1.911,0-3.708-1.018-4.69-2.655c-0.035-0.059-0.063-0.119-0.086-0.183L35.292,56h-6.583l-1.463,4.162    c-0.022,0.063-0.051,0.124-0.086,0.183C26.177,61.982,24.38,63,22.469,63C19.454,63,17,60.546,17,57.53    c0-0.433,0.049-0.854,0.145-1.264l3.525-14.98l-8.474,1.694l-0.393-1.961l10-2c0.336-0.065,0.679,0.041,0.915,0.285    c0.237,0.245,0.333,0.593,0.255,0.925l-3.881,16.495C19.031,56.984,19,57.252,19,57.519C19,59.443,20.556,61,22.469,61    c1.18,0,2.292-0.612,2.925-1.604l1.663-4.729C27.197,54.268,27.576,54,28,54h8c0.424,0,0.803,0.268,0.943,0.668l1.663,4.729    C39.239,60.388,40.351,61,41.531,61C43.444,61,45,59.443,45,57.53c0-0.278-0.031-0.546-0.092-0.807l-3.881-16.494    c-0.078-0.332,0.018-0.68,0.255-0.925c0.237-0.244,0.584-0.348,0.915-0.285l10,2l-0.393,1.961l-8.474-1.694l3.525,14.979    C46.951,56.677,47,57.098,47,57.519C47,60.546,44.546,63,41.531,63z"/>
	</g>
	<g>
		<path d="M58.77,47.723l-0.61-1.904C59.832,45.282,61,43.713,61,42c0-2.206-1.794-4-4-4c-0.181,0-0.359-0.049-0.515-0.143l-15-9    l1.029-1.715l14.774,8.864C60.463,36.158,63,38.788,63,42C63,44.572,61.261,46.925,58.77,47.723z"/>
	</g>
	<g>
		<path d="M35.293,28.707l-0.829-0.829C33.906,27.32,33.133,27,32.343,27h-0.687c-0.79,0-1.562,0.32-2.121,0.878l-0.829,0.829    l-1.414-1.414l0.829-0.829C29.066,25.52,30.321,25,31.657,25h0.687c1.335,0,2.591,0.52,3.535,1.464l0.829,0.829L35.293,28.707z"/>
	</g>
	<g>
		<rect x="21.5" y="52.757" transform="matrix(0.3162 -0.9487 0.9487 0.3162 -39.1644 60.6623)" width="1.999" height="9.487"/>
	</g>
	<g>
		<rect x="36.757" y="56.5" transform="matrix(0.9486 -0.3165 0.3165 0.9486 -16.0662 16.0919)" width="9.487" height="1.999"/>
	</g>
	<g>
		<rect x="21" y="44" width="22" height="2"/>
	</g>
	<g>
		<rect x="20" y="48" width="24" height="2"/>
	</g>
	<g>
		<rect x="29" y="45" width="2" height="4"/>
	</g>
	<g>
		<rect x="33" y="45" width="2" height="4"/>
	</g>
	<g>
		<rect x="23" y="45" width="2" height="4"/>
	</g>
	<g>
		<rect x="39" y="45" width="2" height="4"/>
	</g>
	<g>
		<path d="M2,63c-0.241,0-0.479-0.087-0.667-0.255c-0.321-0.287-0.422-0.747-0.251-1.142c1.951-4.553,3.11-9.33,3.46-14.231    l0.46-6.443c0.02-0.281,0.158-0.54,0.379-0.714c0.221-0.176,0.504-0.248,0.783-0.201l6,1c0.295,0.049,0.552,0.228,0.702,0.486    s0.175,0.571,0.07,0.852L10.443,49H12c0.328,0,0.635,0.161,0.822,0.431c0.187,0.27,0.229,0.613,0.114,0.921l-0.211,0.563    c-1.88,5.013-5.475,9.236-10.124,11.894l-0.105,0.061C2.341,62.957,2.17,63,2,63z M6.155,51c-0.425,2.866-1.119,5.681-2.077,8.417    c2.825-2.199,5.061-5.101,6.46-8.417H6.155z M6.407,49h1.9l2.33-6.213l-3.718-0.62l-0.382,5.348    C6.501,48.011,6.458,48.506,6.407,49z"/>
	</g>
	<g>
		<path d="M61.976,62.993c-0.162,0-0.323-0.04-0.471-0.124L61.4,62.81c-4.65-2.658-8.245-6.882-10.125-11.895l-0.211-0.563    c-0.115-0.308-0.073-0.651,0.114-0.921C51.365,49.161,51.672,49,52,49h1.557l-2.494-6.648c-0.105-0.28-0.079-0.593,0.07-0.852    s0.407-0.438,0.702-0.486l6-1c0.277-0.046,0.562,0.025,0.783,0.201c0.221,0.174,0.359,0.433,0.379,0.714l0.46,6.443    c0.35,4.901,1.509,9.679,3.445,14.198c0.169,0.395,0.075,0.871-0.245,1.157C62.465,62.9,62.221,62.993,61.976,62.993z M53.461,51    c1.4,3.317,3.636,6.219,6.463,8.419c-0.96-2.745-1.655-5.558-2.079-8.419H53.461z M55.693,49h1.9    c-0.051-0.494-0.095-0.989-0.13-1.485l-0.382-5.348l-3.718,0.62L55.693,49z"/>
	</g>
	<g>
		<rect x="7.5" y="42.95" transform="matrix(0.1961 -0.9806 0.9806 0.1961 -37.7834 44.9117)" width="2" height="5.099"/>
	</g>
	<g>
		<rect x="52.95" y="44.5" transform="matrix(0.9805 -0.1963 0.1963 0.9805 -7.852 11.7802)" width="5.099" height="2"/>
	</g>
	<g>
		<path d="M28,20c-1.654,0-3-1.346-3-3s1.346-3,3-3s3,1.346,3,3S29.654,20,28,20z M28,16c-0.551,0-1,0.449-1,1s0.449,1,1,1    s1-0.449,1-1S28.551,16,28,16z"/>
	</g>
	<g>
		<path d="M36,20c-1.654,0-3-1.346-3-3s1.346-3,3-3s3,1.346,3,3S37.654,20,36,20z M36,16c-0.551,0-1,0.449-1,1s0.449,1,1,1    s1-0.449,1-1S36.551,16,36,16z"/>
	</g>
	<g>
		<g>
			<path style="fill:#792F21;" d="M30,13h-0.877c-2.887,0-5.393-1.957-6.093-4.757l1.94-0.485c0.312,1.246,1.147,2.247,2.238,2.792     C26.43,9.327,26,7.892,26,6.395V5h2v1.395c0,1.922,0.955,3.707,2.555,4.773c0.367,0.245,0.53,0.7,0.402,1.122     C30.83,12.711,30.44,13,30,13z"/>
		</g>
	</g>
	<g>
		<g>
			<path style="fill:#792F21;" d="M34.877,13H34c-0.44,0-0.83-0.289-0.957-0.71c-0.128-0.422,0.036-0.877,0.402-1.122     C35.045,10.102,36,8.317,36,6.395V5h2v1.395c0,1.497-0.43,2.933-1.208,4.155c1.09-0.545,1.926-1.546,2.238-2.792l1.94,0.485     C40.27,11.043,37.764,13,34.877,13z"/>
		</g>
	</g>
	<g>
		<g>
			<path style="fill:#792F21;" d="M23.316,25.949l-0.633-1.897l2.37-0.79c-1.908-0.736-3.604-1.996-4.853-3.662l1.6-1.2     c1.691,2.254,4.382,3.6,7.2,3.6c0.49,0,0.909,0.355,0.987,0.84c0.078,0.484-0.206,0.954-0.671,1.109L23.316,25.949z"/>
		</g>
	</g>
	<g>
		<g>
			<path style="fill:#792F21;" d="M40.684,25.949l-6-2c-0.465-0.155-0.749-0.625-0.671-1.109C34.091,22.355,34.51,22,35,22     c2.818,0,5.509-1.346,7.2-3.6l1.6,1.2c-1.249,1.666-2.945,2.925-4.853,3.662l2.37,0.79L40.684,25.949z"/>
		</g>
	</g>
</g>
</svg>
