<?xml version="1.0" encoding="iso-8859-1"?>
<!-- Generator: Adobe Illustrator 22.1.0, SVG Export Plug-In . SVG Version: 6.00 Build 0)  -->
<svg xmlns="http://www.w3.org/2000/svg" xmlns:xlink="http://www.w3.org/1999/xlink" version="1.1" id="Layer_3" x="0px" y="0px" viewBox="0 0 64 64" style="enable-background:new 0 0 64 64;" xml:space="preserve" width="512" height="512">
<g>
	<g>
		<path style="fill:#919191;" d="M47.951,24.893c3.326-7.206,5.365-14.939,6.024-22.849L53.978,2l7,7v0.27    c0,4.377-1.368,8.644-3.912,12.206l-0.644,0.902c-2.977,1.631-6.071,3.04-9.257,4.216L47.951,24.893z"/>
	</g>
	<g>
		<path style="fill:#B9B9B9;" d="M50.951,24.893c2.951-6.393,4.882-13.201,5.742-20.178L60.978,9v0.27    c0,4.377-1.368,8.644-3.912,12.206l-0.644,0.902c-1.812,0.993-3.673,1.893-5.566,2.719L50.951,24.893z"/>
	</g>
	<g>
		<path style="fill:#CA5057;" d="M43.625,47h3.353l3,3c0,0,6.146-3.073,6.146-3.073c-2.354-0.405-4.146-2.457-4.146-4.927l-10-2    L43.625,47z"/>
	</g>
	<g>
		<path style="fill:#B9B9B9;" d="M49.978,50l-3-3h-3.353c0,0-0.569-2.417-1.055-4.482L49.978,44c0,2.021,1.208,3.745,2.933,4.533    C51.423,49.278,49.978,50,49.978,50z"/>
	</g>
	<g>
		<path style="fill:#B9B9B9;" d="M50.311,33h9.667l-2.048,4.096C57.621,37.036,57.304,37,56.978,37L50.311,33z"/>
	</g>
	<g>
		<path style="fill:#CA5057;" d="M42.97,27.968l0.128-0.038c6.551-1.941,12.778-4.845,18.476-8.617L62,19.032l-3.034,9.99l-0.1,0.05    c-2.59,1.284-5.357,2.174-8.211,2.639l-1.961,0.32"/>
	</g>
	<g>
		<path style="fill:#B9B9B9;" d="M58.966,29.022l-0.1,0.049c-2.59,1.284-5.357,2.174-8.211,2.64l-1.961,0.32l-2.842-2.017    c5.284-1.81,10.327-4.26,15.026-7.289L58.966,29.022z"/>
	</g>
	<g>
		<path style="fill:#919191;" d="M16.028,24.893c-3.326-7.206-5.365-14.939-6.024-22.849L10,2L3,9v0.27    c0,4.377,1.368,8.644,3.912,12.206l0.644,0.902c2.977,1.631,6.071,3.04,9.257,4.216L16.028,24.893z"/>
	</g>
	<g>
		<path style="fill:#B9B9B9;" d="M13.028,24.893C10.077,18.5,8.145,11.692,7.285,4.715L3,9v0.27c0,4.377,1.368,8.644,3.912,12.206    l0.644,0.902c1.812,0.993,3.673,1.893,5.566,2.719L13.028,24.893z"/>
	</g>
	<g>
		<path style="fill:#876440;" d="M42,28l15,9c2.761,0,5,2.238,5,5c0,2.703-2.297,5.001-5,5c-2.761,0-5-2.239-5-5l-10-2l3.881,16.495    C45.96,56.831,46,57.174,46,57.519v0.012C46,59.999,43.999,62,41.531,62h0c-1.57,0-3.025-0.824-3.833-2.17L36,57h-8l-1.698,2.83    C25.494,61.176,24.039,62,22.469,62h0C20.001,62,18,59.999,18,57.531v-0.012c0-0.345,0.04-0.688,0.119-1.024L22,40l-10,2    c0,2.761-2.238,5-5,5C4.297,47,2,44.703,2,42c0-2.761,2.239-5,5-5l15-9"/>
	</g>
	<g>
		<path style="fill:#CA5057;" d="M20.353,47H17l-3,3c0,0-6.146-3.073-6.146-3.073C10.209,46.522,12,44.47,12,42l10-2L20.353,47z"/>
	</g>
	<g>
		<path style="fill:#B9B9B9;" d="M14,50l3-3h3.353c0,0,0.569-2.417,1.055-4.482L14,44c0,2.021-1.208,3.745-2.933,4.533    C12.555,49.278,14,50,14,50z"/>
	</g>
	<g>
		<path style="fill:#3B4546;" d="M20.811,45.054L28,43h8c0,0,7.189,2.054,7.189,2.054l2.692,11.441    C45.96,56.831,46,57.174,46,57.519v0.012C46,59.999,43.999,62,41.531,62h0c-1.57,0-3.025-0.824-3.833-2.17L36,57h-8l-1.698,2.83    C25.494,61.176,24.039,62,22.469,62h0C20.001,62,18,59.999,18,57.531v-0.012c0-0.345,0.04-0.688,0.119-1.024L20.811,45.054z"/>
	</g>
	<g>
		<polygon style="fill:#B9B9B9;" points="27,51 25,49 19.882,49 18.235,56 23,56   "/>
	</g>
	<g>
		<polygon style="fill:#B9B9B9;" points="45.765,56 44.118,49 39,49 37,51 41,56   "/>
	</g>
	<g>
		<polygon style="fill:#B9B9B9;" points="29,47 35,47 33,52 31,52   "/>
	</g>
	<g>
		<path style="fill:#CA5057;" d="M23.887,29.619L22,40l-1.189,5.054L28,43h8l7.189,2.054C43.189,45.054,42,40,42,40l-1.887-10.381    C37.774,31.126,34.989,32,32,32C29.011,32,26.226,31.126,23.887,29.619z"/>
	</g>
	<g>
		<path style="fill:#B9B9B9;" d="M41.231,35.769l-2.096,2.096C38.408,38.592,37.423,39,36.395,39h0c-1.468,0-2.81,0.829-3.466,2.142    L32,43l-0.929-1.858C30.415,39.829,29.073,39,27.605,39h0c-1.028,0-2.013-0.408-2.74-1.135c0,0-2.096-2.096-2.096-2.096    l1.118-6.152l-0.001,0.001C26.226,31.126,29.011,32,32,32c2.989,0,5.774-0.874,8.113-2.381    C40.113,29.619,41.231,35.769,41.231,35.769z"/>
	</g>
	<g>
		<path style="fill:#3B4546;" d="M50.205,41.641L52,42c0,2.761,2.238,5,5,5c2.703,0,5.001-2.297,5-5c0-2.761-2.239-5-5-5    l-3.085-1.851L50.205,41.641z"/>
	</g>
	<g>
		<path style="fill:#3B4546;" d="M10.085,35.149L7,37c-2.761,0-5,2.238-5,5C2,44.703,4.297,47,7,47c2.761,0,5-2.239,5-5l1.795-0.359    L10.085,35.149z"/>
	</g>
	<g>
		<path style="fill:#B9B9B9;" d="M13.667,33H4l2.048,4.096C6.357,37.036,6.674,37,7,37L13.667,33z"/>
	</g>
	<g>
		<path d="M16.092,27.419l-0.973-2.107c-3.093-6.701-5.076-13.793-5.907-21.109L4.001,9.414c0.028,4.142,1.314,8.109,3.724,11.481    l0.659,0.921l-1.627,1.163l-0.659-0.922C3.417,18.305,2,13.883,2,9.27V9c0-0.265,0.105-0.52,0.293-0.707l7-7    c0.273-0.275,0.683-0.367,1.049-0.233c0.364,0.133,0.62,0.464,0.654,0.852c0.656,7.867,2.652,15.442,5.939,22.562l0.973,2.107    L16.092,27.419z"/>
	</g>
	<g>
		<path style="fill:#CA5057;" d="M21.008,27.968L20.88,27.93c-6.551-1.941-12.778-4.845-18.476-8.617l-0.425-0.282l3.034,9.99    l0.1,0.05c2.59,1.284,5.357,2.174,8.211,2.639l1.961,0.32"/>
	</g>
	<g>
		<path style="fill:#B9B9B9;" d="M5.012,29.022l0.1,0.049c2.59,1.284,5.357,2.174,8.211,2.64l1.961,0.32l2.842-2.017    c-5.284-1.81-10.327-4.26-15.026-7.289L5.012,29.022z"/>
	</g>
	<g>
		<circle style="fill:#664C37;" cx="32" cy="17" r="15"/>
	</g>
	<g>
		<ellipse style="fill:#876440;" cx="30.5" cy="17" rx="13.5" ry="14.924"/>
	</g>
	<g>
		<path style="fill:#3B4546;" d="M26.946,31.108C28.527,31.675,30.224,32,32,32c1.776,0,3.473-0.325,5.054-0.892L35,27h-6    L26.946,31.108z"/>
	</g>
	<g>
		<path style="fill:#3B4546;" d="M46.851,15C45.871,7.664,39.604,2,32,2S18.129,7.664,17.149,15h4.033    c0.481-2.616,1.887-4.908,3.866-6.525l0,0C26.425,9.983,29.023,11,32,11s5.575-1.017,6.952-2.525l0,0    c1.98,1.616,3.386,3.909,3.866,6.525H46.851z"/>
	</g>
	<g>
		<path style="fill:#C8281C;" d="M46.851,15H36l-4,4l-4-4H17.149C17.061,15.656,17,16.32,17,17c0,2.383,0.57,4.627,1.559,6.628    L21,22l5,4l6-4l6,4l5-4l2.441,1.628C46.43,21.627,47,19.383,47,17C47,16.32,46.939,15.656,46.851,15z"/>
	</g>
	<g>
		<path style="fill:#DF3322;" d="M32,19l-4-4H17.149C17.061,15.656,17,16.32,17,17c0,2.383,0.57,4.627,1.559,6.628L21,22l5,4l6-4    l6,4l5-4l0.103,0.069C43.673,20.483,44,18.782,44,17c0-0.68-0.061-1.344-0.149-2H36L32,19z"/>
	</g>
	<g>
		<circle style="fill:#919191;" cx="26" cy="20" r="2"/>
	</g>
	<g>
		<circle style="fill:#919191;" cx="38" cy="20" r="2"/>
	</g>
	<g>
		<path d="M32,33c-8.822,0-16-7.178-16-16S23.178,1,32,1s16,7.178,16,16S40.822,33,32,33z M32,3c-7.72,0-14,6.28-14,14    s6.28,14,14,14s14-6.28,14-14S39.72,3,32,3z"/>
	</g>
	<g>
		<path d="M41.53,63c-1.91,0-3.707-1.018-4.689-2.655L35.434,58h-6.867l-1.407,2.345C26.177,61.982,24.38,63,22.47,63    C19.454,63,17,60.546,17,57.531c0-0.433,0.049-0.855,0.146-1.265l3.524-14.98l-7.728,1.545C12.536,45.748,10.026,48,7,48    c-3.252,0-6-2.748-6-6c0-3.211,2.537-5.842,5.712-5.993l14.773-8.864l1.029,1.715l-15,9C7.359,37.951,7.182,38,7,38    c-2.206,0-4,1.794-4,4c0,2.168,1.832,4,4,4c2.206,0,4-1.794,4-4c0-0.477,0.337-0.887,0.804-0.98l10-2    c0.336-0.067,0.678,0.041,0.915,0.285c0.236,0.245,0.333,0.593,0.255,0.924l-3.881,16.495C19.031,56.985,19,57.252,19,57.519    C19,59.444,20.557,61,22.47,61c1.212,0,2.352-0.646,2.975-1.685l1.698-2.83C27.323,56.184,27.648,56,28,56h8    c0.352,0,0.677,0.184,0.857,0.485l1.698,2.83C39.179,60.354,40.318,61,41.53,61c1.913,0,3.47-1.556,3.47-3.469    c0-0.279-0.031-0.546-0.093-0.806l-3.881-16.496c-0.078-0.331,0.019-0.68,0.255-0.924c0.237-0.244,0.583-0.353,0.915-0.285l10,2    C52.663,41.113,53,41.523,53,42c0,2.206,1.794,4,4,4c2.168,0,4-1.832,4-4c0-2.206-1.794-4-4-4c-0.182,0-0.359-0.049-0.515-0.143    l-15-9l1.029-1.715l14.773,8.864C60.463,36.158,63,38.788,63,42c0,3.252-2.748,6-6,6c-3.026,0-5.536-2.252-5.942-5.169    l-7.728-1.545l3.524,14.98C46.951,56.676,47,57.098,47,57.519C47,60.546,44.546,63,41.53,63z"/>
	</g>
	<g>
		<path d="M32,20c-0.256,0-0.512-0.098-0.707-0.293L27.586,16H17v-2h11c0.266,0,0.52,0.105,0.707,0.293L32,17.586l3.293-3.293    C35.48,14.105,35.734,14,36,14h11v2H36.414l-3.707,3.707C32.512,19.902,32.256,20,32,20z"/>
	</g>
	<g>
		<path d="M38,27c-0.193,0-0.386-0.056-0.555-0.168L32,23.202l-5.445,3.63c-0.362,0.241-0.838,0.221-1.18-0.051l-4.429-3.543    l-2.392,1.594l-1.109-1.664l3-2c0.363-0.241,0.838-0.222,1.18,0.051l4.429,3.543l5.392-3.594c0.336-0.224,0.773-0.224,1.109,0    l5.392,3.594l4.429-3.543c0.343-0.273,0.817-0.292,1.18-0.051l3,2l-1.109,1.664l-2.392-1.594l-4.429,3.543    C38.442,26.926,38.222,27,38,27z"/>
	</g>
	<g>
		<path d="M26,23c-1.654,0-3-1.346-3-3s1.346-3,3-3s3,1.346,3,3S27.654,23,26,23z M26,19c-0.552,0-1,0.449-1,1s0.448,1,1,1    s1-0.449,1-1S26.552,19,26,19z"/>
	</g>
	<g>
		<path d="M38,23c-1.654,0-3-1.346-3-3s1.346-3,3-3s3,1.346,3,3S39.654,23,38,23z M38,19c-0.552,0-1,0.449-1,1s0.448,1,1,1    s1-0.449,1-1S38.552,19,38,19z"/>
	</g>
	<g>
		<path d="M36.105,31.447L34.382,28h-4.764l-1.724,3.447l-1.789-0.895l2-4C28.275,26.214,28.621,26,29,26h6    c0.379,0,0.725,0.214,0.895,0.553l2,4L36.105,31.447z"/>
	</g>
	<g>
		<path d="M41.835,15.181c-0.374-2.037-1.381-3.908-2.866-5.352C37.283,11.201,34.758,12,32,12s-5.283-0.799-6.969-2.171    c-1.485,1.443-2.492,3.314-2.866,5.352l-1.967-0.361c0.512-2.788,2.01-5.316,4.217-7.119c0.411-0.335,1.013-0.292,1.371,0.1    C27.024,9.157,29.405,10,32,10c2.594,0,4.976-0.842,6.214-2.199c0.357-0.394,0.959-0.435,1.371-0.1    c2.207,1.802,3.705,4.33,4.217,7.118L41.835,15.181z"/>
	</g>
	<g>
		<rect x="47.969" y="37.5" transform="matrix(0.4961 -0.8682 0.8682 0.4961 -7.2266 64.5473)" width="8.062" height="2"/>
	</g>
	<g>
		<rect x="11" y="34.469" transform="matrix(0.8682 -0.4961 0.4961 0.8682 -17.5203 11.0263)" width="2" height="8.062"/>
	</g>
	<g>
		<path d="M15.122,33.018l-1.961-0.32c-2.955-0.482-5.812-1.401-8.494-2.73l-0.099-0.049c-0.248-0.122-0.434-0.341-0.514-0.605    l-3.033-9.99c-0.122-0.404,0.021-0.841,0.359-1.093c0.34-0.252,0.799-0.265,1.15-0.031l0.425,0.282    c5.621,3.72,11.747,6.577,18.208,8.491l0.129,0.039l-0.57,1.917l-0.128-0.038c-5.938-1.76-11.604-4.293-16.868-7.543l2.116,6.97    c2.419,1.166,4.988,1.976,7.641,2.409l1.961,0.32L15.122,33.018z"/>
	</g>
	<g>
		<path d="M5.105,37.447l-2-4c-0.155-0.31-0.139-0.678,0.044-0.973C3.332,32.18,3.653,32,4,32h10v2H5.618l1.276,2.553L5.105,37.447z    "/>
	</g>
	<g>
		<path d="M47.908,27.419l-1.816-0.838l0.973-2.107C50.352,17.354,52.348,9.779,53,1.961c0.032-0.388,0.288-0.744,0.654-0.878    c0.363-0.133,0.777-0.066,1.053,0.21l7,7C61.895,8.48,62,8.735,62,9v0.27c0,4.613-1.417,9.035-4.098,12.787l-0.659,0.922    l-1.627-1.163l0.659-0.922c2.409-3.373,3.695-7.339,3.724-11.481l-5.211-5.211c-0.836,7.335-2.818,14.417-5.907,21.11    L47.908,27.419z"/>
	</g>
	<g>
		<path d="M49.164,32.986l-0.328-1.973l1.698-0.283c2.65-0.442,5.217-1.26,7.633-2.434l2.093-6.977    c-5.254,3.267-10.91,5.82-16.845,7.6l-0.126,0.038l-0.578-1.915l0.128-0.039c6.457-1.937,12.573-4.814,18.182-8.553l0.425-0.283    c0.35-0.234,0.811-0.223,1.149,0.028c0.339,0.25,0.484,0.687,0.363,1.091l-3,10c-0.079,0.264-0.265,0.484-0.511,0.607l-0.1,0.05    c-2.678,1.339-5.532,2.267-8.485,2.759L49.164,32.986z"/>
	</g>
	<g>
		<path d="M58.895,37.447l-1.789-0.895L58.382,34H50v-2h10c0.347,0,0.668,0.18,0.851,0.474c0.183,0.295,0.199,0.663,0.044,0.973    L58.895,37.447z"/>
	</g>
	<g>
		<path d="M14,51c-0.152,0-0.305-0.035-0.447-0.105l-6-3l0.895-1.789l5.355,2.678l2.49-2.49C16.48,46.105,16.734,46,17,46h3v2    h-2.586l-2.707,2.707C14.515,50.899,14.259,51,14,51z"/>
	</g>
	<g>
		<path d="M50,51c-0.259,0-0.515-0.101-0.707-0.293L46.586,48H44v-2h3c0.266,0,0.52,0.105,0.707,0.293l2.49,2.49l5.355-2.678    l0.895,1.789l-6,3C50.305,50.965,50.152,51,50,51z"/>
	</g>
	<g>
		<path d="M23,57h-5v-2h4.52l3.141-3.926L24.586,50H20v-2h5c0.266,0,0.52,0.105,0.707,0.293l2,2c0.36,0.36,0.393,0.934,0.074,1.332    l-4,5C23.591,56.862,23.304,57,23,57z"/>
	</g>
	<g>
		<path d="M46,57h-5c-0.304,0-0.591-0.138-0.781-0.375l-4-5c-0.318-0.398-0.286-0.971,0.074-1.332l2-2C38.48,48.105,38.734,48,39,48    h5v2h-4.586l-1.074,1.074L41.48,55H46V57z"/>
	</g>
	<g>
		<path d="M42.726,45.961L35.86,44H28.14l-6.865,1.961l-0.549-1.923l7-2C27.814,42.013,27.907,42,28,42h8    c0.093,0,0.186,0.013,0.274,0.039l7,2L42.726,45.961z"/>
	</g>
	<g>
		<path d="M33,53h-2c-0.409,0-0.776-0.249-0.929-0.628l-2-5c-0.123-0.308-0.085-0.657,0.101-0.932C28.358,46.165,28.668,46,29,46h6    c0.332,0,0.642,0.165,0.828,0.439c0.186,0.275,0.224,0.624,0.101,0.932l-2,5C33.776,52.751,33.409,53,33,53z M31.677,51h0.646    l1.2-3h-3.047L31.677,51z"/>
	</g>
	<g>
		<rect x="17.41" y="33.5" transform="matrix(0.1788 -0.9839 0.9839 0.1788 -15.0564 50.9608)" width="11.18" height="1.999"/>
	</g>
	<g>
		<rect x="40" y="28.91" transform="matrix(0.9839 -0.1789 0.1789 0.9839 -5.5102 7.8908)" width="1.999" height="11.18"/>
	</g>
	<g>
		<path d="M31.105,43.447l-0.929-1.858C29.687,40.609,28.701,40,27.605,40c-1.303,0-2.526-0.507-3.447-1.428l-1.865-1.865    l1.414-1.414l1.865,1.865C26.115,37.701,26.837,38,27.605,38c1.858,0,3.529,1.033,4.36,2.695l0.929,1.858L31.105,43.447z"/>
	</g>
	<g>
		<path d="M32.895,43.447l-1.789-0.895l0.929-1.858C32.865,39.033,34.536,38,36.395,38c0.769,0,1.49-0.299,2.033-0.842l1.865-1.865    l1.414,1.414l-1.865,1.865C38.921,39.493,37.697,40,36.395,40c-1.096,0-2.081,0.609-2.571,1.589L32.895,43.447z"/>
	</g>
	<g>
		<rect x="31" y="32" width="2" height="11"/>
	</g>
</g>
</svg>
