<?xml version="1.0" encoding="iso-8859-1"?>
<!-- Generator: Adobe Illustrator 22.1.0, SVG Export Plug-In . SVG Version: 6.00 Build 0)  -->
<svg xmlns="http://www.w3.org/2000/svg" xmlns:xlink="http://www.w3.org/1999/xlink" version="1.1" id="Layer_3" x="0px" y="0px" viewBox="0 0 64 64" style="enable-background:new 0 0 64 64;" xml:space="preserve" width="512" height="512">
<g>
	<g>
		<path style="fill:#91BB3B;" d="M57,37l-14.882-8.929C39.45,30.51,35.9,32,32,32c-3.9,0-7.451-1.49-10.118-3.929L7,37    c-2.761,0-5,2.238-5,5C2,44.703,4.297,47,7,47c2.761,0,5-2.239,5-5l9-4l3,7l-5.881,11.495C18.04,56.831,18,57.174,18,57.519v0.012    C18,59.999,20.001,62,22.469,62h0c1.57,0,3.025-0.824,3.832-2.17L30,54h4l3.698,5.83c0.808,1.346,2.263,2.17,3.832,2.17h0    C43.999,62,46,59.999,46,57.531v-0.012c0-0.345-0.04-0.688-0.119-1.024L40,45l3-7l9,4c0,2.761,2.238,5,5,5    c2.703,0,5.001-2.297,5-5C62,39.238,59.761,37,57,37z"/>
	</g>
	<g>
		<path style="fill:#566164;" d="M18.119,56.495C18.04,56.831,18,57.174,18,57.519v0.012C18,59.999,20.001,62,22.469,62    c1.57,0,3.025-0.824,3.833-2.17l0.121-0.191l-7.511-4.694L18.119,56.495z"/>
	</g>
	<g>
		<path style="fill:#566164;" d="M46,57.519c0-0.345-0.04-0.688-0.119-1.024l-0.793-1.55l-7.511,4.694l0.121,0.191    c0.808,1.346,2.263,2.17,3.832,2.17h0C43.999,62,46,59.999,46,57.531V57.519z"/>
	</g>
	<g>
		<polygon style="fill:#3B4546;" points="26.423,59.639 28.79,55.907 20.341,52.152 18.912,54.945   "/>
	</g>
	<g>
		<polygon style="fill:#3B4546;" points="45.088,54.945 43.659,52.152 35.21,55.907 37.577,59.639   "/>
	</g>
	<g>
		<polygon style="fill:#2B62A1;" points="40,45 24,45 20.341,52.152 28.79,55.907 30,54 34,54 35.21,55.907 43.659,52.152   "/>
	</g>
	<g>
		<polygon style="fill:#3B4546;" points="24,45 21,38 24,32 24.702,33.826 32,38.083 39.298,33.826 40,32 43,38 40,45   "/>
	</g>
	<g>
		<polygon style="fill:#566164;" points="10.095,35.143 14.057,41.086 18.949,38.911 15.085,32.149   "/>
	</g>
	<g>
		<path style="fill:#6F5C89;" d="M42.12,28.072C39.452,30.512,35.9,32,32,32c-3.9,0-7.452-1.488-10.12-3.928l-6.71,4.026    c0,0-0.998-0.594-0.998-0.594c-0.977-0.586-1.846-1.313-2.585-2.15C11.588,29.354,13,27,13,27s-0.306-3.059-0.306-3.059    c1.043-0.161,2.015-0.65,2.77-1.406l0.071-0.071C16.473,21.527,17,20.255,17,18.929V17h0c0-8.525,7.111-15.388,15.725-14.983    C40.793,2.397,47,9.347,47,17.424l0,1.505c0,1.326,0.527,2.598,1.464,3.536l0.071,0.071C49.473,23.473,50.745,24,52.071,24H55    l-0.046,0.228c-0.608,3.039-2.469,5.681-5.127,7.275L49,32c0,0-0.175,0.095-0.175,0.095C48.825,32.095,42.12,28.072,42.12,28.072z    "/>
	</g>
	<g>
		<polygon style="fill:#B8A490;" points="4,23 2,26 2,31 6,34 7,43 11,42 10,32 13,27 11,7 7,2 3,8   "/>
	</g>
	<g>
		<polygon style="fill:#566164;" points="53.905,35.143 48.915,32.149 45.051,38.911 49.943,41.086   "/>
	</g>
	<g>
		<path d="M41.531,63c-1.911,0-3.708-1.018-4.69-2.655L33.45,55h-2.9l-3.404,5.366C26.177,61.982,24.38,63,22.469,63    C19.454,63,17,60.546,17,57.53c0-0.433,0.049-0.854,0.145-1.264c0.019-0.079,0.046-0.155,0.083-0.227l5.667-11.077l-2.416-5.638    l-7.517,3.341C12.631,45.662,10.083,48,7,48c-3.252,0-6-2.748-6-6c0-2.998,2.239-5.556,5.207-5.948l0.263,1.982    C4.492,38.296,3,40.001,3,42c0,2.168,1.832,4,4,4c2.206,0,4-1.794,4-4c0-0.396,0.233-0.753,0.594-0.914l9-4    c0.245-0.108,0.522-0.113,0.771-0.017c0.249,0.098,0.449,0.291,0.554,0.537l3,7c0.117,0.273,0.107,0.584-0.029,0.849l-5.822,11.38    C19.023,57.061,19,57.29,19,57.519C19,59.443,20.556,61,22.469,61c1.212,0,2.352-0.646,2.975-1.685l3.711-5.852    C29.339,53.175,29.658,53,30,53h4c0.342,0,0.661,0.175,0.844,0.464l3.698,5.83C39.179,60.354,40.319,61,41.531,61    C43.444,61,45,59.443,45,57.53c0-0.239-0.023-0.47-0.068-0.695l-5.822-11.38c-0.136-0.265-0.146-0.575-0.029-0.849l3-7    c0.105-0.246,0.305-0.439,0.554-0.537c0.25-0.099,0.526-0.093,0.771,0.017l9,4C52.767,41.247,53,41.604,53,42c0,2.206,1.794,4,4,4    c2.168,0,4-1.832,4-4c0-2.206-1.794-4-4-4c-0.181,0-0.359-0.049-0.515-0.143l-15-9l1.029-1.715l14.774,8.864    C60.463,36.158,63,38.788,63,42c0,3.252-2.748,6-6,6c-3.083,0-5.63-2.338-5.963-5.334l-7.517-3.341l-2.416,5.638l5.667,11.077    c0.037,0.071,0.065,0.147,0.083,0.227C46.951,56.677,47,57.098,47,57.519C47,60.546,44.546,63,41.531,63z"/>
	</g>
	<g>
		<path style="fill:#9FB86E;" d="M44.417,25.417l-0.66-0.66C42.632,23.632,42,22.106,42,20.515V14l-1.812-3.019    C39.451,9.752,38.123,9,36.69,9h0c-1.082,0-2.12,0.43-2.885,1.195L32,12l-1.805-1.805C29.43,9.43,28.392,9,27.31,9h0    c-1.433,0-2.761,0.752-3.499,1.981L22,14v6.515c0,1.591-0.632,3.117-1.757,4.243l-0.66,0.66l0,0C22.281,29.39,26.836,32,32,32    C37.164,32,41.719,29.39,44.417,25.417L44.417,25.417z"/>
	</g>
	<g>
		<circle style="fill:#ABABAB;" cx="28" cy="19" r="2"/>
	</g>
	<g>
		<circle style="fill:#ABABAB;" cx="36" cy="19" r="2"/>
	</g>
	<g>
		<path d="M49.515,32.857l-1.029-1.715l0.827-0.497c2.125-1.274,3.696-3.297,4.417-5.646h-1.658c-1.603,0-3.109-0.624-4.243-1.757    l-0.071-0.071C46.624,22.038,46,20.532,46,18.929v-1.505c0-7.728-5.852-14.056-13.322-14.408    c-3.877-0.183-7.545,1.186-10.34,3.853C19.541,9.537,18,13.135,18,17v1.929c0,1.603-0.624,3.109-1.757,4.243l-0.071,0.071    c-0.907,0.907-2.057,1.491-3.324,1.687l-0.306-1.977c0.845-0.13,1.611-0.519,2.216-1.124l0.071-0.071    C15.584,21.002,16,19.997,16,18.929V17c0-4.417,1.761-8.529,4.958-11.579c3.194-3.047,7.392-4.609,11.814-4.403    C41.311,1.42,48,8.626,48,17.424v1.505c0,1.068,0.416,2.073,1.171,2.829l0.071,0.071C49.998,22.584,51.003,23,52.071,23H55    c0.3,0,0.583,0.134,0.773,0.366s0.266,0.537,0.207,0.831l-0.046,0.229c-0.661,3.308-2.7,6.2-5.593,7.936L49.515,32.857z"/>
	</g>
	<g>
		<rect x="9.33" y="30.509" transform="matrix(0.8574 -0.5146 0.5146 0.8574 -13.9129 12.8049)" width="13.642" height="2"/>
	</g>
	<g>
		<rect x="23.5" y="49.076" transform="matrix(0.4061 -0.9138 0.9138 0.4061 -34.7962 54.4569)" width="2.001" height="9.849"/>
	</g>
	<g>
		<rect x="22" y="52.783" transform="matrix(0.53 -0.848 0.848 0.53 -37.9499 46.529)" width="1.999" height="9.434"/>
	</g>
	<g>
		<rect x="34.576" y="53" transform="matrix(0.9138 -0.4061 0.4061 0.9138 -18.527 20.6966)" width="9.849" height="2.001"/>
	</g>
	<g>
		<rect x="36.283" y="56.5" transform="matrix(0.848 -0.53 0.53 0.848 -24.2429 30.4701)" width="9.434" height="1.999"/>
	</g>
	<g>
		<rect x="24" y="44" width="16" height="2"/>
	</g>
	<g>
		<rect x="25.5" y="31.536" transform="matrix(0.9334 -0.359 0.359 0.9334 -12.054 12.0787)" width="2.001" height="13.928"/>
	</g>
	<g>
		<rect x="30.536" y="37.5" transform="matrix(0.3592 -0.9332 0.9332 0.3592 -11.9015 59.6659)" width="13.928" height="2.001"/>
	</g>
	<g>
		<rect x="30" y="30.554" transform="matrix(0.5039 -0.8638 0.8638 0.5039 -17.0117 45.382)" width="2.001" height="13.892"/>
	</g>
	<g>
		<rect x="26.054" y="36.5" transform="matrix(0.8639 -0.5037 0.5037 0.8639 -14.3965 21.726)" width="13.892" height="2.001"/>
	</g>
	<g>
		<rect x="48.394" y="37" transform="matrix(0.5547 -0.8321 0.8321 0.5547 -8.4623 60.188)" width="7.211" height="2"/>
	</g>
	<g>
		<rect x="42.969" y="34.5" transform="matrix(0.4961 -0.8682 0.8682 0.4961 -7.1412 58.6945)" width="8.062" height="2"/>
	</g>
	<g>
		<rect x="16" y="31.469" transform="matrix(0.8682 -0.4961 0.4961 0.8682 -15.3731 13.1117)" width="2" height="8.062"/>
	</g>
	<g>
		<rect x="37" y="42.397" transform="matrix(0.5735 -0.8192 0.8192 0.5735 -23.5243 51.8179)" width="2" height="12.207"/>
	</g>
	<g>
		<rect x="18.528" y="33" transform="matrix(0.4472 -0.8944 0.8944 0.4472 -17.6964 39.3666)" width="8.944" height="2"/>
	</g>
	<g>
		<rect x="40" y="29.528" transform="matrix(0.8944 -0.4472 0.4472 0.8944 -10.8768 21.9252)" width="2" height="8.944"/>
	</g>
	<g>
		<path d="M7,44c-0.202,0-0.402-0.062-0.571-0.179c-0.237-0.165-0.391-0.424-0.423-0.711l-0.953-8.57L1.4,31.8    C1.148,31.611,1,31.315,1,31v-5c0-0.197,0.059-0.391,0.168-0.555l1.812-2.717L2.002,8.066c-0.015-0.22,0.043-0.438,0.166-0.621    l4-6c0.177-0.266,0.47-0.431,0.789-0.444c0.332-0.012,0.625,0.126,0.824,0.375l4,5c0.121,0.15,0.195,0.333,0.214,0.525l2,20    c0.021,0.214-0.027,0.43-0.138,0.614l-2.83,4.716l0.967,9.67c0.049,0.494-0.271,0.949-0.752,1.069l-4,1C7.163,43.99,7.081,44,7,44    z M3,30.5l3.6,2.7c0.221,0.165,0.363,0.415,0.394,0.689l0.874,7.862l2.051-0.513L9.005,32.1c-0.021-0.214,0.027-0.43,0.138-0.614    l2.83-4.716L10.034,7.394L7.073,3.692l-3.053,4.58l0.977,14.662c0.015,0.22-0.043,0.438-0.166,0.621L3,26.303V30.5z"/>
	</g>
	<g>
		<path d="M14.659,32.957l-0.998-0.594c-1.059-0.635-2.007-1.424-2.823-2.347l1.499-1.324c0.679,0.769,1.47,1.427,2.35,1.955    l0.995,0.593L14.659,32.957z"/>
	</g>
	<g>
		<rect x="6.5" y="1.99" transform="matrix(0.9992 -0.04 0.04 0.9992 -0.5735 0.3113)" width="2" height="25.02"/>
	</g>
	<g>
		<path d="M28,22c-1.654,0-3-1.346-3-3s1.346-3,3-3s3,1.346,3,3S29.654,22,28,22z M28,18c-0.551,0-1,0.449-1,1s0.449,1,1,1    s1-0.449,1-1S28.551,18,28,18z"/>
	</g>
	<g>
		<path d="M36,22c-1.654,0-3-1.346-3-3s1.346-3,3-3s3,1.346,3,3S37.654,22,36,22z M36,18c-0.551,0-1,0.449-1,1s0.449,1,1,1    s1-0.449,1-1S36.551,18,36,18z"/>
	</g>
	<g>
		<path d="M32,33c-5.308,0-10.259-2.625-13.245-7.021c-0.27-0.397-0.219-0.93,0.12-1.269l0.66-0.66C20.48,23.106,21,21.85,21,20.515    V14c0-0.181,0.049-0.359,0.143-0.515l1.812-3.019C23.867,8.945,25.536,8,27.31,8c1.357,0,2.632,0.528,3.592,1.488L32,10.586    l1.098-1.098C34.058,8.528,35.333,8,36.69,8c1.774,0,3.443,0.945,4.356,2.466l1.812,3.019C42.951,13.641,43,13.819,43,14v6.515    c0,1.335,0.52,2.591,1.464,3.536l0.66,0.66c0.339,0.339,0.39,0.872,0.12,1.269C42.259,30.375,37.308,33,32,33z M20.892,25.522    C23.537,28.967,27.631,31,32,31s8.463-2.033,11.108-5.478l-0.058-0.058c-1.322-1.322-2.05-3.08-2.05-4.95v-6.238l-1.669-2.781    C38.778,10.573,37.766,10,36.69,10c-0.823,0-1.596,0.32-2.178,0.902l-1.805,1.805c-0.391,0.391-1.023,0.391-1.414,0l-1.805-1.805    C28.906,10.32,28.133,10,27.31,10c-1.076,0-2.088,0.573-2.641,1.496L23,14.277v6.238c0,1.87-0.728,3.627-2.05,4.95L20.892,25.522z    "/>
	</g>
	<g>
		<path d="M26,27h-2v-2.465l-2.555-1.703l1.109-1.664l3,2C25.833,23.354,26,23.666,26,24V27z"/>
	</g>
	<g>
		<path d="M40,27h-2v-3c0-0.334,0.167-0.646,0.445-0.832l3-2l1.109,1.664L40,24.535V27z"/>
	</g>
	<g>
		<rect x="24.5" y="9.379" transform="matrix(0.7071 -0.7071 0.7071 0.7071 -0.663 21.3995)" width="2" height="4.243"/>
	</g>
	<g>
		<rect x="35.379" y="10.5" transform="matrix(0.7071 -0.7071 0.7071 0.7071 2.8518 29.8848)" width="4.243" height="2"/>
	</g>
	<g>
		<rect x="28" y="25" width="8" height="2"/>
	</g>
	<g>
		<rect x="35.938" y="15.5" transform="matrix(0.9701 -0.2427 0.2427 0.9701 -2.8681 9.7138)" width="4.123" height="2"/>
	</g>
	<g>
		<rect x="25" y="14.438" transform="matrix(0.2425 -0.9701 0.9701 0.2425 3.6867 37.7219)" width="2" height="4.123"/>
	</g>
</g>
</svg>
