<?xml version="1.0" encoding="iso-8859-1"?>
<!-- Generator: Adobe Illustrator 22.1.0, SVG Export Plug-In . SVG Version: 6.00 Build 0)  -->
<svg xmlns="http://www.w3.org/2000/svg" xmlns:xlink="http://www.w3.org/1999/xlink" version="1.1" id="Layer_3" x="0px" y="0px" viewBox="0 0 64 64" style="enable-background:new 0 0 64 64;" xml:space="preserve" width="512" height="512">
<g>
	<g>
		<path style="fill:#AC9181;" d="M42,28l15,9c2.761,0,5,2.238,5,5c0,2.703-2.297,5.001-5,5c-2.761,0-5-2.239-5-5l-10-2l3.881,16.495    C45.96,56.831,46,57.174,46,57.519v0.012C46,59.999,43.999,62,41.531,62h0c-1.57,0-3.025-0.824-3.833-2.17L36,57h-8l-1.698,2.83    C25.494,61.176,24.039,62,22.469,62h0C20.001,62,18,59.999,18,57.531v-0.012c0-0.345,0.04-0.688,0.119-1.024L22,40l-10,2    c0,2.761-2.238,5-5,5C4.297,47,2,44.703,2,42c0-2.761,2.239-5,5-5l15-9"/>
	</g>
	<g>
		<path style="fill:#75614F;" d="M42.963,44.093L41,49l-4,2l-1,6l0,0l1.698,2.83c0.808,1.346,2.263,2.17,3.832,2.17h0    C43.999,62,46,59.999,46,57.531v-0.012c0-0.345-0.04-0.688-0.119-1.024L42.963,44.093z"/>
	</g>
	<g>
		<path style="fill:#75614F;" d="M27,51l-4-2l-1.963-4.907l-2.918,12.402C18.04,56.831,18,57.174,18,57.519v0.012    C18,59.999,20.001,62,22.469,62c1.57,0,3.025-0.824,3.833-2.17L28,57L27,51z"/>
	</g>
	<g>
		<path style="fill:#75614F;" d="M57,37l-12.083-7.25L47,36l8,4l4.97,5.964C61.186,45.041,62,43.598,62,42    C62,39.238,59.761,37,57,37z"/>
	</g>
	<g>
		<path style="fill:#75614F;" d="M17,36l2.083-6.25L7,37c-2.761,0-5,2.238-5,5c0,1.598,0.814,3.041,2.03,3.965L9,40L17,36z"/>
	</g>
	<g>
		<path style="fill:#AC9181;" d="M17,17c0,8.284,6.716,15,15,15s15-6.716,15-15l0-3l-3,1l2-5l-4-3l-3,4V6l-7-4l-5,2v7l-5-4l-5,3    L17,17z"/>
	</g>
	<g>
		<circle style="fill:#ABABAB;" cx="27" cy="21" r="2"/>
	</g>
	<g>
		<circle style="fill:#ABABAB;" cx="37" cy="21" r="2"/>
	</g>
	<g>
		<path d="M41.53,63c-1.91,0-3.707-1.018-4.689-2.655L35.434,58h-6.867l-1.407,2.345C26.177,61.982,24.38,63,22.47,63    C19.454,63,17,60.546,17,57.53c0-0.434,0.049-0.855,0.146-1.265l3.524-14.979l-7.728,1.545C12.536,45.748,10.026,48,7,48    c-3.252,0-6-2.748-6-6c0-3.212,2.537-5.842,5.712-5.993l14.773-8.864l1.029,1.715l-15,9C7.359,37.951,7.182,38,7,38    c-2.206,0-4,1.794-4,4c0,2.168,1.832,4,4,4c2.206,0,4-1.794,4-4c0-0.477,0.337-0.887,0.804-0.98l10-2    c0.335-0.063,0.679,0.041,0.915,0.285c0.236,0.245,0.333,0.593,0.255,0.925l-3.881,16.495C19.031,56.984,19,57.252,19,57.519    C19,59.443,20.557,61,22.47,61c1.212,0,2.352-0.646,2.975-1.685l1.698-2.83C27.323,56.185,27.648,56,28,56h8    c0.352,0,0.677,0.185,0.857,0.485l1.698,2.83C39.179,60.354,40.318,61,41.53,61c1.913,0,3.47-1.557,3.47-3.47    c0-0.278-0.031-0.546-0.093-0.806l-3.881-16.495c-0.078-0.332,0.019-0.68,0.255-0.925c0.236-0.244,0.581-0.35,0.915-0.285l10,2    C52.663,41.113,53,41.523,53,42c0,2.206,1.794,4,4,4c2.168,0,4-1.832,4-4c0-2.206-1.794-4-4-4c-0.182,0-0.359-0.049-0.515-0.143    l-15-9l1.029-1.715l14.773,8.864C60.463,36.158,63,38.788,63,42c0,3.252-2.748,6-6,6c-3.026,0-5.536-2.252-5.942-5.169    l-7.728-1.545l3.524,14.979C46.951,56.675,47,57.097,47,57.519C47,60.546,44.546,63,41.53,63z"/>
	</g>
	<g>
		<path d="M32,33c-8.822,0-16-7.178-16-16v-7c0-0.351,0.185-0.677,0.485-0.857l5-3c0.357-0.215,0.812-0.186,1.14,0.077L26,8.919V4    c0-0.409,0.249-0.776,0.629-0.929l5-2c0.281-0.113,0.601-0.091,0.867,0.061l7,4C39.808,5.31,40,5.641,40,6v2l1.2-1.6    c0.332-0.441,0.958-0.532,1.399-0.2l4,3c0.362,0.271,0.497,0.751,0.329,1.171l-1.199,2.998l0.954-0.318    c0.304-0.102,0.639-0.052,0.901,0.138C47.846,13.377,48,13.679,48,14v3C48,25.822,40.822,33,32,33z M18,10.566V17    c0,7.72,6.28,14,14,14s14-6.28,14-14v-1.613l-1.684,0.562c-0.368,0.124-0.776,0.021-1.044-0.263s-0.346-0.696-0.201-1.058    l1.716-4.288L42.2,8.4l-2.4,3.2c-0.258,0.344-0.704,0.485-1.116,0.349C38.275,11.812,38,11.431,38,11V6.58l-6.077-3.472L28,4.677    V11c0,0.384-0.221,0.735-0.566,0.901c-0.347,0.165-0.759,0.119-1.059-0.121l-4.457-3.565L18,10.566z"/>
	</g>
	<g>
		<path d="M21.553,15.895l-2-1c-0.219-0.11-0.391-0.296-0.481-0.523l-2-5l1.857-0.743l1.858,4.647l1.66,0.83L21.553,15.895z"/>
	</g>
	<g>
		<path d="M32.293,12.707l-2-2c-0.153-0.153-0.252-0.352-0.283-0.565l-1-7l1.98-0.283l0.952,6.67l1.765,1.764L32.293,12.707z"/>
	</g>
	<g>
		<rect x="33.764" y="6" transform="matrix(0.4472 -0.8944 0.8944 0.4472 13.6393 36.0689)" width="4.472" height="2"/>
	</g>
	<g>
		<path d="M36,17h-2v-3c0-0.379,0.214-0.725,0.553-0.895L38,11.382V10h2v2c0,0.379-0.214,0.725-0.553,0.895L36,14.618V17z"/>
	</g>
	<g>
		<path d="M27,24c-1.654,0-3-1.346-3-3s1.346-3,3-3s3,1.346,3,3S28.654,24,27,24z M27,20c-0.552,0-1,0.449-1,1s0.448,1,1,1    s1-0.449,1-1S27.552,20,27,20z"/>
	</g>
	<g>
		<path d="M37,24c-1.654,0-3-1.346-3-3s1.346-3,3-3s3,1.346,3,3S38.654,24,37,24z M37,20c-0.552,0-1,0.449-1,1s0.448,1,1,1    s1-0.449,1-1S37.552,20,37,20z"/>
	</g>
	<g>
		<rect x="26" y="26" width="12" height="2"/>
	</g>
	<g>
		<path d="M27.014,57.164l-0.916-5.497l-3.545-1.772c-0.219-0.109-0.391-0.296-0.481-0.523l-2-5l1.857-0.742l1.858,4.646l3.66,1.83    c0.286,0.144,0.486,0.415,0.539,0.73l1,6L27.014,57.164z"/>
	</g>
	<g>
		<path d="M20.948,61.316l-1.896-0.633l2-6c0.091-0.274,0.298-0.496,0.565-0.607c0.269-0.11,0.571-0.102,0.83,0.029l1.172,0.586    l2.523-4.206l1.715,1.029l-3,5c-0.269,0.448-0.835,0.614-1.305,0.38l-0.969-0.484L20.948,61.316z"/>
	</g>
	<g>
		<path d="M36.986,57.164l-1.973-0.328l1-6c0.053-0.315,0.253-0.587,0.539-0.73l3.66-1.83l1.858-4.646l1.857,0.742l-2,5    c-0.091,0.228-0.263,0.414-0.481,0.523l-3.545,1.772L36.986,57.164z"/>
	</g>
	<g>
		<path d="M43.052,61.316l-1.636-4.906l-0.969,0.484c-0.47,0.233-1.036,0.067-1.305-0.38l-3-5l1.715-1.029l2.523,4.206l1.172-0.586    c0.259-0.131,0.562-0.141,0.83-0.029c0.268,0.111,0.475,0.333,0.565,0.607l2,6L43.052,61.316z"/>
	</g>
	<g>
		<path d="M39,44c-0.092,0-0.185-0.013-0.274-0.038L32,42.04l-6.726,1.922c-0.345,0.1-0.724,0.003-0.981-0.255l-3-3    c-0.293-0.293-0.375-0.735-0.207-1.113l4-9l1.828,0.812l-3.722,8.372l2.099,2.099l6.435-1.839c0.18-0.051,0.369-0.051,0.549,0    l6.435,1.839l2.099-2.099l-3.722-8.372l1.828-0.812l4,9c0.168,0.378,0.086,0.82-0.207,1.113l-3,3C39.517,43.897,39.262,44,39,44z"/>
	</g>
	<g>
		<path d="M30.052,49.316l-0.869-2.607l-1.63-0.814C27.214,45.725,27,45.379,27,45v-3h2v2.382l1.447,0.724    c0.237,0.119,0.418,0.327,0.501,0.578l1,3L30.052,49.316z"/>
	</g>
	<g>
		<rect x="36.197" y="43.5" transform="matrix(0.5547 -0.8321 0.8321 0.5547 -20.1048 51.4338)" width="3.606" height="2"/>
	</g>
	<g>
		<path d="M33,41h-2v-3c0-0.334,0.167-0.646,0.445-0.832l3-2l1.109,1.664L33,38.535V41z"/>
	</g>
	<g>
		<path d="M31.052,38.316l-1-3c-0.098-0.293-0.055-0.614,0.116-0.871l2-3l1.664,1.109l-1.729,2.593l0.845,2.536L31.052,38.316z"/>
	</g>
	<g>
		<rect x="26.764" y="35" transform="matrix(0.8944 -0.4472 0.4472 0.8944 -13.0381 16.7698)" width="4.472" height="2"/>
	</g>
	<g>
		<path d="M4.769,46.641l-1.537-1.281l5-6c0.089-0.105,0.198-0.192,0.321-0.254l7.63-3.814l1.869-5.607l1.896,0.633l-2,6    c-0.083,0.251-0.264,0.459-0.501,0.578l-7.812,3.906L4.769,46.641z"/>
	</g>
	<g>
		<path d="M59.231,46.641l-4.866-5.84l-7.812-3.906c-0.237-0.119-0.418-0.327-0.501-0.578l-2-6l1.896-0.633l1.869,5.607l7.63,3.814    c0.123,0.062,0.232,0.148,0.321,0.254l5,6L59.231,46.641z"/>
	</g>
</g>
</svg>
