<?xml version="1.0" encoding="iso-8859-1"?>
<!-- Generator: Adobe Illustrator 22.1.0, SVG Export Plug-In . SVG Version: 6.00 Build 0)  -->
<svg xmlns="http://www.w3.org/2000/svg" xmlns:xlink="http://www.w3.org/1999/xlink" version="1.1" id="Layer_3" x="0px" y="0px" viewBox="0 0 64 64" style="enable-background:new 0 0 64 64;" xml:space="preserve" width="512" height="512">
<g>
	<g>
		<polygon style="fill:#B9B9B9;" points="8,30 5,26 5,23 9,22 13,23 12,27   "/>
	</g>
	<g>
		<path style="fill:#B8A490;" d="M42,28l15,9c2.761,0,5,2.238,5,5c0,2.703-2.297,5.001-5,5c-2.761,0-5-2.239-5-5l-10-2l3.881,16.495    C45.96,56.831,46,57.174,46,57.519v0.012C46,59.999,43.999,62,41.531,62h0c-1.57,0-3.025-0.824-3.833-2.17L36,57h-8l-1.698,2.83    C25.494,61.176,24.039,62,22.469,62h0C20.001,62,18,59.999,18,57.531v-0.012c0-0.345,0.04-0.688,0.119-1.024L22,40l-10,2    c0,2.761-2.238,5-5,5C4.297,47,2,44.703,2,42c0-2.761,2.239-5,5-5l15-9"/>
	</g>
	<g>
		<path style="fill:#3B4546;" d="M22.469,62c1.57,0,3.025-0.824,3.832-2.17L28,57h8l1.698,2.83c0.808,1.346,2.263,2.17,3.833,2.17    C43.999,62,46,59.999,46,57.531v-0.012c0-0.345-0.04-0.688-0.119-1.024L44.118,49H19.882l-1.764,7.495    C18.04,56.831,18,57.174,18,57.519v0.012C18,59.999,20.001,62,22.469,62L22.469,62z"/>
	</g>
	<g>
		<polyline style="fill:#666666;" points="40,29 42,40 44.118,49 19.882,49 22,40 24,29   "/>
	</g>
	<g>
		<polyline style="fill:#878787;" points="29,39 28,45 28,49 36,49 36,45 35,39   "/>
	</g>
	<g>
		<polygon style="fill:#666666;" points="47,41 50.158,41.632 53.136,34.682 48.961,32.176   "/>
	</g>
	<g>
		<polygon style="fill:#666666;" points="13.842,41.632 17,41 15.039,32.176 10.864,34.682   "/>
	</g>
	<g>
		<polyline style="fill:#8367B9;" points="34,31 34,36 38,35 38,38 32,41 26,38 26,35 30,36 30,31   "/>
	</g>
	<g>
		<circle style="fill:#878787;" cx="41" cy="56" r="2"/>
	</g>
	<g>
		<circle style="fill:#878787;" cx="23" cy="56" r="2"/>
	</g>
	<g>
		<circle style="fill:#D8C4A9;" cx="32" cy="17" r="15"/>
	</g>
	<g>
		<ellipse style="fill:#E4CFB6;" cx="30.5" cy="17" rx="13.5" ry="14.924"/>
	</g>
	<g>
		<polygon style="fill:#878787;" points="34,18 35,22 43,20 42,14 22,14 21,20 29,22 30,18   "/>
	</g>
	<g>
		<path style="fill:#566164;" d="M32,2c-4.371,0-8.292,1.881-11.034,4.864L22,11l6-5v4l7-4v5l5-3l5.324,2.13    C42.831,5.304,37.806,2,32,2z"/>
	</g>
	<g>
		<path d="M32,33c-8.822,0-16-7.178-16-16S23.178,1,32,1s16,7.178,16,16S40.822,33,32,33z M32,3c-7.72,0-14,6.28-14,14    s6.28,14,14,14s14-6.28,14-14S39.72,3,32,3z"/>
	</g>
	<g>
		<path d="M41.53,63c-1.91,0-3.707-1.018-4.689-2.655L35.434,58h-6.867l-1.407,2.345C26.177,61.982,24.38,63,22.47,63    C19.454,63,17,60.546,17,57.531c0-0.433,0.049-0.855,0.146-1.265l3.524-14.98l-7.728,1.545C12.536,45.748,10.026,48,7,48    c-3.252,0-6-2.748-6-6c0-3.211,2.537-5.842,5.712-5.993l14.773-8.864l1.029,1.715l-15,9C7.359,37.951,7.182,38,7,38    c-2.206,0-4,1.794-4,4c0,2.168,1.832,4,4,4c2.206,0,4-1.794,4-4c0-0.477,0.337-0.887,0.804-0.98l10-2    c0.336-0.065,0.678,0.041,0.915,0.285c0.236,0.245,0.333,0.593,0.255,0.924l-3.881,16.495C19.031,56.985,19,57.252,19,57.519    C19,59.444,20.557,61,22.47,61c1.212,0,2.352-0.646,2.975-1.685l1.698-2.83C27.323,56.184,27.648,56,28,56h8    c0.352,0,0.677,0.184,0.857,0.485l1.698,2.83C39.179,60.354,40.318,61,41.53,61c1.913,0,3.47-1.556,3.47-3.469    c0-0.279-0.031-0.546-0.093-0.806l-0.238-1.014l1.947-0.458l0.238,1.013C46.951,56.676,47,57.098,47,57.519    C47,60.546,44.546,63,41.53,63z"/>
	</g>
	<g>
		<path d="M43.318,49.971l-2.292-9.742c-0.078-0.331,0.019-0.68,0.255-0.924c0.237-0.245,0.583-0.351,0.915-0.285l10,2    C52.663,41.113,53,41.523,53,42c0,2.206,1.794,4,4,4c2.168,0,4-1.832,4-4c0-2.206-1.794-4-4-4c-0.182,0-0.359-0.049-0.515-0.143    l-15-9l1.029-1.715l14.773,8.864C60.463,36.158,63,38.788,63,42c0,3.252-2.748,6-6,6c-3.026,0-5.536-2.252-5.942-5.169    l-7.728-1.545l1.936,8.228L43.318,49.971z"/>
	</g>
	<g>
		<rect x="21" y="44" width="22" height="2"/>
	</g>
	<g>
		<rect x="20" y="48" width="24" height="2"/>
	</g>
	<g>
		<path d="M34.999,23c-0.448,0-0.855-0.303-0.969-0.757L33.219,19h-2.438l-0.812,3.243c-0.134,0.535-0.68,0.86-1.212,0.728l-8-2    c-0.506-0.126-0.83-0.62-0.744-1.135l1-6C21.094,13.354,21.511,13,22,13h20c0.489,0,0.906,0.354,0.986,0.835l1,6    c0.086,0.515-0.238,1.008-0.744,1.135l-8,2C35.161,22.991,35.079,23,34.999,23z M30,17h4c0.459,0,0.858,0.312,0.97,0.757    l0.758,3.03l6.135-1.533L41.153,15H22.847l-0.709,4.254l6.135,1.533l0.758-3.03C29.142,17.312,29.541,17,30,17z"/>
	</g>
	<g>
		<rect x="18.5" y="11.95" transform="matrix(0.1961 -0.9806 0.9806 0.1961 1.4573 30.7776)" width="2" height="5.099"/>
	</g>
	<g>
		<rect x="41.95" y="13.5" transform="matrix(0.9805 -0.1963 0.1963 0.9805 -1.9806 9.0177)" width="5.099" height="2"/>
	</g>
	<g>
		<path d="M22,12c-0.104,0-0.209-0.016-0.311-0.049c-0.327-0.107-0.576-0.375-0.659-0.708l-1-4l1.939-0.485l0.614,2.455l4.775-3.98    c0.3-0.249,0.716-0.3,1.064-0.138C28.775,5.259,29,5.612,29,6v2.277l5.504-3.145c0.309-0.177,0.689-0.176,0.998,0.003    C35.811,5.314,36,5.644,36,6v3.234l3.485-2.091c0.268-0.162,0.597-0.187,0.886-0.071l5,2l-0.742,1.857l-4.54-1.816l-4.574,2.745    c-0.309,0.187-0.693,0.19-1.008,0.013C34.193,11.693,34,11.36,34,11V7.723l-5.504,3.145c-0.309,0.177-0.689,0.176-0.998-0.003    C27.189,10.686,27,10.356,27,10V8.135l-4.359,3.633C22.458,11.92,22.23,12,22,12z"/>
	</g>
	<g>
		<rect x="28" y="25" width="8" height="2"/>
	</g>
	<g>
		<rect x="18" y="16.438" transform="matrix(0.2425 -0.9701 0.9701 0.2425 -3.5558 32.4458)" width="2" height="4.123"/>
	</g>
	<g>
		<rect x="42.938" y="17.5" transform="matrix(0.9702 -0.2422 0.2422 0.9702 -3.1408 11.4494)" width="4.123" height="2"/>
	</g>
	<g>
		<path d="M23,59c-1.654,0-3-1.346-3-3s1.346-3,3-3s3,1.346,3,3S24.654,59,23,59z M23,55c-0.552,0-1,0.449-1,1s0.448,1,1,1    s1-0.449,1-1S23.552,55,23,55z"/>
	</g>
	<g>
		<path d="M41,59c-1.654,0-3-1.346-3-3s1.346-3,3-3c0.803,0,1.557,0.312,2.122,0.88l-1.416,1.412C41.519,55.104,41.268,55,41,55    c-0.552,0-1,0.449-1,1s0.448,1,1,1c0.434,0,0.815-0.276,0.95-0.687l1.9,0.625C43.444,58.171,42.299,59,41,59z"/>
	</g>
	<g>
		<rect x="27" y="45" width="2" height="4"/>
	</g>
	<g>
		<rect x="35" y="45" width="2" height="4"/>
	</g>
	<g>
		<path d="M42,58c-0.222,0-0.441-0.074-0.621-0.217c-0.285-0.226-0.425-0.589-0.365-0.948l0.141-0.842    c0.588-3.531,2.035-6.912,4.184-9.776l3.906-5.208l1.6,1.2l-3.906,5.208c-1.764,2.351-3.008,5.084-3.629,7.954l9.805-4.085    l0.89-4.888l1.967,0.357l-0.986,5.423c-0.061,0.334-0.286,0.614-0.599,0.744l-12,5C42.261,57.975,42.13,58,42,58z"/>
	</g>
	<g>
		<path d="M59.344,37.788l-1.664-1.109l3.225-4.838l-3.245-10.547c-1.26,2.09-2.148,4.409-2.599,6.806l-1.235,6.591l-1.965-0.368    l1.235-6.591c0.631-3.366,2.05-6.592,4.104-9.331c0.225-0.301,0.599-0.448,0.972-0.385c0.37,0.065,0.673,0.332,0.784,0.691l4,13    c0.088,0.287,0.043,0.599-0.124,0.849L59.344,37.788z"/>
	</g>
	<g>
		<path d="M55.895,36.447l-1.789-0.895l1.914-3.828l0.984-11.808l1.992,0.166l-1,12c-0.01,0.127-0.045,0.25-0.102,0.364    L55.895,36.447z"/>
	</g>
	<g>
		<rect x="58" y="30.438" transform="matrix(0.2425 -0.9701 0.9701 0.2425 13.1608 81.856)" width="2" height="4.123"/>
	</g>
	<g>
		<path d="M42.747,57.665l-1.494-1.329l7.912-8.901l2.178-4.357l1.789,0.895l-2.237,4.475c-0.039,0.079-0.089,0.151-0.147,0.217    L42.747,57.665z"/>
	</g>
	<g>
		<rect x="50.5" y="47.585" transform="matrix(0.8575 -0.5145 0.5145 0.8575 -18.6429 33.6931)" width="2" height="5.831"/>
	</g>
	<g>
		<path d="M32,42c-0.153,0-0.307-0.035-0.447-0.105l-6-3C25.214,38.725,25,38.379,25,38v-3c0-0.308,0.142-0.599,0.385-0.788    c0.244-0.189,0.561-0.256,0.857-0.182L29,34.719V32h2v4c0,0.308-0.142,0.599-0.385,0.788c-0.242,0.19-0.559,0.258-0.857,0.182    L27,36.281v1.101l5,2.5l5-2.5v-1.101l-2.758,0.689c-0.299,0.074-0.615,0.007-0.857-0.182C33.142,36.599,33,36.308,33,36v-4h2    v2.719l2.758-0.689c0.298-0.076,0.614-0.008,0.857,0.182C38.858,34.401,39,34.692,39,35v3c0,0.379-0.214,0.725-0.553,0.895l-6,3    C32.307,41.965,32.153,42,32,42z"/>
	</g>
	<g>
		<rect x="25.459" y="41" transform="matrix(0.1646 -0.9864 0.9864 0.1646 -17.6173 63.2001)" width="6.083" height="2"/>
	</g>
	<g>
		<rect x="34.5" y="38.959" transform="matrix(0.9864 -0.1644 0.1644 0.9864 -6.4217 6.4076)" width="2" height="6.083"/>
	</g>
	<g>
		<rect x="17.41" y="33.5" transform="matrix(0.1788 -0.9839 0.9839 0.1788 -15.0564 50.9608)" width="11.18" height="1.999"/>
	</g>
	<g>
		<rect x="40" y="28.91" transform="matrix(0.9839 -0.1789 0.1789 0.9839 -5.5102 7.8908)" width="1.999" height="11.18"/>
	</g>
	<g>
		<rect x="11.5" y="34.692" transform="matrix(0.9191 -0.3939 0.3939 0.9191 -14.1552 8.0369)" width="2" height="7.616"/>
	</g>
	<g>
		<rect x="15" y="31.89" transform="matrix(0.9762 -0.2169 0.2169 0.9762 -7.537 4.3401)" width="2.001" height="9.22"/>
	</g>
	<g>
		<rect x="47.692" y="37.5" transform="matrix(0.3941 -0.9191 0.9191 0.3941 -4.1801 70.6594)" width="7.616" height="2"/>
	</g>
	<g>
		<rect x="43.39" y="35.5" transform="matrix(0.2167 -0.9762 0.9762 0.2167 1.9648 75.4488)" width="9.22" height="2.001"/>
	</g>
	<g>
		<rect x="1.465" y="49.956" transform="matrix(0.1338 -0.991 0.991 0.1338 -45.6934 49.6364)" width="8.162" height="2"/>
	</g>
	<g>
		<rect x="-0.709" y="26.359" transform="matrix(0.1338 -0.991 0.991 0.1338 -19.5461 32.3561)" width="18.888" height="2"/>
	</g>
	<g>
		<path d="M8.001,31c-0.305,0-0.604-0.138-0.801-0.4l-3-4C4.07,26.427,4,26.216,4,26v-3c0-0.459,0.312-0.859,0.758-0.97l4-1    c0.158-0.04,0.326-0.04,0.484,0l4,1c0.536,0.134,0.862,0.677,0.728,1.213l-1,4c-0.056,0.223-0.186,0.419-0.37,0.557l-4,3    C8.42,30.935,8.21,31,8.001,31z M6,25.667L8.2,28.6l2.916-2.187l0.671-2.686L9,23.031l-3,0.75V25.667z"/>
	</g>
</g>
</svg>
