<?xml version="1.0" encoding="iso-8859-1"?>
<!-- Generator: Adobe Illustrator 22.1.0, SVG Export Plug-In . SVG Version: 6.00 Build 0)  -->
<svg xmlns="http://www.w3.org/2000/svg" xmlns:xlink="http://www.w3.org/1999/xlink" version="1.1" id="Layer_3" x="0px" y="0px" viewBox="0 0 64 64" style="enable-background:new 0 0 64 64;" xml:space="preserve" width="512" height="512">
<g>
	<g>
		<path style="fill:#49711E;" d="M22,28l-6,3l-0.186,1.062L10,34l-0.6,3H7c-2.761,0-5,2.238-5,5C2,44.703,4.297,47,7,47    c2.761,0,5-2.239,5-5l10-2l0,5l-3.881,11.495C18.04,56.831,18,57.174,18,57.519v0.012C18,59.999,20.001,62,22.469,62h0    c1.57,0,3.025-0.824,3.833-2.17L29,55h6l2.698,4.83c0.808,1.346,2.263,2.17,3.833,2.17h0C43.999,62,46,59.999,46,57.531v-0.012    c0-0.345-0.04-0.688-0.119-1.024L42,44l0-4c0,0,10,2,10,2c0,2.761,2.238,5,5,5c2.703,0,5.001-2.297,5-5c0-2.761-2.239-5-5-5h-2.4    L54,34l-5.786-1.929L48,31l-6-3"/>
	</g>
	<g>
		<path style="fill:#598928;" d="M22,28l-6,3l-0.186,1.062L10,34l-0.6,3h-2H7c-2.761,0-5,2.238-5,5c0,2.367,1.761,4.422,4.014,4.897    C8.289,46.428,10,44.414,10,42l10-2v0.4l2-0.4v5l-3.881,11.495C18.04,56.831,18,57.174,18,57.519v0.012    c0,2.124,1.485,3.894,3.472,4.349c1.169-0.27,2.199-0.996,2.83-2.049L27,55h2h4h2l2.698,4.83c0.632,1.053,1.661,1.779,2.83,2.049    C42.515,61.424,44,59.655,44,57.531v-0.012c0-0.345-0.04-0.688-0.119-1.024L40,44v-4c0,0,1.36,0.272,2,0.4V40l10,2    c0,2.414,1.711,4.428,3.986,4.897C58.239,46.422,60,44.366,60,42c0-2.761-2.239-5-5-5h-0.4h-2L52,34l-5.786-1.929L46,31l-6-3"/>
	</g>
	<g>
		<polygon style="fill:#56316E;" points="43.553,49 20.649,49 18.961,54 22,54 22,57 25,56 26.872,58.809 29,55 35,55     37.128,58.809 39,56 42,57 42,54 45.106,54   "/>
	</g>
	<g>
		<circle style="fill:#49711E;" cx="32" cy="17" r="15"/>
	</g>
	<g>
		<ellipse style="fill:#598928;" cx="30.5" cy="17" rx="13.5" ry="14.924"/>
	</g>
	<g>
		<circle style="fill:#B9B9B9;" cx="27" cy="18" r="2"/>
	</g>
	<g>
		<circle style="fill:#B9B9B9;" cx="37" cy="18" r="2"/>
	</g>
	<g>
		<path style="fill:#3B4546;" d="M32,2c-4.91,0-9.255,2.37-11.992,6.016L22,12l4-3l2,3l4-3l4,3l2-3l4,3l1.992-3.984    C41.255,4.37,36.91,2,32,2z"/>
	</g>
	<g>
		<path d="M32,33c-8.822,0-16-7.178-16-16S23.178,1,32,1s16,7.178,16,16S40.822,33,32,33z M32,3c-7.72,0-14,6.28-14,14    s6.28,14,14,14s14-6.28,14-14S39.72,3,32,3z"/>
	</g>
	<g>
		<rect x="20" y="48" width="24" height="2"/>
	</g>
	<g>
		<path d="M42,13c-0.214,0-0.425-0.069-0.6-0.2l-3.154-2.366l-1.414,2.121c-0.152,0.229-0.392,0.385-0.663,0.431    c-0.272,0.046-0.549-0.021-0.769-0.186L32,10.25l-3.4,2.55c-0.22,0.165-0.499,0.232-0.769,0.186    c-0.271-0.046-0.511-0.203-0.663-0.431l-1.414-2.121L22.6,12.8c-0.237,0.178-0.541,0.243-0.83,0.173    c-0.289-0.068-0.532-0.261-0.665-0.526l-2-4l1.789-0.895l1.464,2.928L25.4,8.2c0.22-0.165,0.499-0.23,0.769-0.186    c0.271,0.046,0.511,0.203,0.663,0.431l1.414,2.121L31.4,8.2c0.355-0.267,0.845-0.267,1.2,0l3.154,2.366l1.414-2.121    c0.152-0.229,0.392-0.385,0.663-0.431C38.103,7.97,38.38,8.035,38.6,8.2l3.042,2.281l1.464-2.928l1.789,0.895l-2,4    c-0.133,0.265-0.376,0.458-0.665,0.526C42.154,12.991,42.077,13,42,13z"/>
	</g>
	<g>
		<path d="M27,21c-1.654,0-3-1.346-3-3s1.346-3,3-3s3,1.346,3,3S28.654,21,27,21z M27,17c-0.551,0-1,0.449-1,1s0.449,1,1,1    s1-0.449,1-1S27.551,17,27,17z"/>
	</g>
	<g>
		<rect x="23" y="12.459" transform="matrix(0.1644 -0.9864 0.9864 0.1644 4.7653 36.6253)" width="2" height="6.083"/>
	</g>
	<g>
		<path d="M37,21c-1.654,0-3-1.346-3-3s1.346-3,3-3s3,1.346,3,3S38.654,21,37,21z M37,17c-0.551,0-1,0.449-1,1s0.449,1,1,1    s1-0.449,1-1S37.551,17,37,17z"/>
	</g>
	<g>
		<rect x="36.959" y="14.5" transform="matrix(0.9864 -0.1646 0.1646 0.9864 -2.0053 6.7936)" width="6.083" height="2"/>
	</g>
	<g>
		<path d="M26.168,59.555l-1.576-2.364l-2.275,0.758c-0.305,0.1-0.64,0.05-0.901-0.138C21.154,57.623,21,57.321,21,57v-2h-2v-2h3    c0.552,0,1,0.448,1,1v1.613l1.684-0.562c0.429-0.142,0.897,0.019,1.148,0.394l2,3L26.168,59.555z"/>
	</g>
	<g>
		<path d="M37.832,59.555l-1.664-1.109l2-3c0.25-0.375,0.718-0.536,1.148-0.394L41,55.613V54c0-0.552,0.448-1,1-1h3v2h-2v2    c0,0.321-0.154,0.623-0.416,0.811c-0.262,0.188-0.597,0.237-0.901,0.138l-2.275-0.758L37.832,59.555z"/>
	</g>
	<g>
		<path d="M37.293,27.707C36.192,26.606,34.729,26,33.171,26h-2.343c-1.557,0-3.021,0.606-4.122,1.707l-1.414-1.414    C26.771,24.814,28.737,24,30.829,24h2.343c2.091,0,4.057,0.814,5.536,2.293L37.293,27.707z"/>
	</g>
	<g>
		<path d="M27,41h-5c-0.459,0-0.859-0.312-0.97-0.757l-1-4l1.94-0.485L22.781,39h3.917l2.748-1.832l1.109,1.664l-3,2    C27.391,40.941,27.197,41,27,41z"/>
	</g>
	<g>
		<path d="M42,41h-5c-0.197,0-0.391-0.059-0.555-0.168l-3-2l1.109-1.664L37.303,39h3.917l0.811-3.243l1.94,0.485l-1,4    C42.859,40.688,42.459,41,42,41z"/>
	</g>
	<g>
		<path d="M31,46h-3c-0.265,0-0.52-0.105-0.707-0.293l-2-2l1.414-1.414L28.414,44H31V46z"/>
	</g>
	<g>
		<path d="M36,46h-3v-2h2.586l1.707-1.707l1.414,1.414l-2,2C36.52,45.895,36.265,46,36,46z"/>
	</g>
	<g>
		<path d="M15.98,36.196l-1.961-0.393l1-5c0.061-0.302,0.257-0.56,0.533-0.698l6-3l0.895,1.789l-5.562,2.781L15.98,36.196z"/>
	</g>
	<g>
		<path d="M9.98,39.196L8.02,38.804l1-5c0.07-0.352,0.324-0.639,0.664-0.752l6-2l0.633,1.897l-5.45,1.816L9.98,39.196z"/>
	</g>
	<g>
		<path d="M41.531,63c-1.91,0-3.708-1.018-4.69-2.655L34.413,56h-4.826l-2.412,4.318C26.177,61.982,24.379,63,22.469,63    C19.454,63,17,60.546,17,57.531c0-0.432,0.049-0.853,0.145-1.264L21,44.836V41.22l-8.058,1.611C12.537,45.748,10.026,48,7,48    c-3.252,0-6-2.748-6-6c0-3.308,2.691-6,6-6h2v2H7c-2.206,0-4,1.794-4,4c0,2.168,1.832,4,4,4c2.206,0,4-1.794,4-4    c0-0.477,0.336-0.887,0.804-0.98l10-2c0.293-0.061,0.598,0.017,0.83,0.207C22.866,39.417,23,39.7,23,40v5    c0,0.109-0.018,0.217-0.053,0.32l-3.881,11.495C19.031,56.984,19,57.252,19,57.519C19,59.444,20.556,61,22.469,61    c1.212,0,2.352-0.646,2.975-1.685l2.683-4.803C28.304,54.196,28.638,54,29,54h6c0.362,0,0.696,0.196,0.873,0.512l2.698,4.83    C39.179,60.354,40.319,61,41.531,61C43.444,61,45,59.444,45,57.531c0-0.279-0.031-0.546-0.092-0.808l-3.863-12.426    C41.015,44.201,41,44.101,41,44v-4c0-0.3,0.134-0.583,0.366-0.773c0.231-0.19,0.535-0.268,0.83-0.207l10,2    C52.664,41.113,53,41.523,53,42c0,2.206,1.794,4,4,4c2.168,0,4-1.832,4-4c0-2.206-1.794-4-4-4h-2v-2h2c3.309,0,6,2.691,6,6    c0,3.252-2.748,6-6,6c-3.026,0-5.536-2.252-5.942-5.169L43,41.22v2.628l3.836,12.35c0.115,0.479,0.164,0.9,0.164,1.32    C47,60.546,44.546,63,41.531,63z"/>
	</g>
	<g>
		<path d="M48.02,36.196l-0.904-4.521l-5.562-2.781l0.895-1.789l6,3c0.276,0.138,0.473,0.396,0.533,0.698l1,5L48.02,36.196z"/>
	</g>
	<g>
		<path d="M54.02,39.196l-0.886-4.431l-5.45-1.816l0.633-1.897l6,2c0.34,0.114,0.594,0.401,0.664,0.752l1,5L54.02,39.196z"/>
	</g>
</g>
</svg>
