<?xml version="1.0" encoding="iso-8859-1"?>
<!-- Generator: Adobe Illustrator 22.1.0, SVG Export Plug-In . SVG Version: 6.00 Build 0)  -->
<svg xmlns="http://www.w3.org/2000/svg" xmlns:xlink="http://www.w3.org/1999/xlink" version="1.1" id="Layer_3" x="0px" y="0px" viewBox="0 0 64 64" style="enable-background:new 0 0 64 64;" xml:space="preserve" width="512" height="512">
<g>
	<g>
		<path style="fill:#DC6068;" d="M42,28l9,3l-1.149,1.915L57,37c2.761,0,5,2.238,5,5c0,2.703-2.297,5.001-5,5c-2.761,0-5-2.239-5-5    l-10-2l3.881,16.495C45.96,56.831,46,57.174,46,57.519v0.012C46,59.999,43.999,62,41.531,62h0c-1.57,0-3.025-0.824-3.833-2.17    L36,57h-8l-1.698,2.83C25.494,61.176,24.039,62,22.469,62h0C20.001,62,18,59.999,18,57.531v-0.012c0-0.345,0.04-0.688,0.119-1.024    L22,40l-10,2c0,2.761-2.238,5-5,5C4.297,47,2,44.703,2,42c0-2.761,2.239-5,5-5l7.149-4.085L13,31l9-3"/>
	</g>
	<g>
		<polygon style="fill:#D2A95C;" points="45.214,40.643 50.158,41.632 53.098,34.771 49.851,32.915   "/>
	</g>
	<g>
		<polygon style="fill:#D2A95C;" points="10.902,34.771 13.842,41.632 18.786,40.643 14.149,32.915   "/>
	</g>
	<g>
		<polygon style="fill:#D2A95C;" points="43.885,48.01 42.942,44.005 32,45 21.058,44.005 20.115,48.01 32,49   "/>
	</g>
	<g>
		<polygon style="fill:#D2A95C;" points="37.154,58.923 45.474,54.763 44.828,52.017 35,53 34,57 36,57   "/>
	</g>
	<g>
		<polygon style="fill:#D2A95C;" points="19.172,52.017 18.526,54.763 26.846,58.923 28,57 30,57 29,53   "/>
	</g>
	<g>
		<path style="fill:#CA5057;" d="M42.134,28.045L51,31l-3,5l-8-1v-5.317C40.761,29.201,41.475,28.652,42.134,28.045z"/>
	</g>
	<g>
		<path style="fill:#CA5057;" d="M21.866,28.045L13,31l3,5l8-1v-5.317C23.239,29.201,22.525,28.652,21.866,28.045z"/>
	</g>
	<g>
		<circle style="fill:#D8D2D8;" cx="32" cy="38" r="3"/>
	</g>
	<g>
		<path style="fill:#CA5057;" d="M49,13l-2.704-0.541C44.372,6.395,38.701,2,32,2c-6.701,0-12.372,4.395-14.296,10.459L15,13l1,9    h1.872c2.061,5.822,7.6,10,14.128,10c6.528,0,12.067-4.178,14.128-10H48L49,13z"/>
	</g>
	<g>
		<path style="fill:#D2A95C;" d="M40,9l-4-2l-2,4h-4l-2-4l-4,2l-4,6l2,6v7.153C24.651,30.539,28.15,32,32,32s7.349-1.461,10-3.847    V21l2-6L40,9z"/>
	</g>
	<g>
		<path style="fill:#CA5057;" d="M27.804,31.392C29.136,31.781,30.541,32,32,32s2.864-0.219,4.196-0.608L34,27h-4L27.804,31.392z"/>
	</g>
	<g>
		<polygon style="fill:#D8D2D8;" points="30,17 20.308,15.923 21.652,19.956 30,21   "/>
	</g>
	<g>
		<polygon style="fill:#C4C4C4;" points="43.692,15.923 34,17 34,21 42.348,19.957   "/>
	</g>
	<g>
		<polygon style="fill:#D8D2D8;" points="43.692,15.923 34,17 34,21 42.348,19.957   "/>
	</g>
	<g>
		<path d="M30,22c-0.041,0-0.083-0.002-0.124-0.008l-8-1l0.248-1.984L29,19.867v-1.972l-8.11-0.901l0.221-1.987l9,1    C30.617,16.062,31,16.49,31,17v4c0,0.287-0.123,0.56-0.338,0.75C30.478,21.912,30.242,22,30,22z"/>
	</g>
	<g>
		<path d="M34,22c-0.242,0-0.478-0.088-0.662-0.25C33.123,21.56,33,21.287,33,21v-4c0-0.51,0.383-0.938,0.89-0.994l9-1l0.221,1.987    L35,17.895v1.972l6.876-0.859l0.248,1.984l-8,1C34.083,21.998,34.041,22,34,22z"/>
	</g>
	<g>
		<path d="M32,42c-2.206,0-4-1.794-4-4s1.794-4,4-4s4,1.794,4,4S34.206,42,32,42z M32,36c-1.103,0-2,0.897-2,2s0.897,2,2,2    s2-0.897,2-2S33.103,36,32,36z"/>
	</g>
	<g>
		<path d="M32,46c-0.03,0-0.061-0.001-0.09-0.004l-11-1l0.181-1.992L32,43.996l10.91-0.992l0.181,1.992l-11,1    C32.061,45.999,32.03,46,32,46z"/>
	</g>
	<g>
		<path d="M32,50c-0.028,0-0.055-0.001-0.083-0.003l-12-1l0.166-1.993L32,47.997l11.917-0.993l0.166,1.993l-12,1    C32.055,49.999,32.028,50,32,50z"/>
	</g>
	<g>
		<rect x="11.5" y="34.692" transform="matrix(0.9191 -0.3939 0.3939 0.9191 -14.1552 8.0369)" width="2" height="7.616"/>
	</g>
	<g>
		<rect x="4" y="49" width="2" height="6"/>
	</g>
	<g>
		<rect x="8" y="51" width="2" height="8"/>
	</g>
	<g>
		<rect x="58" y="49" width="2" height="6"/>
	</g>
	<g>
		<rect x="54" y="51" width="2" height="8"/>
	</g>
	<g>
		<path d="M32,33c-6.518,0-12.385-3.99-14.818-10H16c-0.51,0-0.938-0.383-0.994-0.89l-1-9c-0.058-0.516,0.289-0.989,0.797-1.091    l2.137-0.428C19.218,5.232,25.196,1,32,1s12.782,4.232,15.059,10.592l2.137,0.428c0.508,0.102,0.855,0.575,0.797,1.091l-1,9    C48.938,22.617,48.51,23,48,23h-1.182C44.385,29.01,38.518,33,32,33z M16.895,21h0.977c0.424,0,0.801,0.267,0.943,0.667    C20.791,27.249,26.09,31,32,31s11.209-3.751,13.185-9.333C45.327,21.267,45.704,21,46.128,21h0.977l0.8-7.199L46.1,13.439    c-0.357-0.071-0.647-0.331-0.757-0.678C43.49,6.923,38.128,3,32,3s-11.49,3.923-13.343,9.762c-0.11,0.347-0.4,0.606-0.757,0.678    l-1.805,0.361L16.895,21z"/>
	</g>
	<g>
		<path d="M43,28h-2v-7c0-0.107,0.017-0.214,0.051-0.316l1.845-5.536l-3.581-5.372l-2.868-1.434l-1.553,3.105    C34.725,11.786,34.379,12,34,12h-4c-0.379,0-0.725-0.214-0.895-0.553l-1.553-3.105l-2.868,1.434l-3.581,5.372l1.845,5.536    C22.983,20.786,23,20.893,23,21v7h-2v-6.838l-1.949-5.846c-0.098-0.293-0.055-0.614,0.117-0.871l4-6    c0.097-0.145,0.229-0.262,0.385-0.34l4-2c0.495-0.247,1.095-0.046,1.342,0.447L30.618,10h2.764l1.724-3.447    c0.247-0.494,0.847-0.694,1.342-0.447l4,2c0.156,0.078,0.288,0.195,0.385,0.34l4,6c0.171,0.257,0.214,0.578,0.117,0.871L43,21.162    V28z"/>
	</g>
	<g>
		<path d="M35.105,31.447L33.382,28h-2.764l-1.724,3.447l-1.789-0.895l2-4C29.275,26.214,29.621,26,30,26h4    c0.379,0,0.725,0.214,0.895,0.553l2,4L35.105,31.447z"/>
	</g>
	<g>
		<path d="M18.143,41.515l-6-10c-0.156-0.26-0.186-0.577-0.081-0.862c0.105-0.284,0.334-0.505,0.622-0.602l9-3l0.633,1.897    l-7.817,2.606l5.358,8.931L18.143,41.515z"/>
	</g>
	<g>
		<path d="M16.124,36.992l-0.248-1.984L23,34.117V30h2v5c0,0.504-0.375,0.93-0.876,0.992L16.124,36.992z"/>
	</g>
	<g>
		<path d="M41.531,63c-1.91,0-3.708-1.018-4.69-2.655L35.434,58h-6.868l-1.407,2.345C26.177,61.982,24.379,63,22.469,63    C19.454,63,17,60.546,17,57.531c0-0.432,0.049-0.853,0.145-1.264l3.525-14.981l-7.728,1.545C12.537,45.748,10.026,48,7,48    c-3.252,0-6-2.748-6-6c0-3.215,2.543-5.848,5.724-5.993l6.78-3.875l0.992,1.736l-7,4C7.345,37.955,7.174,38,7,38    c-2.206,0-4,1.794-4,4c0,2.168,1.832,4,4,4c2.206,0,4-1.794,4-4c0-0.477,0.336-0.887,0.804-0.98l10-2    c0.336-0.068,0.679,0.041,0.915,0.285c0.237,0.245,0.333,0.593,0.255,0.924l-3.881,16.495C19.031,56.984,19,57.252,19,57.519    C19,59.444,20.556,61,22.469,61c1.212,0,2.352-0.646,2.975-1.685l1.698-2.83C27.323,56.184,27.649,56,28,56h8    c0.351,0,0.677,0.184,0.857,0.485l1.698,2.83C39.179,60.354,40.319,61,41.531,61C43.444,61,45,59.444,45,57.531    c0-0.279-0.031-0.546-0.092-0.808l-3.881-16.494c-0.078-0.331,0.018-0.679,0.255-0.924c0.237-0.244,0.583-0.352,0.915-0.285l10,2    C52.664,41.113,53,41.523,53,42c0,2.206,1.794,4,4,4c2.168,0,4-1.832,4-4c0-2.206-1.794-4-4-4c-0.174,0-0.345-0.045-0.496-0.132    l-7-4l0.992-1.736l6.78,3.875C60.457,36.151,63,38.784,63,42c0,3.252-2.748,6-6,6c-3.026,0-5.536-2.252-5.942-5.169l-7.728-1.545    l3.525,14.98C46.951,56.678,47,57.099,47,57.519C47,60.546,44.546,63,41.531,63z"/>
	</g>
	<g>
		<rect x="47.692" y="37.5" transform="matrix(0.3941 -0.9191 0.9191 0.3941 -4.1801 70.6594)" width="7.616" height="2"/>
	</g>
	<g>
		<path d="M45.857,41.515l-1.715-1.029l5.358-8.931l-7.817-2.606l0.633-1.897l9,3c0.288,0.096,0.516,0.317,0.622,0.602    c0.105,0.285,0.076,0.602-0.081,0.862L45.857,41.515z"/>
	</g>
	<g>
		<path d="M47.876,36.992l-8-1C39.375,35.93,39,35.504,39,35v-5h2v4.117l7.124,0.891L47.876,36.992z"/>
	</g>
	<g>
		<path d="M29.03,57.243l-0.829-3.318l-9.3-0.93l0.199-1.99l10,1c0.42,0.042,0.768,0.343,0.871,0.752l1,4L29.03,57.243z"/>
	</g>
	<g>
		<path d="M34.97,57.243l-1.94-0.485l1-4c0.103-0.409,0.451-0.71,0.871-0.752l10-1l0.199,1.99l-9.3,0.93L34.97,57.243z"/>
	</g>
	<g>
		<rect x="22" y="52.528" transform="matrix(0.4472 -0.8944 0.8944 0.4472 -38.2683 52.0807)" width="2" height="8.944"/>
	</g>
	<g>
		<rect x="36.528" y="56" transform="matrix(0.8944 -0.4472 0.4472 0.8944 -21.1627 24.3534)" width="8.944" height="2"/>
	</g>
</g>
</svg>
