<?xml version="1.0" encoding="iso-8859-1"?>
<!-- Generator: Adobe Illustrator 22.1.0, SVG Export Plug-In . SVG Version: 6.00 Build 0)  -->
<svg xmlns="http://www.w3.org/2000/svg" xmlns:xlink="http://www.w3.org/1999/xlink" version="1.1" id="Layer_3" x="0px" y="0px" viewBox="0 0 64 64" style="enable-background:new 0 0 64 64;" xml:space="preserve" width="512" height="512">
<g>
	<g>
		<path style="fill:#3B4546;" d="M42,28l15,9c2.761,0,5,2.238,5,5c0,2.703-2.297,5.001-5,5c-2.761,0-5-2.239-5-5l-12-3l5.881,17.495    C45.96,56.831,46,57.174,46,57.519v0.012C46,59.999,43.999,62,41.531,62h0c-1.57,0-3.025-0.824-3.833-2.17L36,57h-8l-1.698,2.83    C25.494,61.176,24.039,62,22.469,62h0C20.001,62,18,59.999,18,57.531v-0.012c0-0.345,0.04-0.688,0.119-1.024L24,39l-12,3    c0,2.761-2.238,5-5,5C4.297,47,2,44.703,2,42c0-2.761,2.239-5,5-5l15-9"/>
	</g>
	<g>
		<path style="fill:#4F7158;" d="M18,59H8l7-32l5-1l-0.02-0.025c0.567,0.758,1.203,1.46,1.9,2.097"/>
	</g>
	<g>
		<path style="fill:#4F7158;" d="M46,59h10l-7-32c0,0-5-1-4.999-0.999c-0.563,0.749-1.194,1.444-1.884,2.075"/>
	</g>
	<g>
		<path style="fill:#566164;" d="M27,31l1,7l-1,16l-11,1l4-15l-8,2c0,1.126-0.372,2.164-0.999,3l0-10.4L22,28"/>
	</g>
	<g>
		<path style="fill:#919191;" d="M8.889,35.867L7,37c-2.761,0-5,2.238-5,5C2,44.703,4.297,47,7,47c2.761,0,5-2.239,5-5l1.655-0.414    L8.889,35.867z"/>
	</g>
	<g>
		<polygon style="fill:#B89148;" points="13.655,41.586 18.345,40.414 12.667,33.6 8.889,35.867   "/>
	</g>
	<g>
		<polyline style="fill:#D2C3AF;" points="7,30 7,60 11,62 11,30   "/>
	</g>
	<g>
		<rect x="7" y="30" style="fill:#B8A490;" width="4" height="4"/>
	</g>
	<g>
		<path style="fill:#566164;" d="M37,31l-1,7l1,16l11,1l-4-15l8,2c0,2.761,2.238,5,5,5c2.703,0,5.001-2.297,5-5c0-2.761-2.239-5-5-5    l-15-9"/>
	</g>
	<g>
		<path style="fill:#919191;" d="M57,37l-1.889-1.133l-4.766,5.72L52,42c0,2.761,2.238,5,5,5c2.703,0,5.001-2.297,5-5    C62,39.238,59.761,37,57,37z"/>
	</g>
	<g>
		<path style="fill:#919191;" d="M19,55c0,0,7.846,3.923,7.846,3.923l-0.544,0.907C25.494,61.176,24.039,62,22.469,62h0    C20.001,62,18,59.999,18,57.531v-0.012c0-0.345,0.04-0.688,0.119-1.024L19,55z"/>
	</g>
	<g>
		<path style="fill:#919191;" d="M37.154,58.923L45,55l0.881,1.495C45.96,56.831,46,57.174,46,57.519v0.012    C46,59.999,43.999,62,41.531,62h0c-1.57,0-3.025-0.824-3.833-2.17C37.698,59.83,37.154,58.923,37.154,58.923z"/>
	</g>
	<g>
		<polygon style="fill:#B89148;" points="55.111,35.867 51.333,33.6 45.655,40.414 50.345,41.586   "/>
	</g>
	<g>
		<path style="fill:#4F7158;" d="M36.978,31.154c1.447-0.509,2.792-1.233,3.997-2.134L41,29v7c0,0-4.824,4.824-4.824,4.824L36,38    L36.978,31.154z"/>
	</g>
	<g>
		<path style="fill:#4F7158;" d="M27.022,31.154c-1.457-0.512-2.811-1.243-4.023-2.154C23,29,23,36,23,36s4.824,4.824,4.824,4.824    L28,38C28,38,27.022,31.154,27.022,31.154z"/>
	</g>
	<g>
		<polygon style="fill:#B89148;" points="36.939,53.024 46.458,49.217 44.833,43.125 36.701,49.224   "/>
	</g>
	<g>
		<polygon style="fill:#B89148;" points="27.299,49.224 19.167,43.125 17.542,49.217 27.061,53.024   "/>
	</g>
	<g>
		<path d="M49.333,33.199l-1.17-5.347c-1.324-0.265-4.248-0.85-4.351-0.869l0.191-0.981l-0.003-0.001l-0.882-0.472    c0.353-0.655,0.351-0.654,6.077,0.49c0.39,0.078,0.695,0.379,0.78,0.767l1.31,5.985L49.333,33.199z"/>
	</g>
	<g>
		<path d="M56,60H46v-2h8.758l-2.824-12.912l1.953-0.428l3.09,14.126c0.065,0.296-0.008,0.605-0.197,0.841    C56.589,59.863,56.303,60,56,60z"/>
	</g>
	<g>
		<path style="fill:#D2A95C;" d="M9,18.171V18C9,12.71,8.048,7.463,6.191,2.509L6,2l7,6v20l-2,2H7l-5-5V14l0.661,1.652    C3.533,17.833,5.046,19.697,7,21l0,0C7,19.694,7.835,18.583,9,18.171z"/>
	</g>
	<g>
		<path style="fill:#EDD07A;" d="M13,21v7l-2,2H9v-0.838c0-1.98-0.302-3.948-0.895-5.836C8.622,23.747,9.281,24,10,24    C11.657,24,13,22.657,13,21z"/>
	</g>
	<g>
		<circle style="fill:#4B88BA;" cx="10" cy="21" r="3"/>
	</g>
	<g>
		<path style="fill:#D2A95C;" d="M37,7h-2l-3,3l-3-3h-2l-5,1l-5,1l0,8c0,8.284,6.716,15,15,15s15-6.716,15-15l0-8l-5-1L37,7z"/>
	</g>
	<g>
		<path style="fill:#B89148;" d="M21,14v-0.443c0-4.155,1.846-8.095,5.037-10.755L27,2v0.39c0,4.309,0.994,8.559,2.905,12.419L21,14    z"/>
	</g>
	<g>
		<path style="fill:#B89148;" d="M43,14v-0.443c0-4.155-1.846-8.095-5.037-10.755L37,2v0.39c0,4.309-0.994,8.559-2.905,12.419L43,14    z"/>
	</g>
	<g>
		<path style="fill:#D8C4A9;" d="M21,14v7l4,5v4.262C27.091,31.368,29.47,32,32,32s4.909-0.632,7-1.738V26l4-5v-7l-11,1L21,14z"/>
	</g>
	<g>
		<circle style="fill:#ABABAB;" cx="28" cy="21" r="2"/>
	</g>
	<g>
		<circle style="fill:#ABABAB;" cx="36" cy="21" r="2"/>
	</g>
	<g>
		<path d="M41.53,63c-1.91,0-3.707-1.018-4.689-2.655L35.434,58h-6.867l-1.407,2.345C26.177,61.982,24.38,63,22.47,63    C19.454,63,17,60.546,17,57.53c0-0.434,0.049-0.855,0.146-1.265c0.023-0.098,0.062-0.191,0.112-0.278l0.881-1.495l1.723,1.016    l-0.799,1.355C19.021,57.079,19,57.299,19,57.519C19,59.443,20.557,61,22.47,61c1.212,0,2.352-0.646,2.975-1.685l1.698-2.83    C27.323,56.185,27.648,56,28,56h8c0.352,0,0.677,0.185,0.857,0.485l1.698,2.83C39.179,60.354,40.318,61,41.53,61    c1.913,0,3.47-1.557,3.47-3.47c0-0.229-0.021-0.451-0.062-0.667l-0.799-1.355l1.723-1.016l0.881,1.495    c0.051,0.087,0.089,0.181,0.112,0.278C46.951,56.675,47,57.097,47,57.519C47,60.546,44.546,63,41.53,63z"/>
	</g>
	<g>
		<rect x="10.087" y="30.3" transform="matrix(0.8574 -0.5146 0.5146 0.8574 -13.7553 12.9549)" width="12.827" height="2"/>
	</g>
	<g>
		<path d="M7,48c-3.252,0-6-2.748-6-6c0-3.309,2.691-6,6-6v2c-2.206,0-4,1.794-4,4c0,2.168,1.832,4,4,4V48z"/>
	</g>
	<g>
		<path d="M16,56c-0.293,0-0.573-0.129-0.765-0.355c-0.211-0.25-0.286-0.587-0.201-0.902l3.562-13.36l-5.648,1.412    c-0.133,1.016-0.523,1.974-1.147,2.806l-1.6-1.199C10.724,43.703,11,42.873,11,42c0-0.459,0.312-0.858,0.758-0.97l8-2    c0.341-0.088,0.706,0.016,0.955,0.269c0.248,0.252,0.345,0.617,0.253,0.959l-3.631,13.616l8.721-0.792l0.939-15.042l-0.985-6.898    l1.98-0.283l1,7c0.01,0.067,0.012,0.136,0.008,0.204l-1,16c-0.031,0.492-0.416,0.889-0.907,0.934l-11,1    C16.061,55.999,16.03,56,16,56z"/>
	</g>
	<g>
		<path d="M48,56c-0.03,0-0.061-0.001-0.091-0.004l-11-1c-0.491-0.045-0.876-0.441-0.907-0.934l-1-16    c-0.004-0.068-0.002-0.137,0.008-0.204l1-7l1.98,0.283l-0.985,6.898l0.939,15.042l8.721,0.792l-3.631-13.616    c-0.092-0.342,0.005-0.707,0.253-0.959c0.249-0.253,0.612-0.356,0.955-0.269l8,2C52.688,41.142,53,41.541,53,42    c0,2.206,1.794,4,4,4c2.168,0,4-1.832,4-4c0-2.206-1.794-4-4-4c-0.182,0-0.359-0.049-0.515-0.143l-15-9l1.029-1.715l14.773,8.864    C60.463,36.158,63,38.788,63,42c0,3.252-2.748,6-6,6c-3.039,0-5.559-2.271-5.947-5.206l-5.649-1.412l3.562,13.36    c0.085,0.315,0.01,0.652-0.201,0.902C48.573,55.871,48.293,56,48,56z"/>
	</g>
	<g>
		<rect x="22" y="52.528" transform="matrix(0.4472 -0.8944 0.8944 0.4472 -38.2683 52.0807)" width="2" height="8.944"/>
	</g>
	<g>
		<rect x="36.528" y="56" transform="matrix(0.8944 -0.4472 0.4472 0.8944 -21.1627 24.3534)" width="8.944" height="2"/>
	</g>
	<g>
		<path d="M28,24c-1.654,0-3-1.346-3-3s1.346-3,3-3s3,1.346,3,3S29.654,24,28,24z M28,20c-0.552,0-1,0.448-1,1s0.448,1,1,1    s1-0.448,1-1S28.552,20,28,20z"/>
	</g>
	<g>
		<path d="M36,24c-1.654,0-3-1.346-3-3s1.346-3,3-3s3,1.346,3,3S37.654,24,36,24z M36,20c-0.552,0-1,0.448-1,1s0.448,1,1,1    s1-0.448,1-1S36.552,20,36,20z"/>
	</g>
	<g>
		<path d="M40,30h-2v-4c0-0.228,0.077-0.447,0.219-0.625L42,20.649v-5.555l-9.909,0.901c-0.061,0.006-0.121,0.006-0.182,0L22,15.095    v5.555l3.781,4.726C25.923,25.553,26,25.772,26,26v4h-2v-3.649l-3.781-4.726C20.077,21.447,20,21.228,20,21v-7    c0-0.281,0.118-0.549,0.325-0.738c0.209-0.189,0.487-0.284,0.766-0.258L32,13.996l10.909-0.992    c0.279-0.027,0.558,0.068,0.766,0.258C43.882,13.451,44,13.719,44,14v7c0,0.228-0.077,0.447-0.219,0.625L40,26.351V30z"/>
	</g>
	<g>
		<rect x="25" y="16.438" transform="matrix(0.2425 -0.9701 0.9701 0.2425 1.7464 39.2368)" width="1.999" height="4.123"/>
	</g>
	<g>
		<rect x="35.938" y="17.5" transform="matrix(0.9702 -0.2423 0.2423 0.9702 -3.3503 9.7589)" width="4.123" height="1.999"/>
	</g>
	<g>
		<path d="M32,33c-8.822,0-16-7.178-16-16V9c0-0.477,0.337-0.887,0.804-0.98l5-1l0.393,1.961L18,9.819V17c0,7.72,6.28,14,14,14    s14-6.28,14-14V9.819L41.804,8.98l0.393-1.961l5,1C47.663,8.113,48,8.523,48,9v8C48,25.822,40.822,33,32,33z"/>
	</g>
	<g>
		<path d="M32,11c-0.256,0-0.512-0.098-0.707-0.293L28.586,8H27V6h2c0.266,0,0.52,0.105,0.707,0.293L32,8.586l2.293-2.293    C34.48,6.105,34.734,6,35,6h2v2h-1.586l-2.707,2.707C32.512,10.902,32.256,11,32,11z"/>
	</g>
	<g>
		<rect x="16.95" y="13.5" transform="matrix(0.9805 -0.1963 0.1963 0.9805 -2.467 4.1101)" width="5.099" height="2"/>
	</g>
	<g>
		<rect x="43.5" y="11.95" transform="matrix(0.1961 -0.9806 0.9806 0.1961 21.5544 55.2922)" width="2" height="5.099"/>
	</g>
	<g>
		<path d="M29.105,15.447l-0.044-0.088c-1.744-3.487-2.772-7.339-3.009-11.234C23.468,6.575,22,9.968,22,13.558V14h-2v-0.442    c0-4.465,1.967-8.665,5.396-11.524l0.964-0.802c0.298-0.248,0.714-0.301,1.064-0.137S28,1.612,28,2v0.39    c0,4.171,0.985,8.347,2.851,12.075L30,15L29.105,15.447z"/>
	</g>
	<g>
		<path d="M34.938,15.359l-1.833-0.807l0.044-0.088C35.015,10.736,36,6.561,36,2.39V2c0-0.388,0.225-0.741,0.575-0.905    s0.768-0.111,1.064,0.137l0.963,0.802C42.033,4.893,44,9.093,44,13.558V14h-2v-0.442c0-3.59-1.467-6.982-4.053-9.433    C37.711,8.021,36.683,11.872,34.938,15.359z"/>
	</g>
	<g>
		<rect x="28" y="27" width="8" height="2"/>
	</g>
	<g>
		<path d="M10,25c-2.206,0-4-1.794-4-4s1.794-4,4-4s4,1.794,4,4S12.206,25,10,25z M10,19c-1.103,0-2,0.897-2,2s0.897,2,2,2    s2-0.897,2-2S11.103,19,10,19z"/>
	</g>
	<g>
		<path d="M11,31H7c-0.266,0-0.52-0.105-0.707-0.293l-5-5C1.105,25.52,1,25.266,1,25V14c0-0.479,0.34-0.892,0.811-0.982    c0.464-0.088,0.939,0.165,1.118,0.611l0.661,1.652c0.8,2.001,2.171,3.691,3.965,4.887l-1.109,1.664    C5.073,20.917,3.909,19.759,3,18.416v6.17L7.414,29h3.172L12,27.586V8.46L8.13,5.143C9.372,9.312,10,13.624,10,18v0.171H8V18    C8,12.811,7.076,7.717,5.254,2.86l-0.19-0.51c-0.16-0.428-0.011-0.909,0.363-1.17C5.801,0.919,6.306,0.942,6.65,1.241l7,6    C13.872,7.431,14,7.708,14,8v20c0,0.266-0.105,0.52-0.293,0.707l-2,2C11.52,30.895,11.266,31,11,31z"/>
	</g>
	<g>
		<path d="M10,30H8v-0.838c0-1.989-0.319-3.956-0.948-5.846l1.896-0.633C9.646,24.777,10,26.957,10,29.162V30z"/>
	</g>
	<g>
		<path d="M11,63c-0.153,0-0.306-0.035-0.447-0.105l-4-2C6.214,60.725,6,60.379,6,60V30h2v29.382l2,1V30h2v32    c0,0.347-0.18,0.668-0.475,0.851C11.365,62.95,11.183,63,11,63z"/>
	</g>
	<g>
		<rect x="7" y="33" width="4" height="2"/>
	</g>
	<g>
		<rect x="11" y="58" width="7" height="2"/>
	</g>
	<g>
		<path d="M14.667,33.199l-1.953-0.428l1.31-5.985c0.085-0.388,0.391-0.688,0.78-0.767l5-1l0.393,1.961l-4.359,0.872L14.667,33.199z    "/>
	</g>
	<g>
		<path d="M32,38c-0.153,0-0.307-0.035-0.447-0.105l-4-2l0.895-1.789L32,35.882l3.553-1.776l0.895,1.789l-4,2    C32.307,37.965,32.153,38,32,38z"/>
	</g>
	<g>
		<rect x="31.27" y="37.912" transform="matrix(0.614 -0.7893 0.7893 0.614 -21.7376 42.1957)" width="2" height="10.819"/>
	</g>
	<g>
		<rect x="31.5" y="42.799" transform="matrix(0.6139 -0.7894 0.7894 0.6139 -25.7367 44.3778)" width="2" height="11.402"/>
	</g>
	<g>
		<rect x="29.764" y="45" transform="matrix(0.4472 -0.8944 0.8944 0.4472 -23.4545 54.0498)" width="4.472" height="2"/>
	</g>
	<g>
		<rect x="48.595" y="37.999" transform="matrix(0.6403 -0.7681 0.7681 0.6403 -11.0722 54.3565)" width="7.81" height="2.001"/>
	</g>
	<g>
		<rect x="44.595" y="35.999" transform="matrix(0.6403 -0.7681 0.7681 0.6403 -10.9748 50.5645)" width="7.81" height="2.001"/>
	</g>
	<g>
		<rect x="14.499" y="33.095" transform="matrix(0.7682 -0.6402 0.6402 0.7682 -20.0943 18.4987)" width="2.001" height="7.81"/>
	</g>
	<g>
		<path d="M36.707,41.707l-1.414-1.414L40,35.586V29h2v7c0,0.266-0.105,0.52-0.293,0.707L36.707,41.707z"/>
	</g>
	<g>
		<path d="M27.293,41.707l-5-5C22.105,36.52,22,36.266,22,36v-7h2v6.586l4.707,4.707L27.293,41.707z"/>
	</g>
	<g>
		<rect x="36" y="45" transform="matrix(0.8001 -0.5998 0.5998 0.8001 -19.3976 33.7882)" width="10" height="1.999"/>
	</g>
	<g>
		<rect x="36.615" y="50" transform="matrix(0.9286 -0.3711 0.3711 0.9286 -15.9254 19.2251)" width="10.77" height="2"/>
	</g>
	<g>
		<rect x="22" y="41" transform="matrix(0.6 -0.8 0.8 0.6 -27.6 36.8)" width="1.999" height="10"/>
	</g>
	<g>
		<rect x="21" y="45.615" transform="matrix(0.3714 -0.9285 0.9285 0.3714 -33.5229 52.4856)" width="2" height="10.77"/>
	</g>
</g>
</svg>
