<?xml version="1.0" encoding="iso-8859-1"?>
<!-- Generator: Adobe Illustrator 22.1.0, SVG Export Plug-In . SVG Version: 6.00 Build 0)  -->
<svg xmlns="http://www.w3.org/2000/svg" xmlns:xlink="http://www.w3.org/1999/xlink" version="1.1" id="Layer_3" x="0px" y="0px" viewBox="0 0 64 64" style="enable-background:new 0 0 64 64;" xml:space="preserve" width="512" height="512">
<g>
	<g>
		<path style="fill:#3B4546;" d="M51,34l4-6h-2c-4.418,0-8-3.582-8-8v-2c0-7.18-5.82-13-13-13s-13,5.82-13,13v2c0,4.418-3.582,8-8,8    H9l4,6"/>
	</g>
	<g>
		<path style="fill:#E4CFB6;" d="M17.25,31.875L7,37c-2.761,0-5,2.238-5,5C2,44.703,4.297,47,7,47c2.761,0,5-2.239,5-5l10-3l1,7    l-4.881,10.495C18.04,56.831,18,57.174,18,57.519v0.012C18,59.999,20.001,62,22.469,62h0c1.57,0,3.025-0.824,3.833-2.17L30,53h4    l3.698,6.83c0.808,1.346,2.263,2.17,3.833,2.17h0C43.999,62,46,59.999,46,57.531v-0.012c0-0.345-0.04-0.688-0.119-1.024L41,46l1-7    l10,3c0,2.761,2.238,5,5,5c2.703,0,5.001-2.297,5-5c0-2.761-2.239-5-5-5l-10.25-5.125L48,30l-7.764-1.941    C37.993,29.897,35.126,31,32,31s-5.993-1.103-8.236-2.941L16,30C16,30,17.25,31.875,17.25,31.875z"/>
	</g>
	<g>
		<path style="fill:#4F7158;" d="M24.953,28.926c-0.413-0.267-0.81-0.557-1.189-0.867L16,30l6,9l1,7l-4.881,10.495    C18.04,56.831,18,57.174,18,57.519v0.012C18,59.999,20.001,62,22.469,62h0c1.57,0,3.025-0.824,3.833-2.17L30,53h4l3.698,6.83    c0.808,1.346,2.263,2.17,3.833,2.17h0C43.999,62,46,59.999,46,57.531v-0.012c0-0.345-0.04-0.688-0.119-1.024L41,46l1-7l6-9    l-7.764-1.941c-0.379,0.311-0.776,0.6-1.189,0.867L32,40C32,40,24.953,28.926,24.953,28.926z"/>
	</g>
	<g>
		<path style="fill:#566164;" d="M18.849,54.925l-0.73,1.57C18.04,56.831,18,57.174,18,57.519v0.012C18,59.999,20.001,62,22.469,62    c1.57,0,3.025-0.824,3.833-2.17l0.502-0.928L18.849,54.925z"/>
	</g>
	<g>
		<path style="fill:#566164;" d="M46,57.531v-0.012c0-0.345-0.04-0.688-0.119-1.024l-0.73-1.57l-7.955,3.978l0.502,0.928    c0.808,1.346,2.263,2.17,3.833,2.17C43.999,62,46,59.999,46,57.531z"/>
	</g>
	<g>
		<polygon style="fill:#3B4546;" points="26.804,58.902 30,53 30,53 22.054,48.034 18.849,54.925   "/>
	</g>
	<g>
		<polygon style="fill:#3B4546;" points="34,53 37.196,58.902 45.151,54.925 41.946,48.034 34,53   "/>
	</g>
	<g>
		<path style="fill:#4F7158;" d="M15.056,41.083L11,35l-4,2c-2.761,0-5,2.238-5,5C2,44.703,4.297,47,7,47c2.761,0,5-2.239,5-5    L15.056,41.083z"/>
	</g>
	<g>
		<path style="fill:#4F7158;" d="M57,37l-4-2l-4.056,6.083L52,42c0,2.761,2.238,5,5,5c2.703,0,5.001-2.297,5-5    C62,39.238,59.761,37,57,37z"/>
	</g>
	<g>
		<path style="fill:#D8C4A9;" d="M29,10l-4-5c0-1.657-1.343-3-3-3s-3,1.343-3,3s1.343,3,3,3l3,4"/>
	</g>
	<g>
		<path style="fill:#D8C4A9;" d="M35,10l4-5c0-1.657,1.343-3,3-3s3,1.343,3,3s-1.343,3-3,3l-3,4"/>
	</g>
	<g>
		<path style="fill:#D8C4A9;" d="M32,9c0,1.753-1.217,3.271-2.929,3.651l-3.143,0.698C24.217,13.729,23,15.247,23,17v7l1.073,4.291    C26.268,29.984,29.013,31,32,31s5.732-1.016,7.927-2.709L41,24v-7c0-1.753-1.217-3.271-2.929-3.651l-3.143-0.698    C33.217,12.271,32,10.753,32,9"/>
	</g>
	<g>
		<circle style="fill:#ABABAB;" cx="28" cy="20" r="2"/>
	</g>
	<g>
		<circle style="fill:#ABABAB;" cx="36" cy="20" r="2"/>
	</g>
	<g>
		<path d="M28,23c-1.654,0-3-1.346-3-3s1.346-3,3-3s3,1.346,3,3S29.654,23,28,23z M28,19c-0.552,0-1,0.448-1,1s0.448,1,1,1    s1-0.448,1-1S28.552,19,28,19z"/>
	</g>
	<g>
		<path d="M36,23c-1.654,0-3-1.346-3-3s1.346-3,3-3s3,1.346,3,3S37.654,23,36,23z M36,19c-0.552,0-1,0.448-1,1s0.448,1,1,1    s1-0.448,1-1S36.552,19,36,19z"/>
	</g>
	<g>
		<rect x="24.5" y="14.95" transform="matrix(0.1961 -0.9806 0.9806 0.1961 3.3389 39.0728)" width="2" height="5.099"/>
	</g>
	<g>
		<rect x="35.95" y="16.5" transform="matrix(0.9805 -0.1963 0.1963 0.9805 -2.6862 7.8982)" width="5.099" height="2"/>
	</g>
	<g>
		<path d="M41.53,63c-1.91,0-3.707-1.018-4.689-2.655L33.404,54h-2.809l-3.415,6.307C26.177,61.982,24.38,63,22.47,63    C19.454,63,17,60.546,17,57.53c0-0.434,0.049-0.855,0.146-1.265c0.016-0.066,0.038-0.131,0.066-0.192l4.756-10.226l-0.793-5.556    l-8.223,2.467C12.578,45.71,10.052,48,7,48c-3.252,0-6-2.748-6-6c0-3.226,2.56-5.865,5.754-5.995l9.799-4.899l0.895,1.789l-10,5    C7.309,37.964,7.155,38,7,38c-2.206,0-4,1.794-4,4c0,2.168,1.832,4,4,4c2.206,0,4-1.794,4-4c0-0.441,0.29-0.831,0.713-0.958l10-3    c0.277-0.083,0.581-0.041,0.825,0.115c0.246,0.157,0.411,0.413,0.452,0.701l1,7c0.027,0.192-0.002,0.388-0.083,0.563    l-4.836,10.396C19.024,57.048,19,57.283,19,57.519C19,59.443,20.557,61,22.47,61c1.212,0,2.352-0.646,2.975-1.685l3.677-6.792    C29.295,52.201,29.633,52,30,52h4c0.367,0,0.705,0.201,0.879,0.523l3.698,6.83C39.179,60.354,40.318,61,41.53,61    c1.913,0,3.47-1.557,3.47-3.47c0-0.245-0.024-0.481-0.071-0.712l-4.836-10.396c-0.081-0.176-0.11-0.371-0.083-0.563l1-7    c0.041-0.288,0.206-0.544,0.452-0.701c0.246-0.156,0.55-0.198,0.825-0.115l10,3C52.71,41.169,53,41.559,53,42c0,2.206,1.794,4,4,4    c2.168,0,4-1.832,4-4c0-2.206-1.794-4-4-4c-0.155,0-0.309-0.036-0.447-0.105l-10-5l0.895-1.789l9.799,4.899    C60.44,36.135,63,38.774,63,42c0,3.252-2.748,6-6,6c-3.052,0-5.578-2.29-5.952-5.241l-8.223-2.467l-0.793,5.556l4.756,10.226    c0.028,0.062,0.051,0.126,0.066,0.192C46.951,56.675,47,57.097,47,57.519C47,60.546,44.546,63,41.53,63z"/>
	</g>
	<g>
		<path d="M32,41c-0.342,0-0.66-0.175-0.844-0.463l-7-11l1.688-1.074L32,38.138l6.156-9.675l1.688,1.074l-7,11    C32.66,40.825,32.342,41,32,41z"/>
	</g>
	<g>
		<rect x="31" y="40" width="2" height="13"/>
	</g>
	<g>
		<rect x="25" y="45.783" transform="matrix(0.53 -0.848 0.848 0.53 -30.6039 45.783)" width="2" height="9.434"/>
	</g>
	<g>
		<rect x="33.283" y="49.5" transform="matrix(0.8478 -0.5304 0.5304 0.8478 -20.9983 27.8405)" width="9.434" height="2"/>
	</g>
	<g>
		<rect x="22" y="52.528" transform="matrix(0.4472 -0.8944 0.8944 0.4472 -38.2683 52.0807)" width="2" height="8.944"/>
	</g>
	<g>
		<rect x="36.528" y="56" transform="matrix(0.8944 -0.4472 0.4472 0.8944 -21.1627 24.3534)" width="8.944" height="2"/>
	</g>
	<g>
		<path d="M31.4,49.8l-4-3c-0.147-0.109-0.261-0.258-0.329-0.429L25.323,42H22v-2h4c0.409,0,0.776,0.249,0.929,0.629l1.896,4.739    L32.6,48.2L31.4,49.8z"/>
	</g>
	<g>
		<path d="M32.6,49.8L31.4,48.2l3.775-2.832l1.896-4.739C37.224,40.249,37.591,40,38,40h4v2h-3.323l-1.748,4.371    C36.86,46.542,36.747,46.69,36.6,46.8L32.6,49.8z"/>
	</g>
	<g>
		<rect x="47.394" y="37" transform="matrix(0.5547 -0.8321 0.8321 0.5547 -8.9076 59.356)" width="7.211" height="2"/>
	</g>
	<g>
		<rect x="12" y="34.394" transform="matrix(0.8321 -0.5547 0.5547 0.8321 -18.8953 13.5932)" width="2" height="7.211"/>
	</g>
	<g>
		<rect x="28" y="25" width="8" height="2"/>
	</g>
	<g>
		<path d="M12.168,34.555l-4-6c-0.204-0.307-0.224-0.701-0.05-1.026S8.631,27,9,27h2c3.859,0,7-3.141,7-7v-2    c0-3.673,1.412-7.145,3.977-9.774l1.432,1.396C21.211,11.876,20,14.852,20,18v2c0,4.963-4.037,9-9,9h-0.132l2.964,4.445    L12.168,34.555z"/>
	</g>
	<g>
		<path d="M42.832,39.555l-1.664-1.109l5.213-7.819l-5.911-1.479C38.045,30.99,35.058,32,32,32s-6.045-1.01-8.47-2.853l-5.911,1.479    l5.213,7.819l-1.664,1.109l-6-9c-0.181-0.271-0.218-0.612-0.101-0.915c0.117-0.304,0.375-0.531,0.69-0.609l7.765-1.941    c0.308-0.077,0.632-0.005,0.876,0.196C26.533,29.036,29.232,30,32,30s5.467-0.964,7.602-2.715c0.245-0.201,0.57-0.273,0.876-0.196    l7.765,1.941c0.315,0.078,0.573,0.306,0.69,0.609c0.117,0.303,0.08,0.645-0.101,0.915L42.832,39.555z"/>
	</g>
	<g>
		<path d="M51.832,34.555l-1.664-1.109L53.132,29H53c-4.963,0-9-4.037-9-9v-2c0-3.148-1.211-6.124-3.408-8.378l1.432-1.396    C44.588,10.855,46,14.327,46,18v2c0,3.859,3.141,7,7,7h2c0.369,0,0.708,0.203,0.882,0.528s0.154,0.72-0.05,1.026L51.832,34.555z"/>
	</g>
	<g>
		<path d="M37.426,7.294c-3.379-1.717-7.473-1.717-10.852,0l-0.906-1.783C27.641,4.509,29.771,4,32,4s4.359,0.509,6.332,1.511    L37.426,7.294z"/>
	</g>
	<g>
		<path d="M24.2,12.6l-2.726-3.634C19.517,8.707,18,7.027,18,5c0-2.206,1.794-4,4-4c2.08,0,3.795,1.596,3.982,3.628l3.799,4.747    l-1.562,1.25l-4-5C24.077,5.447,24,5.228,24,5c0-1.103-0.897-2-2-2s-2,0.897-2,2s0.897,2,2,2c0.314,0,0.611,0.148,0.8,0.4l3,4    L24.2,12.6z"/>
	</g>
	<g>
		<path d="M39.8,12.6L38.2,11.4l3-4C41.389,7.148,41.686,7,42,7c1.103,0,2-0.897,2-2s-0.897-2-2-2s-2,0.897-2,2    c0,0.228-0.077,0.447-0.219,0.625l-4,5l-1.562-1.25l3.799-4.747C38.205,2.596,39.92,1,42,1c2.206,0,4,1.794,4,4    c0,2.027-1.517,3.707-3.475,3.966L39.8,12.6z"/>
	</g>
</g>
</svg>
