<?xml version="1.0" encoding="iso-8859-1"?>
<!-- Generator: Adobe Illustrator 22.1.0, SVG Export Plug-In . SVG Version: 6.00 Build 0)  -->
<svg xmlns="http://www.w3.org/2000/svg" xmlns:xlink="http://www.w3.org/1999/xlink" version="1.1" id="Layer_3" x="0px" y="0px" viewBox="0 0 64 64" style="enable-background:new 0 0 64 64;" xml:space="preserve" width="512" height="512">
<g>
	<g>
		<polyline style="fill:#566164;" points="58,37 58,23 54,23 54,36   "/>
	</g>
	<g>
		<path style="fill:#B9B9B9;" d="M58,47v15l-0.192-0.192C55.37,59.37,54,56.063,54,52.615V46"/>
	</g>
	<g>
		<path style="fill:#B9B9B9;" d="M6,47v15l0.192-0.192C8.63,59.37,10,56.063,10,52.615V46"/>
	</g>
	<g>
		<polyline style="fill:#566164;" points="6,37 6,23 10,23 10,36   "/>
	</g>
	<g>
		<path style="fill:#88C3F8;" d="M21,40l-9,2c0,2.761-2.238,5-5,5C4.297,47,2,44.703,2,42c0-2.761,2.239-5,5-5l9-4"/>
	</g>
	<g>
		<polyline style="fill:#811E18;" points="42,28 49,31 43.89,40.198 43,40 41,45 44.844,54.052 36.513,56.829 35,53 29,53     27.487,56.829 19.156,54.052 23,45 21,40 20.11,40.198 15,31 22,28   "/>
	</g>
	<g>
		<polygon style="fill:#3B4546;" points="21.301,49 42.699,49 41,45 23,45   "/>
	</g>
	<g>
		<path style="fill:#3B4546;" d="M19.156,54.052l-1.037,2.443C18.04,56.831,18,57.174,18,57.519v0.012    C18,59.999,20.001,62,22.469,62h0c1.57,0,3.025-0.824,3.832-2.17l1.185-3.001L19.156,54.052z"/>
	</g>
	<g>
		<path style="fill:#3B4546;" d="M41.531,62C43.999,62,46,59.999,46,57.531v-0.012c0-0.345-0.04-0.688-0.119-1.024l-1.037-2.443    l-8.331,2.777l1.185,3.001C38.506,61.176,39.961,62,41.531,62L41.531,62z"/>
	</g>
	<g>
		<path style="fill:#B9B9B9;" d="M43,40l9,2c0,2.761,2.238,5,5,5c2.703,0,5.001-2.297,5-5c0-2.761-2.239-5-5-5l-9-4"/>
	</g>
	<g>
		<circle style="fill:#88C3F8;" cx="32" cy="17" r="15"/>
	</g>
	<g>
		<path style="fill:#8367B9;" d="M30.167,2.123c-0.188,0.023-0.372,0.055-0.557,0.085c-0.522,0.087-1.038,0.194-1.542,0.33    c0,0-0.001,0-0.001,0L29,10l1,12l-0.61,9.758C30.239,31.908,31.108,32,32,32s1.761-0.092,2.61-0.242L34,22l1-12l0.933-7.461    c0,0,0,0,0,0c-0.504-0.137-1.02-0.243-1.542-0.33c-0.185-0.03-0.37-0.062-0.557-0.085C33.65,2.1,33.466,2.081,33.282,2.065    C32.858,2.029,32.433,2,32,2c-0.433,0-0.858,0.029-1.282,0.065C30.534,2.081,30.35,2.1,30.167,2.123z"/>
	</g>
	<g>
		<path style="fill:#ABABAB;" d="M30,19c0,2.761-1.791,5-4,5s-4-2.239-4-5c0-1.156,0.314-2.221,0.841-3.068l0.001,0L30,19z"/>
	</g>
	<g>
		<path style="fill:#ABABAB;" d="M34,19c0,2.761,1.791,5,4,5s4-2.239,4-5c0-1.156-0.314-2.221-0.841-3.068l-0.001,0L34,19z"/>
	</g>
	<g>
		<path style="fill:#ABABAB;" d="M44.636,8.939L39,8l-4,2l-2,5l3-2l5-1l5.839,2.92C46.536,12.741,45.771,10.714,44.636,8.939z"/>
	</g>
	<g>
		<path d="M32,33c-8.822,0-16-7.178-16-16S23.178,1,32,1s16,7.178,16,16S40.822,33,32,33z M32,3c-7.72,0-14,6.28-14,14    s6.28,14,14,14s14-6.28,14-14S39.72,3,32,3z"/>
	</g>
	<g>
		<path d="M7,48c-3.252,0-6-2.748-6-6c0-3.234,2.572-5.879,5.779-5.996l8.815-3.918l0.812,1.828l-9,4C7.278,37.971,7.14,38,7,38    c-2.206,0-4,1.794-4,4c0,2.168,1.832,4,4,4c2.206,0,4-1.794,4-4c0-0.469,0.326-0.874,0.783-0.977l9-2l0.434,1.953l-8.272,1.838    C12.546,45.739,10.032,48,7,48z"/>
	</g>
	<g>
		<rect x="22.5" y="50.757" transform="matrix(0.3162 -0.9487 0.9487 0.3162 -36.5833 60.2434)" width="1.999" height="9.487"/>
	</g>
	<g>
		<path d="M19.126,40.485l-5-9c-0.138-0.247-0.164-0.541-0.072-0.809c0.092-0.268,0.292-0.484,0.552-0.596l7-3l0.788,1.838    l-5.982,2.563l4.462,8.032L19.126,40.485z"/>
	</g>
	<g>
		<path d="M57,48c-3.032,0-5.546-2.261-5.944-5.186l-8.272-1.838l0.434-1.953l9,2C52.674,41.126,53,41.531,53,42    c0,2.206,1.794,4,4,4c2.168,0,4-1.832,4-4c0-2.206-1.794-4-4-4c-0.14,0-0.278-0.029-0.406-0.086l-9-4l0.812-1.828l8.815,3.918    C60.428,36.121,63,38.766,63,42C63,45.252,60.252,48,57,48z"/>
	</g>
	<g>
		<path d="M41.531,63c-1.911,0-3.708-1.018-4.69-2.655c-0.028-0.047-0.053-0.097-0.073-0.147L34.32,54h-4.64l-2.448,6.197    c-0.02,0.051-0.044,0.101-0.073,0.147C26.177,61.982,24.38,63,22.469,63C19.454,63,17,60.546,17,57.53    c0-0.433,0.049-0.854,0.145-1.264c0.013-0.056,0.031-0.109,0.053-0.162l4.72-11.116l-1.847-4.617    c-0.106-0.265-0.093-0.562,0.034-0.818l3-6l1.789,0.895l-2.799,5.599l1.833,4.583c0.098,0.245,0.095,0.519-0.008,0.762    l-4.846,11.411C19.025,57.038,19,57.278,19,57.519C19,59.443,20.556,61,22.469,61c1.187,0,2.304-0.618,2.935-1.619l2.666-6.748    C28.221,52.251,28.589,52,29,52h6c0.411,0,0.779,0.251,0.93,0.633l2.666,6.748C39.227,60.382,40.344,61,41.531,61    C43.444,61,45,59.443,45,57.53c0-0.251-0.025-0.492-0.075-0.729L40.08,45.391c-0.103-0.243-0.106-0.517-0.008-0.762l1.833-4.583    l-2.799-5.599l1.789-0.895l3,6c0.127,0.256,0.14,0.554,0.034,0.818l-1.847,4.617l4.72,11.116c0.022,0.053,0.04,0.106,0.053,0.162    C46.951,56.677,47,57.098,47,57.519C47,60.546,44.546,63,41.531,63z"/>
	</g>
	<g>
		<rect x="35.757" y="54.5" transform="matrix(0.9486 -0.3165 0.3165 0.9486 -15.4846 15.6726)" width="9.487" height="1.999"/>
	</g>
	<g>
		<path d="M44.874,40.485l-1.748-0.971l4.462-8.032l-5.982-2.563l0.788-1.838l7,3c0.26,0.111,0.46,0.328,0.552,0.596    c0.091,0.268,0.065,0.562-0.072,0.809L44.874,40.485z"/>
	</g>
	<g>
		<rect x="23" y="44" width="18" height="2"/>
	</g>
	<g>
		<rect x="21" y="48" width="22" height="2"/>
	</g>
	<g>
		<path d="M36.024,45.217l-2-9c-0.03-0.136-0.032-0.276-0.004-0.413l1-5l1.961,0.393l-0.958,4.793l1.954,8.794L36.024,45.217z"/>
	</g>
	<g>
		<path d="M27.976,45.217l-1.952-0.434l1.954-8.794l-0.958-4.793l1.961-0.393l1,5c0.027,0.137,0.026,0.277-0.004,0.413    L27.976,45.217z"/>
	</g>
	<g>
		<path d="M26,25c-2.757,0-5-2.691-5-6c0-1.31,0.343-2.553,0.992-3.597c0.261-0.418,0.789-0.586,1.243-0.391l7.159,3.068    C30.762,18.238,31,18.6,31,19C31,22.309,28.757,25,26,25z M23.316,17.224C23.11,17.773,23,18.382,23,19c0,2.206,1.346,4,3,4    c1.49,0,2.73-1.456,2.961-3.357L23.316,17.224z"/>
	</g>
	<g>
		<path d="M38,25c-2.757,0-5-2.691-5-6c0-0.4,0.238-0.762,0.606-0.919l7.158-3.067c0.453-0.195,0.981-0.029,1.243,0.39    C42.657,16.446,43,17.689,43,19C43,22.309,40.757,25,38,25z M35.039,19.643C35.27,21.544,36.51,23,38,23c1.654,0,3-1.794,3-4    c0-0.628-0.107-1.229-0.314-1.777L35.039,19.643z"/>
	</g>
	<g>
		<path d="M33,16c-0.224,0-0.447-0.075-0.63-0.224c-0.34-0.275-0.461-0.741-0.299-1.147l2-5c0.091-0.228,0.262-0.414,0.481-0.523    l4-2c0.189-0.094,0.402-0.125,0.612-0.092l6,1l-0.329,1.973L39.156,9.04l-3.369,1.685l-0.663,1.657l0.321-0.214    c0.109-0.072,0.23-0.123,0.358-0.148l5-1c0.218-0.043,0.444-0.013,0.644,0.086l6,3l-0.895,1.789l-5.693-2.847l-4.47,0.894    l-2.835,1.891C33.386,15.944,33.193,16,33,16z"/>
	</g>
	<g>
		<path d="M38,28c-0.066,0-0.131-0.007-0.196-0.02l-5-1l0.393-1.961l4.82,0.964l5.819-0.97l0.329,1.973l-6,1    C38.11,27.995,38.055,28,38,28z"/>
	</g>
	<g>
		<rect x="31.469" y="5" transform="matrix(0.124 -0.9923 0.9923 0.124 25.1431 40.4817)" width="8.062" height="2"/>
	</g>
	<g>
		<rect x="27.5" y="1.969" transform="matrix(0.9923 -0.124 0.124 0.9923 -0.5241 3.5813)" width="2" height="8.062"/>
	</g>
	<g>
		<rect x="29" y="5" width="6" height="2"/>
	</g>
	<g>
		<path d="M7,37H5V23c0-0.553,0.448-1,1-1h4c0.552,0,1,0.447,1,1v13H9V24H7V37z"/>
	</g>
	<g>
		<path d="M6,63c-0.129,0-0.259-0.024-0.383-0.076C5.244,62.77,5,62.404,5,62V47h2v12.256c1.301-1.951,2-4.242,2-6.641V46h2v6.615    c0,3.74-1.456,7.256-4.101,9.899l-0.192,0.192C6.516,62.898,6.26,63,6,63z"/>
	</g>
	<g>
		<rect x="7" y="25.438" transform="matrix(0.2425 -0.9701 0.9701 0.2425 -20.6192 28.5914)" width="1.999" height="4.123"/>
	</g>
	<g>
		<rect x="5.938" y="30.5" transform="matrix(0.9701 -0.2428 0.2428 0.9701 -7.4078 2.8844)" width="4.123" height="1.999"/>
	</g>
	<g>
		<path d="M59,37h-2V24h-2v12h-2V23c0-0.553,0.448-1,1-1h4c0.552,0,1,0.447,1,1V37z"/>
	</g>
	<g>
		<path d="M58,63c-0.26,0-0.516-0.102-0.707-0.293l-0.192-0.192C54.456,59.871,53,56.355,53,52.615V46h2v6.615    c0,2.398,0.699,4.689,2,6.641V47h2v15c0,0.404-0.244,0.77-0.617,0.924C58.259,62.976,58.129,63,58,63z"/>
	</g>
	<g>
		<rect x="53.938" y="26.5" transform="matrix(0.9701 -0.2428 0.2428 0.9701 -5.0008 14.4175)" width="4.123" height="1.999"/>
	</g>
	<g>
		<rect x="55" y="29.438" transform="matrix(0.2425 -0.9701 0.9701 0.2425 11.8585 78.1881)" width="1.999" height="4.123"/>
	</g>
	<g>
		<circle cx="26.5" cy="20.5" r="1.5"/>
	</g>
	<g>
		<circle cx="37.5" cy="20.5" r="1.5"/>
	</g>
</g>
</svg>
