<?xml version="1.0" encoding="iso-8859-1"?>
<!-- Generator: Adobe Illustrator 22.1.0, SVG Export Plug-In . SVG Version: 6.00 Build 0)  -->
<svg xmlns="http://www.w3.org/2000/svg" xmlns:xlink="http://www.w3.org/1999/xlink" version="1.1" id="Layer_3" x="0px" y="0px" viewBox="0 0 64 64" style="enable-background:new 0 0 64 64;" xml:space="preserve" width="512" height="512">
<g>
	<g>
		<path style="fill:#404B5D;" d="M42,28l15,9c2.761,0,5,2.238,5,5c0,2.703-2.297,5.001-5,5c-2.761,0-5-2.239-5-5l-10-2l3.881,16.495    C45.96,56.831,46,57.174,46,57.519v0.012C46,59.999,43.999,62,41.531,62h0c-1.57,0-3.025-0.824-3.833-2.17L36,57h-8l-1.698,2.83    C25.494,61.176,24.039,62,22.469,62h0C20.001,62,18,59.999,18,57.531v-0.012c0-0.345,0.04-0.688,0.119-1.024L22,40l-10,2    c0,2.761-2.238,5-5,5C4.297,47,2,44.703,2,42c0-2.761,2.239-5,5-5l15-9"/>
	</g>
	<g>
		<path style="fill:#B9B9B9;" d="M18.218,56.073l-0.099,0.422C18.04,56.831,18,57.174,18,57.519v0.012    C18,59.999,20.001,62,22.469,62c1.57,0,3.025-0.824,3.833-2.17l0.531-0.886L18.218,56.073z"/>
	</g>
	<g>
		<path style="fill:#B9B9B9;" d="M37.698,59.83c0.808,1.346,2.263,2.17,3.832,2.17h0C43.999,62,46,59.999,46,57.531v-0.012    c0-0.345-0.04-0.688-0.119-1.024l-0.099-0.422l-8.615,2.872L37.698,59.83z"/>
	</g>
	<g>
		<polygon style="fill:#B9B9B9;" points="42.706,43 36,43 36.25,45 27.75,45 28,43 21.294,43 19.412,51 27,51 27.25,49 36.75,49     37,51 44.588,51   "/>
	</g>
	<g>
		<polyline style="fill:#939FA5;" points="44,47 48,47 49,53 45,53   "/>
	</g>
	<g>
		<polyline style="fill:#939FA5;" points="19,51 15,51 14,57 18,57   "/>
	</g>
	<g>
		<rect x="25" y="35" style="fill:#939FA5;" width="6" height="4"/>
	</g>
	<g>
		<path style="fill:#939FA5;" d="M62,42c0-2.761-2.239-5-5-5l-5-3l-2.791,7.442L52,42c0,2.761,2.238,5,5,5    C59.703,47,62,44.703,62,42z"/>
	</g>
	<g>
		<path style="fill:#939FA5;" d="M12,34l-5,3c-2.761,0-5,2.238-5,5C2,44.703,4.297,47,7,47c2.761,0,5-2.239,5-5l2.791-0.558L12,34z"/>
	</g>
	<g>
		<circle style="fill:#664C37;" cx="32" cy="17" r="15"/>
	</g>
	<g>
		<ellipse style="fill:#876440;" cx="30.5" cy="17" rx="13.5" ry="14.924"/>
	</g>
	<g>
		<circle style="fill:#3B4546;" cx="37" cy="17" r="3"/>
	</g>
	<g>
		<path d="M32,33c-8.822,0-16-7.178-16-16S23.178,1,32,1s16,7.178,16,16S40.822,33,32,33z M32,3c-7.72,0-14,6.28-14,14    s6.28,14,14,14s14-6.28,14-14S39.72,3,32,3z"/>
	</g>
	<g>
		<path d="M41.53,63c-1.91,0-3.707-1.018-4.689-2.655L35.434,58h-6.867l-1.407,2.345C26.177,61.982,24.38,63,22.47,63    C19.454,63,17,60.546,17,57.531c0-0.433,0.049-0.855,0.146-1.265l3.524-14.98l-7.728,1.545C12.536,45.748,10.026,48,7,48    c-3.252,0-6-2.748-6-6c0-3.211,2.537-5.842,5.712-5.993l14.773-8.864l1.029,1.715l-15,9C7.359,37.951,7.182,38,7,38    c-2.206,0-4,1.794-4,4c0,2.168,1.832,4,4,4c2.206,0,4-1.794,4-4c0-0.477,0.337-0.887,0.804-0.98l10-2    c0.335-0.067,0.679,0.041,0.915,0.285c0.236,0.245,0.333,0.593,0.255,0.924l-3.881,16.495C19.031,56.985,19,57.252,19,57.519    C19,59.444,20.557,61,22.47,61c1.212,0,2.352-0.646,2.975-1.685l1.698-2.83C27.323,56.184,27.648,56,28,56h8    c0.352,0,0.677,0.184,0.857,0.485l1.698,2.83C39.179,60.354,40.318,61,41.53,61c1.913,0,3.47-1.556,3.47-3.469    c0-0.279-0.031-0.546-0.093-0.806l-3.881-16.496c-0.078-0.331,0.019-0.68,0.255-0.924c0.237-0.244,0.582-0.353,0.915-0.285l10,2    C52.663,41.113,53,41.523,53,42c0,2.206,1.794,4,4,4c2.168,0,4-1.832,4-4c0-2.206-1.794-4-4-4c-0.182,0-0.359-0.049-0.515-0.143    l-15-9l1.029-1.715l14.773,8.864C60.463,36.158,63,38.788,63,42c0,3.252-2.748,6-6,6c-3.026,0-5.536-2.252-5.942-5.169    l-7.728-1.545l3.524,14.98C46.951,56.676,47,57.098,47,57.519C47,60.546,44.546,63,41.53,63z"/>
	</g>
	<g>
		<rect x="27" y="48" width="10" height="2"/>
	</g>
	<g>
		<rect x="28" y="44" width="8" height="2"/>
	</g>
	<g>
		<rect x="21.5" y="52.757" transform="matrix(0.3162 -0.9487 0.9487 0.3162 -39.1644 60.6623)" width="2" height="9.487"/>
	</g>
	<g>
		<rect x="36.757" y="56.5" transform="matrix(0.9486 -0.3164 0.3164 0.9486 -16.0598 16.083)" width="9.487" height="2"/>
	</g>
	<g>
		<rect x="34.89" y="53" transform="matrix(0.7595 -0.6506 0.6506 0.7595 -25.6285 38.6857)" width="9.22" height="2"/>
	</g>
	<g>
		<path d="M27,52h-8v-2h7.117l0.75-6H21v-2h7c0.287,0,0.56,0.123,0.75,0.338c0.189,0.215,0.278,0.501,0.242,0.786l-1,8    C27.93,51.625,27.504,52,27,52z"/>
	</g>
	<g>
		<path d="M45,52h-8c-0.504,0-0.93-0.375-0.992-0.876l-1-8c-0.036-0.285,0.053-0.571,0.242-0.786C35.44,42.123,35.713,42,36,42h7v2    h-5.867l0.75,6H45V52z"/>
	</g>
	<g>
		<rect x="20" y="46" width="8" height="2"/>
	</g>
	<g>
		<rect x="36" y="46" width="8" height="2"/>
	</g>
	<g>
		<path d="M18,58h-4c-0.294,0-0.573-0.129-0.763-0.354c-0.19-0.225-0.272-0.521-0.224-0.811l1-6C14.094,50.354,14.511,50,15,50h4v2    h-3.153l-0.666,4H18V58z"/>
	</g>
	<g>
		<path d="M49,54h-4v-2h2.819l-0.666-4H44v-2h4c0.489,0,0.906,0.354,0.986,0.835l1,6c0.049,0.29-0.033,0.586-0.224,0.811    C49.573,53.871,49.294,54,49,54z"/>
	</g>
	<g>
		<rect x="12.5" y="33.728" transform="matrix(0.9363 -0.3511 0.3511 0.9363 -12.4831 7.1597)" width="2" height="8.544"/>
	</g>
	<g>
		<rect x="46.228" y="37" transform="matrix(0.351 -0.9364 0.9364 0.351 -2.8084 71.948)" width="8.544" height="2"/>
	</g>
	<g>
		<path d="M30,18h-2c0-0.551-0.448-1-1-1s-1,0.449-1,1h-2c0-1.654,1.346-3,3-3S30,16.346,30,18z"/>
	</g>
	<g>
		<path d="M37,21c-2.206,0-4-1.794-4-4s1.794-4,4-4s4,1.794,4,4S39.206,21,37,21z M37,15c-1.103,0-2,0.897-2,2s0.897,2,2,2    s2-0.897,2-2S38.103,15,37,15z"/>
	</g>
	<g>
		<path d="M37.98,31.196l-1.961-0.393l0.919-4.594L35.465,24h-6.93l-1.474,2.21l0.919,4.594l-1.961,0.393l-1-5    c-0.052-0.26,0.001-0.53,0.148-0.751l2-3C27.354,22.167,27.666,22,28,22h8c0.334,0,0.646,0.167,0.832,0.445l2,3    c0.147,0.221,0.2,0.491,0.148,0.751L37.98,31.196z"/>
	</g>
	<g>
		<rect x="29" y="26" width="6" height="2"/>
	</g>
	<g>
		<rect x="27.844" y="2.325" transform="matrix(0.6536 -0.7568 0.7568 0.6536 2.3869 25.31)" width="2" height="15.444"/>
	</g>
	<g>
		<rect x="41.111" y="17.687" transform="matrix(0.6536 -0.7568 0.7568 0.6536 -1.6888 39.3199)" width="2" height="7.635"/>
	</g>
	<g>
		<rect x="39.757" y="34.5" transform="matrix(0.3165 -0.9486 0.9486 0.3165 -3.26 66.4756)" width="9.487" height="1.999"/>
	</g>
	<g>
		<rect x="31" y="36" width="13" height="2"/>
	</g>
	<g>
		<path d="M32,42h-2v-2h-5c-0.553,0-1-0.448-1-1v-4c0-0.552,0.447-1,1-1h6c0.553,0,1,0.448,1,1V42z M26,38h4v-2h-4V38z"/>
	</g>
	<g>
		<path d="M22,40h-2v-3c0-0.552,0.447-1,1-1h4v2h-3V40z"/>
	</g>
</g>
</svg>
