<?xml version="1.0" encoding="iso-8859-1"?>
<!-- Generator: Adobe Illustrator 22.1.0, SVG Export Plug-In . SVG Version: 6.00 Build 0)  -->
<svg xmlns="http://www.w3.org/2000/svg" xmlns:xlink="http://www.w3.org/1999/xlink" version="1.1" id="Layer_3" x="0px" y="0px" viewBox="0 0 64 64" style="enable-background:new 0 0 64 64;" xml:space="preserve" width="512" height="512">
<g>
	<g>
		<path style="fill:#465240;" d="M43.171,52.266l2.711,4.229C45.96,56.831,46,57.174,46,57.519v0.012C46,59.999,43.999,62,41.531,62    h0c-1.57,0-3.025-0.824-3.833-2.17L35,57h-6l-2.698,2.83C25.494,61.176,24.039,62,22.469,62h0C20.001,62,18,59.999,18,57.531    v-0.012c0-0.345,0.04-0.688,0.119-1.024l2.716-4.237L29,53l1.041-4.163C30.041,48.837,32,49,32,49l1.957-0.163L35,53.009    L43.171,52.266z"/>
	</g>
	<g>
		<path style="fill:#3B4546;" d="M26.302,59.83l0.761-0.798l-8.005-4.002l-0.94,1.466C18.04,56.831,18,57.174,18,57.519v0.012    C18,59.999,20.001,62,22.469,62C24.039,62,25.494,61.176,26.302,59.83z"/>
	</g>
	<g>
		<path style="fill:#3B4546;" d="M41.531,62C43.999,62,46,59.999,46,57.531v-0.012c0-0.345-0.04-0.688-0.119-1.024l-0.94-1.466    l-8.005,4.002l0.761,0.799C38.506,61.176,39.961,62,41.531,62L41.531,62z"/>
	</g>
	<g>
		<polyline style="fill:#4E5F43;" points="22,28 19,30 21.209,30.884 11.903,36.054 16.125,40.979 22,40 21,45 18,52 29,53     30.041,48.837 32,49 33.957,48.837 35,53.009 46,52.009 43,45.009 42,40.009 47.868,40.987 52.097,36.054 42.791,30.884 45,30     42,28   "/>
	</g>
	<g>
		<path style="fill:#3B4546;" d="M17,42l-5,2c0,2.761-2.238,5-5,5C4.297,49,2,46.703,2,44c0-2.761,2.239-5,5-5l4-4L17,42z"/>
	</g>
	<g>
		<path style="fill:#3B4546;" d="M47,42l5,2c0,2.761,2.238,5,5,5c2.703,0,5.001-2.297,5-5c0-2.761-2.239-5-5-5l-4-4L47,42z"/>
	</g>
	<g>
		<polygon style="fill:#3B4546;" points="44.276,47.977 32,49 19.724,47.977 21,45 21.196,44.018 32,45 42.802,44.018 43,45.009     44.273,47.978   "/>
	</g>
	<g>
		<path d="M34.999,54.009c-0.454,0-0.857-0.309-0.969-0.758l-1-4l1.939-0.484l0.793,3.169l8.776-0.798l-2.458-5.735    c-0.027-0.063-0.048-0.13-0.062-0.197l-1-5c-0.064-0.322,0.033-0.656,0.262-0.892c0.229-0.236,0.56-0.343,0.883-0.291l6,1    l-0.328,1.973l-4.571-0.762l0.695,3.478l2.959,6.904c0.126,0.294,0.104,0.631-0.06,0.905c-0.164,0.275-0.45,0.455-0.769,0.484    l-11,1C35.06,54.008,35.029,54.009,34.999,54.009z"/>
	</g>
	<g>
		<polygon style="fill:#566164;" points="36.69,44.574 29,34 20.771,30.708 32,45   "/>
	</g>
	<g>
		<polyline style="fill:#3B4546;" points="41.807,27.871 45,30 35,34 29,34 19,30 22.193,27.871   "/>
	</g>
	<g>
		<path style="fill:#CA5057;" d="M23.573,2.602L32,2l8.427,0.602C43.567,2.826,46,5.439,46,8.587V22.15    c0,2.829-1.976,5.274-4.743,5.867L32,30l-9.257-1.984C19.976,27.424,18,24.979,18,22.15V8.587C18,5.439,20.433,2.826,23.573,2.602    z"/>
	</g>
	<g>
		<polygon style="fill:#FFFFFF;" points="38,26 32,25 26,26 25,22 32,21 39,22   "/>
	</g>
	<g>
		<circle style="fill:#3B4546;" cx="25" cy="14" r="3"/>
	</g>
	<g>
		<circle style="fill:#3B4546;" cx="39" cy="14" r="3"/>
	</g>
	<g>
		<path d="M32,31c-0.07,0-0.141-0.008-0.21-0.022l-9.257-1.983C19.327,28.308,17,25.429,17,22.149V8.587    c0-3.655,2.855-6.722,6.501-6.982l0,0l8.428-0.602c0.047-0.004,0.096-0.004,0.143,0l8.428,0.602C44.145,1.865,47,4.932,47,8.587    v13.562c0,3.279-2.327,6.158-5.533,6.845l-9.257,1.983C32.141,30.992,32.07,31,32,31z M23.644,3.599    C21.04,3.785,19,5.977,19,8.587v13.562c0,2.343,1.662,4.398,3.953,4.89L32,28.978l9.047-1.938C43.338,26.548,45,24.492,45,22.149    V8.587c0-2.61-2.04-4.802-4.644-4.988L32,3.003L23.644,3.599z"/>
	</g>
	<g>
		<path d="M25,18c-2.206,0-4-1.794-4-4s1.794-4,4-4s4,1.794,4,4S27.206,18,25,18z M25,12c-1.103,0-2,0.897-2,2s0.897,2,2,2    s2-0.897,2-2S26.103,12,25,12z"/>
	</g>
	<g>
		<path d="M39,18c-2.206,0-4-1.794-4-4s1.794-4,4-4s4,1.794,4,4S41.206,18,39,18z M39,12c-1.103,0-2,0.897-2,2s0.897,2,2,2    s2-0.897,2-2S40.103,12,39,12z"/>
	</g>
	<g>
		<path d="M38.001,27c-0.055,0-0.11-0.004-0.165-0.014L32,26.014l-5.836,0.973c-0.506,0.088-1.008-0.238-1.134-0.744l-1-4    c-0.069-0.274-0.019-0.565,0.14-0.8c0.158-0.235,0.408-0.393,0.688-0.433l7-1c0.094-0.014,0.189-0.014,0.283,0l7,1    c0.28,0.04,0.53,0.197,0.688,0.433c0.158,0.234,0.209,0.525,0.14,0.8l-1,4C38.857,26.693,38.452,27,38.001,27z M32,24    c0.055,0,0.11,0.005,0.164,0.014l5.09,0.849l0.507-2.029L32,22.01l-5.761,0.823l0.507,2.029l5.09-0.849    C31.89,24.005,31.945,24,32,24z"/>
	</g>
	<g>
		<rect x="28.5" y="20.938" transform="matrix(0.9701 -0.2425 0.2425 0.9701 -4.6975 7.8415)" width="1.999" height="4.123"/>
	</g>
	<g>
		<rect x="32.438" y="22" transform="matrix(0.2423 -0.9702 0.9702 0.2423 3.8259 50.8989)" width="4.123" height="1.999"/>
	</g>
	<g>
		<path d="M33.168,18.555L32,16.803l-1.168,1.752l-1.664-1.109l2-3c0.371-0.557,1.293-0.557,1.664,0l2,3L33.168,18.555z"/>
	</g>
	<g>
		<path d="M32,11c-0.87,0-1.725-0.3-2.405-0.844l-3.438-2.75C25.829,7.145,25.418,7,25,7h-1V5h1c0.87,0,1.725,0.3,2.405,0.844    l3.438,2.75c0.654,0.523,1.657,0.523,2.313,0l3.437-2.75C37.275,5.3,38.13,5,39,5h1v2h-1c-0.418,0-0.829,0.145-1.157,0.406    l-3.437,2.75C33.725,10.7,32.87,11,32,11z"/>
	</g>
	<g>
		<path d="M7,50c-3.252,0-6-2.748-6-6c0-3.164,2.462-5.764,5.57-5.984l3.723-3.723c0.196-0.196,0.461-0.318,0.745-0.292    c0.278,0.011,0.54,0.137,0.721,0.349l6,7c0.21,0.244,0.289,0.575,0.212,0.889c-0.076,0.313-0.3,0.57-0.6,0.69l-4.411,1.765    C12.616,47.677,10.074,50,7,50z M10.943,36.471l-3.236,3.236C7.52,39.895,7.266,40,7,40c-2.206,0-4,1.794-4,4c0,2.168,1.832,4,4,4    c2.206,0,4-1.794,4-4c0-0.409,0.249-0.776,0.629-0.929l3.703-1.481L10.943,36.471z"/>
	</g>
	<g>
		<path d="M57,50c-3.074,0-5.616-2.323-5.96-5.307l-4.411-1.765c-0.3-0.12-0.523-0.377-0.6-0.69    c-0.077-0.313,0.002-0.645,0.212-0.889l6-7c0.181-0.212,0.442-0.338,0.721-0.349c0.28-0.025,0.548,0.096,0.745,0.292l3.723,3.723    C60.538,38.236,63,40.836,63,44C63,47.252,60.252,50,57,50z M48.668,41.59l3.703,1.481C52.751,43.224,53,43.591,53,44    c0,2.206,1.794,4,4,4c2.168,0,4-1.832,4-4c0-2.206-1.794-4-4-4c-0.266,0-0.52-0.105-0.707-0.293l-3.236-3.236L48.668,41.59z"/>
	</g>
	<g>
		<path d="M35,35h-6c-0.127,0-0.253-0.024-0.371-0.071l-10-4c-0.345-0.138-0.585-0.456-0.623-0.825    c-0.039-0.369,0.131-0.729,0.439-0.936l3-2l1.109,1.664l-1.418,0.945L29.192,33h5.615l8.056-3.223l-1.418-0.945l1.109-1.664l3,2    c0.309,0.206,0.479,0.566,0.439,0.936c-0.038,0.369-0.278,0.688-0.623,0.825l-10,4C35.253,34.976,35.127,35,35,35z"/>
	</g>
	<g>
		<rect x="11.352" y="32.5" transform="matrix(0.8742 -0.4855 0.4855 0.8742 -14.1886 12.223)" width="10.296" height="1.999"/>
	</g>
	<g>
		<rect x="46.5" y="28.352" transform="matrix(0.4856 -0.8742 0.8742 0.4856 -4.8523 58.7534)" width="1.999" height="10.296"/>
	</g>
	<g>
		<path d="M29.001,54c-0.03,0-0.061-0.001-0.092-0.004l-11-1c-0.318-0.029-0.604-0.209-0.769-0.484    c-0.163-0.274-0.186-0.611-0.06-0.905l2.959-6.904l0.695-3.478l-4.571,0.762l-0.328-1.973l6-1    c0.322-0.052,0.653,0.055,0.883,0.291c0.229,0.235,0.326,0.569,0.262,0.892l-1,5c-0.014,0.067-0.034,0.134-0.062,0.197    l-2.458,5.735l8.776,0.798l0.793-3.169l1.939,0.484l-1,4C29.858,53.691,29.455,54,29.001,54z"/>
	</g>
	<g>
		<path d="M41.53,63c-1.871,0-3.634-0.977-4.629-2.556L34.571,58h-5.143l-2.33,2.444C26.104,62.023,24.341,63,22.47,63    C19.454,63,17,60.546,17,57.53c0-0.434,0.049-0.855,0.146-1.265c0.026-0.11,0.07-0.215,0.132-0.311l2.881-4.495l1.684,1.08    l-2.782,4.342c-0.04,0.21-0.06,0.423-0.06,0.637C19,59.443,20.557,61,22.47,61c1.212,0,2.352-0.646,2.975-1.685    c0.038-0.063,0.083-0.122,0.134-0.176l2.698-2.83C28.465,56.112,28.727,56,29,56h6c0.273,0,0.535,0.112,0.724,0.31l2.698,2.83    c0.051,0.054,0.096,0.112,0.134,0.176C39.179,60.354,40.318,61,41.53,61c1.913,0,3.47-1.557,3.47-3.47    c0-0.223-0.02-0.438-0.06-0.648l-2.782-4.342l1.684-1.08l2.881,4.495c0.062,0.096,0.105,0.2,0.132,0.311    C46.951,56.675,47,57.097,47,57.519C47,60.546,44.546,63,41.53,63z"/>
	</g>
	<g>
		<path d="M32,46c-0.03,0-0.061-0.001-0.091-0.004l-11-1l0.182-1.992L32,43.996l10.909-0.992l0.182,1.992l-11,1    C32.061,45.999,32.03,46,32,46z"/>
	</g>
	<g>
		<path d="M32,50c-0.027,0-0.056-0.001-0.083-0.004l-12-1l0.166-1.992L32,47.996l11.917-0.992l0.166,1.992l-12,1    C32.056,49.999,32.027,50,32,50z"/>
	</g>
	<g>
		<rect x="28" y="45" width="2" height="4"/>
	</g>
	<g>
		<rect x="34" y="45" width="2" height="4"/>
	</g>
	<g>
		<rect x="22" y="52.528" transform="matrix(0.4472 -0.8944 0.8944 0.4472 -38.2683 52.0807)" width="2" height="8.944"/>
	</g>
	<g>
		<rect x="36.528" y="56" transform="matrix(0.8944 -0.4472 0.4472 0.8944 -21.1627 24.3534)" width="8.944" height="2"/>
	</g>
	<g>
		<rect x="32" y="32.699" transform="matrix(0.8087 -0.5882 0.5882 0.8087 -16.9211 26.9646)" width="1.999" height="13.601"/>
	</g>
	<g>
		<rect x="25.5" y="29.098" transform="matrix(0.7863 -0.6178 0.6178 0.7863 -17.8147 24.4922)" width="2" height="17.804"/>
	</g>
	<g>
		<circle cx="25.5" cy="13.5" r="1.5"/>
	</g>
	<g>
		<circle cx="39.5" cy="13.5" r="1.5"/>
	</g>
</g>
</svg>
