<?xml version="1.0" encoding="iso-8859-1"?>
<!-- Generator: Adobe Illustrator 22.1.0, SVG Export Plug-In . SVG Version: 6.00 Build 0)  -->
<svg xmlns="http://www.w3.org/2000/svg" xmlns:xlink="http://www.w3.org/1999/xlink" version="1.1" id="Layer_3" x="0px" y="0px" viewBox="0 0 64 64" style="enable-background:new 0 0 64 64;" xml:space="preserve" width="512" height="512">
<g>
	<g>
		<path style="fill:#A19080;" d="M42,28l15,9c2.761,0,5,2.238,5,5c0,2.703-2.297,5.001-5,5c-2.761,0-5-2.239-5-5l-10-2l3.881,16.495    C45.96,56.831,46,57.174,46,57.519v0.012C46,59.999,43.999,62,41.531,62h0c-1.57,0-3.025-0.824-3.833-2.17L36,57h-8l-1.698,2.83    C25.494,61.176,24.039,62,22.469,62h0C20.001,62,18,59.999,18,57.531v-0.012c0-0.345,0.04-0.688,0.119-1.024L22,40l-10,2    c0,2.761-2.238,5-5,5C4.297,47,2,44.703,2,42c0-2.761,2.239-5,5-5l15-9"/>
	</g>
	<g>
		<path style="fill:#534538;" d="M6,42v5h4V2H7v1c0,1.657-1.343,3-3,3h0v8"/>
	</g>
	<g>
		<polygon style="fill:#534538;" points="10,15 6,19 6,47 10,47   "/>
	</g>
	<g>
		<polyline style="fill:#828282;" points="10,10 6,14 2,14 2,29 6,29 6,19 10,15   "/>
	</g>
	<g>
		<polyline style="fill:#828282;" points="10,37 2,39 2,43 10,41   "/>
	</g>
	<g>
		<path style="fill:#828282;" d="M10,27v20H8v3c1.105,0,2,0.895,2,2s-0.895,2-2,2s-2-0.895-2-2l-4-4v7l3,3h6l3-3V27H10z"/>
	</g>
	<g>
		<path style="fill:#CE7E3C;" d="M21.88,28.072L17,31c0,0,5,9,5,9l-3.881,16.495C18.04,56.831,18,57.174,18,57.519v0.012    C18,59.999,20.001,62,22.469,62h0c1.57,0,3.025-0.824,3.833-2.17L28,57h8l1.698,2.83c0.808,1.346,2.263,2.17,3.833,2.17h0    C43.999,62,46,59.999,46,57.531v-0.012c0-0.345-0.04-0.688-0.119-1.024C45.881,56.495,42,40,42,40c0,0,5-9,5-9    c0,0-4.88-2.928-4.88-2.928"/>
	</g>
	<g>
		<path style="fill:#534538;" d="M42.12,28.072c-1.451,1.327-3.164,2.373-5.052,3.05C37.068,31.122,42,40,42,40c0,0,5-9,5-9    C47,31,42.12,28.072,42.12,28.072z"/>
	</g>
	<g>
		<path style="fill:#534538;" d="M21.88,28.072L17,31c0,0,5,9,5,9l4.932-8.878C25.044,30.445,23.331,29.399,21.88,28.072z"/>
	</g>
	<g>
		<polyline style="fill:#B8A490;" points="27,31 22.556,39 41.444,39 37,31   "/>
	</g>
	<g>
		<polygon style="fill:#534538;" points="18.923,53.077 25,47 22,40   "/>
	</g>
	<g>
		<polygon style="fill:#534538;" points="45.077,53.077 39,47 42,40   "/>
	</g>
	<g>
		<path style="fill:#B89148;" d="M32,41l4-4l-2.168-1.445C33.29,35.193,32.652,35,32,35h0c-0.652,0-1.29,0.193-1.832,0.555L28,37    L32,41z"/>
	</g>
	<g>
		<path style="fill:#A19080;" d="M37.698,59.83c0.808,1.346,2.263,2.17,3.832,2.17h0C43.999,62,46,59.999,46,57.531v-0.012    c0-0.174-0.01-0.347-0.03-0.519H36L37.698,59.83z"/>
	</g>
	<g>
		<path style="fill:#A19080;" d="M22.469,62c1.57,0,3.025-0.824,3.833-2.17L28,57h-9.97C18.01,57.172,18,57.345,18,57.519v0.012    C18,59.999,20.001,62,22.469,62z"/>
	</g>
	<g>
		<path style="fill:#534538;" d="M45,60h6.5c1.601,0,3.136-0.636,4.268-1.768l0.464-0.464C57.364,56.636,58,55.101,58,53.5v0    c0-1.601,0.636-3.136,1.768-4.268L62,47h-6.198c-1.154,0-2.26,0.458-3.076,1.274l0,0c-0.477,0.477-0.837,1.06-1.051,1.7    l-0.371,1.114C50.492,53.525,48.491,55.377,46,56h0"/>
	</g>
	<g>
		<path style="fill:#A19080;" d="M46.911,15.356l1.355-3.666C49.413,8.588,50,5.307,50,2v0L40,4"/>
	</g>
	<g>
		<path style="fill:#534538;" d="M44,8c0,0,6-6,6-6c0,3.307-0.587,6.588-1.734,9.69l-1.355,3.666"/>
	</g>
	<g>
		<path style="fill:#A19080;" d="M17.089,15.356l-1.355-3.666C14.587,8.588,14,5.307,14,2v0l10,2"/>
	</g>
	<g>
		<path style="fill:#534538;" d="M20,8c0,0-6-6-6-6c0,3.307,0.587,6.588,1.734,9.69l1.355,3.666"/>
	</g>
	<g>
		<circle style="fill:#A19080;" cx="32" cy="17" r="15"/>
	</g>
	<g>
		<path style="fill:#D8C4A9;" d="M47,17c0-2.119-0.445-4.133-1.237-5.96l-2.932,0.489c-1.871,0.312-3.666,0.973-5.292,1.948    c-1.677,1.006-3.142,2.328-4.316,3.892L32,19l-1.223-1.631c-1.173-1.564-2.639-2.886-4.316-3.892    c-1.626-0.976-3.421-1.637-5.292-1.948l-2.932-0.489C17.445,12.867,17,14.881,17,17c0,5.462,2.929,10.228,7.293,12.851    C25.232,26.477,28.326,24,32,24s6.768,2.477,7.707,5.851C44.071,27.228,47,22.462,47,17z"/>
	</g>
	<g>
		<path style="fill:#3B4546;" d="M42.831,15.528c-1.871,0.312-3.666,0.973-5.292,1.948c-1.677,1.006-3.142,2.328-4.316,3.892L32,23    l-1.223-1.631c-1.173-1.564-2.639-2.886-4.316-3.892c-1.626-0.976-3.421-1.637-5.292-1.948l-2.932-0.489    c-0.545,1.257-0.912,2.607-1.096,4.014c0.631,4.589,3.345,8.509,7.151,10.797C25.232,26.477,28.326,24,32,24    s6.768,2.477,7.707,5.851c3.807-2.288,6.52-6.208,7.151-10.797c-0.184-1.407-0.551-2.757-1.096-4.014L42.831,15.528z"/>
	</g>
	<g>
		<path style="fill:#D8C4A9;" d="M32,24c-3.674,0-6.768,2.477-7.707,5.851C26.547,31.206,29.178,32,32,32s5.453-0.794,7.707-2.149    C38.768,26.477,35.674,24,32,24z"/>
	</g>
	<g>
		<path style="fill:#B9B9B9;" d="M27,18l-5.262-2.627C21.278,16.076,21,16.994,21,18c0,2.209,1.343,4,3,4S27,20.209,27,18z"/>
	</g>
	<g>
		<path style="fill:#B9B9B9;" d="M37,18l5.262-2.627C42.722,16.076,43,16.994,43,18c0,2.209-1.343,4-3,4S37,20.209,37,18z"/>
	</g>
	<g>
		<path d="M32,33c-8.822,0-16-7.178-16-16S23.178,1,32,1s16,7.178,16,16S40.822,33,32,33z M32,3c-7.72,0-14,6.28-14,14    s6.28,14,14,14s14-6.28,14-14S39.72,3,32,3z"/>
	</g>
	<g>
		<rect x="13.335" y="29.4" transform="matrix(0.8574 -0.5146 0.5146 0.8574 -13.0783 13.5983)" width="9.329" height="2"/>
	</g>
	<g>
		<path d="M41.53,63c-1.91,0-3.707-1.018-4.689-2.655L35.434,58h-6.867l-1.407,2.345C26.177,61.982,24.38,63,22.47,63    C19.454,63,17,60.546,17,57.53c0-0.434,0.049-0.855,0.146-1.265l3.524-14.979l-6.474,1.294l-0.393-1.961l8-1.6    c0.335-0.063,0.679,0.041,0.915,0.285c0.236,0.245,0.333,0.593,0.255,0.925l-3.881,16.495C19.031,56.984,19,57.252,19,57.519    C19,59.443,20.557,61,22.47,61c1.212,0,2.352-0.646,2.975-1.685l1.698-2.83C27.323,56.185,27.648,56,28,56h8    c0.352,0,0.677,0.185,0.857,0.485l1.698,2.83C39.179,60.354,40.318,61,41.53,61c1.913,0,3.47-1.557,3.47-3.47    c0-0.278-0.031-0.546-0.093-0.806l-3.881-16.495c-0.078-0.332,0.019-0.68,0.255-0.925c0.237-0.244,0.582-0.35,0.915-0.285l10,2    C52.663,41.113,53,41.523,53,42c0,2.206,1.794,4,4,4c2.168,0,4-1.832,4-4c0-2.206-1.794-4-4-4c-0.182,0-0.359-0.049-0.515-0.143    l-15-9l1.029-1.715l14.773,8.864C60.463,36.158,63,38.788,63,42c0,3.252-2.748,6-6,6c-3.026,0-5.536-2.252-5.942-5.169    l-7.728-1.545l3.524,14.979C46.951,56.675,47,57.097,47,57.519C47,60.546,44.546,63,41.53,63z"/>
	</g>
	<g>
		<rect x="18" y="56" width="28" height="2"/>
	</g>
	<g>
		<rect x="21" y="59" width="2" height="3"/>
	</g>
	<g>
		<rect x="41" y="59" width="2" height="3"/>
	</g>
	<g>
		<path d="M35.105,57.447L33.382,54h-2.764l-1.724,3.447l-1.789-0.895l2-4C29.275,52.214,29.621,52,30,52h4    c0.379,0,0.725,0.214,0.895,0.553l2,4L35.105,57.447z"/>
	</g>
	<g>
		<path d="M35,50h-6c-0.553,0-1-0.447-1-1v-4c0-0.553,0.447-1,1-1h6c0.553,0,1,0.447,1,1v4C36,49.553,35.553,50,35,50z M30,48h4v-2    h-4V48z"/>
	</g>
	<g>
		<path d="M19.707,53.707l-1.414-1.414l5.521-5.521l-2.733-6.378l1.838-0.787l3,7c0.161,0.375,0.077,0.812-0.212,1.101    L19.707,53.707z"/>
	</g>
	<g>
		<rect x="25" y="46" width="4" height="2"/>
	</g>
	<g>
		<rect x="19.352" y="34.5" transform="matrix(0.4855 -0.8742 0.8742 0.4855 -18.43 39.6847)" width="10.296" height="2"/>
	</g>
	<g>
		<path d="M44.293,53.707l-6-6c-0.289-0.289-0.373-0.726-0.212-1.101l3-7l1.838,0.787l-2.733,6.378l5.521,5.521L44.293,53.707z"/>
	</g>
	<g>
		<rect x="35" y="46" width="4" height="2"/>
	</g>
	<g>
		<rect x="38.5" y="30.352" transform="matrix(0.8741 -0.4857 0.4857 0.8741 -12.2698 23.6515)" width="2" height="10.296"/>
	</g>
	<g>
		<path d="M32,42c-0.256,0-0.512-0.098-0.707-0.293l-4-4c-0.212-0.212-0.317-0.508-0.288-0.806s0.191-0.567,0.44-0.733l2.168-1.445    c1.422-0.945,3.353-0.945,4.772,0l2.169,1.445c0.249,0.166,0.411,0.436,0.44,0.733s-0.076,0.594-0.288,0.806l-4,4    C32.512,41.902,32.256,42,32,42z M29.569,37.155L32,39.586l2.431-2.431l-1.153-0.769c-0.76-0.506-1.794-0.506-2.556,0    L29.569,37.155z"/>
	</g>
	<g>
		<rect x="22" y="38" width="8" height="2"/>
	</g>
	<g>
		<rect x="34" y="38" width="8" height="2"/>
	</g>
	<g>
		<rect x="39.352" y="34.5" transform="matrix(0.4855 -0.8742 0.8742 0.4855 -8.1396 57.1697)" width="10.296" height="2"/>
	</g>
	<g>
		<rect x="18.5" y="30.352" transform="matrix(0.8741 -0.4857 0.4857 0.8741 -14.7869 13.9382)" width="2" height="10.296"/>
	</g>
	<g>
		<path d="M51.5,61H45v-2h6.5c1.345,0,2.609-0.523,3.561-1.475l0.465-0.465C56.477,56.109,57,54.845,57,53.5    c0-1.879,0.731-3.646,2.061-4.975L59.586,48h-3.784c-0.895,0-1.736,0.349-2.369,0.981c-0.365,0.365-0.645,0.818-0.808,1.308    l-0.373,1.116c-0.924,2.774-3.171,4.854-6.01,5.564l-0.484-1.939c2.171-0.544,3.89-2.135,4.598-4.258l0.372-1.115    c0.26-0.783,0.707-1.506,1.291-2.09C53.029,46.557,54.373,46,55.802,46H62c0.404,0,0.77,0.243,0.924,0.617    c0.155,0.374,0.069,0.804-0.217,1.09l-2.232,2.232C59.523,50.891,59,52.155,59,53.5c0,1.879-0.731,3.646-2.061,4.975l-0.465,0.465    C55.146,60.269,53.379,61,51.5,61z"/>
	</g>
	<g>
		<path d="M57.105,54.447l-0.388-0.775c-0.977-1.954-2.454-3.628-4.272-4.84l1.109-1.664c2.107,1.404,3.819,3.345,4.952,5.609    l0.388,0.775L57.105,54.447z"/>
	</g>
	<g>
		<path d="M54.02,59.196l-0.293-1.465c-0.404-2.019-1.569-3.759-3.281-4.899l1.109-1.664c2.156,1.438,3.624,3.629,4.133,6.171    l0.293,1.465L54.02,59.196z"/>
	</g>
	<g>
		<path d="M51,60h-2v-0.172c0-1.534-0.622-3.036-1.707-4.121l1.414-1.414C50.164,55.75,51,57.768,51,59.828V60z"/>
	</g>
	<g>
		<path d="M10,48H6c-0.553,0-1-0.447-1-1v-5h2v4h2V3H8c0,1.86-1.276,3.428-3,3.874V14H3V6c0-0.552,0.447-1,1-1c1.103,0,2-0.897,2-2    V2c0-0.552,0.447-1,1-1h3c0.553,0,1,0.448,1,1v45C11,47.553,10.553,48,10,48z"/>
	</g>
	<g>
		<path d="M2,44c-0.221,0-0.438-0.073-0.615-0.212C1.142,43.599,1,43.308,1,43v-4c0-0.459,0.312-0.858,0.758-0.97l8-2l0.484,1.939    L3,39.781v1.938l6.758-1.688l0.484,1.939l-8,2C2.162,43.99,2.081,44,2,44z"/>
	</g>
	<g>
		<path d="M7,38H5V19c0-0.265,0.105-0.52,0.293-0.707l4-4l1.414,1.414L7,19.414V38z"/>
	</g>
	<g>
		<path d="M6,30H2c-0.553,0-1-0.448-1-1V14c0-0.552,0.447-1,1-1h3.586l3.707-3.707l1.414,1.414l-4,4C6.52,14.895,6.266,15,6,15H3v13    h3V30z"/>
	</g>
	<g>
		<path d="M47.849,15.703l-1.875-0.693l1.355-3.667c0.967-2.617,1.518-5.342,1.644-8.118L40.196,4.98L39.804,3.02l10-2    c0.295-0.059,0.6,0.017,0.83,0.207C50.865,1.417,51,1.7,51,2c0,3.437-0.604,6.813-1.795,10.037L47.849,15.703z"/>
	</g>
	<g>
		<rect x="42.757" y="4" transform="matrix(0.7071 -0.7071 0.7071 0.7071 10.2304 34.6985)" width="8.485" height="2"/>
	</g>
	<g>
		<path d="M16.151,15.703l-1.355-3.667C13.604,8.813,13,5.437,13,2c0-0.3,0.135-0.583,0.366-0.773s0.536-0.267,0.83-0.207l10,2    L23.804,4.98l-8.776-1.755c0.126,2.776,0.677,5.501,1.645,8.118l1.354,3.667L16.151,15.703z"/>
	</g>
	<g>
		<rect x="16" y="0.757" transform="matrix(0.7071 -0.7071 0.7071 0.7071 1.4437 13.4853)" width="2" height="8.485"/>
	</g>
	<g>
		<path d="M25.251,30.134l-1.928-0.532C24.396,25.715,27.964,23,32,23s7.604,2.715,8.677,6.602l-1.928,0.532    C37.915,27.111,35.14,25,32,25S26.085,27.111,25.251,30.134z"/>
	</g>
	<g>
		<rect x="29" y="27" width="6" height="2"/>
	</g>
	<g>
		<path d="M24,23c-2.206,0-4-2.243-4-5c0-1.158,0.319-2.285,0.9-3.174c0.275-0.425,0.828-0.577,1.283-0.348l5.263,2.627    C27.786,17.274,28,17.621,28,18C28,20.757,26.206,23,24,23z M22.197,16.72C22.068,17.117,22,17.553,22,18c0,1.626,0.916,3,2,3    c0.948,0,1.768-1.051,1.958-2.402L22.197,16.72z"/>
	</g>
	<g>
		<path d="M32,20c-0.314,0-0.611-0.148-0.8-0.4l-1.224-1.631c-1.102-1.468-2.457-2.691-4.03-3.635    c-1.525-0.915-3.188-1.527-4.941-1.819l-3.169-0.528l0.328-1.973l3.169,0.528c2.003,0.333,3.901,1.032,5.643,2.077    c1.796,1.077,3.344,2.474,4.601,4.149L32,17.333l0.424-0.565c1.257-1.676,2.805-3.072,4.601-4.149    c1.741-1.045,3.64-1.744,5.643-2.077l3.169-0.528l0.328,1.973l-3.169,0.528c-1.754,0.292-3.416,0.904-4.941,1.819    c-1.573,0.944-2.929,2.167-4.03,3.635L32.8,19.6C32.611,19.852,32.314,20,32,20z"/>
	</g>
	<g>
		<path d="M40,23c-2.206,0-4-2.243-4-5c0-0.379,0.214-0.726,0.554-0.895l5.263-2.627c0.454-0.229,1.007-0.077,1.283,0.348    C43.681,15.715,44,16.842,44,18C44,20.757,42.206,23,40,23z M38.042,18.598C38.232,19.949,39.052,21,40,21c1.084,0,2-1.374,2-3    c0-0.447-0.068-0.883-0.197-1.28L38.042,18.598z"/>
	</g>
	<g>
		<rect x="29" y="11" width="2" height="5.417"/>
	</g>
	<g>
		<rect x="33" y="11" width="2" height="5.417"/>
	</g>
	<g>
		<path d="M11,59H5c-0.266,0-0.52-0.105-0.707-0.293l-3-3C1.105,55.52,1,55.266,1,55v-7c0-0.404,0.243-0.77,0.617-0.924    c0.375-0.155,0.804-0.069,1.09,0.217l4,4C6.895,51.48,7,51.734,7,52c0,0.552,0.448,1,1,1s1-0.448,1-1s-0.448-1-1-1    c-0.553,0-1-0.447-1-1v-3h2v2.171c1.164,0.413,2,1.525,2,2.829c0,1.654-1.346,3-3,3c-1.502,0-2.75-1.109-2.967-2.553L3,50.414    v4.172L5.414,57h5.172L13,54.586V28h-3v-2h4c0.553,0,1,0.448,1,1v28c0,0.266-0.105,0.52-0.293,0.707l-3,3    C11.52,58.895,11.266,59,11,59z"/>
	</g>
</g>
</svg>
