<?xml version="1.0" encoding="iso-8859-1"?>
<!-- Generator: Adobe Illustrator 22.1.0, SVG Export Plug-In . SVG Version: 6.00 Build 0)  -->
<svg xmlns="http://www.w3.org/2000/svg" xmlns:xlink="http://www.w3.org/1999/xlink" version="1.1" id="Layer_3" x="0px" y="0px" viewBox="0 0 64 64" style="enable-background:new 0 0 64 64;" xml:space="preserve" width="512" height="512">
<g>
	<g>
		<path style="fill:#CA5057;" d="M42,28l15,9c2.761,0,5,2.238,5,5c0,2.703-2.297,5.001-5,5c-2.761,0-5-2.239-5-5l-10-2l3.881,16.495    C45.96,56.831,46,57.174,46,57.519v0.012C46,59.999,43.999,62,41.531,62h0c-1.57,0-3.025-0.824-3.833-2.17L36,57h-8l-1.698,2.83    C25.494,61.176,24.039,62,22.469,62h0C20.001,62,18,59.999,18,57.531v-0.012c0-0.345,0.04-0.688,0.119-1.024L22,40l-10,2    c0,2.761-2.238,5-5,5C4.297,47,2,44.703,2,42c0-2.761,2.239-5,5-5l15-9"/>
	</g>
	<g>
		<circle style="fill:#CA5057;" cx="32" cy="17" r="15"/>
	</g>
	<g>
		<ellipse style="fill:#DC6068;" cx="30.5" cy="17" rx="13.5" ry="14.924"/>
	</g>
	<g>
		<path style="fill:#EFEFEF;" d="M30,17l-6.617-3.781C22.536,14.135,22,15.49,22,17c0,2.761,1.791,5,4,5S30,19.761,30,17z"/>
	</g>
	<g>
		<path style="fill:#EFEFEF;" d="M34,17l6.617-3.781C41.464,14.135,42,15.49,42,17c0,2.761-1.791,5-4,5S34,19.761,34,17z"/>
	</g>
	<g>
		<path style="fill:#2B62A1;" d="M25,46l-2-11l-13,5l1.747,3.495C11.897,43.02,12,42.524,12,42l10-2l-1.134,4.819L25,46z"/>
	</g>
	<g>
		<path style="fill:#2B62A1;" d="M41,35l-2,11l4.134-1.181L42,40l10,2c0,0.524,0.103,1.02,0.253,1.495L54,40L41,35z"/>
	</g>
	<g>
		<ellipse style="fill:#566164;" cx="32" cy="40" rx="3" ry="4"/>
	</g>
	<g>
		<polygon style="fill:#2B62A1;" points="43.882,48 20.118,48 18.949,52.968 27.291,58.182 28,57 36,57 36.709,58.182     45.051,52.968   "/>
	</g>
	<g>
		<path d="M32,33c-8.822,0-16-7.178-16-16S23.178,1,32,1s16,7.178,16,16S40.822,33,32,33z M32,3c-7.72,0-14,6.28-14,14    s6.28,14,14,14s14-6.28,14-14S39.72,3,32,3z"/>
	</g>
	<g>
		<path d="M41.53,63c-1.91,0-3.707-1.018-4.689-2.655L35.434,58h-6.867l-1.407,2.345C26.177,61.982,24.38,63,22.47,63    C19.454,63,17,60.546,17,57.531c0-0.433,0.049-0.855,0.146-1.265l3.524-14.98l-7.728,1.545C12.536,45.748,10.026,48,7,48    c-3.252,0-6-2.748-6-6c0-3.211,2.537-5.842,5.712-5.993l14.773-8.864l1.029,1.715l-15,9C7.359,37.951,7.182,38,7,38    c-2.206,0-4,1.794-4,4c0,2.168,1.832,4,4,4c2.206,0,4-1.794,4-4c0-0.477,0.337-0.887,0.804-0.98l10-2    c0.335-0.065,0.679,0.041,0.915,0.285s0.333,0.593,0.255,0.924l-3.881,16.495C19.031,56.985,19,57.252,19,57.519    C19,59.444,20.557,61,22.47,61c1.212,0,2.352-0.646,2.975-1.685l1.698-2.83C27.323,56.184,27.648,56,28,56h8    c0.352,0,0.677,0.184,0.857,0.485l1.698,2.83C39.179,60.354,40.318,61,41.53,61c1.913,0,3.47-1.556,3.47-3.469    c0-0.279-0.031-0.546-0.093-0.806l-3.881-16.496c-0.078-0.331,0.019-0.68,0.255-0.924c0.237-0.245,0.582-0.351,0.915-0.285l10,2    C52.663,41.113,53,41.523,53,42c0,2.206,1.794,4,4,4c2.168,0,4-1.832,4-4c0-2.206-1.794-4-4-4c-0.182,0-0.359-0.049-0.515-0.143    l-15-9l1.029-1.715l14.773,8.864C60.463,36.158,63,38.788,63,42c0,3.252-2.748,6-6,6c-3.026,0-5.536-2.252-5.942-5.169    l-7.728-1.545l3.524,14.98C46.951,56.676,47,57.098,47,57.519C47,60.546,44.546,63,41.53,63z"/>
	</g>
	<g>
		<rect x="20" y="47" width="24" height="2"/>
	</g>
	<g>
		<path d="M26,23c-2.757,0-5-2.691-5-6c0-1.7,0.601-3.326,1.648-4.46c0.316-0.342,0.827-0.421,1.23-0.189l6.617,3.781    C30.808,16.31,31,16.641,31,17C31,20.309,28.757,23,26,23z M23.651,14.524C23.232,15.225,23,16.092,23,17c0,2.206,1.346,4,3,4    c1.511,0,2.765-1.497,2.971-3.437L23.651,14.524z"/>
	</g>
	<g>
		<path d="M38,23c-2.757,0-5-2.691-5-6c0-0.359,0.192-0.69,0.504-0.868l6.617-3.781c0.403-0.231,0.915-0.153,1.23,0.189    C42.399,13.674,43,15.3,43,17C43,20.309,40.757,23,38,23z M35.029,17.563C35.235,19.503,36.489,21,38,21c1.654,0,3-1.794,3-4    c0-0.908-0.232-1.775-0.651-2.476L35.029,17.563z"/>
	</g>
	<g>
		<rect x="31" y="2" width="2" height="14"/>
	</g>
	<g>
		<rect x="31" y="22" width="2" height="10"/>
	</g>
	<g>
		<rect x="17" y="16" width="5" height="2"/>
	</g>
	<g>
		<rect x="42" y="16" width="5" height="2"/>
	</g>
	<g>
		<rect x="38.876" y="20.457" transform="matrix(0.7071 -0.7071 0.7071 0.7071 -5.9101 35.484)" width="2" height="8.837"/>
	</g>
	<g>
		<rect x="19.705" y="23.874" transform="matrix(0.7071 -0.7071 0.7071 0.7071 -10.5223 24.3451)" width="8.842" height="2"/>
	</g>
	<g>
		<path d="M32,18c-0.256,0-0.512-0.098-0.707-0.293l-11-11l1.414-1.414L32,15.586L42.293,5.293l1.414,1.414l-11,11    C32.512,17.902,32.256,18,32,18z"/>
	</g>
	<g>
		<path d="M29,10h-5V8h4.586l2.707-2.707l1.414,1.414l-3,3C29.52,9.895,29.266,10,29,10z"/>
	</g>
	<g>
		<path d="M40,10h-5c-0.266,0-0.52-0.105-0.707-0.293l-3-3l1.414-1.414L35.414,8H40V10z"/>
	</g>
	<g>
		<path d="M32.707,28.707l-1.414-1.414l3-3C34.48,24.105,34.734,24,35,24h5v2h-4.586L32.707,28.707z"/>
	</g>
	<g>
		<path d="M31.293,28.707L28.586,26H24v-2h5c0.266,0,0.52,0.105,0.707,0.293l3,3L31.293,28.707z"/>
	</g>
	<g>
		<path d="M32,45c-2.206,0-4-2.243-4-5s1.794-5,4-5s4,2.243,4,5S34.206,45,32,45z M32,37c-1.084,0-2,1.374-2,3s0.916,3,2,3    s2-1.374,2-3S33.084,37,32,37z"/>
	</g>
	<g>
		<path d="M27,45h-2v-2c0-0.459,0.312-0.859,0.758-0.97l4-1l0.484,1.94L27,43.781V45z"/>
	</g>
	<g>
		<path d="M29.758,38.97l-4-1C25.312,37.859,25,37.459,25,37v-2h2v1.219l3.242,0.811L29.758,38.97z"/>
	</g>
	<g>
		<rect x="25" y="39" width="4" height="2"/>
	</g>
	<g>
		<path d="M39,45h-2v-1.219l-3.242-0.811l0.484-1.94l4,1C38.688,42.141,39,42.541,39,43V45z"/>
	</g>
	<g>
		<path d="M34.242,38.97l-0.484-1.94L37,36.219V35h2v2c0,0.459-0.312,0.859-0.758,0.97L34.242,38.97z"/>
	</g>
	<g>
		<rect x="35" y="39" width="4" height="2"/>
	</g>
	<g>
		<rect x="12.5" y="33.692" transform="matrix(0.9191 -0.3939 0.3939 0.9191 -13.6804 8.35)" width="2" height="7.616"/>
	</g>
	<g>
		<rect x="16.5" y="30.78" transform="matrix(0.9578 -0.2873 0.2873 0.9578 -9.6065 6.5468)" width="2" height="10.44"/>
	</g>
	<g>
		<rect x="1.699" y="40" transform="matrix(0.8088 -0.5881 0.5881 0.8088 -22.4853 12.8368)" width="13.601" height="1.999"/>
	</g>
	<g>
		<path d="M10.804,44.98l-5-1c-0.407-0.082-0.722-0.406-0.79-0.816l-1-6l1.973-0.329l0.887,5.319l4.323,0.865L10.804,44.98z"/>
	</g>
	<g>
		<rect x="46.692" y="36.5" transform="matrix(0.3941 -0.9191 0.9191 0.3941 -3.8669 69.1344)" width="7.616" height="2"/>
	</g>
	<g>
		<rect x="41.28" y="35" transform="matrix(0.2871 -0.9579 0.9579 0.2871 -1.3338 70.2078)" width="10.44" height="2"/>
	</g>
	<g>
		<rect x="54.5" y="34.199" transform="matrix(0.5882 -0.8087 0.8087 0.5882 -10.3017 61.7698)" width="1.999" height="13.601"/>
	</g>
	<g>
		<path d="M53.196,44.98l-0.393-1.961l4.323-0.865l0.887-5.319l1.973,0.329l-1,6c-0.068,0.41-0.383,0.734-0.79,0.816L53.196,44.98z"/>
	</g>
	<g>
		<rect x="22" y="50.783" transform="matrix(0.53 -0.848 0.848 0.53 -36.2539 45.589)" width="2.001" height="9.434"/>
	</g>
	<g>
		<path d="M21.03,62.243l-1-4c-0.068-0.273-0.019-0.563,0.138-0.797l2-3l1.664,1.109l-1.755,2.632l0.893,3.571L21.03,62.243z"/>
	</g>
	<g>
		<rect x="36.283" y="54.5" transform="matrix(0.8479 -0.5301 0.5301 0.8479 -23.1868 30.176)" width="9.434" height="2.001"/>
	</g>
	<g>
		<path d="M42.97,62.243l-1.939-0.485l0.893-3.571l-1.755-2.632l1.664-1.109l2,3c0.156,0.234,0.206,0.524,0.138,0.797L42.97,62.243z    "/>
	</g>
</g>
</svg>
