<?xml version="1.0" encoding="iso-8859-1"?>
<!-- Generator: Adobe Illustrator 22.1.0, SVG Export Plug-In . SVG Version: 6.00 Build 0)  -->
<svg xmlns="http://www.w3.org/2000/svg" xmlns:xlink="http://www.w3.org/1999/xlink" version="1.1" id="Layer_3" x="0px" y="0px" viewBox="0 0 64 64" style="enable-background:new 0 0 64 64;" xml:space="preserve" width="512" height="512">
<g>
	<g>
		<path style="fill:#566164;" d="M32.37,48.849c0,0,13.007,5.503,13.007,5.503l0.504,2.143C45.96,56.831,46,57.174,46,57.519v0.012    C46,59.999,43.999,62,41.531,62h0c-1.57,0-3.025-0.824-3.833-2.17L36,56h-8l-1.698,3.83C25.494,61.176,24.039,62,22.469,62h0    C20.001,62,18,59.999,18,57.531v-0.012c0-0.345,0.04-0.688,0.119-1.024l0.473-2.01C18.592,54.485,32.37,48.849,32.37,48.849z"/>
	</g>
	<g>
		<path style="fill:#876440;" d="M41.531,62C43.999,62,46,59.999,46,57.531v-0.012c0-0.172-0.01-0.344-0.03-0.515l-9.078,1.009    l0.806,1.818C38.506,61.176,39.961,62,41.531,62L41.531,62z"/>
	</g>
	<g>
		<path style="fill:#876440;" d="M26.302,59.83l0.806-1.818l-9.078-1.009C18.01,57.174,18,57.346,18,57.519v0.012    C18,59.999,20.001,62,22.469,62C24.039,62,25.494,61.176,26.302,59.83z"/>
	</g>
	<g>
		<polyline style="fill:#664C37;" points="37,51 37,60 33,60 33,49   "/>
	</g>
	<g>
		<path style="fill:#D8C4A9;" d="M58.962,28.829l-1.073-4.828c-1.881,0.029-3.678,0.788-5.01,2.12l-0.545,0.545    c0,0,1.747,3.493,1.747,3.493L58.962,28.829z"/>
	</g>
	<g>
		<path style="fill:#D8C4A9;" d="M6.111,24.001l-1.073,4.828L9.92,30.16c0,0,1.159-2.318,1.747-3.493l-0.545-0.545    C9.789,24.789,7.992,24.03,6.111,24.001z"/>
	</g>
	<g>
		<path style="fill:#926350;" d="M52,34l-1-3l3.08-0.84L52,26l-9.767,1.953c-0.059,0.055-0.111,0.117-0.171,0.171L43,31l-6,3H27    l-6-3l0.938-2.876c-0.06-0.054-0.112-0.116-0.171-0.171L12,26l-2.08,4.16L13,31l-1,3l7,4l-9,20l22.37-9.151    C32.37,48.849,54,58,54,58l-9-20L52,34z"/>
	</g>
	<g>
		<polygon style="fill:#876440;" points="29.406,38.899 17.225,41.944 14.942,47.017 32.224,41.934   "/>
	</g>
	<g>
		<polygon style="fill:#664C37;" points="50.459,50.131 46.8,42 38,42 30,34 27,34 23,32 36,46   "/>
	</g>
	<g>
		<path style="fill:#919191;" d="M46.879,18.838L50,23l12-5l-1-6l-14.143,3.031C46.942,15.676,47,16.331,47,17    C47,17.623,46.953,18.235,46.879,18.838z"/>
	</g>
	<g>
		<polygon style="fill:#B9B9B9;" points="57.915,19.702 62,18 61,12 56.019,13.067   "/>
	</g>
	<g>
		<path style="fill:#919191;" d="M17.143,15.031L3,12l-1,6l12,5l3.121-4.162C17.047,18.235,17,17.623,17,17    C17,16.331,17.058,15.676,17.143,15.031z"/>
	</g>
	<g>
		<polygon style="fill:#B9B9B9;" points="7.981,13.067 3,12 2,18 6.085,19.702   "/>
	</g>
	<g>
		<polygon style="fill:#919191;" points="51,31 53,37 62,33 62,28   "/>
	</g>
	<g>
		<polygon style="fill:#B9B9B9;" points="58.143,34.714 62,33 62,28 57.069,29.345   "/>
	</g>
	<g>
		<polygon style="fill:#919191;" points="13,31 11,37 2,33 2,28   "/>
	</g>
	<g>
		<polygon style="fill:#B9B9B9;" points="6.931,29.345 2,28 2,33 5.857,34.714   "/>
	</g>
	<g>
		<path style="fill:#566164;" d="M47,17c0-4.448-1.947-8.432-5.022-11.178C41.858,3.697,39.685,2,37,2    c-0.689,0-1.346,0.112-1.943,0.314C34.07,2.109,33.048,2,32,2s-2.07,0.109-3.057,0.314C28.346,2.112,27.689,2,27,2    c-2.685,0-4.858,1.697-4.978,3.822C18.947,8.569,17,12.552,17,17c0,4.412,1.905,8.38,4.938,11.124L21,31l6,3h10l6-3l-0.938-2.875    C45.095,25.38,47,21.412,47,17z"/>
	</g>
	<g>
		<path style="fill:#876440;" d="M23.962,13.846c-0.28-1.12-1.994-7.975-1.994-7.975c0.018-0.016,0.036-0.033,0.055-0.049    C22.142,3.697,24.315,2,27,2c0.689,0,1.346,0.112,1.943,0.314C29.93,2.109,30.952,2,32,2s2.07,0.109,3.057,0.314    C35.654,2.112,36.311,2,37,2c2.685,0,4.858,1.697,4.978,3.822c0.018,0.016,0.037,0.033,0.055,0.049c0,0-1.714,6.855-1.994,7.975    l-0.192,0.055C37.294,14.63,34.654,15,32,15h0c-2.654,0-5.294-0.37-7.846-1.099C24.154,13.901,23.962,13.846,23.962,13.846z"/>
	</g>
	<g>
		<path style="fill:#878787;" d="M23.423,11.694C25.936,9.943,28.929,9,32,9h0c3.071,0,6.064,0.943,8.577,2.694    c-0.25,1-0.456,1.823-0.538,2.152l-0.192,0.055C37.294,14.63,34.654,15,32,15h0c-2.654,0-5.294-0.37-7.846-1.099    c0,0-0.192-0.055-0.192-0.055C23.879,13.517,23.673,12.693,23.423,11.694z"/>
	</g>
	<g>
		<path style="fill:#D8C4A9;" d="M28.346,24.654c-1.378-0.263-2.727-0.675-4.022-1.23L21,22v-9l3.154,0.901    C26.706,14.63,29.346,15,32,15h0c2.654,0,5.294-0.37,7.846-1.099L43,13v9l-3.323,1.424c-1.296,0.555-2.645,0.967-4.022,1.23"/>
	</g>
	<g>
		<polyline style="fill:#919191;" points="30,31 28,30 27,26 30,23 34,23 37,26 36,30 34,31   "/>
	</g>
	<g>
		<polyline style="fill:#B9B9B9;" points="29,34 30,29 34,29 35,34   "/>
	</g>
	<g>
		<circle style="fill:#CA5057;" cx="27" cy="19" r="2"/>
	</g>
	<g>
		<circle style="fill:#CA5057;" cx="37" cy="19" r="2"/>
	</g>
	<g>
		<path d="M27,22c-1.654,0-3-1.346-3-3s1.346-3,3-3s3,1.346,3,3S28.654,22,27,22z M27,18c-0.551,0-1,0.449-1,1s0.449,1,1,1    s1-0.449,1-1S27.551,18,27,18z"/>
	</g>
	<g>
		<path d="M37,22c-1.654,0-3-1.346-3-3s1.346-3,3-3s3,1.346,3,3S38.654,22,37,22z M37,18c-0.551,0-1,0.449-1,1s0.449,1,1,1    s1-0.449,1-1S37.551,18,37,18z"/>
	</g>
	<g>
		<path d="M35.842,25.637l-0.375-1.965c1.308-0.25,2.592-0.643,3.816-1.167L42,21.341v-7.015l-1.879,0.537    c-5.281,1.51-10.961,1.51-16.242,0L22,14.326v7.015l2.717,1.165c1.224,0.524,2.508,0.917,3.816,1.167l-0.375,1.965    c-1.45-0.277-2.873-0.712-4.229-1.293l-3.324-1.425C20.238,22.762,20,22.4,20,22v-9c0-0.314,0.147-0.609,0.398-0.798    c0.25-0.189,0.573-0.249,0.877-0.163l3.154,0.901c4.924,1.407,10.219,1.407,15.143,0l3.154-0.901    c0.301-0.086,0.627-0.026,0.877,0.163C43.853,12.391,44,12.686,44,13v9c0,0.4-0.238,0.762-0.606,0.919l-3.323,1.424    C38.714,24.924,37.292,25.359,35.842,25.637z"/>
	</g>
	<g>
		<path d="M34.447,31.895l-0.895-1.789l1.589-0.794l0.751-3.004L33.586,24h-3.172l-2.307,2.307l0.751,3.004l1.589,0.794    l-0.895,1.789l-2-1c-0.261-0.131-0.452-0.369-0.523-0.652l-1-4c-0.085-0.341,0.015-0.701,0.263-0.95l3-3    C29.48,22.105,29.735,22,30,22h4c0.265,0,0.52,0.105,0.707,0.293l3,3c0.249,0.249,0.348,0.609,0.263,0.95l-1,4    c-0.071,0.283-0.262,0.521-0.523,0.652L34.447,31.895z"/>
	</g>
	<g>
		<path d="M34.02,34.196L33.18,30h-2.36l-0.839,4.196l-1.961-0.393l1-5C29.113,28.336,29.523,28,30,28h4    c0.477,0,0.887,0.336,0.98,0.804l1,5L34.02,34.196z"/>
	</g>
	<g>
		<rect x="22.043" y="28.833" transform="matrix(0.4472 -0.8944 0.8944 0.4472 -12.5416 39.3738)" width="7.081" height="2"/>
	</g>
	<g>
		<rect x="37.417" y="26.293" transform="matrix(0.8944 -0.4472 0.4472 0.8944 -9.2858 20.3286)" width="2" height="7.081"/>
	</g>
	<g>
		<path d="M22.469,63C19.454,63,17,60.546,17,57.53c0-0.433,0.049-0.854,0.145-1.264l0.474-2.011l1.947,0.459l-0.474,2.01    C19.031,56.984,19,57.252,19,57.519C19,59.443,20.556,61,22.469,61c1.193,0,2.316-0.625,2.945-1.635l1.672-3.771    C27.246,55.233,27.604,55,28,55h5v2h-4.35l-1.435,3.235c-0.017,0.037-0.035,0.074-0.057,0.109C26.177,61.982,24.38,63,22.469,63z"/>
	</g>
	<g>
		<path d="M41.531,63c-1.911,0-3.708-1.018-4.69-2.655c-0.021-0.035-0.04-0.072-0.057-0.109l-0.698-1.574l1.828-0.811l0.672,1.515    C39.215,60.375,40.338,61,41.531,61C43.444,61,45,59.443,45,57.53c0-0.278-0.031-0.546-0.092-0.807l-0.473-2.009l1.947-0.459    l0.474,2.01C46.951,56.677,47,57.098,47,57.519C47,60.546,44.546,63,41.531,63z"/>
	</g>
	<g>
		<rect x="21.5" y="52.972" transform="matrix(0.1104 -0.9939 0.9939 0.1104 -37.133 73.5126)" width="2" height="9.055"/>
	</g>
	<g>
		<rect x="36.972" y="56.5" transform="matrix(0.9939 -0.1103 0.1103 0.9939 -6.0903 4.9295)" width="9.055" height="2"/>
	</g>
	<g>
		<path d="M37,35H27c-0.155,0-0.309-0.036-0.447-0.105l-6-3c-0.443-0.222-0.657-0.734-0.503-1.205l0.741-2.273    C17.738,25.417,16,21.293,16,17c0-4.409,1.843-8.637,5.07-11.662C21.459,2.874,23.972,1,27,1c0.687,0,1.358,0.095,1.999,0.283    c1.976-0.375,4.026-0.375,6.002,0C35.642,1.095,36.313,1,37,1c3.028,0,5.541,1.874,5.93,4.338C46.157,8.363,48,12.591,48,17    c0,4.293-1.738,8.417-4.791,11.417l0.741,2.273c0.153,0.471-0.061,0.983-0.503,1.205l-6,3C37.309,34.964,37.155,35,37,35z     M27.236,33h9.528l5.018-2.509l-0.67-2.056c-0.122-0.375-0.013-0.787,0.28-1.051C44.32,24.732,46,20.948,46,17    c0-3.969-1.709-7.771-4.688-10.433c-0.198-0.177-0.317-0.425-0.333-0.689C40.89,4.291,39.105,3,37,3    c-0.564,0-1.11,0.088-1.623,0.261c-0.168,0.057-0.349,0.068-0.523,0.032c-1.874-0.388-3.834-0.388-5.708,0    c-0.176,0.037-0.354,0.025-0.523-0.032C28.11,3.088,27.564,3,27,3c-2.105,0-3.89,1.291-3.979,2.878    c-0.015,0.265-0.134,0.513-0.333,0.689C19.709,9.229,18,13.031,18,17c0,3.948,1.68,7.732,4.608,10.383    c0.292,0.265,0.402,0.676,0.28,1.051l-0.67,2.056L27.236,33z"/>
	</g>
	<g>
		<rect x="22" y="5.877" transform="matrix(0.9701 -0.2425 0.2425 0.9701 -1.7386 5.8769)" width="2" height="8.246"/>
	</g>
	<g>
		<rect x="36.877" y="9" transform="matrix(0.2427 -0.9701 0.9701 0.2427 21.3502 47.3482)" width="8.246" height="2"/>
	</g>
	<g>
		<path d="M40.4,12.8C37.992,10.995,35.009,10,32,10s-5.992,0.995-8.4,2.8l-1.2-1.6C25.152,9.136,28.561,8,32,8s6.848,1.136,9.6,3.2    L40.4,12.8z"/>
	</g>
	<g>
		<rect x="27.5" y="9.95" transform="matrix(0.9806 -0.1961 0.1961 0.9806 -1.898 5.8321)" width="2" height="5.099"/>
	</g>
	<g>
		<rect x="32.95" y="11.5" transform="matrix(0.1963 -0.9805 0.9805 0.1963 16.2744 44.8555)" width="5.099" height="2"/>
	</g>
	<g>
		<path d="M33,9h-2c0-1.91-0.235-3.817-0.698-5.668L30.03,2.243l1.94-0.485l0.272,1.089C32.745,4.856,33,6.927,33,9z"/>
	</g>
	<g>
		<path d="M27.03,10.243l-0.125-0.502c-0.552-2.209-1.473-4.29-2.736-6.186l1.664-1.109c1.391,2.087,2.405,4.379,3.013,6.81    l0.125,0.502L27.03,10.243z"/>
	</g>
	<g>
		<path d="M36.894,10.448l-1.788-0.896l0.156-0.312c1.082-2.165,1.355-4.65,0.768-6.998l1.94-0.485    c0.703,2.811,0.376,5.786-0.919,8.378L36.894,10.448z"/>
	</g>
	<g>
		<path d="M10,59c-0.266,0-0.527-0.106-0.719-0.306C8.997,58.4,8.92,57.963,9.088,57.59l8.627-19.172l-6.211-3.55l0.992-1.736l7,4    c0.447,0.256,0.627,0.809,0.416,1.278L11.94,56.126l19.682-8.052l0.757,1.852l-22,9C10.256,58.976,10.127,59,10,59z"/>
	</g>
	<g>
		<path d="M47,43h-9c-0.265,0-0.52-0.105-0.707-0.293l-8-8l1.414-1.414L38.414,41H47V43z"/>
	</g>
	<g>
		<path d="M49.725,50.962l-14-4c-0.175-0.051-0.333-0.147-0.458-0.281l-13-14l1.466-1.361l12.81,13.796l13.732,3.923L49.725,50.962z    "/>
	</g>
	<g>
		<rect x="16.815" y="39.5" transform="matrix(0.9701 -0.2428 0.2428 0.9701 -9.144 6.7952)" width="12.369" height="1.999"/>
	</g>
	<g>
		<rect x="14.64" y="43.5" transform="matrix(0.9593 -0.2823 0.2823 0.9593 -11.6075 8.445)" width="17.72" height="1.999"/>
	</g>
	<g>
		<rect x="40" y="42" width="2" height="5"/>
	</g>
	<g>
		<rect x="44" y="42" width="2" height="7"/>
	</g>
	<g>
		<rect x="36" y="41" width="2" height="5"/>
	</g>
	<g>
		<path d="M37,61h-4c-0.552,0-1-0.447-1-1V49h2v10h2v-8h2v9C38,60.553,37.552,61,37,61z"/>
	</g>
	<g>
		<path d="M11,38c-0.139,0-0.277-0.028-0.406-0.086l-9-4C1.233,33.753,1,33.396,1,33v-5c0-0.312,0.146-0.605,0.393-0.795    c0.249-0.188,0.57-0.25,0.87-0.17l11,3c0.265,0.072,0.489,0.25,0.619,0.493c0.129,0.242,0.154,0.527,0.067,0.788l-2,6    c-0.089,0.268-0.287,0.484-0.545,0.599C11.275,37.972,11.138,38,11,38z M3,32.35l7.399,3.289l1.317-3.952L3,29.309V32.35z"/>
	</g>
	<g>
		<path d="M14,24c-0.129,0-0.259-0.025-0.384-0.077l-12-5c-0.429-0.178-0.678-0.629-0.602-1.087l1-6    c0.045-0.27,0.198-0.509,0.424-0.662c0.226-0.154,0.504-0.209,0.772-0.151l14,3l-0.419,1.956L3.814,13.197l-0.698,4.185    l10.55,4.396L16.2,18.4l1.6,1.2l-3,4C14.606,23.858,14.307,24,14,24z"/>
	</g>
	<g>
		<rect x="1.39" y="23.5" transform="matrix(0.2168 -0.9762 0.9762 0.2168 -19.2181 25.045)" width="9.22" height="2"/>
	</g>
	<g>
		<rect x="3.36" y="15.5" transform="matrix(0.2749 -0.9615 0.9615 0.2749 -10.7886 18.6942)" width="7.28" height="2"/>
	</g>
	<g>
		<rect x="3.95" y="30.5" transform="matrix(0.1963 -0.9805 0.9805 0.1963 -25.6631 31.69)" width="5.099" height="2"/>
	</g>
	<g>
		<path d="M11.293,27.707l-0.879-0.879C9.235,25.649,7.667,25,6,25v-2c2.202,0,4.271,0.857,5.828,2.414l0.879,0.879L11.293,27.707z"/>
	</g>
	<g>
		<path d="M54,59c-0.131,0-0.263-0.025-0.389-0.079l-26-11C27.24,47.765,27,47.401,27,47v-4h2v3.337l23.042,9.749L44.088,38.41    c-0.211-0.47-0.031-1.022,0.416-1.278l7-4l0.992,1.736l-6.211,3.55l8.627,19.172c0.168,0.375,0.09,0.815-0.197,1.109    C54.523,58.896,54.264,59,54,59z"/>
	</g>
	<g>
		<path d="M53,38c-0.138,0-0.275-0.028-0.404-0.085c-0.258-0.114-0.456-0.331-0.545-0.599l-2-6    c-0.087-0.261-0.062-0.546,0.067-0.788c0.13-0.243,0.354-0.421,0.619-0.493l11-3c0.302-0.081,0.623-0.019,0.87,0.17    C62.854,27.395,63,27.688,63,28v5c0,0.396-0.233,0.753-0.594,0.914l-9,4C53.277,37.972,53.138,38,53,38z M52.283,31.687    l1.317,3.952L61,32.35v-3.041L52.283,31.687z"/>
	</g>
	<g>
		<path d="M50,24c-0.308,0-0.607-0.142-0.8-0.4l-3-4l1.6-1.2l2.534,3.378l10.55-4.396l-0.698-4.185l-12.976,2.781l-0.419-1.956l14-3    c0.269-0.056,0.546-0.002,0.772,0.151s0.379,0.393,0.424,0.662l1,6c0.077,0.458-0.173,0.909-0.602,1.087l-12,5    C50.26,23.975,50.129,24,50,24z"/>
	</g>
	<g>
		<rect x="57" y="19.89" transform="matrix(0.9762 -0.2169 0.2169 0.9762 -3.9336 13.1654)" width="2" height="9.22"/>
	</g>
	<g>
		<rect x="56" y="12.86" transform="matrix(0.9615 -0.2747 0.2747 0.9615 -2.3398 16.294)" width="2" height="7.28"/>
	</g>
	<g>
		<rect x="56.5" y="28.95" transform="matrix(0.9806 -0.1961 0.1961 0.9806 -5.061 11.8884)" width="2" height="5.099"/>
	</g>
	<g>
		<path d="M52.707,27.707l-1.414-1.414l0.879-0.879C53.729,23.857,55.798,23,58,23v2c-1.667,0-3.235,0.649-4.414,1.828    L52.707,27.707z"/>
	</g>
	<g>
		<path d="M10.895,30.447l-1.789-0.895l2-4c0.203-0.403,0.649-0.621,1.091-0.533l10,2l-0.393,1.961l-9.251-1.85L10.895,30.447z"/>
	</g>
	<g>
		<path d="M53.105,30.447l-1.658-3.317l-9.251,1.85l-0.393-1.961l10-2c0.441-0.09,0.888,0.129,1.091,0.533l2,4L53.105,30.447z"/>
	</g>
</g>
</svg>
