<?xml version="1.0" encoding="iso-8859-1"?>
<!-- Generator: Adobe Illustrator 22.1.0, SVG Export Plug-In . SVG Version: 6.00 Build 0)  -->
<svg xmlns="http://www.w3.org/2000/svg" xmlns:xlink="http://www.w3.org/1999/xlink" version="1.1" id="Layer_3" x="0px" y="0px" viewBox="0 0 64 64" style="enable-background:new 0 0 64 64;" xml:space="preserve" width="512" height="512">
<g>
	<g>
		<path style="fill:#917EA3;" d="M21,27L7,37c-2.761,0-5,2.238-5,5C2,44.703,4.297,47,7,47c2.761,0,5-2.239,5-5l5-2l4-1    l-2.881,17.495C18.04,56.831,18,57.174,18,57.519v0.012C18,59.999,20.001,62,22.469,62h0c1.57,0,3.025-0.824,3.833-2.17L29,53h6    l2.698,6.83c0.808,1.346,2.263,2.17,3.833,2.17h0C43.999,62,46,59.999,46,57.531v-0.012c0-0.345-0.04-0.688-0.119-1.024L43,39l4,1    l5,2c0,2.761,2.238,5,5,5c2.703,0,5.001-2.297,5-5c0-2.761-2.239-5-5-5l-4-4l-0.914,1.067L43,27"/>
	</g>
	<g>
		<polyline style="fill:#2F456B;" points="42.144,27.759 39,33 32,34 25,33 21.851,27.752   "/>
	</g>
	<g>
		<polygon style="fill:#3B4546;" points="44.306,46.932 35,49 29,49 19.694,46.932 18.346,55.115 27.022,58.007 29,53 35,53     36.978,58.007 45.654,55.115   "/>
	</g>
	<g>
		<polygon style="fill:#2F456B;" points="35,49 44.306,46.932 43,39 35,40 34,45 30,45 29,40 21,39 19.694,46.932 29,49   "/>
	</g>
	<g>
		<path style="fill:#566164;" d="M46,57.519c0-0.345-0.04-0.688-0.119-1.024l-0.227-1.38l-8.676,2.892l0.72,1.823    c0.808,1.346,2.263,2.17,3.833,2.17C43.999,62,46,59.999,46,57.531V57.519z"/>
	</g>
	<g>
		<path style="fill:#566164;" d="M18.346,55.115l-0.227,1.38C18.04,56.831,18,57.174,18,57.519v0.012C18,59.999,20.001,62,22.469,62    c1.57,0,3.025-0.824,3.833-2.17l0.72-1.823L18.346,55.115z"/>
	</g>
	<g>
		<path style="fill:#B89148;" d="M42.144,27.759L39,33l-7,1l-7-1l-3.149-5.248c-0.394-0.151-0.766-0.341-1.112-0.565    c-0.783,0.559-3.055,2.182-3.055,2.182L20,34l1,5l8,1l1,5h4l1-5l8-1l1-5c0,0,2.24-4.48,2.24-4.48l-2.991-2.326l-0.001,0.002    c-0.344,0.222-0.714,0.41-1.105,0.559L42.144,27.759z"/>
	</g>
	<g>
		<path style="fill:#B89148;" d="M47,40l5,2c0,2.761,2.238,5,5,5c2.703,0,5.001-2.297,5-5c0-2.761-2.239-5-5-5l-4-4L47,40z"/>
	</g>
	<g>
		<path style="fill:#917EA3;" d="M46,21v1.15c0,2.829-1.976,5.274-4.743,5.867L32,30l-9.257-1.984C19.976,27.424,18,24.979,18,22.15    V21l0,0l-2,0v-8h2V8.587c0-3.148,2.433-5.76,5.573-5.985L32,2l8.427,0.602C43.567,2.826,46,5.439,46,8.587V13l2,0v8L46,21z"/>
	</g>
	<g>
		<path style="fill:#3B4546;" d="M29,12c0,2.761-1.791,5-4,5s-4-2.239-4-5c0-1.156,0.314-2.221,0.841-3.068l0.001,0L29,12z"/>
	</g>
	<g>
		<path style="fill:#3B4546;" d="M35,12c0,2.761,1.791,5,4,5s4-2.239,4-5c0-1.156-0.314-2.221-0.841-3.068l-0.001,0L35,12z"/>
	</g>
	<g>
		<path d="M32,31c-0.07,0-0.141-0.008-0.209-0.022l-9.257-1.983C19.327,28.308,17,25.429,17,22.149V22h-1c-0.552,0-1-0.447-1-1v-8    c0-0.553,0.448-1,1-1h1V8.587c0-3.655,2.856-6.722,6.501-6.982l8.427-0.602c0.048-0.004,0.095-0.004,0.143,0l8.427,0.602    C44.144,1.865,47,4.932,47,8.587V12h1c0.552,0,1,0.447,1,1v8c0,0.553-0.448,1-1,1h-1v0.149c0,3.279-2.327,6.158-5.533,6.845    l-9.257,1.983C32.141,30.992,32.07,31,32,31z M17,20h1c0.552,0,1,0.447,1,1v1.149c0,2.343,1.662,4.398,3.952,4.89L32,28.978    l9.048-1.938c2.29-0.491,3.952-2.547,3.952-4.89V21c0-0.553,0.448-1,1-1h1v-6h-1c-0.552,0-1-0.447-1-1V8.587    c0-2.61-2.04-4.802-4.644-4.988L32,3.003l-8.356,0.596C21.04,3.785,19,5.977,19,8.587V13c0,0.553-0.448,1-1,1h-1V20z"/>
	</g>
	<g>
		<path d="M25,18c-2.757,0-5-2.691-5-6c0-1.31,0.343-2.553,0.992-3.597c0.261-0.418,0.789-0.586,1.243-0.391l7.159,3.068    C29.762,11.238,30,11.6,30,12C30,15.309,27.757,18,25,18z M22.316,10.224C22.11,10.773,22,11.382,22,12c0,2.206,1.346,4,3,4    c1.49,0,2.73-1.456,2.961-3.357L22.316,10.224z"/>
	</g>
	<g>
		<path d="M39,18c-2.757,0-5-2.691-5-6c0-0.4,0.238-0.762,0.606-0.919l7.158-3.067c0.453-0.195,0.981-0.029,1.243,0.39    C43.657,9.446,44,10.689,44,12C44,15.309,41.757,18,39,18z M36.039,12.643C36.27,14.544,37.51,16,39,16c1.654,0,3-1.794,3-4    c0-0.628-0.107-1.229-0.314-1.777L36.039,12.643z"/>
	</g>
	<g>
		<rect x="25" y="20" width="14" height="2"/>
	</g>
	<g>
		<rect x="31" y="24" width="2" height="6"/>
	</g>
	<g>
		<rect x="23.95" y="25.5" transform="matrix(0.1963 -0.9805 0.9805 0.1963 -4.6864 47.2823)" width="5.099" height="2"/>
	</g>
	<g>
		<rect x="36.5" y="23.95" transform="matrix(0.9806 -0.1961 0.1961 0.9806 -4.4689 7.869)" width="2" height="5.099"/>
	</g>
	<g>
		<path d="M20.02,39.196l-0.974-4.869l-1.94-3.88l1.789-0.895l2,4c0.04,0.079,0.069,0.164,0.086,0.251l1,5L20.02,39.196z"/>
	</g>
	<g>
		<path d="M43.98,39.196l-1.961-0.393l1-5c0.017-0.087,0.046-0.172,0.086-0.251l2-4l1.789,0.895l-1.94,3.88L43.98,39.196z"/>
	</g>
	<g>
		<path d="M32,35c-0.047,0-0.095-0.003-0.142-0.01l-7-1c-0.298-0.043-0.561-0.218-0.716-0.476l-3-5l1.715-1.029l2.755,4.592    L32,32.99l6.387-0.913l2.755-4.592l1.715,1.029l-3,5c-0.155,0.258-0.418,0.433-0.716,0.476l-7,1C32.095,34.997,32.047,35,32,35z"/>
	</g>
	<g>
		<path d="M26.02,49.196L25.15,44.85l-4.347-0.869l0.393-1.961l5,1c0.396,0.079,0.705,0.389,0.784,0.784l1,5L26.02,49.196z"/>
	</g>
	<g>
		<path d="M37.98,49.196l-1.961-0.393l1-5c0.079-0.396,0.389-0.705,0.784-0.784l5-1l0.393,1.961L38.85,44.85L37.98,49.196z"/>
	</g>
	<g>
		<rect x="21.5" y="51.757" transform="matrix(0.3162 -0.9487 0.9487 0.3162 -38.2157 59.9785)" width="1.999" height="9.487"/>
	</g>
	<g>
		<rect x="36.757" y="55.5" transform="matrix(0.9486 -0.3165 0.3165 0.9486 -15.7497 16.0405)" width="9.487" height="1.999"/>
	</g>
	<g>
		<path d="M35,50h-6c-0.073,0-0.146-0.008-0.217-0.023l-9-2l0.434-1.953L29.11,48h5.78l8.893-1.977l0.434,1.953l-9,2    C35.146,49.992,35.073,50,35,50z"/>
	</g>
	<g>
		<rect x="19.528" y="51" transform="matrix(0.4472 -0.8944 0.8944 0.4472 -33.2433 50.2111)" width="8.944" height="2"/>
	</g>
	<g>
		<rect x="39" y="47.528" transform="matrix(0.8944 -0.4472 0.4472 0.8944 -19.0322 23.3783)" width="2" height="8.944"/>
	</g>
	<g>
		<rect x="31" y="34" width="2" height="5"/>
	</g>
	<g>
		<path d="M57,48c-3.074,0-5.615-2.323-5.96-5.307l-4.411-1.765c-0.299-0.12-0.522-0.377-0.6-0.69    c-0.077-0.313,0.002-0.645,0.212-0.889l6-7c0.181-0.212,0.442-0.338,0.721-0.349c0.284-0.02,0.549,0.096,0.746,0.292l3.722,3.723    C60.538,36.236,63,38.836,63,42C63,45.252,60.252,48,57,48z M48.668,39.59l3.703,1.481C52.751,41.224,53,41.591,53,42    c0,2.206,1.794,4,4,4c2.168,0,4-1.832,4-4c0-2.206-1.794-4-4-4c-0.265,0-0.52-0.105-0.707-0.293l-3.236-3.236L48.668,39.59z"/>
	</g>
	<g>
		<rect x="46.5" y="24.799" transform="matrix(0.6139 -0.7894 0.7894 0.6139 -5.7374 49.269)" width="1.999" height="11.402"/>
	</g>
	<g>
		<path d="M34,46h-4c-0.477,0-0.887-0.337-0.98-0.804l-0.859-4.293l-7.285-0.911l0.248-1.984l8,1    c0.427,0.054,0.772,0.374,0.856,0.796L30.82,44h2.36l0.839-4.196c0.084-0.422,0.429-0.742,0.856-0.796l8-1l0.248,1.984    l-7.285,0.911l-0.859,4.293C34.887,45.663,34.477,46,34,46z"/>
	</g>
	<g>
		<path d="M41.531,63c-1.911,0-3.708-1.018-4.69-2.655c-0.028-0.047-0.053-0.097-0.073-0.147L34.32,54h-4.64l-2.448,6.197    c-0.02,0.051-0.044,0.101-0.073,0.147C26.177,61.982,24.38,63,22.469,63C19.454,63,17,60.546,17,57.53    c0-0.433,0.049-0.854,0.145-1.264l2.621-15.928l-2.458,0.615l-4.348,1.739C12.616,45.677,10.074,48,7,48c-3.252,0-6-2.748-6-6    c0-3.196,2.513-5.817,5.667-5.991l13.752-9.822l1.162,1.627l-14,10C7.412,37.935,7.208,38,7,38c-2.205,0-4,1.795-4,4    c0,2.168,1.832,4,4,4c2.206,0,4-1.794,4-4c0-0.409,0.249-0.776,0.628-0.929l5-2c0.042-0.017,0.085-0.03,0.129-0.041l4-1    c0.327-0.083,0.672,0.006,0.92,0.234c0.248,0.229,0.364,0.565,0.309,0.897l-2.881,17.495C19.031,56.984,19,57.252,19,57.519    C19,59.443,20.556,61,22.469,61c1.187,0,2.304-0.618,2.935-1.619l2.666-6.748C28.221,52.251,28.589,52,29,52h6    c0.411,0,0.779,0.251,0.93,0.633l2.666,6.748C39.227,60.382,40.344,61,41.531,61C43.444,61,45,59.443,45,57.53    c0-0.278-0.031-0.546-0.092-0.807l-2.895-17.562c-0.055-0.332,0.062-0.669,0.309-0.897c0.249-0.229,0.594-0.317,0.92-0.234l4,1    l-0.485,1.939l-2.523-0.631l2.634,15.994C46.951,56.677,47,57.098,47,57.519C47,60.546,44.546,63,41.531,63z"/>
	</g>
	<g>
		<circle style="fill:#91BB3B;" cx="54.5" cy="43.5" r="0.5"/>
	</g>
	<g>
		<circle style="fill:#E8A4CD;" cx="56.5" cy="44.5" r="0.5"/>
	</g>
	<g>
		<circle style="fill:#88C3F8;" cx="58.5" cy="43.5" r="0.5"/>
	</g>
	<g>
		<circle style="fill:#DF3322;" cx="59.5" cy="41.5" r="0.5"/>
	</g>
	<g>
		<circle style="fill:#E59149;" cx="58.5" cy="39.5" r="0.5"/>
	</g>
	<g>
		<circle style="fill:#EDD07A;" cx="56" cy="41" r="1"/>
	</g>
	<g>
		<circle cx="25.5" cy="13.5" r="1.5"/>
	</g>
	<g>
		<circle cx="38.5" cy="13.5" r="1.5"/>
	</g>
</g>
</svg>
