<?xml version="1.0" encoding="iso-8859-1"?>
<!-- Generator: Adobe Illustrator 22.1.0, SVG Export Plug-In . SVG Version: 6.00 Build 0)  -->
<svg xmlns="http://www.w3.org/2000/svg" xmlns:xlink="http://www.w3.org/1999/xlink" version="1.1" id="Layer_3" x="0px" y="0px" viewBox="0 0 64 64" style="enable-background:new 0 0 64 64;" xml:space="preserve" width="512" height="512">
<g>
	<g>
		<path style="fill:#B89148;" d="M42,28l15,9c2.761,0,5,2.238,5,5c0,2.703-2.297,5.001-5,5c-2.761,0-5-2.239-5-5l-10-2l3.881,16.495    C45.96,56.831,46,57.174,46,57.519v0.012C46,59.999,43.999,62,41.531,62h0c-1.57,0-3.025-0.824-3.833-2.17L35,55h-6l-2.698,4.83    C25.494,61.176,24.039,62,22.469,62h0C20.001,62,18,59.999,18,57.531v-0.012c0-0.345,0.04-0.688,0.119-1.024L22,40l-10,2    c0,2.761-2.238,5-5,5C4.297,47,2,44.703,2,42c0-2.761,2.239-5,5-5l15-9"/>
	</g>
	<g>
		<polygon style="fill:#4097F7;" points="44.115,48.989 34,50 30,50 19.885,48.989 18.513,54.818 27.268,58.101 29,55 35,55     36.732,58.1 45.486,54.818   "/>
	</g>
	<g>
		<polygon style="fill:#2B62A1;" points="43.172,44.981 34,46 30,46 20.828,44.981 19.885,48.989 30,50 34,50 44.115,48.989   "/>
	</g>
	<g>
		<circle style="fill:#919191;" cx="32" cy="48" r="3"/>
	</g>
	<g>
		<path style="fill:#D2A95C;" d="M42,28l-10,1l-10-1c-2.761,0-5-2.239-5-5V7c0-2.761,2.239-5,5-5h20c2.761,0,5,2.239,5,5v16    C47,25.761,44.761,28,42,28z"/>
	</g>
	<g>
		<circle style="fill:#74B8F7;" cx="26" cy="18" r="2"/>
	</g>
	<g>
		<circle style="fill:#74B8F7;" cx="38" cy="18" r="2"/>
	</g>
	<g>
		<path d="M41.531,63c-1.911,0-3.708-1.018-4.69-2.655L34.413,56h-4.826l-2.412,4.317C26.177,61.982,24.38,63,22.469,63    C19.454,63,17,60.546,17,57.53c0-0.433,0.049-0.854,0.145-1.264l3.525-14.98l-7.728,1.545C12.537,45.748,10.026,48,7,48    c-3.252,0-6-2.748-6-6c0-3.212,2.537-5.842,5.711-5.993l14.774-8.864l1.029,1.715l-15,9C7.359,37.951,7.181,38,7,38    c-2.206,0-4,1.794-4,4c0,2.168,1.832,4,4,4c2.206,0,4-1.794,4-4c0-0.477,0.336-0.887,0.804-0.98l10-2    c0.336-0.064,0.679,0.042,0.915,0.285c0.237,0.245,0.333,0.593,0.255,0.925l-3.881,16.495C19.031,56.984,19,57.252,19,57.519    C19,59.443,20.556,61,22.469,61c1.212,0,2.352-0.646,2.975-1.685l2.683-4.803C28.304,54.196,28.638,54,29,54h6    c0.362,0,0.696,0.196,0.873,0.513l2.698,4.83C39.179,60.354,40.319,61,41.531,61C43.444,61,45,59.443,45,57.53    c0-0.278-0.031-0.546-0.092-0.807l-3.881-16.494c-0.078-0.332,0.018-0.68,0.255-0.925c0.237-0.244,0.584-0.349,0.915-0.285l10,2    C52.664,41.113,53,41.523,53,42c0,2.206,1.794,4,4,4c2.168,0,4-1.832,4-4c0-2.206-1.794-4-4-4c-0.181,0-0.359-0.049-0.515-0.143    l-15-9l1.029-1.715l14.774,8.864C60.463,36.158,63,38.788,63,42c0,3.252-2.748,6-6,6c-3.026,0-5.536-2.252-5.942-5.169    l-7.728-1.545l3.525,14.979C46.951,56.677,47,57.098,47,57.519C47,60.546,44.546,63,41.531,63z"/>
	</g>
	<g>
		<path d="M32,52c-2.206,0-4-1.794-4-4s1.794-4,4-4s4,1.794,4,4S34.206,52,32,52z M32,46c-1.103,0-2,0.897-2,2s0.897,2,2,2    s2-0.897,2-2S33.103,46,32,46z"/>
	</g>
	<g>
		<rect x="33.972" y="44.5" transform="matrix(0.9939 -0.1103 0.1103 0.9939 -4.7847 4.5252)" width="9.055" height="2"/>
	</g>
	<g>
		<rect x="33.975" y="48.5" transform="matrix(0.995 -0.0996 0.0996 0.995 -4.7363 4.1306)" width="10.05" height="2"/>
	</g>
	<g>
		<rect x="24.5" y="40.972" transform="matrix(0.1104 -0.9939 0.9939 0.1104 -22.5377 65.8194)" width="2" height="9.055"/>
	</g>
	<g>
		<rect x="24" y="44.475" transform="matrix(0.0995 -0.995 0.995 0.0995 -26.7419 69.4505)" width="2" height="10.05"/>
	</g>
	<g>
		<rect x="22" y="52.228" transform="matrix(0.3511 -0.9363 0.9363 0.3511 -37.9784 58.1971)" width="2" height="8.544"/>
	</g>
	<g>
		<rect x="36.728" y="55.5" transform="matrix(0.9364 -0.351 0.351 0.9364 -17.2236 17.9868)" width="8.544" height="2"/>
	</g>
	<g>
		<path d="M22.6,40.8l-1.2-1.6l8-6c0.222-0.167,0.507-0.239,0.779-0.184l10.426,1.896l4.627-5.553l1.536,1.281l-5,6    c-0.23,0.276-0.593,0.414-0.947,0.343L30.25,35.062L22.6,40.8z"/>
	</g>
	<g>
		<path d="M42.606,45.919l-7-3c-0.276-0.118-0.485-0.354-0.567-0.645l-2-7l1.923-0.549l1.87,6.543l6.563,2.812L42.606,45.919z"/>
	</g>
	<g>
		<path d="M29,43c-0.344,0-0.673-0.178-0.857-0.485l-3-5l1.715-1.029l2.587,4.312l5.239-1.746l0.633,1.896l-6,2    C29.212,42.983,29.105,43,29,43z"/>
	</g>
	<g>
		<rect x="23.172" y="42" transform="matrix(0.7071 -0.7071 0.7071 0.7071 -22.7904 30.9792)" width="5.657" height="2"/>
	</g>
	<g>
		<path d="M27.485,36.857l-4.457-2.675l-2.474,1.649c-0.396,0.267-0.924,0.213-1.262-0.125l-4-4l1.414-1.414l3.42,3.42l2.318-1.545    c0.321-0.212,0.738-0.226,1.069-0.025l5,3L27.485,36.857z"/>
	</g>
	<g>
		<path d="M14.02,42.196l-1-5c-0.083-0.415,0.104-0.836,0.466-1.054l5-3l1.029,1.715l-4.396,2.638l0.862,4.309L14.02,42.196z"/>
	</g>
	<g>
		<path d="M9,41c-0.327,0-0.643-0.16-0.833-0.445l-2-3l1.664-1.109l1.55,2.325l4.247-1.699l0.743,1.857l-5,2    C9.25,40.977,9.125,41,9,41z"/>
	</g>
	<g>
		<path d="M48,38c-0.178,0-0.355-0.047-0.515-0.143l-5-3l1.029-1.715l4.423,2.654L51.4,33.2l1.2,1.6l-4,3    C48.423,37.933,48.212,38,48,38z"/>
	</g>
	<g>
		<path d="M52.707,42.707l-1.414-1.414l1.21-1.21l-4.127-3.302l1.249-1.562l5,4c0.222,0.178,0.358,0.442,0.374,0.726    c0.016,0.284-0.09,0.562-0.292,0.763L52.707,42.707z"/>
	</g>
	<g>
		<path d="M32,30c-0.033,0-0.066-0.002-0.1-0.005l-10-1c-0.003,0-0.006,0-0.009,0C18.687,28.995,16,26.306,16,23V7    c0-3.309,2.691-6,6-6h20c3.309,0,6,2.691,6,6v16c0,3.291-2.663,5.972-5.948,6L32.1,29.995C32.066,29.998,32.033,30,32,30z M22,3    c-2.206,0-4,1.794-4,4v16c0,2.206,1.794,4,4,4l10,0.995l9.901-0.99C41.934,27.002,41.967,27,42,27c2.206,0,4-1.794,4-4V7    c0-2.206-1.794-4-4-4H22z"/>
	</g>
	<g>
		<rect x="24" y="23" width="16" height="2"/>
	</g>
	<g>
		<path d="M26,21c-1.654,0-3-1.346-3-3s1.346-3,3-3s3,1.346,3,3S27.654,21,26,21z M26,17c-0.551,0-1,0.448-1,1s0.449,1,1,1    s1-0.448,1-1S26.551,17,26,17z"/>
	</g>
	<g>
		<path d="M38,21c-1.654,0-3-1.346-3-3s1.346-3,3-3s3,1.346,3,3S39.654,21,38,21z M38,17c-0.551,0-1,0.448-1,1s0.449,1,1,1    s1-0.448,1-1S38.551,17,38,17z"/>
	</g>
	<g>
		<rect x="22.5" y="12.95" transform="matrix(0.1961 -0.9806 0.9806 0.1961 3.6923 35.5038)" width="2" height="5.099"/>
	</g>
	<g>
		<rect x="37.95" y="14.5" transform="matrix(0.9805 -0.1963 0.1963 0.9805 -2.2547 8.2519)" width="5.099" height="2"/>
	</g>
	<g>
		<path d="M32,15c-0.153,0-0.307-0.035-0.447-0.105L25.764,12H17v-2h9c0.155,0,0.309,0.036,0.447,0.105L32,12.882l5.553-2.776    C37.691,10.036,37.845,10,38,10h9v2h-8.764l-5.789,2.895C32.307,14.965,32.153,15,32,15z"/>
	</g>
	<g>
		<path d="M31,10c-0.126,0-0.252-0.023-0.372-0.071L25.808,8H22c-0.216,0-0.427-0.07-0.6-0.2l-4-3l1.2-1.6L22.333,6H26    c0.127,0,0.253,0.024,0.372,0.071l4.583,1.833l3.598-1.799c0.065-0.032,0.134-0.058,0.205-0.075l4-1    c0.159-0.041,0.326-0.041,0.485,0L43.123,6H47v2h-4c-0.082,0-0.163-0.01-0.243-0.03L39,7.031l-3.651,0.912l-3.902,1.951    C31.307,9.965,31.153,10,31,10z"/>
	</g>
	<g>
		<rect x="37.764" y="3" transform="matrix(0.4472 -0.8944 0.8944 0.4472 18.5337 37.9882)" width="4.472" height="2"/>
	</g>
	<g>
		<path d="M37.2,11.6l-3-4c-0.053-0.07-0.096-0.146-0.129-0.229l-2-5l1.857-0.742l1.951,4.877L38.8,10.4L37.2,11.6z"/>
	</g>
	<g>
		<rect x="24.798" y="3.5" transform="matrix(0.6249 -0.7807 0.7807 0.6249 6.9888 23.5468)" width="6.403" height="2"/>
	</g>
	<g>
		<rect x="18.764" y="8" transform="matrix(0.4472 -0.8944 0.8944 0.4472 3.5587 23.758)" width="4.472" height="2"/>
	</g>
	<g>
		<rect x="27.764" y="10" transform="matrix(0.4472 -0.8944 0.8944 0.4472 6.7449 32.9135)" width="4.472" height="2"/>
	</g>
	<g>
		<path d="M19.832,27.555l-1.664-1.109L20,23.697V20c0-0.334,0.167-0.646,0.445-0.832l3-2l1.109,1.664L22,20.535V24    c0,0.197-0.059,0.391-0.168,0.555L19.832,27.555z"/>
	</g>
	<g>
		<rect x="27.5" y="19.5" transform="matrix(0.8 -0.6 0.6 0.8 -7.5 21.5)" width="1.999" height="5"/>
	</g>
	<g>
		<rect x="27.172" y="15" transform="matrix(0.7071 -0.7071 0.7071 0.7071 -2.5269 25.8995)" width="5.657" height="2"/>
	</g>
	<g>
		<rect x="30.394" y="20" transform="matrix(0.5547 -0.8321 0.8321 0.5547 -2.3329 37.641)" width="7.211" height="2"/>
	</g>
	<g>
		<rect x="42.5" y="16.692" transform="matrix(0.3939 -0.9191 0.9191 0.3939 7.522 52.4075)" width="2" height="7.616"/>
	</g>
	<g>
		<rect x="32" y="13.838" transform="matrix(0.3162 -0.9487 0.9487 0.3162 6.4369 42.9307)" width="1.999" height="6.325"/>
	</g>
	<g>
		<rect x="38.692" y="23.5" transform="matrix(0.3937 -0.9192 0.9192 0.3937 3.2469 53.9227)" width="7.616" height="1.999"/>
	</g>
	<g>
		<rect x="18" y="15.172" transform="matrix(0.7071 -0.7071 0.7071 0.7071 -7.163 18.7071)" width="2" height="5.657"/>
	</g>
	<g>
		<path d="M40.143,36.515l-3-5C37.049,31.359,37,31.182,37,31v-3h2v2.723l2.857,4.763L40.143,36.515z"/>
	</g>
	<g>
		<rect x="28.307" y="30.5" transform="matrix(0.3711 -0.9286 0.9286 0.3711 -9.7539 48.5988)" width="5.385" height="2"/>
	</g>
	<g>
		<rect x="21.585" y="29.5" transform="matrix(0.5146 -0.8574 0.8574 0.5146 -14.2596 35.81)" width="5.831" height="2"/>
	</g>
	<g>
		<rect x="19" y="58" transform="matrix(0.5998 -0.8001 0.8001 0.5998 -38.6036 40.8117)" width="5" height="1.999"/>
	</g>
	<g>
		<rect x="41" y="55.838" transform="matrix(0.9487 -0.3162 0.3162 0.9487 -16.5021 16.3093)" width="2" height="6.325"/>
	</g>
</g>
</svg>
