<?xml version="1.0" encoding="iso-8859-1"?>
<!-- Generator: Adobe Illustrator 22.1.0, SVG Export Plug-In . SVG Version: 6.00 Build 0)  -->
<svg xmlns="http://www.w3.org/2000/svg" xmlns:xlink="http://www.w3.org/1999/xlink" version="1.1" id="Layer_3" x="0px" y="0px" viewBox="0 0 64 64" style="enable-background:new 0 0 64 64;" xml:space="preserve" width="512" height="512">
<g>
	<g>
		<rect x="6" y="24" style="fill:#876440;" width="4" height="14"/>
	</g>
	<g>
		<rect x="6" y="24" style="fill:#664C37;" width="4" height="4"/>
	</g>
	<g>
		<polygon style="fill:#ADADAD;" points="2,23 2,17 3,16 13,16 14,17 14,23 13,24 3,24   "/>
	</g>
	<g>
		<polygon style="fill:#C4C4C4;" points="12,17 11,16 3,16 2,17 2,23 3,24 11,24 12,23   "/>
	</g>
	<g>
		<path d="M13,25H3c-0.266,0-0.52-0.105-0.707-0.293l-1-1C1.105,23.52,1,23.265,1,23v-6c0-0.265,0.105-0.52,0.293-0.707l1-1    C2.48,15.105,2.734,15,3,15h10c0.266,0,0.52,0.105,0.707,0.293l1,1C14.895,16.48,15,16.735,15,17v6    c0,0.265-0.105,0.52-0.293,0.707l-1,1C13.52,24.895,13.266,25,13,25z M3.414,23h9.172L13,22.586v-5.172L12.586,17H3.414L3,17.414    v5.172L3.414,23z"/>
	</g>
	<g>
		<rect x="5" y="24" width="2" height="13"/>
	</g>
	<g>
		<rect x="6" y="27" width="4" height="2"/>
	</g>
	<g>
		<path style="fill:#DC6068;" d="M44,26l6,1l2.857,10l-0.638,2.809L51,52l5,6l-5,2c0,0-5.231-1.046-5.231-1.046    C45.174,60.724,43.501,62,41.531,62h0c-1.57,0-3.025-0.824-3.833-2.17L36,57h-8l-1.698,2.83C25.494,61.176,24.039,62,22.469,62h0    c-1.971,0-3.644-1.276-4.238-3.046L13,60l-5-2l5-6l-1.245-12.448l-0.398-3.3L14,27l6-1"/>
	</g>
	<g>
		<path style="fill:#CA5057;" d="M30,52c-9.075,0-16.651-6.366-18.537-14.873l0.293,2.425L13,52l-5,6l5,2l5.231-1.046    C18.826,60.724,20.499,62,22.469,62h0c1.57,0,3.025-0.824,3.832-2.17L28,57h2"/>
	</g>
	<g>
		<path style="fill:#CA5057;" d="M34,52c9.075,0,16.651-6.366,18.537-14.873l-0.293,2.425L51,52l5,6l-5,2l-5.231-1.046    C45.174,60.724,43.501,62,41.531,62h0c-1.57,0-3.025-0.824-3.832-2.17L36,57h-2"/>
	</g>
	<g>
		<path style="fill:#566164;" d="M42,28l15,9c2.761,0,5,2.238,5,5c0,2.703-2.297,5.001-5,5c-2.761,0-5-2.239-5-5l-10-2l3.881,16.495    C45.96,56.831,46,57.174,46,57.519v0.012C46,59.999,43.999,62,41.531,62h0c-1.57,0-3.025-0.824-3.833-2.17L36,57h-8l-1.698,2.83    C25.494,61.176,24.039,62,22.469,62h0C20.001,62,18,59.999,18,57.531v-0.012c0-0.345,0.04-0.688,0.119-1.024L22,40l-10,2    c0,2.761-2.238,5-5,5C4.297,47,2,44.703,2,42c0-2.761,2.239-5,5-5l15-9"/>
	</g>
	<g>
		<path style="fill:#3B4546;" d="M46.778,30.867L45,33l-4.211,2.105l0,0C40.461,34.45,39.783,34,39,34c-1.105,0-2,0.895-2,2    c0,0.311,0.071,0.606,0.198,0.868l0,0L34,39v2l-2,2l-2-2v-2l-3.198-2.132l0,0C26.929,36.606,27,36.311,27,36c0-1.105-0.895-2-2-2    c-0.783,0-1.461,0.45-1.789,1.105l0,0L19,33l-1.778-2.133l4.658-2.795l0,0C24.548,30.512,28.1,32,32,32s7.452-1.488,10.12-3.928    l0,0L46.778,30.867"/>
	</g>
	<g>
		<polygon style="fill:#3B4546;" points="43.647,47 20.353,47 19.7,49.775 24,53 24,57.5 26.846,58.923 28,57 36,57 37.154,58.923     40,57.5 40,53 44.3,49.775   "/>
	</g>
	<g>
		<polygon style="fill:#919191;" points="44.3,49.775 40,53 40,57.5 45.474,54.763   "/>
	</g>
	<g>
		<polygon style="fill:#919191;" points="18.526,54.763 24,57.5 24,53 19.7,49.775   "/>
	</g>
	<g>
		<polyline style="fill:#919191;" points="36,47 34,53 30,53 28,47   "/>
	</g>
	<g>
		<circle style="fill:#919191;" cx="25.5" cy="42.5" r="2.5"/>
	</g>
	<g>
		<circle style="fill:#919191;" cx="38.5" cy="42.5" r="2.5"/>
	</g>
	<g>
		<circle style="fill:#919191;" cx="25" cy="36" r="2"/>
	</g>
	<g>
		<circle style="fill:#919191;" cx="39" cy="36" r="2"/>
	</g>
	<g>
		<polygon style="fill:#919191;" points="13.642,41.672 17.342,40.932 15.418,31.949 9.901,35.259   "/>
	</g>
	<g>
		<polygon style="fill:#919191;" points="46.658,40.932 50.358,41.672 54.099,35.259 48.582,31.949   "/>
	</g>
	<g>
		<circle style="fill:#D8C4A9;" cx="32" cy="17" r="15"/>
	</g>
	<g>
		<ellipse style="fill:#E4CFB6;" cx="30.5" cy="17" rx="13.5" ry="14.924"/>
	</g>
	<g>
		<path style="fill:#919191;" d="M32,2c-7.931,0-14.408,6.16-14.947,13.955L24,10h5l1,3l2,2l2-2l1-3h5l6.947,5.955    C46.408,8.16,39.931,2,32,2z"/>
	</g>
	<g>
		<path style="fill:#ABABAB;" d="M43.44,12.948C41.801,7.099,36.711,2.693,30.5,2.076c0,0,0,0,0,0    c-0.216,0.021-0.425,0.063-0.637,0.094c-0.27,0.039-0.542,0.07-0.808,0.123c-0.228,0.045-0.449,0.109-0.673,0.165    c-0.242,0.06-0.487,0.115-0.725,0.186c-0.167,0.051-0.33,0.112-0.494,0.171c-0.067,0.023-0.133,0.046-0.2,0.07    c-0.218,0.077-0.437,0.15-0.649,0.238c-0.099,0.041-0.195,0.088-0.292,0.132c-0.145,0.063-0.288,0.13-0.431,0.198    c-0.187,0.087-0.375,0.173-0.557,0.268c-0.05,0.026-0.099,0.057-0.148,0.084c-0.199,0.108-0.394,0.223-0.588,0.34    c-0.16,0.094-0.32,0.188-0.475,0.289c-0.011,0.007-0.021,0.015-0.032,0.023c-0.241,0.159-0.475,0.328-0.706,0.5    c-0.13,0.095-0.26,0.189-0.386,0.289c-0.252,0.2-0.495,0.412-0.734,0.628c-0.102,0.091-0.204,0.181-0.303,0.275    c-0.248,0.237-0.486,0.485-0.718,0.739c-0.076,0.083-0.153,0.165-0.227,0.25c-0.24,0.275-0.469,0.56-0.689,0.852    c-0.054,0.072-0.109,0.143-0.161,0.215c-0.226,0.313-0.441,0.635-0.643,0.965c-0.035,0.059-0.072,0.117-0.107,0.176    c-0.207,0.349-0.401,0.707-0.58,1.074c-0.021,0.045-0.044,0.089-0.065,0.134c-0.183,0.384-0.35,0.775-0.501,1.176    c-0.011,0.031-0.023,0.062-0.034,0.094c-0.152,0.415-0.288,0.839-0.404,1.27c-0.005,0.019-0.01,0.037-0.014,0.056    c-0.117,0.444-0.216,0.895-0.293,1.354c-0.001,0.008-0.003,0.017-0.004,0.025c-0.078,0.468-0.134,0.943-0.168,1.425L24,10h5l1,3    l2,2l2-2l1-3h5L43.44,12.948z"/>
	</g>
	<g>
		<path style="fill:#B9B9B9;" d="M25,30.262V24l-7.657-3.829C18.287,24.555,21.144,28.222,25,30.262z"/>
	</g>
	<g>
		<path style="fill:#919191;" d="M39,30.262c3.856-2.04,6.713-5.707,7.657-10.09L39,24V30.262z"/>
	</g>
	<g>
		<path style="fill:#ABABAB;" d="M43.159,21.921L39,24v4.149C40.868,26.472,42.317,24.342,43.159,21.921z"/>
	</g>
	<g>
		<path style="fill:#566164;" d="M32,2c-2.084,0-4.067,0.426-5.871,1.194L28,6h4h4l1.871-2.806C36.067,2.426,34.084,2,32,2z"/>
	</g>
	<g>
		<path style="fill:#876440;" d="M26.983,31.122C28.554,31.68,30.237,32,32,32s3.446-0.32,5.017-0.878L36,24h-8L26.983,31.122z"/>
	</g>
	<g>
		<circle style="fill:#B9B9B9;" cx="27" cy="17" r="2"/>
	</g>
	<g>
		<circle style="fill:#B9B9B9;" cx="37" cy="17" r="2"/>
	</g>
	<g>
		<path d="M32,33c-8.822,0-16-7.178-16-16S23.178,1,32,1s16,7.178,16,16S40.822,33,32,33z M32,3c-7.72,0-14,6.28-14,14    s6.28,14,14,14s14-6.28,14-14S39.72,3,32,3z"/>
	</g>
	<g>
		<path d="M41.53,63c-1.91,0-3.707-1.018-4.689-2.655L35.434,58h-6.867l-1.407,2.345C26.177,61.982,24.38,63,22.47,63    C19.454,63,17,60.546,17,57.531c0-0.433,0.049-0.855,0.146-1.265l3.524-14.98l-7.728,1.545C12.536,45.748,10.026,48,7,48    c-3.252,0-6-2.748-6-6c0-3.211,2.537-5.842,5.712-5.993l14.773-8.864l1.029,1.715l-15,9C7.359,37.951,7.182,38,7,38    c-2.206,0-4,1.794-4,4c0,2.168,1.832,4,4,4c2.206,0,4-1.794,4-4c0-0.477,0.337-0.887,0.804-0.98l10-2    c0.335-0.065,0.679,0.041,0.915,0.285s0.333,0.593,0.255,0.924l-3.881,16.495C19.031,56.985,19,57.252,19,57.519    C19,59.444,20.557,61,22.47,61c1.212,0,2.352-0.646,2.975-1.685l1.698-2.83C27.323,56.184,27.648,56,28,56h8    c0.352,0,0.677,0.184,0.857,0.485l1.698,2.83C39.179,60.354,40.318,61,41.53,61c1.913,0,3.47-1.556,3.47-3.469    c0-0.279-0.031-0.546-0.093-0.806l-3.881-16.496c-0.078-0.331,0.019-0.68,0.255-0.924s0.581-0.351,0.915-0.285l10,2    C52.663,41.113,53,41.523,53,42c0,2.206,1.794,4,4,4c2.168,0,4-1.832,4-4c0-2.206-1.794-4-4-4c-0.182,0-0.359-0.049-0.515-0.143    l-15-9l1.029-1.715l14.773,8.864C60.463,36.158,63,38.788,63,42c0,3.252-2.748,6-6,6c-3.026,0-5.536-2.252-5.942-5.169    l-7.728-1.545l3.524,14.98C46.951,56.676,47,57.098,47,57.519C47,60.546,44.546,63,41.53,63z"/>
	</g>
	<g>
		<rect x="20" y="46" width="24" height="2"/>
	</g>
	<g>
		<rect x="22" y="52.528" transform="matrix(0.4472 -0.8944 0.8944 0.4472 -38.2683 52.0807)" width="2" height="8.944"/>
	</g>
	<g>
		<rect x="36.528" y="56" transform="matrix(0.8944 -0.4472 0.4472 0.8944 -21.1627 24.3534)" width="8.944" height="2"/>
	</g>
	<g>
		<path d="M25,57h-2v-3.5l-3.6-2.7l1.199-1.6l4,3c0.252,0.188,0.4,0.485,0.4,0.8V57z"/>
	</g>
	<g>
		<path d="M41,57h-2v-4c0-0.315,0.148-0.611,0.4-0.8l4-3l1.199,1.6L41,53.5V57z"/>
	</g>
	<g>
		<path d="M34,54h-4c-0.431,0-0.812-0.275-0.948-0.684l-2-6l1.896-0.633L30.721,52h2.559l1.772-5.316l1.896,0.633l-2,6    C34.812,53.725,34.431,54,34,54z"/>
	</g>
	<g>
		<path d="M32,44c-0.256,0-0.512-0.098-0.707-0.293l-2-2C29.105,41.52,29,41.265,29,41v-1.465l-2.555-1.703l1.109-1.664l3,2    C30.833,38.354,31,38.666,31,39v1.586l1,1l1-1V39c0-0.334,0.167-0.646,0.445-0.832l3-2l1.109,1.664L35,39.535V41    c0,0.265-0.105,0.52-0.293,0.707l-2,2C32.512,43.902,32.256,44,32,44z"/>
	</g>
	<g>
		<path d="M25.5,44c-0.827,0-1.5-0.673-1.5-1.5s0.673-1.5,1.5-1.5s1.5,0.673,1.5,1.5S26.327,44,25.5,44z M25.5,42    c-0.275,0-0.5,0.224-0.5,0.5s0.225,0.5,0.5,0.5s0.5-0.224,0.5-0.5S25.775,42,25.5,42z"/>
	</g>
	<g>
		<path d="M38.5,44c-0.827,0-1.5-0.673-1.5-1.5s0.673-1.5,1.5-1.5s1.5,0.673,1.5,1.5S39.327,44,38.5,44z M38.5,42    c-0.275,0-0.5,0.224-0.5,0.5s0.225,0.5,0.5,0.5s0.5-0.224,0.5-0.5S38.775,42,38.5,42z"/>
	</g>
	<g>
		<rect x="9" y="24" width="2" height="11"/>
	</g>
	<g>
		<path d="M26,30h-2v-5.382l-7.447-3.724l0.895-1.789l8,4C25.786,23.275,26,23.621,26,24V30z"/>
	</g>
	<g>
		<path d="M40,30h-2v-6c0-0.379,0.214-0.725,0.553-0.895l8-4l0.895,1.789L40,24.618V30z"/>
	</g>
	<g>
		<rect x="30" y="27" width="4" height="2"/>
	</g>
	<g>
		<path d="M36.01,31.142L35.133,25h-6.266l-0.877,6.142l-1.98-0.283l1-7C27.08,23.366,27.502,23,28,23h8    c0.498,0,0.92,0.366,0.99,0.858l1,7L36.01,31.142z"/>
	</g>
	<g>
		<path d="M46.35,16.759L39.63,11h-3.909l-0.772,2.316c-0.049,0.147-0.132,0.281-0.241,0.391l-2,2c-0.391,0.391-1.023,0.391-1.414,0    l-2-2c-0.109-0.11-0.192-0.244-0.241-0.391L28.279,11H24.37l-6.72,5.759l-1.301-1.519l7-6C23.53,9.085,23.762,9,24,9h5    c0.431,0,0.812,0.275,0.948,0.684l0.926,2.776L32,13.586l1.126-1.126l0.926-2.776C34.188,9.275,34.569,9,35,9h5    c0.238,0,0.47,0.085,0.65,0.241l7,6L46.35,16.759z"/>
	</g>
	<g>
		<rect x="31" y="2" width="2" height="7"/>
	</g>
	<g>
		<path d="M36,7h-8c-0.334,0-0.646-0.167-0.832-0.445l-2-3l1.664-1.109L28.535,5h6.93l1.703-2.555l1.664,1.109l-2,3    C36.646,6.833,36.334,7,36,7z"/>
	</g>
	<g>
		<path d="M27,20c-1.654,0-3-1.346-3-3s1.346-3,3-3s3,1.346,3,3S28.654,20,27,20z M27,16c-0.552,0-1,0.449-1,1s0.448,1,1,1    s1-0.449,1-1S27.552,16,27,16z"/>
	</g>
	<g>
		<path d="M37,20c-1.654,0-3-1.346-3-3s1.346-3,3-3s3,1.346,3,3S38.654,20,37,20z M37,16c-0.552,0-1,0.449-1,1s0.448,1,1,1    s1-0.449,1-1S37.552,16,37,16z"/>
	</g>
	<g>
		<path d="M25,39c-1.654,0-3-1.346-3-3s1.346-3,3-3s3,1.346,3,3S26.654,39,25,39z M25,35c-0.552,0-1,0.449-1,1s0.448,1,1,1    s1-0.449,1-1S25.552,35,25,35z"/>
	</g>
	<g>
		<path d="M39,39c-1.654,0-3-1.346-3-3s1.346-3,3-3s3,1.346,3,3S40.654,39,39,39z M39,35c-0.552,0-1,0.449-1,1s0.448,1,1,1    s1-0.449,1-1S39.552,35,39,35z"/>
	</g>
	<g>
		<path d="M22.553,35.895l-4-2c-0.123-0.062-0.232-0.148-0.321-0.254l-5-6l1.537-1.28l4.866,5.839l3.812,1.906L22.553,35.895z"/>
	</g>
	<g>
		<path d="M12.962,34.275l-1.924-0.55l2-7c0.106-0.371,0.417-0.648,0.798-0.711l6-1l0.328,1.973l-5.376,0.896L12.962,34.275z"/>
	</g>
	<g>
		<path d="M13,61c-0.127,0-0.253-0.024-0.371-0.071l-5-2c-0.298-0.119-0.52-0.373-0.599-0.684c-0.078-0.31-0.004-0.639,0.201-0.885    l4.731-5.678L11.005,42.1l1.99-0.199l1,10c0.026,0.267-0.055,0.534-0.227,0.74l-4.119,4.942l3.446,1.378l4.708-0.941l0.393,1.961    l-5,1C13.131,60.994,13.065,61,13,61z"/>
	</g>
	<g>
		<path d="M51,61c-0.065,0-0.131-0.006-0.196-0.02l-5-1l0.393-1.961l4.708,0.941l3.446-1.378l-4.119-4.942    c-0.172-0.206-0.253-0.473-0.227-0.74l1-10l1.99,0.199l-0.958,9.583l4.731,5.678c0.205,0.246,0.279,0.575,0.201,0.885    c-0.079,0.311-0.301,0.564-0.599,0.684l-5,2C51.253,60.976,51.127,61,51,61z"/>
	</g>
	<g>
		<path d="M41.447,35.895l-0.895-1.789l3.812-1.906l4.866-5.839l1.537,1.28l-5,6c-0.089,0.106-0.198,0.192-0.321,0.254    L41.447,35.895z"/>
	</g>
	<g>
		<path d="M51.038,34.275l-1.826-6.393l-5.376-0.896l0.328-1.973l6,1c0.381,0.063,0.691,0.34,0.798,0.711l2,7L51.038,34.275z"/>
	</g>
</g>
</svg>
