<?xml version="1.0" encoding="iso-8859-1"?>
<!-- Generator: Adobe Illustrator 22.1.0, SVG Export Plug-In . SVG Version: 6.00 Build 0)  -->
<svg xmlns="http://www.w3.org/2000/svg" xmlns:xlink="http://www.w3.org/1999/xlink" version="1.1" id="Layer_3" x="0px" y="0px" viewBox="0 0 64 64" style="enable-background:new 0 0 64 64;" xml:space="preserve" width="512" height="512">
<g>
	<g>
		<path style="fill:#408A81;" d="M43.992,25.988C41.26,29.637,36.91,32,32,32c-4.91,0-9.26-2.363-11.992-6.012l0.001-0.001L16,32    l-9,5c-2.761,0-5,2.238-5,5C2,44.703,4.297,47,7,47c2.761,0,5-2.239,5-5l10-2l-3.881,16.495C18.04,56.831,18,57.174,18,57.519    v0.012C18,59.999,20.001,62,22.469,62h0c1.57,0,3.025-0.824,3.833-2.17L28,57h8l1.698,2.83c0.808,1.346,2.263,2.17,3.833,2.17h0    C43.999,62,46,59.999,46,57.531v-0.012c0-0.345-0.04-0.688-0.119-1.024L42,40l10,2c0,2.761,2.238,5,5,5c2.703,0,5.001-2.297,5-5    c0-2.761-2.239-5-5-5l-9-5l-4.009-6.013L43.992,25.988z"/>
	</g>
	<g>
		<path style="fill:#CCAC71;" d="M57,47l5,8l-1.586,1.586C59.509,57.491,58.281,58,57,58h0c-1.281,0-2.509-0.509-3.414-1.414    l-1.172-1.172C51.509,54.509,50.281,54,49,54h0c-1.265,0-2.479,0.496-3.381,1.381L42,40l10,2C52,44.761,54.238,47,57,47z"/>
	</g>
	<g>
		<path style="fill:#CCAC71;" d="M7,47l-5,8l1.586,1.586C4.491,57.491,5.719,58,7,58h0c1.281,0,2.509-0.509,3.414-1.414l1.172-1.172    C12.491,54.509,13.719,54,15,54h0c1.265,0,2.479,0.496,3.381,1.381L22,40l-10,2C12,44.761,9.762,47,7,47z"/>
	</g>
	<g>
		<path style="fill:#9C5C95;" d="M41.531,62C43.999,62,46,59.999,46,57.531v-0.012c0-0.345-0.04-0.688-0.119-1.024l-0.307-1.306    l-8.416,3.74l0.54,0.9C38.506,61.176,39.961,62,41.531,62L41.531,62z"/>
	</g>
	<g>
		<path style="fill:#9C5C95;" d="M26.302,59.83l0.54-0.9l-8.416-3.74l-0.307,1.306C18.04,56.831,18,57.174,18,57.519v0.012    C18,59.999,20.001,62,22.469,62C24.039,62,25.494,61.176,26.302,59.83z"/>
	</g>
	<g>
		<path style="fill:#EDD07A;" d="M20.009,25.987L16,32l13,3v-3.313C25.341,30.942,22.168,28.871,20.009,25.987z"/>
	</g>
	<g>
		<path style="fill:#EDD07A;" d="M35,31.687V35l13-3l-4.009-6.013C41.832,28.871,38.659,30.942,35,31.687z"/>
	</g>
	<g>
		<path style="fill:#408A81;" d="M49,13l-2.704-0.541C44.372,6.395,38.701,2,32,2c-6.701,0-12.372,4.395-14.296,10.459L15,13l1,9    h1.872c2.061,5.822,7.6,10,14.128,10c6.528,0,12.067-4.178,14.128-10H48L49,13z"/>
	</g>
	<g>
		<path style="fill:#9C5C95;" d="M37.969,10L37.969,10c-0.64,0-1.274,0.122-1.869,0.36L32,12l-4.1-1.64    C27.305,10.122,26.671,10,26.031,10h0C23.253,10,21,12.253,21,15.031v0.446c0,0.993,0.294,1.964,0.845,2.791L23,20l-2,3v4.166    C23.736,30.134,27.644,32,32,32s8.264-1.866,11-4.834V23l-2-3l1.155-1.733C42.706,17.441,43,16.47,43,15.477v-0.446    C43,12.253,40.747,10,37.969,10z"/>
	</g>
	<g>
		<path style="fill:#9C5C95;" d="M14,37l-3.684-1.842L7,37c-2.761,0-5,2.238-5,5C2,44.703,4.297,47,7,47c2.761,0,5-2.239,5-5l2-0.4    V37z"/>
	</g>
	<g>
		<path style="fill:#9C5C95;" d="M57,37l-3.316-1.842L50,37v4.6l2,0.4c0,2.761,2.238,5,5,5c2.703,0,5.001-2.297,5-5    C62,39.238,59.761,37,57,37z"/>
	</g>
	<g>
		<path style="fill:#EDD07A;" d="M19.657,49.957l3.924,0.49c2.925,0.366,5.766,1.226,8.403,2.544L32,53l0.017-0.008    c2.636-1.318,5.478-2.179,8.403-2.544l3.924-0.49l-0.902-3.833L35,48h-6l-8.441-1.876L19.657,49.957z"/>
	</g>
	<g>
		<polyline style="fill:#9C5C95;" points="31,42 20.81,45.057 20.559,46.124 29,48 35,48 43.441,46.124 43.19,45.057 33,42   "/>
	</g>
	<g>
		<circle style="fill:#ABABAB;" cx="28" cy="18" r="2"/>
	</g>
	<g>
		<circle style="fill:#ABABAB;" cx="36" cy="18" r="2"/>
	</g>
	<g>
		<polygon style="fill:#EDD07A;" points="32,44 35,40 32,36 29,40   "/>
	</g>
	<g>
		<polygon style="fill:#EDD07A;" points="32,12 35,8 32,4 29,8   "/>
	</g>
	<g>
		<path d="M41.531,63c-1.91,0-3.708-1.018-4.69-2.655L35.434,58h-6.868l-1.407,2.345C26.177,61.982,24.379,63,22.469,63    C19.454,63,17,60.546,17,57.531c0-0.432,0.049-0.853,0.145-1.264l3.525-14.981l-7.728,1.545C12.537,45.748,10.026,48,7,48    c-3.252,0-6-2.748-6-6c0-3.218,2.546-5.852,5.73-5.994l8.784-4.88l0.972,1.748l-9,5C7.337,37.957,7.17,38,7,38    c-2.206,0-4,1.794-4,4c0,2.168,1.832,4,4,4c2.206,0,4-1.794,4-4c0-0.477,0.336-0.887,0.804-0.98l10-2    c0.336-0.067,0.679,0.041,0.915,0.285c0.237,0.245,0.333,0.593,0.255,0.924l-3.881,16.495C19.031,56.984,19,57.252,19,57.519    C19,59.444,20.556,61,22.469,61c1.212,0,2.352-0.646,2.975-1.685l1.698-2.83C27.323,56.184,27.649,56,28,56h8    c0.351,0,0.677,0.184,0.857,0.485l1.698,2.83C39.179,60.354,40.319,61,41.531,61C43.444,61,45,59.444,45,57.531    c0-0.279-0.031-0.546-0.092-0.808l-3.881-16.494c-0.078-0.331,0.018-0.679,0.255-0.924c0.237-0.245,0.583-0.35,0.915-0.285l10,2    C52.664,41.113,53,41.523,53,42c0,2.206,1.794,4,4,4c2.168,0,4-1.832,4-4c0-2.206-1.794-4-4-4c-0.17,0-0.337-0.043-0.486-0.126    l-9-5l0.972-1.748l8.784,4.88C60.454,36.147,63,38.782,63,42c0,3.252-2.748,6-6,6c-3.026,0-5.536-2.252-5.942-5.169l-7.728-1.545    l3.525,14.98C46.951,56.678,47,57.099,47,57.519C47,60.546,44.546,63,41.531,63z"/>
	</g>
	<g>
		<path d="M29,36c-0.075,0-0.15-0.008-0.225-0.025l-13-3c-0.32-0.074-0.583-0.3-0.704-0.605c-0.122-0.305-0.085-0.65,0.097-0.924    l4-6l1.664,1.109l-3.197,4.796L28,33.743V32h2v3c0,0.305-0.139,0.593-0.377,0.783C29.444,35.925,29.224,36,29,36z"/>
	</g>
	<g>
		<path d="M35,36c-0.224,0-0.444-0.075-0.623-0.217C34.139,35.593,34,35.305,34,35v-3h2v1.743l10.365-2.392l-3.197-4.796    l1.664-1.109l4,6c0.182,0.273,0.219,0.619,0.097,0.924c-0.121,0.305-0.384,0.531-0.704,0.605l-13,3C35.15,35.992,35.075,36,35,36z    "/>
	</g>
	<g>
		<path d="M32,45c-0.315,0-0.611-0.148-0.8-0.4l-3-4c-0.267-0.355-0.267-0.845,0-1.2l3-4c0.377-0.504,1.223-0.504,1.6,0l3,4    c0.267,0.355,0.267,0.845,0,1.2l-3,4C32.611,44.852,32.315,45,32,45z M30.25,40L32,42.333L33.75,40L32,37.667L30.25,40z"/>
	</g>
	<g>
		<rect x="21.5" y="52.076" transform="matrix(0.4061 -0.9138 0.9138 0.4061 -38.7254 54.4109)" width="2" height="9.849"/>
	</g>
	<g>
		<rect x="36.576" y="56" transform="matrix(0.9137 -0.4063 0.4063 0.9137 -19.5801 21.7796)" width="9.849" height="2"/>
	</g>
	<g>
		<rect x="20.78" y="42.5" transform="matrix(0.9579 -0.2871 0.2871 0.9579 -11.3935 9.2951)" width="10.44" height="2"/>
	</g>
	<g>
		<rect x="37" y="38.28" transform="matrix(0.2873 -0.9578 0.9578 0.2873 -14.5847 67.3978)" width="2" height="10.44"/>
	</g>
	<g>
		<path d="M35,49h-6c-0.073,0-0.146-0.008-0.217-0.024l-9-2l0.434-1.952L29.11,47h5.78l8.893-1.976l0.434,1.952l-9,2    C35.146,48.992,35.073,49,35,49z"/>
	</g>
	<g>
		<path d="M31.995,53.996c-0.153,0-0.305-0.033-0.442-0.102c-2.558-1.279-5.276-2.103-8.096-2.455l-3.581-0.448l0.248-1.984    l3.581,0.448c2.887,0.36,5.675,1.178,8.296,2.431c2.63-1.256,5.414-2.071,8.295-2.431l3.581-0.448l0.248,1.984l-3.581,0.448    c-2.82,0.352-5.538,1.175-8.08,2.446C32.319,53.958,32.156,53.996,31.995,53.996z"/>
	</g>
	<g>
		<rect x="31" y="44" width="2" height="4"/>
	</g>
	<g>
		<rect x="33.95" y="44.5" transform="matrix(0.1963 -0.9805 0.9805 0.1963 -15.2798 72.358)" width="5.099" height="2"/>
	</g>
	<g>
		<rect x="26.5" y="42.95" transform="matrix(0.9806 -0.1961 0.1961 0.9806 -8.3893 6.2768)" width="2" height="5.099"/>
	</g>
	<g>
		<path d="M15,42h-2v-4.382l-3.447-1.724l0.895-1.789l4,2C14.786,36.275,15,36.621,15,37V42z"/>
	</g>
	<g>
		<path d="M51,42h-2v-5c0-0.379,0.214-0.725,0.553-0.895l4-2l0.895,1.789L51,37.618V42z"/>
	</g>
	<g>
		<path d="M7,59c-1.557,0-3.021-0.606-4.121-1.707l-1.586-1.586c-0.33-0.329-0.388-0.842-0.141-1.237l5-8l1.696,1.061L3.27,54.855    l1.023,1.023c1.446,1.446,3.968,1.446,5.414,0l1.172-1.172C11.979,53.606,13.443,53,15,53s3.021,0.606,4.121,1.707l0.586,0.586    l-1.414,1.414l-0.586-0.586c-1.446-1.446-3.968-1.446-5.414,0l-1.172,1.172C10.021,58.394,8.557,59,7,59z"/>
	</g>
	<g>
		<rect x="4.768" y="48" transform="matrix(0.4009 -0.9161 0.9161 0.4009 -36.8019 41.7224)" width="17.464" height="2"/>
	</g>
	<g>
		<path d="M57,59c-1.557,0-3.021-0.606-4.121-1.707l-1.172-1.172c-1.446-1.446-3.968-1.446-5.414,0l-0.586,0.586l-1.414-1.414    l0.586-0.586C45.979,53.606,47.443,53,49,53s3.021,0.606,4.121,1.707l1.172,1.172c1.446,1.446,3.968,1.446,5.414,0l1.023-1.023    l-4.579-7.325l1.696-1.061l5,8c0.247,0.395,0.188,0.908-0.141,1.237l-1.586,1.586C60.021,58.394,58.557,59,57,59z"/>
	</g>
	<g>
		<rect x="49.5" y="40.268" transform="matrix(0.9162 -0.4008 0.4008 0.9162 -15.4061 24.3496)" width="2" height="17.464"/>
	</g>
	<g>
		<path d="M32,33c-6.518,0-12.385-3.99-14.818-10H16c-0.51,0-0.938-0.383-0.994-0.89l-1-9c-0.058-0.516,0.289-0.989,0.797-1.091    l2.137-0.428C19.218,5.232,25.196,1,32,1s12.782,4.232,15.059,10.592l2.137,0.428c0.508,0.102,0.855,0.575,0.797,1.091l-1,9    C48.938,22.617,48.51,23,48,23h-1.182C44.385,29.01,38.518,33,32,33z M16.895,21h0.977c0.424,0,0.801,0.267,0.943,0.667    C20.791,27.249,26.09,31,32,31s11.209-3.751,13.185-9.333C45.327,21.267,45.704,21,46.128,21h0.977l0.8-7.199L46.1,13.439    c-0.357-0.071-0.647-0.331-0.757-0.678C43.49,6.923,38.128,3,32,3s-11.49,3.923-13.343,9.762c-0.11,0.347-0.4,0.606-0.757,0.678    l-1.805,0.361L16.895,21z"/>
	</g>
	<g>
		<path d="M44,27h-2v-3.697l-1.832-2.748c-0.224-0.336-0.224-0.773,0-1.109l1.155-1.732C41.766,17.048,42,16.275,42,15.477v-0.445    C42,12.809,40.191,11,37.969,11c-0.515,0-1.019,0.097-1.497,0.288l-4.101,1.641c-0.239,0.095-0.504,0.095-0.743,0l-4.101-1.64    C27.05,11.097,26.546,11,26.031,11C23.809,11,22,12.809,22,15.031v0.445c0,0.799,0.234,1.572,0.677,2.236l1.155,1.732    c0.224,0.336,0.224,0.773,0,1.109L22,23.303V27h-2v-4c0-0.197,0.059-0.391,0.168-0.555L21.798,20l-0.785-1.178    C20.351,17.829,20,16.671,20,15.477v-0.445C20,11.706,22.706,9,26.031,9c0.771,0,1.524,0.145,2.24,0.432L32,10.923l3.729-1.492    C36.444,9.145,37.198,9,37.969,9C41.294,9,44,11.706,44,15.031v0.445c0,1.195-0.351,2.352-1.013,3.346L42.202,20l1.63,2.445    C43.941,22.609,44,22.803,44,23V27z"/>
	</g>
	<g>
		<path d="M32,13c-0.315,0-0.611-0.148-0.8-0.4l-3-4c-0.267-0.355-0.267-0.845,0-1.2l3-4c0.377-0.504,1.223-0.504,1.6,0l3,4    c0.267,0.355,0.267,0.845,0,1.2l-3,4C32.611,12.852,32.315,13,32,13z M30.25,8L32,10.333L33.75,8L32,5.667L30.25,8z"/>
	</g>
	<g>
		<rect x="28" y="24" width="8" height="2"/>
	</g>
	<g>
		<path d="M28,21c-1.654,0-3-1.346-3-3s1.346-3,3-3s3,1.346,3,3S29.654,21,28,21z M28,17c-0.551,0-1,0.449-1,1s0.449,1,1,1    s1-0.449,1-1S28.551,17,28,17z"/>
	</g>
	<g>
		<path d="M36,21c-1.654,0-3-1.346-3-3s1.346-3,3-3s3,1.346,3,3S37.654,21,36,21z M36,17c-0.551,0-1,0.449-1,1s0.449,1,1,1    s1-0.449,1-1S36.551,17,36,17z"/>
	</g>
	<g>
		<rect x="25" y="13.438" transform="matrix(0.2425 -0.9701 0.9701 0.2425 4.6569 36.9644)" width="2" height="4.123"/>
	</g>
	<g>
		<rect x="35.938" y="14.5" transform="matrix(0.9701 -0.2427 0.2427 0.9701 -2.6254 9.684)" width="4.123" height="2"/>
	</g>
</g>
</svg>
