<?xml version="1.0" encoding="iso-8859-1"?>
<!-- Generator: Adobe Illustrator 22.1.0, SVG Export Plug-In . SVG Version: 6.00 Build 0)  -->
<svg xmlns="http://www.w3.org/2000/svg" xmlns:xlink="http://www.w3.org/1999/xlink" version="1.1" id="Layer_3" x="0px" y="0px" viewBox="0 0 64 64" style="enable-background:new 0 0 64 64;" xml:space="preserve" width="512" height="512">
<g>
	<g>
		<path style="fill:#D8D2D8;" d="M43,40l13,14v4h-4c0,0-7.221-6.189-7.221-6.19l1.102,4.685C45.96,56.831,46,57.174,46,57.519v0.012    C46,59.999,43.999,62,41.531,62h0c-1.57,0-3.025-0.824-3.833-2.17L34,54h-4l-3.698,5.83C25.494,61.176,24.039,62,22.469,62h0    C20.001,62,18,59.999,18,57.531v-0.012c0-0.345,0.04-0.688,0.119-1.024l1.102-4.685L12,58H8v-4l13-14"/>
	</g>
	<g>
		<path style="fill:#D8D2D8;" d="M50,33l12-9v-5h-5l-6,3v2l-7.73,2.899l0,0C40.521,30.026,36.491,32,32,32s-8.521-1.974-11.27-5.101    L13,24v-2l-6-3H2v5l12,9"/>
	</g>
	<g>
		<path style="fill:#3B4546;" d="M42,28l15,9c2.761,0,5,2.238,5,5c0,2.703-2.297,5.001-5,5c-2.761,0-5-2.239-5-5l-10-2l3.881,16.495    C45.96,56.831,46,57.174,46,57.519v0.012C46,59.999,43.999,62,41.531,62h0c-1.57,0-3.025-0.824-3.833-2.17L34,54h-4l-3.698,5.83    C25.494,61.176,24.039,62,22.469,62h0C20.001,62,18,59.999,18,57.531v-0.012c0-0.345,0.04-0.688,0.119-1.024L22,40l-10,2    c0,2.761-2.238,5-5,5C4.297,47,2,44.703,2,42c0-2.761,2.239-5,5-5l15-9"/>
	</g>
	<g>
		<polygon style="fill:#EDD07A;" points="14,38 14,41.6 17,41 17,36 15.077,32.154 10.75,34.75   "/>
	</g>
	<g>
		<polygon style="fill:#EDD07A;" points="50,38 50,41.6 47,41 47,36 48.923,32.154 53.25,34.75   "/>
	</g>
	<g>
		<polyline style="fill:#D2A95C;" points="34,54 36.05,41.7 35,42 32,39 29,42 27.95,41.7 30,54   "/>
	</g>
	<g>
		<polygon style="fill:#EDD07A;" points="20.118,48 24,48 25,44 21.059,44   "/>
	</g>
	<g>
		<polygon style="fill:#EDD07A;" points="42.941,44 39,44 40,48 43.882,48   "/>
	</g>
	<g>
		<circle style="fill:#EDD07A;" cx="23" cy="56" r="2"/>
	</g>
	<g>
		<circle style="fill:#EDD07A;" cx="41" cy="56" r="2"/>
	</g>
	<g>
		<polygon style="fill:#EDD07A;" points="38,34 42,35 42,40 35,42 32,39 32,36   "/>
	</g>
	<g>
		<polygon style="fill:#EDD07A;" points="26,34 22,35 22,40 29,42 32,39 32,36   "/>
	</g>
	<g>
		<path style="fill:#B9B9B9;" d="M15,13h-2v11l7.73,2.899C23.479,30.026,27.509,32,32,32s8.521-1.974,11.27-5.101l0,0L51,24V13h-2V4    c0-1.105-0.895-2-2-2h0c-1.105,0-2,0.895-2,2v5.513l0,0C42.409,5.022,37.557,2,32,2c-5.557,0-10.409,3.022-13,7.512l0,0V4    c0-1.105-0.895-2-2-2h0c-1.105,0-2,0.895-2,2V13z"/>
	</g>
	<g>
		<path style="fill:#919191;" d="M36,27l11-7v-7h4v11l-7.73,2.899l0,0C40.521,30.026,36.491,32,32,32s-8.521-1.974-11.27-5.101    L13,24V13h4v7l11,7"/>
	</g>
	<g>
		<circle style="fill:#939FA5;" cx="32" cy="28" r="4"/>
	</g>
	<g>
		<path style="fill:#919191;" d="M30,2.134c-3.596,0.479-6.785,2.236-9.107,4.795L24,9l6-3V2.134z"/>
	</g>
	<g>
		<path style="fill:#919191;" d="M43.107,6.929C40.785,4.37,37.596,2.613,34,2.134V6l6,3L43.107,6.929z"/>
	</g>
	<g>
		<path style="fill:#EDD07A;" d="M33,19l4,2l6-3v-4l-5-2l-2.211,1.106C34.612,13.694,33.315,14,32,14h0    c-1.315,0-2.612-0.306-3.789-0.894L26,12l-5,2v4l6,3l4-2H33z"/>
	</g>
	<g>
		<path d="M41.531,63c-1.91,0-3.708-1.018-4.69-2.655L33.45,55h-2.9l-3.404,5.366C26.177,61.982,24.379,63,22.469,63    C19.454,63,17,60.546,17,57.531c0-0.432,0.049-0.853,0.145-1.264l3.525-14.981l-7.728,1.545C12.537,45.748,10.026,48,7,48    c-3.252,0-6-2.748-6-6c0-3.211,2.537-5.842,5.711-5.993l14.774-8.864l1.029,1.715l-15,9C7.359,37.951,7.181,38,7,38    c-2.206,0-4,1.794-4,4c0,2.168,1.832,4,4,4c2.206,0,4-1.794,4-4c0-0.477,0.336-0.887,0.804-0.98l10-2    c0.335-0.067,0.679,0.041,0.915,0.285c0.237,0.245,0.333,0.593,0.255,0.924l-3.881,16.495C19.031,56.984,19,57.252,19,57.519    C19,59.444,20.556,61,22.469,61c1.212,0,2.352-0.646,2.975-1.685l3.711-5.851C29.339,53.175,29.658,53,30,53h4    c0.342,0,0.661,0.175,0.844,0.464l3.698,5.83C39.179,60.354,40.319,61,41.531,61C43.444,61,45,59.444,45,57.531    c0-0.279-0.031-0.546-0.092-0.808l-3.881-16.494c-0.078-0.331,0.018-0.679,0.255-0.924c0.237-0.245,0.582-0.35,0.915-0.285l10,2    C52.664,41.113,53,41.523,53,42c0,2.206,1.794,4,4,4c2.168,0,4-1.832,4-4c0-2.206-1.794-4-4-4c-0.181,0-0.359-0.049-0.515-0.143    l-15-9l1.029-1.715l14.774,8.864C60.463,36.158,63,38.788,63,42c0,3.252-2.748,6-6,6c-3.026,0-5.536-2.252-5.942-5.169    l-7.728-1.545l3.525,14.98C46.951,56.678,47,57.099,47,57.519C47,60.546,44.546,63,41.531,63z"/>
	</g>
	<g>
		<path d="M32,33c-2.757,0-5-2.243-5-5s2.243-5,5-5s5,2.243,5,5S34.757,33,32,33z M32,25c-1.654,0-3,1.346-3,3s1.346,3,3,3    s3-1.346,3-3S33.654,25,32,25z"/>
	</g>
	<g>
		<path d="M37,22c-0.153,0-0.307-0.035-0.447-0.105L32.764,20h-1.528l-3.789,1.895c-0.281,0.141-0.613,0.141-0.895,0l-6-3    C20.214,18.725,20,18.379,20,18v-4c0-0.409,0.249-0.776,0.628-0.929l5-2c0.266-0.104,0.563-0.093,0.819,0.034l2.211,1.105    c2.064,1.032,4.619,1.032,6.684,0l2.211-1.105c0.256-0.127,0.554-0.138,0.819-0.034l5,2C43.751,13.224,44,13.591,44,14v4    c0,0.379-0.214,0.725-0.553,0.895l-6,3C37.307,21.965,37.153,22,37,22z M31,18h2c0.155,0,0.309,0.036,0.447,0.105L37,19.882l5-2.5    v-2.705l-3.955-1.582L36.236,14c-2.617,1.309-5.855,1.309-8.473,0l-1.809-0.905L22,14.677v2.705l5,2.5l3.553-1.776    C30.691,18.036,30.845,18,31,18z"/>
	</g>
	<g>
		<rect x="14" y="17.438" transform="matrix(0.2425 -0.9701 0.9701 0.2425 -7.5558 29.3227)" width="2" height="4.123"/>
	</g>
	<g>
		<path d="M50,13h-2V4c0-0.551-0.449-1-1-1s-1,0.449-1,1v5.513c0,0.453-0.304,0.849-0.741,0.966    c-0.437,0.117-0.899-0.073-1.125-0.466C41.638,5.687,36.988,3,32,3s-9.638,2.687-12.134,7.012    c-0.227,0.393-0.688,0.584-1.125,0.466C18.304,10.361,18,9.965,18,9.512L18,4c0-0.551-0.449-1-1-1s-1,0.449-1,1v9h-2V4    c0-1.654,1.346-3,3-3s3,1.346,3,3v2.42C23.007,3.02,27.376,1,32,1s8.992,2.02,12,5.42V4c0-1.654,1.346-3,3-3s3,1.346,3,3V13z"/>
	</g>
	<g>
		<path d="M32,33c-4.516,0-8.821-1.911-11.852-5.251l-7.499-2.812C12.259,24.79,12,24.417,12,24V13c0-0.552,0.448-1,1-1h4    c0.552,0,1,0.448,1,1v6.451l10.537,6.705l-1.074,1.688l-11-7C16.175,20.66,16,20.342,16,20v-6h-2v9.307l7.081,2.655    c0.154,0.058,0.292,0.153,0.4,0.276C24.14,29.265,27.974,31,32,31s7.86-1.735,10.52-4.762c0.108-0.124,0.246-0.218,0.4-0.276    L50,23.307V14h-2v6c0,0.342-0.175,0.66-0.463,0.844l-11,7l-1.074-1.688L46,19.451V13c0-0.552,0.448-1,1-1h4c0.552,0,1,0.448,1,1    v11c0,0.417-0.259,0.79-0.649,0.937l-7.499,2.812C40.821,31.089,36.516,33,32,33z"/>
	</g>
	<g>
		<rect x="46.938" y="18.5" transform="matrix(0.9701 -0.2427 0.2427 0.9701 -3.2673 12.4727)" width="4.123" height="2"/>
	</g>
	<g>
		<rect x="42" y="22.764" transform="matrix(0.8944 -0.4472 0.4472 0.8944 -6.6407 21.8695)" width="2" height="4.472"/>
	</g>
	<g>
		<rect x="18.764" y="24" transform="matrix(0.4472 -0.8944 0.8944 0.4472 -10.7522 32.6026)" width="4.472" height="2"/>
	</g>
	<g>
		<path d="M24,49h-4v-2h3.219l0.5-2H21v-2h4c0.308,0,0.599,0.142,0.788,0.385s0.257,0.559,0.182,0.858l-1,4    C24.859,48.688,24.459,49,24,49z"/>
	</g>
	<g>
		<path d="M44,49h-4c-0.459,0-0.859-0.312-0.97-0.757l-1-4c-0.075-0.299-0.007-0.615,0.182-0.858S38.692,43,39,43h4v2h-2.719l0.5,2    H44V49z"/>
	</g>
	<g>
		<path d="M23,59c-1.654,0-3-1.346-3-3s1.346-3,3-3s3,1.346,3,3S24.654,59,23,59z M23,55c-0.551,0-1,0.449-1,1s0.449,1,1,1    s1-0.449,1-1S23.551,55,23,55z"/>
	</g>
	<g>
		<path d="M41,59c-1.654,0-3-1.346-3-3s1.346-3,3-3s3,1.346,3,3S42.654,59,41,59z M41,55c-0.551,0-1,0.449-1,1s0.449,1,1,1    s1-0.449,1-1S41.551,55,41,55z"/>
	</g>
	<g>
		<rect x="21.5" y="47.959" transform="matrix(0.9864 -0.1644 0.1644 0.9864 -8.0782 4.3929)" width="2" height="6.083"/>
	</g>
	<g>
		<rect x="38.459" y="50" transform="matrix(0.1646 -0.9864 0.9864 0.1646 -15.6339 83.5418)" width="6.083" height="2"/>
	</g>
	<g>
		<path d="M35,43c-0.262,0-0.517-0.103-0.707-0.293l-3-3C31.105,39.52,31,39.265,31,39v-3c0-0.431,0.275-0.812,0.684-0.949l6-2    c0.18-0.061,0.374-0.069,0.559-0.021l4,1C42.688,34.141,43,34.541,43,35v5c0,0.446-0.296,0.839-0.725,0.961l-7,2    C35.184,42.987,35.092,43,35,43z M33,38.586l2.291,2.291L41,39.246v-3.465l-2.96-0.74L33,36.721V38.586z"/>
	</g>
	<g>
		<path d="M29,43c-0.092,0-0.184-0.013-0.275-0.039l-7-2C21.296,40.839,21,40.446,21,40v-5c0-0.459,0.312-0.859,0.757-0.97l4-1    c0.185-0.047,0.378-0.039,0.559,0.021l6,2C32.725,35.188,33,35.569,33,36v3c0,0.265-0.105,0.52-0.293,0.707l-3,3    C29.517,42.897,29.261,43,29,43z M23,39.246l5.709,1.631L31,38.586v-1.865l-5.04-1.68L23,35.781V39.246z"/>
	</g>
	<g>
		<rect x="28" y="41.917" transform="matrix(0.9864 -0.1644 0.1644 0.9864 -7.4966 5.4207)" width="2" height="12.166"/>
	</g>
	<g>
		<rect x="28.917" y="47" transform="matrix(0.1646 -0.9864 0.9864 0.1646 -18.1051 74.6241)" width="12.166" height="2"/>
	</g>
	<g>
		<path d="M32,46c-0.153,0-0.307-0.035-0.447-0.105l-4-2l0.895-1.789L32,43.882l3.553-1.776l0.895,1.789l-4,2    C32.307,45.965,32.153,46,32,46z"/>
	</g>
	<g>
		<path d="M32,51c-0.193,0-0.387-0.056-0.555-0.168l-3-2l1.109-1.664L32,48.798l2.445-1.63l1.109,1.664l-3,2    C32.387,50.944,32.193,51,32,51z"/>
	</g>
	<g>
		<rect x="19" y="29.298" transform="matrix(0.7809 -0.6247 0.6247 0.7809 -15.92 19.6157)" width="2" height="6.403"/>
	</g>
	<g>
		<rect x="40.798" y="31.5" transform="matrix(0.6246 -0.7809 0.7809 0.6246 -8.8637 46.5597)" width="6.403" height="2"/>
	</g>
	<g>
		<path d="M15,42h-2v-3.586l-2.707-2.707l1.414-1.414l3,3C14.895,37.48,15,37.735,15,38V42z"/>
	</g>
	<g>
		<path d="M51,42h-2v-4c0-0.265,0.105-0.52,0.293-0.707l3-3l1.414,1.414L51,38.414V42z"/>
	</g>
	<g>
		<path d="M24,10c-0.194,0-0.388-0.057-0.555-0.168l-3-2l1.109-1.664l2.517,1.678L29,5.382V2h2v4c0,0.379-0.214,0.725-0.553,0.895    l-6,3C24.306,9.965,24.153,10,24,10z"/>
	</g>
	<g>
		<path d="M40,10c-0.153,0-0.306-0.035-0.447-0.105l-6-3C33.214,6.725,33,6.379,33,6V2h2v3.382l4.928,2.464l2.517-1.678l1.109,1.664    l-3,2C40.388,9.943,40.194,10,40,10z"/>
	</g>
	<g>
		<path d="M13.4,33.8l-12-9C1.148,24.611,1,24.315,1,24v-5c0-0.552,0.448-1,1-1h5c0.155,0,0.309,0.036,0.447,0.105l6,3l-0.895,1.789    L6.764,20H3v3.5l11.6,8.7L13.4,33.8z"/>
	</g>
	<g>
		<rect x="5.5" y="16.799" transform="matrix(0.6139 -0.7894 0.7894 0.6139 -15.251 13.8171)" width="2" height="11.402"/>
	</g>
	<g>
		<path d="M50.6,33.8l-1.2-1.6L61,23.5V20h-3.764l-5.789,2.895l-0.895-1.789l6-3C56.691,18.036,56.845,18,57,18h5    c0.552,0,1,0.448,1,1v5c0,0.315-0.148,0.611-0.4,0.8L50.6,33.8z"/>
	</g>
	<g>
		<rect x="51.799" y="21.5" transform="matrix(0.7895 -0.6137 0.6137 0.7895 -1.7059 40.0259)" width="11.402" height="2"/>
	</g>
	<g>
		<path d="M12,59H8c-0.552,0-1-0.448-1-1v-4c0-0.252,0.095-0.496,0.267-0.681l13-14l1.466,1.361L9,54.393V57h2.63l6.719-5.759    l1.302,1.519l-7,6C12.47,58.915,12.239,59,12,59z"/>
	</g>
	<g>
		<path d="M56,59h-4c-0.239,0-0.47-0.085-0.651-0.241l-7-6l1.302-1.519L52.37,57H55v-2.607L42.267,40.681l1.466-1.361l13,14    C56.905,53.504,57,53.748,57,54v4C57,58.552,56.552,59,56,59z"/>
	</g>
</g>
</svg>
