<?xml version="1.0" encoding="iso-8859-1"?>
<!-- Generator: Adobe Illustrator 22.1.0, SVG Export Plug-In . SVG Version: 6.00 Build 0)  -->
<svg xmlns="http://www.w3.org/2000/svg" xmlns:xlink="http://www.w3.org/1999/xlink" version="1.1" id="Layer_3" x="0px" y="0px" viewBox="0 0 64 64" style="enable-background:new 0 0 64 64;" xml:space="preserve" width="512" height="512">
<g>
	<g>
		<path style="fill:#3B4546;" d="M42,28l15,9c2.761,0,5,2.238,5,5c0,2.703-2.297,5.001-5,5c-2.761,0-5-2.239-5-5l-10-2l3.881,16.495    C45.96,56.831,46,57.174,46,57.519v0.012C46,59.999,43.999,62,41.531,62h0c-1.57,0-3.025-0.824-3.833-2.17L36,57h-8l-1.698,2.83    C25.494,61.176,24.039,62,22.469,62h0C20.001,62,18,59.999,18,57.531v-0.012c0-0.345,0.04-0.688,0.119-1.024L22,40l-10,2    c0,2.761-2.238,5-5,5C4.297,47,2,44.703,2,42c0-2.761,2.239-5,5-5l15-9"/>
	</g>
	<g>
		<path style="fill:#D8D2D8;" d="M40,30c0,0,2,10,2,10l10,2c0,2.761,2.238,5,5,5c2.703,0,5.001-2.297,5-5c0-2.761-2.239-5-5-5l-15-9    "/>
	</g>
	<g>
		<path style="fill:#D8C4A9;" d="M7,37c-2.761,0-5,2.238-5,5C2,44.703,4.297,47,7,47c2.456,0,4.488-1.774,4.91-4.108L7,37z"/>
	</g>
	<g>
		<path style="fill:#D8C4A9;" d="M57,37L57,37l-4.91,5.892C52.512,45.226,54.544,47,57,47c2.703,0,5.001-2.297,5-5    C62,39.238,59.761,37,57,37z"/>
	</g>
	<g>
		<polygon style="fill:#CA5057;" points="44.059,29.235 45,33 44,37 48,35 51,39 52,34   "/>
	</g>
	<g>
		<path style="fill:#566164;" d="M37.698,59.83c0.808,1.346,2.263,2.17,3.833,2.17C43.999,62,46,59.999,46,57.531v-0.012    c0-0.345-0.04-0.688-0.119-1.024l-0.631-2.683l-7.698,5.774L37.698,59.83z"/>
	</g>
	<g>
		<path style="fill:#566164;" d="M18.691,54.065l-0.572,2.43C18.04,56.831,18,57.174,18,57.519v0.012C18,59.999,20.001,62,22.469,62    h0c1.57,0,3.025-0.824,3.832-2.17l0.138-0.23L18.691,54.065z"/>
	</g>
	<g>
		<polyline style="fill:#566164;" points="20,50 16,49 14,55 18,56   "/>
	</g>
	<g>
		<polygon style="fill:#566164;" points="44.346,49.971 43.423,46.048 32,47 20.577,46.048 19.654,49.971 32,51   "/>
	</g>
	<g>
		<path style="fill:#566164;" d="M36.922,37.453l-0.859-6.01c1.385-0.389,2.69-0.972,3.882-1.718C39.945,29.725,42,40,42,40    l0.227,0.965c0,0-10.226,1.035-10.226,1.035L21.77,40.989l-0.002-0.001L22,40l2.055-10.275c1.192,0.746,2.496,1.329,3.882,1.717    l-0.859,6.01L32,38L36.922,37.453z"/>
	</g>
	<g>
		<path style="fill:#5A4836;" d="M17,31l-1-5l-6,3l3-8v-7.05c0-3.169,1.259-6.209,3.5-8.45l0,0C18.741,3.259,21.78,2,24.95,2H30l2,2    l2-2h5.05c3.169,0,6.209,1.259,8.45,3.5l0,0c2.241,2.241,3.5,5.28,3.5,8.45V21l3,8l-6-3l-1,5l-4.888-2.933l0.006,0.007    C45.118,25.331,47,21.385,47,17l0-3l-2-5h-8l-5,3l-5-3h-8l-2,5l0,3c0,4.384,1.881,8.329,4.88,11.072C21.88,28.072,17,31,17,31z"/>
	</g>
	<g>
		<path style="fill:#D8C4A9;" d="M47,14l-2-5h-8l-5,3l-5-3h-8l-2,5l0,3c0,8.284,6.716,15,15,15s15-6.716,15-15L47,14z"/>
	</g>
	<g>
		<path style="fill:#3B4546;" d="M46.657,20.171l-2.453,1.227C43.412,21.794,42.539,22,41.654,22H41    c-1.295,0-2.551-0.441-3.562-1.249l-1.877-1.501C34.551,18.441,33.295,18,32,18s-2.551,0.441-3.562,1.249l-1.877,1.501    C25.551,21.559,24.295,22,23,22h-0.654c-0.885,0-1.758-0.206-2.55-0.602l-2.453-1.227C18.799,26.931,24.805,32,32,32    C39.195,32,45.201,26.931,46.657,20.171z"/>
	</g>
	<g>
		<circle style="fill:#ABABAB;" cx="25" cy="16" r="2"/>
	</g>
	<g>
		<circle style="fill:#ABABAB;" cx="39" cy="16" r="2"/>
	</g>
	<g>
		<path d="M41.531,63c-1.911,0-3.708-1.018-4.69-2.655L35.434,58h-6.868l-1.407,2.345C26.177,61.982,24.38,63,22.469,63    C19.454,63,17,60.546,17,57.53c0-0.433,0.049-0.854,0.145-1.264l3.525-14.98l-7.728,1.545C12.537,45.748,10.026,48,7,48    c-3.252,0-6-2.748-6-6c0-3.212,2.537-5.842,5.711-5.993l14.774-8.864l1.029,1.715l-15,9C7.359,37.951,7.181,38,7,38    c-2.206,0-4,1.794-4,4c0,2.168,1.832,4,4,4c2.206,0,4-1.794,4-4c0-0.477,0.336-0.887,0.804-0.98l10-2    c0.335-0.064,0.679,0.042,0.915,0.285c0.237,0.245,0.333,0.593,0.255,0.925l-3.881,16.495C19.031,56.984,19,57.252,19,57.519    C19,59.443,20.556,61,22.469,61c1.212,0,2.352-0.646,2.975-1.685l1.698-2.83C27.323,56.185,27.649,56,28,56h8    c0.351,0,0.677,0.185,0.857,0.485l1.698,2.83C39.179,60.354,40.319,61,41.531,61C43.444,61,45,59.443,45,57.53    c0-0.278-0.031-0.546-0.092-0.807l-3.881-16.494c-0.078-0.332,0.018-0.68,0.255-0.925c0.237-0.244,0.582-0.349,0.915-0.285l10,2    C52.664,41.113,53,41.523,53,42c0,2.206,1.794,4,4,4c2.168,0,4-1.832,4-4c0-2.206-1.794-4-4-4c-0.181,0-0.359-0.049-0.515-0.143    l-15-9l1.029-1.715l14.774,8.864C60.463,36.158,63,38.788,63,42c0,3.252-2.748,6-6,6c-3.026,0-5.536-2.252-5.942-5.169    l-7.728-1.545l3.525,14.979C46.951,56.677,47,57.098,47,57.519C47,60.546,44.546,63,41.531,63z"/>
	</g>
	<g>
		<path d="M17.757,56.97l-4-1c-0.27-0.067-0.5-0.244-0.634-0.488c-0.134-0.244-0.16-0.533-0.072-0.798l2-6    c0.165-0.495,0.679-0.783,1.191-0.653l4,1l-0.485,1.939l-3.102-0.775l-1.366,4.098l2.953,0.738L17.757,56.97z"/>
	</g>
	<g>
		<path d="M32,48c-0.028,0-0.055-0.001-0.083-0.004l-12-1l0.166-1.992L32,45.996l11.917-0.992l0.166,1.992l-12,1    C32.055,47.999,32.028,48,32,48z"/>
	</g>
	<g>
		<path d="M32,52c-0.028,0-0.055-0.001-0.083-0.004l-12-1l0.166-1.992L32,49.996l11.917-0.992l0.166,1.992l-12,1    C32.055,51.999,32.028,52,32,52z"/>
	</g>
	<g>
		<rect x="28" y="47" width="2" height="4"/>
	</g>
	<g>
		<rect x="34" y="47" width="2" height="4"/>
	</g>
	<g>
		<rect x="24" y="46" width="2" height="5"/>
	</g>
	<g>
		<rect x="38" y="46" width="2" height="5"/>
	</g>
	<g>
		<path d="M18.372,56.929l-0.743-1.857l4.712-1.885l1.828-2.741l1.664,1.109l-2,3c-0.112,0.168-0.273,0.299-0.46,0.374    L18.372,56.929z"/>
	</g>
	<g>
		<rect x="22.5" y="53.199" transform="matrix(0.5812 -0.8137 0.8137 0.5812 -36.9488 43.2015)" width="1.999" height="8.602"/>
	</g>
	<g>
		<rect x="36" y="56" transform="matrix(0.7999 -0.6002 0.6002 0.7999 -26.0041 36.0131)" width="10" height="2"/>
	</g>
	<g>
		<rect x="17.901" y="34" transform="matrix(0.1963 -0.9805 0.9805 0.1963 -15.834 50.6819)" width="10.198" height="2"/>
	</g>
	<g>
		<rect x="40" y="29.901" transform="matrix(0.9806 -0.1961 0.1961 0.9806 -6.0679 8.7204)" width="2" height="10.198"/>
	</g>
	<g>
		<path d="M32,39c-0.037,0-0.074-0.002-0.11-0.006l-9-1l0.221-1.988L32,36.994l8.89-0.988l0.221,1.988l-9,1    C32.074,38.998,32.037,39,32,39z"/>
	</g>
	<g>
		<path d="M32,43c-0.033,0-0.066-0.002-0.1-0.005l-10-1l0.199-1.99l9.9,0.99l9.9-0.99l0.199,1.99l-10,1    C32.066,42.998,32.033,43,32,43z"/>
	</g>
	<g>
		<rect x="31" y="38" width="2" height="4"/>
	</g>
	<g>
		<rect x="35" y="37" width="2" height="4"/>
	</g>
	<g>
		<path d="M51,40c-0.311,0-0.609-0.145-0.8-0.4l-2.5-3.332l-3.253,1.627c-0.349,0.173-0.769,0.131-1.073-0.114    c-0.305-0.244-0.439-0.644-0.345-1.022L43.969,33l-0.939-3.758l1.94-0.484l1,4c0.04,0.159,0.04,0.325,0,0.484l-0.473,1.891    l2.055-1.027c0.431-0.216,0.958-0.093,1.247,0.295l1.658,2.21l0.562-2.807l1.961,0.393l-1,5c-0.077,0.387-0.375,0.691-0.759,0.779    C51.147,39.992,51.073,40,51,40z"/>
	</g>
	<g>
		<rect x="50.595" y="39" transform="matrix(0.6405 -0.7679 0.7679 0.6405 -11.126 56.232)" width="7.81" height="2"/>
	</g>
	<g>
		<rect x="8.5" y="36.095" transform="matrix(0.7682 -0.6402 0.6402 0.7682 -23.4055 15.3529)" width="2" height="7.81"/>
	</g>
	<g>
		<path d="M18.001,38c-0.34,0-0.671-0.173-0.858-0.485l-3-5l1.715-1.029l2.485,4.143l4.143-2.485l1.029,1.715l-5,3    C18.354,37.954,18.176,38,18.001,38z"/>
	</g>
	<g>
		<rect x="8.528" y="37" transform="matrix(0.8944 -0.4472 0.4472 0.8944 -15.6217 9.8255)" width="8.944" height="2"/>
	</g>
	<g>
		<path d="M41.654,23H41c-1.516,0-3.003-0.521-4.186-1.468l-1.877-1.502c-1.66-1.328-4.212-1.328-5.874,0l-1.876,1.502    C26.003,22.479,24.516,23,23,23h-0.654c-1.035,0-2.071-0.244-2.997-0.707l-2.796-1.398l0.895-1.789l2.796,1.398    C20.893,20.828,21.62,21,22.346,21H23c1.063,0,2.106-0.366,2.937-1.03l1.876-1.502C28.997,17.521,30.484,17,32,17    s3.003,0.521,4.186,1.468l1.877,1.502C38.894,20.634,39.937,21,41,21h0.654c0.726,0,1.454-0.172,2.104-0.496l2.795-1.398    l0.895,1.789l-2.796,1.398C43.725,22.756,42.688,23,41.654,23z"/>
	</g>
	<g>
		<path d="M25,19c-1.654,0-3-1.346-3-3s1.346-3,3-3s3,1.346,3,3S26.654,19,25,19z M25,15c-0.551,0-1,0.448-1,1s0.449,1,1,1    s1-0.448,1-1S25.551,15,25,15z"/>
	</g>
	<g>
		<rect x="21.5" y="10.95" transform="matrix(0.1961 -0.9806 0.9806 0.1961 4.8495 32.9155)" width="2" height="5.099"/>
	</g>
	<g>
		<path d="M39,19c-1.654,0-3-1.346-3-3s1.346-3,3-3s3,1.346,3,3S40.654,19,39,19z M39,15c-0.551,0-1,0.448-1,1s0.449,1,1,1    s1-0.448,1-1S39.551,15,39,15z"/>
	</g>
	<g>
		<rect x="38.95" y="12.5" transform="matrix(0.9805 -0.1963 0.1963 0.9805 -1.8426 8.4093)" width="5.099" height="2"/>
	</g>
	<g>
		<path d="M32,33c-8.822,0-16-7.178-16-16v-3c0-0.127,0.024-0.253,0.071-0.371l2-5C18.224,8.249,18.591,8,19,8h8    c0.181,0,0.359,0.049,0.515,0.143L32,10.834l4.485-2.691C36.641,8.049,36.819,8,37,8h8c0.409,0,0.776,0.249,0.929,0.629l2,5    C47.976,13.747,48,13.873,48,14v3C48,25.822,40.822,33,32,33z M18,14.192V17c0,7.72,6.28,14,14,14s14-6.28,14-14v-2.808L44.323,10    h-7.046l-4.762,2.857c-0.317,0.189-0.712,0.189-1.029,0L26.723,10h-7.046L18,14.192z"/>
	</g>
	<g>
		<rect x="24.471" y="33.448" transform="matrix(0.1416 -0.9899 0.9899 0.1416 -10.489 56.7991)" width="6.072" height="2"/>
	</g>
	<g>
		<rect x="35.493" y="31.413" transform="matrix(0.99 -0.1414 0.1414 0.99 -4.5043 5.5061)" width="2" height="6.071"/>
	</g>
	<g>
		<path d="M47.98,31.196l-1.961-0.393l1-5c0.061-0.306,0.261-0.565,0.541-0.702c0.28-0.136,0.608-0.136,0.887,0.004l3.722,1.861    l-2.106-5.615C50.021,21.239,50,21.12,50,21v-7.05c0-2.925-1.139-5.675-3.207-7.743C44.725,4.139,41.975,3,39.05,3h-4.636    l-1.707,1.707c-0.391,0.391-1.023,0.391-1.414,0L29.586,3H24.95c-2.925,0-5.674,1.139-7.743,3.207    C15.139,8.275,14,11.025,14,13.95V21c0,0.12-0.021,0.239-0.063,0.352l-2.106,5.615l3.722-1.861c0.279-0.14,0.606-0.14,0.887-0.004    c0.28,0.137,0.48,0.396,0.541,0.702l1,5l-1.961,0.393l-0.743-3.717l-4.829,2.415c-0.367,0.185-0.811,0.124-1.116-0.151    s-0.412-0.709-0.268-1.095L12,20.818V13.95c0-3.459,1.347-6.711,3.793-9.157S21.491,1,24.95,1H30c0.265,0,0.52,0.105,0.707,0.293    L32,2.586l1.293-1.293C33.48,1.105,33.735,1,34,1h5.05c3.459,0,6.711,1.347,9.157,3.793S52,10.491,52,13.95v6.868l2.937,7.83    c0.144,0.386,0.038,0.819-0.268,1.095s-0.749,0.336-1.116,0.151l-4.829-2.415L47.98,31.196z"/>
	</g>
	<g>
		<path d="M27.832,31.555l-1.664-1.109L28,27.697v-2.461l-1.895-3.789l1.789-0.895l2,4C29.964,24.691,30,24.845,30,25v3    c0,0.197-0.059,0.391-0.168,0.555L27.832,31.555z"/>
	</g>
	<g>
		<path d="M36.168,31.555l-2-3C34.059,28.391,34,28.197,34,28v-3c0-0.155,0.036-0.309,0.105-0.447l2-4l1.789,0.895L36,25.236v2.461    l1.832,2.748L36.168,31.555z"/>
	</g>
	<g>
		<path d="M26,30h-2v-3.586l-1.707-1.707C22.105,24.52,22,24.266,22,24v-2h2v1.586l1.707,1.707C25.895,25.48,26,25.734,26,26V30z"/>
	</g>
	<g>
		<path d="M40,30h-2v-4c0-0.266,0.105-0.52,0.293-0.707L40,23.586V22h2v2c0,0.266-0.105,0.52-0.293,0.707L40,26.414V30z"/>
	</g>
	<g>
		<rect x="29" y="27" width="6" height="2"/>
	</g>
	<g>
		<rect x="29" y="23" width="6" height="2"/>
	</g>
</g>
</svg>
