<?xml version="1.0" encoding="iso-8859-1"?>
<!-- Generator: Adobe Illustrator 22.1.0, SVG Export Plug-In . SVG Version: 6.00 Build 0)  -->
<svg xmlns="http://www.w3.org/2000/svg" xmlns:xlink="http://www.w3.org/1999/xlink" version="1.1" id="Layer_3" x="0px" y="0px" viewBox="0 0 64 64" style="enable-background:new 0 0 64 64;" xml:space="preserve" width="512" height="512">
<g>
	<g>
		
			<rect x="3.172" y="51.172" transform="matrix(0.7071 -0.7071 0.7071 0.7071 -36.4264 20.0589)" style="fill:#CA5057;" width="5.657" height="5.657"/>
	</g>
	<g>
		<polygon style="fill:#ABABAB;" points="3,31 6,23 9,31 6,30   "/>
	</g>
	<g>
		<path style="fill:#991D13;" d="M19,40l-7,2c0,2.761-2.238,5-5,5C4.297,47,2,44.703,2,42c0-2.761,2.239-5,5-5l10-4"/>
	</g>
	<g>
		<path style="fill:#991D13;" d="M45,40l7,2c0,2.761,2.238,5,5,5c2.703,0,5.001-2.297,5-5c0-2.761-2.239-5-5-5l-10-4"/>
	</g>
	<g>
		<path style="fill:#88C3F8;" d="M12,42l-4.242-5.303L7,37c-2.761,0-5,2.238-5,5C2,44.703,4.297,47,7,47C9.762,47,12,44.761,12,42    L12,42z"/>
	</g>
	<g>
		<path style="fill:#88C3F8;" d="M62,42c0-2.761-2.239-5-5-5l-0.758-0.303L52,42c0,2.761,2.238,5,5,5C59.703,47,62,44.703,62,42z"/>
	</g>
	<g>
		<path style="fill:#3B4546;" d="M47,52l0.881,4.495C47.96,56.831,48,57.174,48,57.519v0.012C48,59.999,45.999,62,43.531,62h0    c-1.57,0-3.025-0.824-3.833-2.17L37,55l-5-1l-5,1l-2.698,4.83C23.494,61.176,22.039,62,20.469,62h0C18.001,62,16,59.999,16,57.531    v-0.012c0-0.345,0.04-0.688,0.119-1.024L17,52h7l0.667-2h14.667L40,52H47z"/>
	</g>
	<g>
		<path style="fill:#566164;" d="M16.379,55.168l-0.26,1.327C16.04,56.831,16,57.174,16,57.519v0.012C16,59.999,18.001,62,20.469,62    h0c1.57,0,3.025-0.824,3.832-2.17l0.51-0.914L16.379,55.168z"/>
	</g>
	<g>
		<path style="fill:#566164;" d="M43.531,62C45.999,62,48,59.999,48,57.531v-0.012c0-0.345-0.04-0.688-0.119-1.024    c0,0-0.152-0.775-0.26-1.327l-8.433,3.748l0.51,0.914C40.506,61.176,41.961,62,43.531,62L43.531,62z"/>
	</g>
	<g>
		<polyline style="fill:#88C3F8;" points="28,32 32,36 36,32   "/>
	</g>
	<g>
		<path style="fill:#6F5C89;" d="M28,32h-1c-0.69,0-1.364-0.07-2.015-0.203C24.985,31.797,26,46,26,46l-1.333,4h14.667L38,46    l1.015-14.203C38.364,31.93,37.69,32,37,32h-1l-4,4L28,32z"/>
	</g>
	<g>
		<polyline style="fill:#811E18;" points="21.509,29.898 16,31 19,40 19,44 15,52 24,52 26,46 24.97,31.586   "/>
	</g>
	<g>
		<polyline style="fill:#811E18;" points="42.417,29.883 48,31 45,40 45,44 49,52 40,52 38,46 39.058,31.191   "/>
	</g>
	<g>
		<path style="fill:#88C3F8;" d="M36,6h1c5.523,0,10,4.477,10,10v6c0,5.523-4.477,10-10,10H27c-5.523,0-10-4.477-10-10v-6    c0-5.523,4.477-10,10-10h1"/>
	</g>
	<g>
		<path style="fill:#CA5057;" d="M30,16c0,2.761-1.791,5-4,5s-4-2.239-4-5c0-1.156,0.314-2.221,0.841-3.068l0.001,0L30,16z"/>
	</g>
	<g>
		<path style="fill:#CA5057;" d="M34,16c0,2.761,1.791,5,4,5s4-2.239,4-5c0-1.156-0.314-2.221-0.841-3.068l-0.001,0L34,16z"/>
	</g>
	<g>
		<polygon style="fill:#CA5057;" points="29,2 35,2 37,9 27,9   "/>
	</g>
	<g>
		<path d="M7,48c-3.252,0-6-2.748-6-6c0-3.241,2.583-5.891,5.799-5.997l9.829-3.932l0.743,1.857l-10,4C7.253,37.976,7.127,38,7,38    c-2.206,0-4,1.794-4,4c0,2.168,1.832,4,4,4c2.206,0,4-1.794,4-4c0-0.446,0.296-0.839,0.725-0.962l7-2l0.55,1.924l-6.324,1.807    C12.573,45.715,10.048,48,7,48z"/>
	</g>
	<g>
		<path d="M26,22c-2.757,0-5-2.691-5-6c0-1.31,0.343-2.553,0.992-3.597c0.261-0.418,0.789-0.586,1.243-0.391l7.159,3.068    C30.762,15.238,31,15.6,31,16C31,19.309,28.757,22,26,22z M23.316,14.224C23.11,14.773,23,15.382,23,16c0,2.206,1.346,4,3,4    c1.49,0,2.73-1.456,2.961-3.357L23.316,14.224z"/>
	</g>
	<g>
		<path d="M38,22c-2.757,0-5-2.691-5-6c0-0.4,0.238-0.762,0.606-0.919l7.158-3.067c0.454-0.194,0.981-0.029,1.243,0.39    C42.657,13.446,43,14.689,43,16C43,19.309,40.757,22,38,22z M35.039,16.643C35.27,18.544,36.51,20,38,20c1.654,0,3-1.794,3-4    c0-0.628-0.107-1.229-0.314-1.777L35.039,16.643z"/>
	</g>
	<g>
		<path d="M37,33H27c-6.065,0-11-4.935-11-11v-6c0-6.065,4.935-11,11-11h1v2h-1c-4.962,0-9,4.037-9,9v6c0,4.963,4.038,9,9,9h10    c4.962,0,9-4.037,9-9v-6c0-4.963-4.038-9-9-9h-1V5h1c6.065,0,11,4.935,11,11v6C48,28.065,43.065,33,37,33z"/>
	</g>
	<g>
		<path d="M37,10H27c-0.314,0-0.609-0.147-0.798-0.397c-0.189-0.251-0.25-0.575-0.163-0.877l2-7C28.161,1.296,28.554,1,29,1h6    c0.446,0,0.839,0.296,0.961,0.726l2,7c0.086,0.302,0.026,0.626-0.163,0.877C37.609,9.853,37.314,10,37,10z M28.326,8h7.349    l-1.429-5h-4.491L28.326,8z"/>
	</g>
	<g>
		<rect x="19.5" y="52.076" transform="matrix(0.4061 -0.9138 0.9138 0.4061 -39.9131 52.5832)" width="2.001" height="9.849"/>
	</g>
	<g>
		<rect x="38.576" y="56" transform="matrix(0.9138 -0.4061 0.4061 0.9138 -19.4007 22.5798)" width="9.849" height="2.001"/>
	</g>
	<g>
		<path d="M24,53h-9c-0.347,0-0.668-0.18-0.851-0.475s-0.199-0.663-0.044-0.973L18,43.764v-3.602l-2.949-8.846    c-0.091-0.272-0.06-0.57,0.084-0.818s0.387-0.423,0.668-0.479l5-1l0.393,1.961l-3.889,0.778l2.642,7.925    C19.983,39.786,20,39.893,20,40v4c0,0.155-0.036,0.309-0.105,0.447L16.618,51h6.661l1.709-5.127l-0.986-13.802l1.995-0.143l1,14    c0.009,0.131-0.007,0.263-0.049,0.388l-2,6C24.812,52.725,24.431,53,24,53z"/>
	</g>
	<g>
		<path d="M57,48c-3.048,0-5.572-2.285-5.951-5.231l-6.324-1.807l0.55-1.924l7,2C52.704,41.161,53,41.554,53,42c0,2.206,1.794,4,4,4    c2.168,0,4-1.832,4-4c0-2.206-1.794-4-4-4c-0.127,0-0.253-0.024-0.372-0.071l-10-4l0.743-1.857l9.829,3.932    C60.417,36.109,63,38.759,63,42C63,45.252,60.252,48,57,48z"/>
	</g>
	<g>
		<path d="M49,53h-9c-0.431,0-0.812-0.275-0.949-0.684l-2-6c-0.042-0.125-0.058-0.257-0.049-0.388l1-14l1.995,0.143l-0.986,13.802    L40.721,51h6.661l-3.276-6.553C44.036,44.309,44,44.155,44,44v-4c0-0.107,0.017-0.214,0.051-0.316l2.642-7.925l-3.889-0.778    l0.393-1.961l5,1c0.281,0.056,0.524,0.23,0.668,0.479s0.175,0.546,0.084,0.818L46,40.162v3.602l3.895,7.789    c0.155,0.31,0.138,0.678-0.044,0.973S49.347,53,49,53z"/>
	</g>
	<g>
		<path d="M32,37c-0.256,0-0.512-0.098-0.707-0.293l-4-4l1.414-1.414L32,34.586l3.293-3.293l1.414,1.414l-4,4    C32.512,36.902,32.256,37,32,37z"/>
	</g>
	<g>
		<rect x="9" y="36.298" transform="matrix(0.7809 -0.6247 0.6247 0.7809 -22.4841 14.9026)" width="2" height="6.403"/>
	</g>
	<g>
		<rect x="50.798" y="38.5" transform="matrix(0.6249 -0.7807 0.7807 0.6249 -10.5832 56.9718)" width="6.403" height="2"/>
	</g>
	<g>
		<rect x="26" y="45" width="12" height="2"/>
	</g>
	<g>
		<rect x="25" y="49" width="14" height="2"/>
	</g>
	<g>
		<path d="M43.531,63c-1.911,0-3.708-1.018-4.69-2.655l-2.489-4.454L32,55.02l-4.352,0.871l-2.473,4.427    C24.177,61.982,22.38,63,20.469,63C17.454,63,15,60.546,15,57.53c0-0.433,0.049-0.854,0.145-1.264l0.874-4.459l1.963,0.385    L17.1,56.688c-0.069,0.297-0.1,0.564-0.1,0.831C17,59.443,18.556,61,20.469,61c1.212,0,2.352-0.646,2.975-1.685l2.683-4.803    c0.143-0.256,0.39-0.436,0.677-0.493l5-1c0.13-0.025,0.263-0.025,0.393,0l5,1c0.287,0.058,0.534,0.237,0.677,0.493l2.698,4.83    C41.179,60.354,42.319,61,43.531,61C45.444,61,47,59.443,47,57.53c0-0.278-0.031-0.546-0.092-0.807l-0.889-4.531l1.963-0.385    l0.881,4.495C48.951,56.677,49,57.098,49,57.519C49,60.546,46.546,63,43.531,63z"/>
	</g>
	<g>
		<rect x="29" y="46" width="2" height="4"/>
	</g>
	<g>
		<rect x="33" y="46" width="2" height="4"/>
	</g>
	<g>
		<path d="M39,41H29c-0.216,0-0.427-0.07-0.6-0.2l-4-3l1.2-1.6l3.733,2.8H39V41z"/>
	</g>
	<g>
		<rect x="29" y="39.838" transform="matrix(0.9487 -0.3162 0.3162 0.9487 -12.0583 11.6935)" width="2" height="6.325"/>
	</g>
	<g>
		<rect x="31" y="29" width="2" height="3"/>
	</g>
	<g>
		<path d="M27,32h-2v-2c0-0.334,0.167-0.646,0.445-0.832l3-2l1.109,1.664L27,30.535V32z"/>
	</g>
	<g>
		<path d="M39,32h-2v-1.465l-2.555-1.703l1.109-1.664l3,2C38.833,29.354,39,29.666,39,30V32z"/>
	</g>
	<g>
		<path d="M9,32c-0.106,0-0.212-0.017-0.316-0.052L6,31.054l-2.684,0.895c-0.367,0.123-0.769,0.023-1.037-0.254    c-0.267-0.278-0.352-0.685-0.216-1.046l3-8C5.21,22.259,5.583,22,6,22s0.79,0.259,0.937,0.648l3,8    c0.135,0.361,0.051,0.768-0.216,1.046C9.528,31.893,9.267,32,9,32z M6,29c0.107,0,0.213,0.018,0.316,0.052l1.011,0.337L6,25.848    l-1.328,3.541l1.011-0.337C5.787,29.018,5.893,29,6,29z"/>
	</g>
	<g>
		<rect x="5" y="47" width="2" height="13"/>
	</g>
	<g>
		<rect x="5" y="30" width="2" height="7"/>
	</g>
	<g>
		<path d="M5.293,58.707l-4-4c-0.391-0.391-0.391-1.023,0-1.414l4-4l1.414,1.414L3.414,54l3.293,3.293L5.293,58.707z"/>
	</g>
	<g>
		<path d="M6.707,58.707l-1.414-1.414L8.586,54l-3.293-3.293l1.414-1.414l4,4c0.391,0.391,0.391,1.023,0,1.414L6.707,58.707z"/>
	</g>
	<g>
		<rect x="28" y="24" width="8" height="2"/>
	</g>
	<g>
		<circle cx="26.5" cy="17.5" r="1.5"/>
	</g>
	<g>
		<circle cx="37.5" cy="17.5" r="1.5"/>
	</g>
</g>
</svg>
